M48
; DRILL file {KiCad (5.1.6)-1} date 08/17/20 20:51:19
; FORMAT={-:-/ absolute / inch / decimal}
; #@! TF.CreationDate,2020-08-17T20:51:19+02:00
; #@! TF.GenerationSoftware,Kicad,Pcbnew,(5.1.6)-1
; #@! TF.FileFunction,Plated,1,2,PTH
FMAT,2
INCH
T1C0.0157
T2C0.0394
T3C0.1063
%
G90
G05
T1
X3.7795Y-3.3378
X3.7795Y-3.4378
X3.7795Y-3.5378
X3.7795Y-3.6378
X3.7795Y-3.7378
X3.7795Y-3.8378
X3.7795Y-3.9378
X3.7795Y-4.0378
X3.7795Y-4.1378
X3.7795Y-4.2378
X3.7795Y-4.3378
X3.7795Y-4.4378
X3.7795Y-4.5378
X3.7795Y-4.6378
X3.7795Y-4.7378
X3.7795Y-4.8378
X3.7795Y-4.9378
X3.8295Y-3.2878
X3.8295Y-3.3878
X3.8295Y-3.4878
X3.8295Y-3.5878
X3.8295Y-3.6878
X3.8295Y-3.7878
X3.8295Y-3.8878
X3.8295Y-3.9878
X3.8295Y-4.0878
X3.8295Y-4.1878
X3.8295Y-4.2878
X3.8295Y-4.3878
X3.8295Y-4.4878
X3.8295Y-4.5878
X3.8295Y-4.6878
X3.8295Y-4.7878
X3.8295Y-4.8878
X3.8795Y-3.3378
X3.8795Y-3.4378
X3.8795Y-3.5378
X3.8795Y-3.6378
X3.8795Y-3.7378
X3.8795Y-3.8378
X3.8795Y-3.9378
X3.8795Y-4.0378
X3.8795Y-4.1378
X3.8795Y-4.2378
X3.8795Y-4.3378
X3.8795Y-4.4378
X3.8795Y-4.5378
X3.8795Y-4.6378
X3.8795Y-4.7378
X3.8795Y-4.8378
X3.8795Y-4.9378
X3.9795Y-4.6378
X3.9795Y-4.7378
X3.9795Y-4.8378
X3.9795Y-4.9378
X3.9795Y-5.0378
X3.9795Y-5.1378
X4.0295Y-5.0878
X4.0795Y-3.0378
X4.0795Y-4.5378
X4.0795Y-4.7378
X4.0795Y-4.8378
X4.0795Y-4.9378
X4.0795Y-5.0378
X4.0795Y-5.1378
X4.1295Y-5.0878
X4.1795Y-3.0378
X4.1795Y-3.3378
X4.1795Y-3.4378
X4.1795Y-3.5378
X4.1795Y-3.6378
X4.1795Y-3.7378
X4.1795Y-3.8378
X4.1795Y-3.9378
X4.1795Y-4.0378
X4.1795Y-4.1378
X4.1795Y-4.2378
X4.1795Y-4.3378
X4.1795Y-4.4378
X4.1795Y-4.5378
X4.1795Y-4.6378
X4.1795Y-4.8378
X4.1795Y-4.9378
X4.1795Y-5.0378
X4.1795Y-5.1378
X4.2295Y-5.0878
X4.2795Y-3.8378
X4.2795Y-3.9378
X4.2795Y-4.0378
X4.2795Y-4.1378
X4.2795Y-4.2378
X4.2795Y-4.3378
X4.2795Y-4.4378
X4.2795Y-4.5378
X4.2795Y-4.6378
X4.2795Y-4.7378
X4.2795Y-4.8378
X4.2795Y-4.9378
X4.2795Y-5.0378
X4.2795Y-5.1378
X4.3295Y-5.0878
X4.3795Y-3.3378
X4.3795Y-3.4378
X4.3795Y-3.5378
X4.3795Y-3.6378
X4.3795Y-3.7378
X4.3795Y-3.8378
X4.3795Y-3.9378
X4.3795Y-4.0378
X4.3795Y-4.1378
X4.3795Y-4.2378
X4.3795Y-4.3378
X4.3795Y-4.4378
X4.3795Y-4.5378
X4.3795Y-4.6378
X4.3795Y-4.7378
X4.3795Y-4.8378
X4.3795Y-4.9378
X4.3795Y-5.0378
X4.3795Y-5.1378
X4.4295Y-5.0878
X4.4795Y-3.4378
X4.4795Y-3.5378
X4.4795Y-3.6378
X4.4795Y-3.7378
X4.4795Y-3.8378
X4.4795Y-3.9378
X4.4795Y-4.0378
X4.4795Y-4.1378
X4.4795Y-4.2378
X4.4795Y-4.3378
X4.4795Y-4.4378
X4.4795Y-4.5378
X4.4795Y-4.6378
X4.4795Y-4.7378
X4.4795Y-4.8378
X4.4795Y-4.9378
X4.4795Y-5.0378
X4.4795Y-5.1378
X4.5295Y-5.0878
X4.5595Y-3.3378
X4.5795Y-3.0378
X4.5795Y-3.1378
X4.5795Y-3.5378
X4.5795Y-3.6378
X4.5795Y-3.7378
X4.5795Y-3.8378
X4.5795Y-3.9378
X4.5795Y-4.0378
X4.5795Y-4.1378
X4.5795Y-4.2378
X4.5795Y-4.3378
X4.5795Y-4.4378
X4.5795Y-4.5378
X4.5795Y-4.6378
X4.5795Y-4.7378
X4.5795Y-4.8378
X4.5795Y-4.9378
X4.5795Y-5.0378
X4.5795Y-5.1378
X4.6295Y-5.0878
X4.6595Y-3.3378
X4.6595Y-3.4378
X4.6795Y-3.0378
X4.6795Y-3.1378
X4.6795Y-3.6378
X4.6795Y-3.7378
X4.6795Y-3.8378
X4.6795Y-3.9378
X4.6795Y-4.0378
X4.6795Y-4.1378
X4.6795Y-4.2378
X4.6795Y-4.3378
X4.6795Y-4.4378
X4.6795Y-4.5378
X4.6795Y-4.6378
X4.6795Y-4.7378
X4.6795Y-4.8378
X4.6795Y-4.9378
X4.6795Y-5.0378
X4.6795Y-5.1378
X4.7295Y-5.0878
X4.7795Y-3.0378
X4.7795Y-3.1378
X4.7795Y-4.9378
X4.7795Y-5.0378
X4.7795Y-5.1378
X4.8295Y-5.0878
X4.8795Y-3.0378
X4.8795Y-3.1378
X4.8795Y-4.9378
X4.8795Y-5.0378
X4.8795Y-5.1378
X4.9295Y-5.0878
X4.9795Y-3.0378
X4.9795Y-3.1378
X4.9795Y-3.3378
X4.9795Y-3.4378
X4.9795Y-3.5378
X4.9795Y-3.6378
X4.9795Y-3.7378
X4.9795Y-3.8378
X4.9795Y-3.9378
X4.9795Y-4.1378
X4.9795Y-4.2378
X4.9795Y-4.3378
X4.9795Y-4.4378
X4.9795Y-4.5378
X4.9795Y-4.6378
X4.9795Y-4.7378
X4.9795Y-4.8378
X4.9795Y-4.9378
X4.9795Y-5.0378
X4.9795Y-5.1378
X5.0095Y-4.0378
X5.0295Y-5.0878
X5.0795Y-3.0378
X5.0795Y-3.1378
X5.0795Y-4.5378
X5.0795Y-4.6378
X5.0795Y-4.7378
X5.0795Y-4.8378
X5.0795Y-4.9378
X5.0795Y-5.0378
X5.0795Y-5.1378
X5.1295Y-3.2578
X5.1295Y-5.0878
X5.1795Y-3.0378
X5.1795Y-4.5378
X5.1795Y-4.6378
X5.1795Y-4.7378
X5.1795Y-4.8378
X5.1795Y-4.9378
X5.1795Y-5.0378
X5.1795Y-5.1378
X5.2295Y-3.3378
X5.2295Y-3.4378
X5.2295Y-5.0878
X5.2795Y-3.0378
X5.2795Y-3.5378
X5.2795Y-3.9378
X5.2795Y-4.0378
X5.2795Y-4.1378
X5.2795Y-4.2378
X5.2795Y-4.3378
X5.2795Y-4.4378
X5.2795Y-4.5378
X5.2795Y-4.6378
X5.2795Y-4.7378
X5.2795Y-4.8378
X5.2795Y-4.9378
X5.2795Y-5.0378
X5.2795Y-5.1378
X5.3295Y-5.0878
X5.3795Y-3.0378
X5.3795Y-3.1378
X5.3795Y-3.3378
X5.3795Y-3.4378
X5.3795Y-3.7378
X5.3795Y-3.8378
X5.3795Y-3.9378
X5.3795Y-4.0378
X5.3795Y-4.1378
X5.3795Y-4.2378
X5.3795Y-4.3378
X5.3795Y-4.4378
X5.3795Y-4.5378
X5.3795Y-4.6378
X5.3795Y-4.7378
X5.3795Y-4.8378
X5.3795Y-4.9378
X5.3795Y-5.0378
X5.3795Y-5.1378
X5.4295Y-5.0878
X5.4795Y-3.0378
X5.4795Y-3.1378
X5.4795Y-3.3378
X5.4795Y-3.4378
X5.4795Y-3.6378
X5.4795Y-3.7378
X5.4795Y-3.8378
X5.4795Y-3.9378
X5.4795Y-4.0378
X5.4795Y-4.1378
X5.4795Y-4.2378
X5.4795Y-4.3378
X5.4795Y-4.4378
X5.4795Y-4.5378
X5.4795Y-4.6378
X5.4795Y-4.7378
X5.4795Y-4.8378
X5.4795Y-4.9378
X5.4795Y-5.0378
X5.4795Y-5.1378
X5.5295Y-5.0878
X5.5795Y-3.3378
X5.5795Y-3.5378
X5.5795Y-3.6378
X5.5795Y-3.7378
X5.5795Y-3.8378
X5.5795Y-3.9378
X5.5795Y-4.0378
X5.5795Y-4.1378
X5.5795Y-4.2378
X5.5795Y-4.3378
X5.5795Y-4.4378
X5.5795Y-4.5378
X5.5795Y-4.6378
X5.5795Y-4.7378
X5.5795Y-4.8378
X5.5795Y-4.9378
X5.5795Y-5.0378
X5.5795Y-5.1378
X5.6295Y-5.0878
X5.6795Y-3.1378
X5.6795Y-3.3378
X5.6795Y-3.4378
X5.6795Y-3.5378
X5.6795Y-3.6378
X5.6795Y-3.7378
X5.6795Y-3.8378
X5.6795Y-3.9378
X5.6795Y-4.0378
X5.6795Y-4.1378
X5.6795Y-4.2378
X5.6795Y-4.3378
X5.6795Y-4.4378
X5.6795Y-4.5378
X5.6795Y-4.6378
X5.6795Y-4.7378
X5.6795Y-4.8378
X5.6795Y-4.9378
X5.6795Y-5.0378
X5.6795Y-5.1378
X5.7295Y-5.0878
X5.7795Y-3.5378
X5.7795Y-3.6378
X5.7795Y-3.7378
X5.7795Y-3.8378
X5.7795Y-3.9378
X5.7795Y-4.0378
X5.7795Y-4.1378
X5.7795Y-4.2378
X5.7795Y-4.3378
X5.7795Y-4.4378
X5.7795Y-4.5378
X5.7795Y-4.6378
X5.7795Y-4.7378
X5.7795Y-4.8378
X5.7795Y-4.9378
X5.7795Y-5.0378
X5.7795Y-5.1378
X5.8295Y-5.0878
X5.8795Y-4.9378
X5.8795Y-5.0378
X5.8795Y-5.1378
X5.9295Y-5.0878
X5.9795Y-4.9378
X5.9795Y-5.0378
X5.9795Y-5.1378
X6.0795Y-3.3378
X6.0795Y-3.4378
X6.0795Y-3.5378
X6.0795Y-3.6378
X6.0795Y-3.7378
X6.0795Y-3.8378
X6.0795Y-3.9378
X6.0795Y-4.0378
X6.0795Y-4.1378
X6.0795Y-4.2378
X6.0795Y-4.3378
X6.0795Y-4.4378
X6.0795Y-4.5378
X6.0795Y-4.6378
X6.0795Y-4.7378
X6.0795Y-4.8378
X6.0795Y-4.9378
X6.1295Y-3.2878
X6.1295Y-3.3878
X6.1295Y-3.4878
X6.1295Y-3.5878
X6.1295Y-3.6878
X6.1295Y-3.7878
X6.1295Y-3.8878
X6.1295Y-3.9878
X6.1295Y-4.0878
X6.1295Y-4.1878
X6.1295Y-4.2878
X6.1295Y-4.3878
X6.1295Y-4.4878
X6.1295Y-4.5878
X6.1295Y-4.6878
X6.1295Y-4.7878
X6.1295Y-4.8878
X6.1795Y-3.3378
X6.1795Y-3.4378
X6.1795Y-3.5378
X6.1795Y-3.6378
X6.1795Y-3.7378
X6.1795Y-3.8378
X6.1795Y-3.9378
X6.1795Y-4.0378
X6.1795Y-4.1378
X6.1795Y-4.2378
X6.1795Y-4.3378
X6.1795Y-4.4378
X6.1795Y-4.5378
X6.1795Y-4.6378
X6.1795Y-4.7378
X6.1795Y-4.8378
X6.1795Y-4.9378
T2
X4.0295Y-3.0878
X4.0295Y-3.1878
X4.1295Y-3.0878
X4.1295Y-3.1878
X4.2295Y-3.0878
X4.2295Y-3.1878
X4.3295Y-3.0878
X4.3295Y-3.1878
X4.4295Y-3.0878
X4.4295Y-3.1878
X4.5295Y-3.0878
X4.5295Y-3.1878
X4.6295Y-3.0878
X4.6295Y-3.1878
X4.7295Y-3.0878
X4.7295Y-3.1878
X4.8295Y-3.0878
X4.8295Y-3.1878
X4.9295Y-3.0878
X4.9295Y-3.1878
X5.0295Y-3.0878
X5.0295Y-3.1878
X5.1295Y-3.0878
X5.1295Y-3.1878
X5.2295Y-3.0878
X5.2295Y-3.1878
X5.3295Y-3.0878
X5.3295Y-3.1878
X5.4295Y-3.0878
X5.4295Y-3.1878
X5.5295Y-3.0878
X5.5295Y-3.1878
X5.6295Y-3.0878
X5.6295Y-3.1878
X5.7295Y-3.0878
X5.7295Y-3.1878
X5.8295Y-3.0878
X5.8295Y-3.1878
X5.9295Y-3.0878
X5.9295Y-3.1878
X4.8295Y-3.3378
X4.8295Y-3.4378
X4.8295Y-3.5378
X4.8295Y-3.6378
X4.8295Y-3.7378
X4.8295Y-3.8378
X4.8295Y-3.9378
X4.8295Y-4.0378
X4.8295Y-4.1378
X4.8295Y-4.2378
X4.8295Y-4.3378
X4.8295Y-4.4378
X4.8295Y-4.5378
X4.8295Y-4.6378
X4.8295Y-4.7378
X4.8295Y-4.8378
X5.9295Y-3.3378
X5.9295Y-3.4378
X5.9295Y-3.5378
X5.9295Y-3.6378
X5.9295Y-3.7378
X5.9295Y-3.8378
X5.9295Y-3.9378
X5.9295Y-4.0378
X5.9295Y-4.1378
X5.9295Y-4.2378
X5.9295Y-4.3378
X5.9295Y-4.4378
X5.9295Y-4.5378
X5.9295Y-4.6378
X5.9295Y-4.7378
X5.9295Y-4.8378
X4.0295Y-3.3378
X4.0295Y-3.4378
X4.0295Y-3.5378
X4.0295Y-3.6378
X4.0295Y-3.7378
X4.0295Y-3.8378
X4.0295Y-3.9378
X4.0295Y-4.0378
X4.0295Y-4.1378
X4.0295Y-4.2378
X4.0295Y-4.3378
X4.0295Y-4.4378
X5.1295Y-3.3378
X5.1295Y-3.4378
X5.1295Y-3.5378
X5.1295Y-3.6378
X5.1295Y-3.7378
X5.1295Y-3.8378
X5.1295Y-3.9378
X5.1295Y-4.0378
X5.1295Y-4.1378
X5.1295Y-4.2378
X5.1295Y-4.3378
X5.1295Y-4.4378
T3
X3.8378Y-3.1378
X6.1213Y-5.0669
X6.1213Y-3.1378
X3.8378Y-5.0669
T0
M30
