%TF.GenerationSoftware,KiCad,Pcbnew,(5.1.6)-1*%
%TF.CreationDate,2020-08-17T20:49:59+02:00*%
%TF.ProjectId,PiToFeather,5069546f-4665-4617-9468-65722e6b6963,rev?*%
%TF.SameCoordinates,Original*%
%TF.FileFunction,Copper,L2,Bot*%
%TF.FilePolarity,Positive*%
%FSLAX46Y46*%
G04 Gerber Fmt 4.6, Leading zero omitted, Abs format (unit mm)*
G04 Created by KiCad (PCBNEW (5.1.6)-1) date 2020-08-17 20:49:59*
%MOMM*%
%LPD*%
G01*
G04 APERTURE LIST*
%TA.AperFunction,ComponentPad*%
%ADD10C,5.400000*%
%TD*%
%TA.AperFunction,ComponentPad*%
%ADD11O,1.700000X1.700000*%
%TD*%
%TA.AperFunction,ComponentPad*%
%ADD12R,1.700000X1.700000*%
%TD*%
%TA.AperFunction,ViaPad*%
%ADD13C,0.800000*%
%TD*%
%TA.AperFunction,Conductor*%
%ADD14C,0.250000*%
%TD*%
%TA.AperFunction,Conductor*%
%ADD15C,0.400000*%
%TD*%
%TA.AperFunction,Conductor*%
%ADD16C,0.254000*%
%TD*%
G04 APERTURE END LIST*
D10*
%TO.P,H4,1*%
%TO.N,GND*%
X97480000Y-128700000D03*
%TD*%
%TO.P,H3,1*%
%TO.N,GND*%
X155480000Y-128700000D03*
%TD*%
%TO.P,H2,1*%
%TO.N,GND*%
X155480000Y-79700000D03*
%TD*%
%TO.P,H1,1*%
%TO.N,GND*%
X97480000Y-79700000D03*
%TD*%
D11*
%TO.P,U1,40*%
%TO.N,PCM_DOUT*%
X150610000Y-78430000D03*
%TO.P,U1,39*%
%TO.N,GND*%
X150610000Y-80970000D03*
%TO.P,U1,38*%
%TO.N,PCM_DIN*%
X148070000Y-78430000D03*
%TO.P,U1,37*%
%TO.N,N/C*%
X148070000Y-80970000D03*
%TO.P,U1,36*%
X145530000Y-78430000D03*
%TO.P,U1,35*%
%TO.N,PCM_FS*%
X145530000Y-80970000D03*
%TO.P,U1,34*%
%TO.N,GND*%
X142990000Y-78430000D03*
%TO.P,U1,33*%
%TO.N,PWM1*%
X142990000Y-80970000D03*
%TO.P,U1,32*%
%TO.N,PWM0*%
X140450000Y-78430000D03*
%TO.P,U1,31*%
%TO.N,CLK2*%
X140450000Y-80970000D03*
%TO.P,U1,30*%
%TO.N,GND*%
X137910000Y-78430000D03*
%TO.P,U1,29*%
%TO.N,CLK1*%
X137910000Y-80970000D03*
%TO.P,U1,28*%
%TO.N,ID_SC*%
X135370000Y-78430000D03*
%TO.P,U1,27*%
%TO.N,ID_SD*%
X135370000Y-80970000D03*
%TO.P,U1,26*%
%TO.N,CE1*%
X132830000Y-78430000D03*
%TO.P,U1,25*%
%TO.N,GND*%
X132830000Y-80970000D03*
%TO.P,U1,24*%
%TO.N,CE0*%
X130290000Y-78430000D03*
%TO.P,U1,23*%
%TO.N,SCK*%
X130290000Y-80970000D03*
%TO.P,U1,22*%
%TO.N,N/C*%
X127750000Y-78430000D03*
%TO.P,U1,21*%
%TO.N,MISO*%
X127750000Y-80970000D03*
%TO.P,U1,20*%
%TO.N,GND*%
X125210000Y-78430000D03*
%TO.P,U1,19*%
%TO.N,MOSI*%
X125210000Y-80970000D03*
%TO.P,U1,18*%
%TO.N,N/C*%
X122670000Y-78430000D03*
%TO.P,U1,17*%
%TO.N,+3V3*%
X122670000Y-80970000D03*
%TO.P,U1,16*%
%TO.N,N/C*%
X120130000Y-78430000D03*
%TO.P,U1,15*%
X120130000Y-80970000D03*
%TO.P,U1,14*%
%TO.N,GND*%
X117590000Y-78430000D03*
%TO.P,U1,13*%
%TO.N,N/C*%
X117590000Y-80970000D03*
%TO.P,U1,12*%
%TO.N,PCM_CLK*%
X115050000Y-78430000D03*
%TO.P,U1,11*%
%TO.N,N/C*%
X115050000Y-80970000D03*
%TO.P,U1,10*%
%TO.N,RX*%
X112510000Y-78430000D03*
%TO.P,U1,9*%
%TO.N,GND*%
X112510000Y-80970000D03*
%TO.P,U1,8*%
%TO.N,TX*%
X109970000Y-78430000D03*
%TO.P,U1,7*%
%TO.N,CLK0*%
X109970000Y-80970000D03*
%TO.P,U1,6*%
%TO.N,GND*%
X107430000Y-78430000D03*
%TO.P,U1,5*%
%TO.N,SCL*%
X107430000Y-80970000D03*
%TO.P,U1,4*%
%TO.N,+5V*%
X104890000Y-78430000D03*
%TO.P,U1,3*%
%TO.N,SDA*%
X104890000Y-80970000D03*
%TO.P,U1,2*%
%TO.N,+5V*%
X102350000Y-78430000D03*
D12*
%TO.P,U1,1*%
%TO.N,+3V3*%
X102350000Y-80970000D03*
%TD*%
D11*
%TO.P,U4,12*%
%TO.N,SDA*%
X130290000Y-84780000D03*
%TO.P,U4,11*%
%TO.N,SCL*%
X130290000Y-87320000D03*
%TO.P,U4,10*%
%TO.N,CE0*%
X130290000Y-89860000D03*
%TO.P,U4,9*%
%TO.N,CE1*%
X130290000Y-92400000D03*
%TO.P,U4,8*%
%TO.N,ID_SD*%
X130290000Y-94940000D03*
%TO.P,U4,7*%
%TO.N,PCM_CLK*%
X130290000Y-97480000D03*
%TO.P,U4,6*%
%TO.N,PCM_FS*%
X130290000Y-100020000D03*
%TO.P,U4,5*%
%TO.N,PCM_DIN*%
X130290000Y-102560000D03*
%TO.P,U4,4*%
%TO.N,PCM_DOUT*%
X130290000Y-105100000D03*
%TO.P,U4,3*%
%TO.N,+5V*%
X130290000Y-107640000D03*
%TO.P,U4,2*%
%TO.N,N/C*%
X130290000Y-110180000D03*
D12*
%TO.P,U4,1*%
X130290000Y-112720000D03*
%TD*%
D11*
%TO.P,U5,16*%
%TO.N,GND*%
X150610000Y-84780000D03*
%TO.P,U5,15*%
%TO.N,TX*%
X150610000Y-87320000D03*
%TO.P,U5,14*%
%TO.N,RX*%
X150610000Y-89860000D03*
%TO.P,U5,13*%
%TO.N,MISO*%
X150610000Y-92400000D03*
%TO.P,U5,12*%
%TO.N,MOSI*%
X150610000Y-94940000D03*
%TO.P,U5,11*%
%TO.N,SCK*%
X150610000Y-97480000D03*
%TO.P,U5,10*%
%TO.N,ID_SC*%
X150610000Y-100020000D03*
%TO.P,U5,9*%
%TO.N,CLK2*%
X150610000Y-102560000D03*
%TO.P,U5,8*%
%TO.N,CLK1*%
X150610000Y-105100000D03*
%TO.P,U5,7*%
%TO.N,CLK0*%
X150610000Y-107640000D03*
%TO.P,U5,6*%
%TO.N,PWM1*%
X150610000Y-110180000D03*
%TO.P,U5,5*%
%TO.N,PWM0*%
X150610000Y-112720000D03*
%TO.P,U5,4*%
%TO.N,GND*%
X150610000Y-115260000D03*
%TO.P,U5,3*%
%TO.N,N/C*%
X150610000Y-117800000D03*
%TO.P,U5,2*%
%TO.N,+3V3*%
X150610000Y-120340000D03*
D12*
%TO.P,U5,1*%
%TO.N,N/C*%
X150610000Y-122880000D03*
%TD*%
D11*
%TO.P,U3,16*%
%TO.N,GND*%
X122670000Y-84780000D03*
%TO.P,U3,15*%
%TO.N,TX*%
X122670000Y-87320000D03*
%TO.P,U3,14*%
%TO.N,RX*%
X122670000Y-89860000D03*
%TO.P,U3,13*%
%TO.N,MISO*%
X122670000Y-92400000D03*
%TO.P,U3,12*%
%TO.N,MOSI*%
X122670000Y-94940000D03*
%TO.P,U3,11*%
%TO.N,SCK*%
X122670000Y-97480000D03*
%TO.P,U3,10*%
%TO.N,ID_SC*%
X122670000Y-100020000D03*
%TO.P,U3,9*%
%TO.N,CLK2*%
X122670000Y-102560000D03*
%TO.P,U3,8*%
%TO.N,CLK1*%
X122670000Y-105100000D03*
%TO.P,U3,7*%
%TO.N,CLK0*%
X122670000Y-107640000D03*
%TO.P,U3,6*%
%TO.N,PWM1*%
X122670000Y-110180000D03*
%TO.P,U3,5*%
%TO.N,PWM0*%
X122670000Y-112720000D03*
%TO.P,U3,4*%
%TO.N,GND*%
X122670000Y-115260000D03*
%TO.P,U3,3*%
%TO.N,N/C*%
X122670000Y-117800000D03*
%TO.P,U3,2*%
%TO.N,+3V3*%
X122670000Y-120340000D03*
D12*
%TO.P,U3,1*%
%TO.N,N/C*%
X122670000Y-122880000D03*
%TD*%
D11*
%TO.P,U2,12*%
%TO.N,SDA*%
X102350000Y-84780000D03*
%TO.P,U2,11*%
%TO.N,SCL*%
X102350000Y-87320000D03*
%TO.P,U2,10*%
%TO.N,CE0*%
X102350000Y-89860000D03*
%TO.P,U2,9*%
%TO.N,CE1*%
X102350000Y-92400000D03*
%TO.P,U2,8*%
%TO.N,ID_SD*%
X102350000Y-94940000D03*
%TO.P,U2,7*%
%TO.N,PCM_CLK*%
X102350000Y-97480000D03*
%TO.P,U2,6*%
%TO.N,PCM_FS*%
X102350000Y-100020000D03*
%TO.P,U2,5*%
%TO.N,PCM_DIN*%
X102350000Y-102560000D03*
%TO.P,U2,4*%
%TO.N,PCM_DOUT*%
X102350000Y-105100000D03*
%TO.P,U2,3*%
%TO.N,+5V*%
X102350000Y-107640000D03*
%TO.P,U2,2*%
%TO.N,N/C*%
X102350000Y-110180000D03*
D12*
%TO.P,U2,1*%
X102350000Y-112720000D03*
%TD*%
D13*
%TO.N,GND*%
X144260000Y-89860000D03*
X141720000Y-89860000D03*
X134100000Y-89860000D03*
X144260000Y-92400000D03*
X141720000Y-92400000D03*
X139180000Y-92400000D03*
X144260000Y-94940000D03*
X141720000Y-94940000D03*
X139180000Y-94940000D03*
X136640000Y-94940000D03*
X144260000Y-84780000D03*
X141720000Y-84780000D03*
X139180000Y-84780000D03*
X136640000Y-84780000D03*
X132830000Y-84780000D03*
X132830000Y-87320000D03*
X136640000Y-87320000D03*
X139180000Y-87320000D03*
X144260000Y-87320000D03*
X144260000Y-97480000D03*
X141720000Y-97480000D03*
X146800000Y-89860000D03*
X146800000Y-92400000D03*
X146800000Y-94940000D03*
X146800000Y-97480000D03*
X146800000Y-100020000D03*
X144260000Y-100020000D03*
X141720000Y-100020000D03*
X139180000Y-100020000D03*
X139180000Y-97480000D03*
X136640000Y-97480000D03*
X136640000Y-100020000D03*
X134100000Y-100020000D03*
X146800000Y-102560000D03*
X144260000Y-102560000D03*
X141720000Y-102560000D03*
X139180000Y-102560000D03*
X136640000Y-102560000D03*
X134100000Y-102560000D03*
X146800000Y-105100000D03*
X144260000Y-105100000D03*
X141720000Y-105100000D03*
X139180000Y-105100000D03*
X136640000Y-105100000D03*
X134100000Y-105100000D03*
X146800000Y-107640000D03*
X144260000Y-107640000D03*
X141720000Y-107640000D03*
X139180000Y-107640000D03*
X136640000Y-107640000D03*
X134100000Y-107640000D03*
X146800000Y-110180000D03*
X144260000Y-110180000D03*
X141720000Y-110180000D03*
X139180000Y-110180000D03*
X136640000Y-110180000D03*
X134100000Y-110180000D03*
X146800000Y-112720000D03*
X144260000Y-112720000D03*
X141720000Y-112720000D03*
X139180000Y-112720000D03*
X136640000Y-112720000D03*
X134100000Y-112720000D03*
X146800000Y-115260000D03*
X144260000Y-115260000D03*
X141720000Y-115260000D03*
X139180000Y-115260000D03*
X136640000Y-115260000D03*
X134100000Y-115260000D03*
X134100000Y-117800000D03*
X136640000Y-117800000D03*
X139180000Y-117800000D03*
X141720000Y-117800000D03*
X144260000Y-117800000D03*
X146800000Y-117800000D03*
X146800000Y-122880000D03*
X144260000Y-122880000D03*
X141720000Y-122880000D03*
X139180000Y-122880000D03*
X136640000Y-122880000D03*
X134100000Y-122880000D03*
X131560000Y-117800000D03*
X129020000Y-117800000D03*
X126480000Y-117800000D03*
X126480000Y-115260000D03*
X129020000Y-115260000D03*
X131560000Y-115260000D03*
X131560000Y-122880000D03*
X129020000Y-122880000D03*
X126480000Y-122880000D03*
X118352000Y-84780000D03*
X115812000Y-84780000D03*
X111240000Y-84780000D03*
X111240000Y-87320000D03*
X106160000Y-84780000D03*
X106160000Y-87320000D03*
X106160000Y-89860000D03*
X111240000Y-89860000D03*
X113780000Y-87320000D03*
X113780000Y-89860000D03*
X116320000Y-89860000D03*
X118860000Y-92400000D03*
X116320000Y-92400000D03*
X113780000Y-92400000D03*
X111240000Y-92400000D03*
X106160000Y-92400000D03*
X106160000Y-94940000D03*
X111240000Y-94940000D03*
X113780000Y-94940000D03*
X116320000Y-94940000D03*
X118860000Y-94940000D03*
X118860000Y-97480000D03*
X116320000Y-97480000D03*
X113780000Y-97480000D03*
X111240000Y-97480000D03*
X108700000Y-97480000D03*
X106160000Y-97480000D03*
X106160000Y-100020000D03*
X108700000Y-100020000D03*
X111240000Y-100020000D03*
X113780000Y-100020000D03*
X116320000Y-100020000D03*
X118860000Y-100020000D03*
X118860000Y-102560000D03*
X116320000Y-102560000D03*
X113780000Y-102560000D03*
X111240000Y-102560000D03*
X108700000Y-102560000D03*
X106160000Y-102560000D03*
X106160000Y-105100000D03*
X108700000Y-105100000D03*
X111240000Y-105100000D03*
X113780000Y-105100000D03*
X116320000Y-105100000D03*
X118860000Y-105100000D03*
X126480000Y-97480000D03*
X126480000Y-100020000D03*
X126480000Y-105100000D03*
X126480000Y-107640000D03*
X126480000Y-110180000D03*
X126480000Y-112720000D03*
X126480000Y-92400000D03*
X126480000Y-94940000D03*
X126480000Y-89860000D03*
X126480000Y-87320000D03*
X126480000Y-84780000D03*
X146800000Y-120340000D03*
X144260000Y-120340000D03*
X141720000Y-120340000D03*
X139180000Y-120340000D03*
X136640000Y-120340000D03*
X134100000Y-120340000D03*
X131560000Y-120340000D03*
X129020000Y-120340000D03*
X126480000Y-120340000D03*
X118860000Y-107640000D03*
X116320000Y-107640000D03*
X113780000Y-107640000D03*
X111240000Y-107640000D03*
X108700000Y-107640000D03*
X106160000Y-107640000D03*
X118860000Y-110180000D03*
X116320000Y-110180000D03*
X113780000Y-110180000D03*
X111240000Y-110180000D03*
X108700000Y-110180000D03*
X108700000Y-112720000D03*
X111240000Y-112720000D03*
X113780000Y-112720000D03*
X116320000Y-112720000D03*
X118860000Y-112720000D03*
X118860000Y-115260000D03*
X116320000Y-115260000D03*
X113780000Y-115260000D03*
X111240000Y-115260000D03*
X108700000Y-115260000D03*
X106160000Y-110180000D03*
X106160000Y-112720000D03*
X106160000Y-115260000D03*
X106160000Y-117800000D03*
X108700000Y-117800000D03*
X111240000Y-117800000D03*
X113780000Y-117800000D03*
X116320000Y-117800000D03*
X118860000Y-117800000D03*
X118860000Y-120340000D03*
X116320000Y-120340000D03*
X113780000Y-120340000D03*
X111240000Y-120340000D03*
X108700000Y-120340000D03*
X118860000Y-122880000D03*
X116320000Y-122880000D03*
X113780000Y-122880000D03*
X111240000Y-122880000D03*
X108700000Y-122880000D03*
X116320000Y-125420000D03*
X118860000Y-125420000D03*
X111240000Y-125420000D03*
X108700000Y-125420000D03*
X113780000Y-125420000D03*
X111240000Y-127960000D03*
X116320000Y-127960000D03*
X118860000Y-127960000D03*
X113780000Y-127960000D03*
X108700000Y-127960000D03*
X111240000Y-130500000D03*
X118860000Y-130500000D03*
X116320000Y-130500000D03*
X113780000Y-130500000D03*
X108700000Y-130500000D03*
X123940000Y-125420000D03*
X129020000Y-125420000D03*
X131560000Y-125420000D03*
X126480000Y-125420000D03*
X121400000Y-125420000D03*
X123940000Y-127960000D03*
X131560000Y-127960000D03*
X129020000Y-127960000D03*
X126480000Y-127960000D03*
X121400000Y-127960000D03*
X126480000Y-130500000D03*
X121400000Y-130500000D03*
X123940000Y-130500000D03*
X131560000Y-130500000D03*
X129020000Y-130500000D03*
X134100000Y-125420000D03*
X136640000Y-125420000D03*
X139180000Y-125420000D03*
X141720000Y-125420000D03*
X144260000Y-125420000D03*
X144260000Y-127960000D03*
X134100000Y-127960000D03*
X136640000Y-127960000D03*
X139180000Y-127960000D03*
X141720000Y-127960000D03*
X141720000Y-130500000D03*
X144260000Y-130500000D03*
X136640000Y-130500000D03*
X134100000Y-130500000D03*
X139180000Y-130500000D03*
X146800000Y-125420000D03*
X146800000Y-127960000D03*
X146800000Y-130500000D03*
X149340000Y-130500000D03*
X149340000Y-127960000D03*
X149340000Y-125420000D03*
X151880000Y-125420000D03*
X151880000Y-127960000D03*
X151880000Y-130500000D03*
X154420000Y-125420000D03*
X154420000Y-122880000D03*
X154420000Y-120340000D03*
X156960000Y-122880000D03*
X156960000Y-125420000D03*
X156960000Y-120340000D03*
X156960000Y-115260000D03*
X156960000Y-112720000D03*
X156960000Y-117800000D03*
X154420000Y-112720000D03*
X154420000Y-115260000D03*
X154420000Y-117800000D03*
X154420000Y-105100000D03*
X154420000Y-110180000D03*
X154420000Y-107640000D03*
X156960000Y-107640000D03*
X156960000Y-105100000D03*
X156960000Y-110180000D03*
X156960000Y-102560000D03*
X156960000Y-100020000D03*
X156960000Y-97480000D03*
X154420000Y-100020000D03*
X154420000Y-102560000D03*
X154420000Y-97480000D03*
X154420000Y-94940000D03*
X154420000Y-89860000D03*
X154420000Y-92400000D03*
X156960000Y-89860000D03*
X156960000Y-94940000D03*
X156960000Y-92400000D03*
X154420000Y-84780000D03*
X154420000Y-87320000D03*
X156960000Y-87320000D03*
X156960000Y-84780000D03*
X106160000Y-125420000D03*
X106160000Y-122880000D03*
X106160000Y-130500000D03*
X106160000Y-127960000D03*
X103620000Y-125420000D03*
X103620000Y-122880000D03*
X103620000Y-130500000D03*
X103620000Y-127960000D03*
X98540000Y-120340000D03*
X98540000Y-117800000D03*
X98540000Y-125420000D03*
X98540000Y-122880000D03*
X96000000Y-122880000D03*
X96000000Y-120340000D03*
X96000000Y-125420000D03*
X96000000Y-117800000D03*
X96000000Y-110180000D03*
X96000000Y-107640000D03*
X96000000Y-112720000D03*
X96000000Y-115260000D03*
X98540000Y-110180000D03*
X98540000Y-115260000D03*
X98540000Y-112720000D03*
X98540000Y-107640000D03*
X98540000Y-102560000D03*
X98540000Y-97480000D03*
X98540000Y-100020000D03*
X98540000Y-105100000D03*
X96000000Y-102560000D03*
X96000000Y-100020000D03*
X96000000Y-105100000D03*
X96000000Y-97480000D03*
X96000000Y-94940000D03*
X96000000Y-92400000D03*
X98540000Y-92400000D03*
X98540000Y-89860000D03*
X98540000Y-94940000D03*
X96000000Y-87320000D03*
X96000000Y-84780000D03*
X96000000Y-89860000D03*
X98540000Y-84780000D03*
X98540000Y-87320000D03*
X103620000Y-120340000D03*
X101080000Y-125420000D03*
X101080000Y-122880000D03*
X101080000Y-120340000D03*
X101080000Y-117800000D03*
X101080000Y-127960000D03*
X101080000Y-130500000D03*
X103620000Y-77160000D03*
X106160000Y-77160000D03*
X116320000Y-77160000D03*
X118860000Y-77160000D03*
X121400000Y-77160000D03*
X123940000Y-77160000D03*
X126480000Y-77160000D03*
X129020000Y-77160000D03*
X131560000Y-77160000D03*
X134100000Y-77160000D03*
X136640000Y-77160000D03*
X139180000Y-77160000D03*
X139180000Y-79700000D03*
X136640000Y-79700000D03*
X144260000Y-79700000D03*
X123940000Y-79700000D03*
X121400000Y-79700000D03*
X118860000Y-79700000D03*
X116320000Y-79700000D03*
X126480000Y-79700000D03*
X129020000Y-79700000D03*
X103620000Y-115260000D03*
X102350000Y-129230000D03*
X104890000Y-129230000D03*
X107430000Y-129230000D03*
X109970000Y-129230000D03*
X112510000Y-129230000D03*
X115050000Y-129230000D03*
X117590000Y-129230000D03*
X120130000Y-129230000D03*
X122670000Y-129230000D03*
X125210000Y-129230000D03*
X127750000Y-129230000D03*
X130290000Y-129230000D03*
X132830000Y-129230000D03*
X135370000Y-129230000D03*
X137910000Y-129230000D03*
X140450000Y-129230000D03*
X142990000Y-129230000D03*
X145530000Y-129230000D03*
X148070000Y-129230000D03*
X150610000Y-129230000D03*
X155690000Y-124150000D03*
X155690000Y-121610000D03*
X155690000Y-119070000D03*
X155690000Y-116530000D03*
X155690000Y-113990000D03*
X155690000Y-111450000D03*
X155690000Y-108910000D03*
X155690000Y-106370000D03*
X155690000Y-103830000D03*
X155690000Y-101290000D03*
X155690000Y-98750000D03*
X155690000Y-96210000D03*
X155690000Y-93670000D03*
X155690000Y-91130000D03*
X155690000Y-88590000D03*
X155690000Y-86050000D03*
X155690000Y-83510000D03*
X97270000Y-124150000D03*
X97270000Y-121610000D03*
X97270000Y-119070000D03*
X97270000Y-116530000D03*
X97270000Y-113990000D03*
X97270000Y-111450000D03*
X97270000Y-108910000D03*
X97270000Y-106370000D03*
X97270000Y-103830000D03*
X97270000Y-101290000D03*
X97270000Y-98750000D03*
X97270000Y-96210000D03*
X97270000Y-93670000D03*
X97270000Y-91130000D03*
X97270000Y-88590000D03*
X97270000Y-86050000D03*
X97270000Y-83510000D03*
X127242000Y-102560000D03*
X118352000Y-87320000D03*
%TO.N,ID_SC*%
X130290000Y-82748000D03*
%TD*%
D14*
%TO.N,PCM_DOUT*%
X149340000Y-86050000D02*
X130290000Y-105100000D01*
X150610000Y-78430000D02*
X149340000Y-79700000D01*
X149340000Y-79700000D02*
X149340000Y-86050000D01*
%TO.N,PCM_DIN*%
X148070000Y-78430000D02*
X146800000Y-79700000D01*
X146800000Y-86050000D02*
X130290000Y-102560000D01*
X146800000Y-79700000D02*
X146800000Y-86050000D01*
%TO.N,PCM_FS*%
X145530000Y-84780000D02*
X130290000Y-100020000D01*
X145530000Y-80970000D02*
X145530000Y-84780000D01*
%TO.N,PWM1*%
X124194000Y-108656000D02*
X122670000Y-110180000D01*
X142990000Y-80970000D02*
X142990000Y-86683590D01*
X130923590Y-98750000D02*
X129782000Y-98750000D01*
X142990000Y-86683590D02*
X130923590Y-98750000D01*
X124194000Y-104338000D02*
X124194000Y-108656000D01*
X129782000Y-98750000D02*
X124194000Y-104338000D01*
%TO.N,PWM0*%
X152400000Y-110930000D02*
X150610000Y-112720000D01*
X151302411Y-76708000D02*
X152400000Y-77805589D01*
X140450000Y-78430000D02*
X142172000Y-76708000D01*
X152400000Y-77805589D02*
X152400000Y-110930000D01*
X142172000Y-76708000D02*
X151302411Y-76708000D01*
%TO.N,CLK2*%
X151892000Y-101278000D02*
X150610000Y-102560000D01*
X151892000Y-77934000D02*
X151892000Y-101278000D01*
X141720000Y-79700000D02*
X141720000Y-77922000D01*
X141720000Y-77922000D02*
X142426000Y-77216000D01*
X140450000Y-80970000D02*
X141720000Y-79700000D01*
X142426000Y-77216000D02*
X151174000Y-77216000D01*
X151174000Y-77216000D02*
X151892000Y-77934000D01*
%TO.N,CLK1*%
X129020000Y-98750000D02*
X122670000Y-105100000D01*
X137910000Y-89098000D02*
X130798000Y-96210000D01*
X137910000Y-80970000D02*
X137910000Y-89098000D01*
X130798000Y-96210000D02*
X129820998Y-96210000D01*
X129820998Y-96210000D02*
X129020000Y-97010998D01*
X129020000Y-97010998D02*
X129020000Y-98750000D01*
%TO.N,ID_SC*%
X128512000Y-84526000D02*
X130290000Y-82748000D01*
X122670000Y-100020000D02*
X128512000Y-94178000D01*
X128512000Y-94178000D02*
X128512000Y-84526000D01*
%TO.N,ID_SD*%
X135370000Y-89860000D02*
X130290000Y-94940000D01*
X135370000Y-80970000D02*
X135370000Y-89860000D01*
%TO.N,CE1*%
X134100000Y-88590000D02*
X130290000Y-92400000D01*
X132830000Y-78430000D02*
X134100000Y-79700000D01*
X134100000Y-79700000D02*
X134100000Y-88590000D01*
%TO.N,CE0*%
X130290000Y-89860000D02*
X131578999Y-88571001D01*
X131560000Y-88590000D02*
X130290000Y-89860000D01*
X130290000Y-78430000D02*
X131560000Y-79700000D01*
X131560000Y-79700000D02*
X131560000Y-88590000D01*
%TO.N,SCK*%
X130232996Y-80970000D02*
X130290000Y-80970000D01*
X128004000Y-83198996D02*
X130232996Y-80970000D01*
X122670000Y-97480000D02*
X128004000Y-92146000D01*
X128004000Y-92146000D02*
X128004000Y-83198996D01*
%TO.N,MISO*%
X123178000Y-92400000D02*
X122670000Y-92400000D01*
X125210000Y-90368000D02*
X123178000Y-92400000D01*
X127750000Y-80970000D02*
X125210000Y-83510000D01*
X125210000Y-83510000D02*
X125210000Y-90368000D01*
%TO.N,MOSI*%
X121400000Y-93670000D02*
X122670000Y-94940000D01*
X121400000Y-91911499D02*
X121400000Y-93670000D01*
X124702000Y-81478000D02*
X124702000Y-90114000D01*
X124702000Y-90114000D02*
X123686000Y-91130000D01*
X125210000Y-80970000D02*
X124702000Y-81478000D01*
X123686000Y-91130000D02*
X122181499Y-91130000D01*
X122181499Y-91130000D02*
X121400000Y-91911499D01*
%TO.N,PCM_CLK*%
X109951009Y-76709989D02*
X108700000Y-77960998D01*
X108700000Y-77960998D02*
X108700000Y-91130000D01*
X103199999Y-96630001D02*
X102350000Y-97480000D01*
X108700000Y-91130000D02*
X103199999Y-96630001D01*
X115050000Y-78430000D02*
X113329989Y-76709989D01*
X113329989Y-76709989D02*
X109951009Y-76709989D01*
%TO.N,RX*%
X111240000Y-79700000D02*
X112510000Y-78430000D01*
X111240000Y-82240000D02*
X111240000Y-79700000D01*
X122670000Y-89860000D02*
X118860000Y-89860000D01*
X118860000Y-89860000D02*
X111240000Y-82240000D01*
%TO.N,TX*%
X111240000Y-77160000D02*
X109970000Y-78430000D01*
X119425002Y-87320000D02*
X113780000Y-81674998D01*
X122670000Y-87320000D02*
X119425002Y-87320000D01*
X113780000Y-81674998D02*
X113780000Y-77960998D01*
X113780000Y-77960998D02*
X112979002Y-77160000D01*
X112979002Y-77160000D02*
X111240000Y-77160000D01*
%TO.N,CLK0*%
X109970000Y-94940000D02*
X109970000Y-80970000D01*
X122670000Y-107640000D02*
X109970000Y-94940000D01*
D15*
%TO.N,+5V*%
X104890000Y-78430000D02*
X102350000Y-78430000D01*
X102350000Y-107640000D02*
X99810000Y-105100000D01*
X99810000Y-105100000D02*
X99810000Y-82870000D01*
X102350000Y-78430000D02*
X100980000Y-79800000D01*
X99810000Y-82870000D02*
X100980000Y-81700000D01*
X100980000Y-79800000D02*
X100980000Y-81700000D01*
%TD*%
D16*
%TO.N,GND*%
G36*
X108516893Y-77428513D02*
G01*
X108430269Y-77332412D01*
X108196920Y-77158359D01*
X107934099Y-77033175D01*
X107786890Y-76988524D01*
X107557000Y-77109845D01*
X107557000Y-78303000D01*
X107577000Y-78303000D01*
X107577000Y-78557000D01*
X107557000Y-78557000D01*
X107557000Y-78577000D01*
X107303000Y-78577000D01*
X107303000Y-78557000D01*
X107283000Y-78557000D01*
X107283000Y-78303000D01*
X107303000Y-78303000D01*
X107303000Y-77109845D01*
X107073110Y-76988524D01*
X106925901Y-77033175D01*
X106663080Y-77158359D01*
X106429731Y-77332412D01*
X106234822Y-77548645D01*
X106085843Y-77798748D01*
X106028228Y-77961168D01*
X105980898Y-77846903D01*
X105846180Y-77645283D01*
X105674717Y-77473820D01*
X105473097Y-77339102D01*
X105249069Y-77246307D01*
X105011243Y-77199000D01*
X104768757Y-77199000D01*
X104530931Y-77246307D01*
X104306903Y-77339102D01*
X104105283Y-77473820D01*
X103933820Y-77645283D01*
X103799102Y-77846903D01*
X103798233Y-77849000D01*
X103441767Y-77849000D01*
X103440898Y-77846903D01*
X103306180Y-77645283D01*
X103134717Y-77473820D01*
X102933097Y-77339102D01*
X102709069Y-77246307D01*
X102471243Y-77199000D01*
X102228757Y-77199000D01*
X101990931Y-77246307D01*
X101766903Y-77339102D01*
X101565283Y-77473820D01*
X101393820Y-77645283D01*
X101259102Y-77846903D01*
X101166307Y-78070931D01*
X101119000Y-78308757D01*
X101119000Y-78551243D01*
X101166307Y-78789069D01*
X101167176Y-78791167D01*
X100780027Y-79178316D01*
X100767634Y-79050707D01*
X100577792Y-78421797D01*
X100268904Y-77842008D01*
X100263828Y-77834411D01*
X99825374Y-77534231D01*
X97659605Y-79700000D01*
X97673748Y-79714143D01*
X97494143Y-79893748D01*
X97480000Y-79879605D01*
X95314231Y-82045374D01*
X95614411Y-82483828D01*
X96193356Y-82794296D01*
X96821746Y-82985852D01*
X97475431Y-83051134D01*
X98129293Y-82987634D01*
X98758203Y-82797792D01*
X99337992Y-82488904D01*
X99345589Y-82483828D01*
X99645768Y-82045376D01*
X99729367Y-82128975D01*
X99419355Y-82438988D01*
X99397184Y-82457183D01*
X99345475Y-82520191D01*
X99324579Y-82545653D01*
X99270629Y-82646586D01*
X99237407Y-82756105D01*
X99226189Y-82870000D01*
X99229001Y-82898550D01*
X99229000Y-105071460D01*
X99226189Y-105100000D01*
X99229000Y-105128539D01*
X99237407Y-105213895D01*
X99270629Y-105323414D01*
X99324579Y-105424347D01*
X99397183Y-105512817D01*
X99419360Y-105531017D01*
X101167176Y-107278834D01*
X101166307Y-107280931D01*
X101119000Y-107518757D01*
X101119000Y-107761243D01*
X101166307Y-107999069D01*
X101259102Y-108223097D01*
X101393820Y-108424717D01*
X101565283Y-108596180D01*
X101766903Y-108730898D01*
X101990931Y-108823693D01*
X102228757Y-108871000D01*
X102471243Y-108871000D01*
X102709069Y-108823693D01*
X102933097Y-108730898D01*
X103134717Y-108596180D01*
X103306180Y-108424717D01*
X103440898Y-108223097D01*
X103533693Y-107999069D01*
X103581000Y-107761243D01*
X103581000Y-107518757D01*
X103533693Y-107280931D01*
X103440898Y-107056903D01*
X103306180Y-106855283D01*
X103134717Y-106683820D01*
X102933097Y-106549102D01*
X102709069Y-106456307D01*
X102471243Y-106409000D01*
X102228757Y-106409000D01*
X101990931Y-106456307D01*
X101988834Y-106457176D01*
X101633255Y-106101597D01*
X101766903Y-106190898D01*
X101990931Y-106283693D01*
X102228757Y-106331000D01*
X102471243Y-106331000D01*
X102709069Y-106283693D01*
X102933097Y-106190898D01*
X103134717Y-106056180D01*
X103306180Y-105884717D01*
X103440898Y-105683097D01*
X103533693Y-105459069D01*
X103581000Y-105221243D01*
X103581000Y-104978757D01*
X103533693Y-104740931D01*
X103440898Y-104516903D01*
X103306180Y-104315283D01*
X103134717Y-104143820D01*
X102933097Y-104009102D01*
X102709069Y-103916307D01*
X102471243Y-103869000D01*
X102228757Y-103869000D01*
X101990931Y-103916307D01*
X101766903Y-104009102D01*
X101565283Y-104143820D01*
X101393820Y-104315283D01*
X101259102Y-104516903D01*
X101166307Y-104740931D01*
X101119000Y-104978757D01*
X101119000Y-105221243D01*
X101166307Y-105459069D01*
X101259102Y-105683097D01*
X101348403Y-105816746D01*
X100391000Y-104859343D01*
X100391000Y-102438757D01*
X101119000Y-102438757D01*
X101119000Y-102681243D01*
X101166307Y-102919069D01*
X101259102Y-103143097D01*
X101393820Y-103344717D01*
X101565283Y-103516180D01*
X101766903Y-103650898D01*
X101990931Y-103743693D01*
X102228757Y-103791000D01*
X102471243Y-103791000D01*
X102709069Y-103743693D01*
X102933097Y-103650898D01*
X103134717Y-103516180D01*
X103306180Y-103344717D01*
X103440898Y-103143097D01*
X103533693Y-102919069D01*
X103581000Y-102681243D01*
X103581000Y-102438757D01*
X103533693Y-102200931D01*
X103440898Y-101976903D01*
X103306180Y-101775283D01*
X103134717Y-101603820D01*
X102933097Y-101469102D01*
X102709069Y-101376307D01*
X102471243Y-101329000D01*
X102228757Y-101329000D01*
X101990931Y-101376307D01*
X101766903Y-101469102D01*
X101565283Y-101603820D01*
X101393820Y-101775283D01*
X101259102Y-101976903D01*
X101166307Y-102200931D01*
X101119000Y-102438757D01*
X100391000Y-102438757D01*
X100391000Y-99898757D01*
X101119000Y-99898757D01*
X101119000Y-100141243D01*
X101166307Y-100379069D01*
X101259102Y-100603097D01*
X101393820Y-100804717D01*
X101565283Y-100976180D01*
X101766903Y-101110898D01*
X101990931Y-101203693D01*
X102228757Y-101251000D01*
X102471243Y-101251000D01*
X102709069Y-101203693D01*
X102933097Y-101110898D01*
X103134717Y-100976180D01*
X103306180Y-100804717D01*
X103440898Y-100603097D01*
X103533693Y-100379069D01*
X103581000Y-100141243D01*
X103581000Y-99898757D01*
X103533693Y-99660931D01*
X103440898Y-99436903D01*
X103306180Y-99235283D01*
X103134717Y-99063820D01*
X102933097Y-98929102D01*
X102709069Y-98836307D01*
X102471243Y-98789000D01*
X102228757Y-98789000D01*
X101990931Y-98836307D01*
X101766903Y-98929102D01*
X101565283Y-99063820D01*
X101393820Y-99235283D01*
X101259102Y-99436903D01*
X101166307Y-99660931D01*
X101119000Y-99898757D01*
X100391000Y-99898757D01*
X100391000Y-94818757D01*
X101119000Y-94818757D01*
X101119000Y-95061243D01*
X101166307Y-95299069D01*
X101259102Y-95523097D01*
X101393820Y-95724717D01*
X101565283Y-95896180D01*
X101766903Y-96030898D01*
X101990931Y-96123693D01*
X102228757Y-96171000D01*
X102471243Y-96171000D01*
X102709069Y-96123693D01*
X102933097Y-96030898D01*
X103134717Y-95896180D01*
X103306180Y-95724717D01*
X103440898Y-95523097D01*
X103533693Y-95299069D01*
X103581000Y-95061243D01*
X103581000Y-94818757D01*
X103533693Y-94580931D01*
X103440898Y-94356903D01*
X103306180Y-94155283D01*
X103134717Y-93983820D01*
X102933097Y-93849102D01*
X102709069Y-93756307D01*
X102471243Y-93709000D01*
X102228757Y-93709000D01*
X101990931Y-93756307D01*
X101766903Y-93849102D01*
X101565283Y-93983820D01*
X101393820Y-94155283D01*
X101259102Y-94356903D01*
X101166307Y-94580931D01*
X101119000Y-94818757D01*
X100391000Y-94818757D01*
X100391000Y-92278757D01*
X101119000Y-92278757D01*
X101119000Y-92521243D01*
X101166307Y-92759069D01*
X101259102Y-92983097D01*
X101393820Y-93184717D01*
X101565283Y-93356180D01*
X101766903Y-93490898D01*
X101990931Y-93583693D01*
X102228757Y-93631000D01*
X102471243Y-93631000D01*
X102709069Y-93583693D01*
X102933097Y-93490898D01*
X103134717Y-93356180D01*
X103306180Y-93184717D01*
X103440898Y-92983097D01*
X103533693Y-92759069D01*
X103581000Y-92521243D01*
X103581000Y-92278757D01*
X103533693Y-92040931D01*
X103440898Y-91816903D01*
X103306180Y-91615283D01*
X103134717Y-91443820D01*
X102933097Y-91309102D01*
X102709069Y-91216307D01*
X102471243Y-91169000D01*
X102228757Y-91169000D01*
X101990931Y-91216307D01*
X101766903Y-91309102D01*
X101565283Y-91443820D01*
X101393820Y-91615283D01*
X101259102Y-91816903D01*
X101166307Y-92040931D01*
X101119000Y-92278757D01*
X100391000Y-92278757D01*
X100391000Y-89738757D01*
X101119000Y-89738757D01*
X101119000Y-89981243D01*
X101166307Y-90219069D01*
X101259102Y-90443097D01*
X101393820Y-90644717D01*
X101565283Y-90816180D01*
X101766903Y-90950898D01*
X101990931Y-91043693D01*
X102228757Y-91091000D01*
X102471243Y-91091000D01*
X102709069Y-91043693D01*
X102933097Y-90950898D01*
X103134717Y-90816180D01*
X103306180Y-90644717D01*
X103440898Y-90443097D01*
X103533693Y-90219069D01*
X103581000Y-89981243D01*
X103581000Y-89738757D01*
X103533693Y-89500931D01*
X103440898Y-89276903D01*
X103306180Y-89075283D01*
X103134717Y-88903820D01*
X102933097Y-88769102D01*
X102709069Y-88676307D01*
X102471243Y-88629000D01*
X102228757Y-88629000D01*
X101990931Y-88676307D01*
X101766903Y-88769102D01*
X101565283Y-88903820D01*
X101393820Y-89075283D01*
X101259102Y-89276903D01*
X101166307Y-89500931D01*
X101119000Y-89738757D01*
X100391000Y-89738757D01*
X100391000Y-87198757D01*
X101119000Y-87198757D01*
X101119000Y-87441243D01*
X101166307Y-87679069D01*
X101259102Y-87903097D01*
X101393820Y-88104717D01*
X101565283Y-88276180D01*
X101766903Y-88410898D01*
X101990931Y-88503693D01*
X102228757Y-88551000D01*
X102471243Y-88551000D01*
X102709069Y-88503693D01*
X102933097Y-88410898D01*
X103134717Y-88276180D01*
X103306180Y-88104717D01*
X103440898Y-87903097D01*
X103533693Y-87679069D01*
X103581000Y-87441243D01*
X103581000Y-87198757D01*
X103533693Y-86960931D01*
X103440898Y-86736903D01*
X103306180Y-86535283D01*
X103134717Y-86363820D01*
X102933097Y-86229102D01*
X102709069Y-86136307D01*
X102471243Y-86089000D01*
X102228757Y-86089000D01*
X101990931Y-86136307D01*
X101766903Y-86229102D01*
X101565283Y-86363820D01*
X101393820Y-86535283D01*
X101259102Y-86736903D01*
X101166307Y-86960931D01*
X101119000Y-87198757D01*
X100391000Y-87198757D01*
X100391000Y-84658757D01*
X101119000Y-84658757D01*
X101119000Y-84901243D01*
X101166307Y-85139069D01*
X101259102Y-85363097D01*
X101393820Y-85564717D01*
X101565283Y-85736180D01*
X101766903Y-85870898D01*
X101990931Y-85963693D01*
X102228757Y-86011000D01*
X102471243Y-86011000D01*
X102709069Y-85963693D01*
X102933097Y-85870898D01*
X103134717Y-85736180D01*
X103306180Y-85564717D01*
X103440898Y-85363097D01*
X103533693Y-85139069D01*
X103581000Y-84901243D01*
X103581000Y-84658757D01*
X103533693Y-84420931D01*
X103440898Y-84196903D01*
X103306180Y-83995283D01*
X103134717Y-83823820D01*
X102933097Y-83689102D01*
X102709069Y-83596307D01*
X102471243Y-83549000D01*
X102228757Y-83549000D01*
X101990931Y-83596307D01*
X101766903Y-83689102D01*
X101565283Y-83823820D01*
X101393820Y-83995283D01*
X101259102Y-84196903D01*
X101166307Y-84420931D01*
X101119000Y-84658757D01*
X100391000Y-84658757D01*
X100391000Y-83110657D01*
X101336852Y-82164806D01*
X101353492Y-82173701D01*
X101425311Y-82195487D01*
X101500000Y-82202843D01*
X103200000Y-82202843D01*
X103274689Y-82195487D01*
X103346508Y-82173701D01*
X103412696Y-82138322D01*
X103470711Y-82090711D01*
X103518322Y-82032696D01*
X103553701Y-81966508D01*
X103575487Y-81894689D01*
X103582843Y-81820000D01*
X103582843Y-80848757D01*
X103659000Y-80848757D01*
X103659000Y-81091243D01*
X103706307Y-81329069D01*
X103799102Y-81553097D01*
X103933820Y-81754717D01*
X104105283Y-81926180D01*
X104306903Y-82060898D01*
X104530931Y-82153693D01*
X104768757Y-82201000D01*
X105011243Y-82201000D01*
X105249069Y-82153693D01*
X105473097Y-82060898D01*
X105674717Y-81926180D01*
X105846180Y-81754717D01*
X105980898Y-81553097D01*
X106073693Y-81329069D01*
X106121000Y-81091243D01*
X106121000Y-80848757D01*
X106073693Y-80610931D01*
X105980898Y-80386903D01*
X105846180Y-80185283D01*
X105674717Y-80013820D01*
X105473097Y-79879102D01*
X105249069Y-79786307D01*
X105011243Y-79739000D01*
X104768757Y-79739000D01*
X104530931Y-79786307D01*
X104306903Y-79879102D01*
X104105283Y-80013820D01*
X103933820Y-80185283D01*
X103799102Y-80386903D01*
X103706307Y-80610931D01*
X103659000Y-80848757D01*
X103582843Y-80848757D01*
X103582843Y-80120000D01*
X103575487Y-80045311D01*
X103553701Y-79973492D01*
X103518322Y-79907304D01*
X103470711Y-79849289D01*
X103412696Y-79801678D01*
X103346508Y-79766299D01*
X103274689Y-79744513D01*
X103200000Y-79737157D01*
X101864500Y-79737157D01*
X101988833Y-79612824D01*
X101990931Y-79613693D01*
X102228757Y-79661000D01*
X102471243Y-79661000D01*
X102709069Y-79613693D01*
X102933097Y-79520898D01*
X103134717Y-79386180D01*
X103306180Y-79214717D01*
X103440898Y-79013097D01*
X103441767Y-79011000D01*
X103798233Y-79011000D01*
X103799102Y-79013097D01*
X103933820Y-79214717D01*
X104105283Y-79386180D01*
X104306903Y-79520898D01*
X104530931Y-79613693D01*
X104768757Y-79661000D01*
X105011243Y-79661000D01*
X105249069Y-79613693D01*
X105473097Y-79520898D01*
X105674717Y-79386180D01*
X105846180Y-79214717D01*
X105980898Y-79013097D01*
X106028228Y-78898832D01*
X106085843Y-79061252D01*
X106234822Y-79311355D01*
X106429731Y-79527588D01*
X106663080Y-79701641D01*
X106925901Y-79826825D01*
X106953154Y-79835091D01*
X106846903Y-79879102D01*
X106645283Y-80013820D01*
X106473820Y-80185283D01*
X106339102Y-80386903D01*
X106246307Y-80610931D01*
X106199000Y-80848757D01*
X106199000Y-81091243D01*
X106246307Y-81329069D01*
X106339102Y-81553097D01*
X106473820Y-81754717D01*
X106645283Y-81926180D01*
X106846903Y-82060898D01*
X107070931Y-82153693D01*
X107308757Y-82201000D01*
X107551243Y-82201000D01*
X107789069Y-82153693D01*
X108013097Y-82060898D01*
X108194000Y-81940022D01*
X108194001Y-90920407D01*
X102859783Y-96254626D01*
X102859777Y-96254631D01*
X102786166Y-96328242D01*
X102709069Y-96296307D01*
X102471243Y-96249000D01*
X102228757Y-96249000D01*
X101990931Y-96296307D01*
X101766903Y-96389102D01*
X101565283Y-96523820D01*
X101393820Y-96695283D01*
X101259102Y-96896903D01*
X101166307Y-97120931D01*
X101119000Y-97358757D01*
X101119000Y-97601243D01*
X101166307Y-97839069D01*
X101259102Y-98063097D01*
X101393820Y-98264717D01*
X101565283Y-98436180D01*
X101766903Y-98570898D01*
X101990931Y-98663693D01*
X102228757Y-98711000D01*
X102471243Y-98711000D01*
X102709069Y-98663693D01*
X102933097Y-98570898D01*
X103134717Y-98436180D01*
X103306180Y-98264717D01*
X103440898Y-98063097D01*
X103533693Y-97839069D01*
X103581000Y-97601243D01*
X103581000Y-97358757D01*
X103533693Y-97120931D01*
X103501758Y-97043834D01*
X103575369Y-96970223D01*
X103575374Y-96970217D01*
X109040222Y-91505370D01*
X109059527Y-91489527D01*
X109122759Y-91412479D01*
X109169745Y-91324575D01*
X109198678Y-91229193D01*
X109206000Y-91154854D01*
X109206000Y-91154847D01*
X109208447Y-91130001D01*
X109206000Y-91105155D01*
X109206000Y-81940023D01*
X109386903Y-82060898D01*
X109464001Y-82092833D01*
X109464000Y-94915154D01*
X109461553Y-94940000D01*
X109464000Y-94964846D01*
X109464000Y-94964853D01*
X109471322Y-95039192D01*
X109500255Y-95134574D01*
X109547241Y-95222479D01*
X109610473Y-95299527D01*
X109629785Y-95315376D01*
X121518242Y-107203834D01*
X121486307Y-107280931D01*
X121439000Y-107518757D01*
X121439000Y-107761243D01*
X121486307Y-107999069D01*
X121579102Y-108223097D01*
X121713820Y-108424717D01*
X121885283Y-108596180D01*
X122086903Y-108730898D01*
X122310931Y-108823693D01*
X122548757Y-108871000D01*
X122791243Y-108871000D01*
X123029069Y-108823693D01*
X123253097Y-108730898D01*
X123454717Y-108596180D01*
X123626180Y-108424717D01*
X123688001Y-108332195D01*
X123688001Y-108446407D01*
X123106167Y-109028242D01*
X123029069Y-108996307D01*
X122791243Y-108949000D01*
X122548757Y-108949000D01*
X122310931Y-108996307D01*
X122086903Y-109089102D01*
X121885283Y-109223820D01*
X121713820Y-109395283D01*
X121579102Y-109596903D01*
X121486307Y-109820931D01*
X121439000Y-110058757D01*
X121439000Y-110301243D01*
X121486307Y-110539069D01*
X121579102Y-110763097D01*
X121713820Y-110964717D01*
X121885283Y-111136180D01*
X122086903Y-111270898D01*
X122310931Y-111363693D01*
X122548757Y-111411000D01*
X122791243Y-111411000D01*
X123029069Y-111363693D01*
X123253097Y-111270898D01*
X123454717Y-111136180D01*
X123626180Y-110964717D01*
X123760898Y-110763097D01*
X123853693Y-110539069D01*
X123901000Y-110301243D01*
X123901000Y-110058757D01*
X129059000Y-110058757D01*
X129059000Y-110301243D01*
X129106307Y-110539069D01*
X129199102Y-110763097D01*
X129333820Y-110964717D01*
X129505283Y-111136180D01*
X129706903Y-111270898D01*
X129930931Y-111363693D01*
X130168757Y-111411000D01*
X130411243Y-111411000D01*
X130649069Y-111363693D01*
X130873097Y-111270898D01*
X131074717Y-111136180D01*
X131246180Y-110964717D01*
X131380898Y-110763097D01*
X131473693Y-110539069D01*
X131521000Y-110301243D01*
X131521000Y-110058757D01*
X149379000Y-110058757D01*
X149379000Y-110301243D01*
X149426307Y-110539069D01*
X149519102Y-110763097D01*
X149653820Y-110964717D01*
X149825283Y-111136180D01*
X150026903Y-111270898D01*
X150250931Y-111363693D01*
X150488757Y-111411000D01*
X150731243Y-111411000D01*
X150969069Y-111363693D01*
X151193097Y-111270898D01*
X151394717Y-111136180D01*
X151566180Y-110964717D01*
X151700898Y-110763097D01*
X151793693Y-110539069D01*
X151841000Y-110301243D01*
X151841000Y-110058757D01*
X151793693Y-109820931D01*
X151700898Y-109596903D01*
X151566180Y-109395283D01*
X151394717Y-109223820D01*
X151193097Y-109089102D01*
X150969069Y-108996307D01*
X150731243Y-108949000D01*
X150488757Y-108949000D01*
X150250931Y-108996307D01*
X150026903Y-109089102D01*
X149825283Y-109223820D01*
X149653820Y-109395283D01*
X149519102Y-109596903D01*
X149426307Y-109820931D01*
X149379000Y-110058757D01*
X131521000Y-110058757D01*
X131473693Y-109820931D01*
X131380898Y-109596903D01*
X131246180Y-109395283D01*
X131074717Y-109223820D01*
X130873097Y-109089102D01*
X130649069Y-108996307D01*
X130411243Y-108949000D01*
X130168757Y-108949000D01*
X129930931Y-108996307D01*
X129706903Y-109089102D01*
X129505283Y-109223820D01*
X129333820Y-109395283D01*
X129199102Y-109596903D01*
X129106307Y-109820931D01*
X129059000Y-110058757D01*
X123901000Y-110058757D01*
X123853693Y-109820931D01*
X123821758Y-109743833D01*
X124534220Y-109031372D01*
X124553527Y-109015527D01*
X124616759Y-108938479D01*
X124663745Y-108850575D01*
X124692678Y-108755193D01*
X124700000Y-108680854D01*
X124700000Y-108680847D01*
X124702447Y-108656001D01*
X124700000Y-108631155D01*
X124700000Y-107518757D01*
X129059000Y-107518757D01*
X129059000Y-107761243D01*
X129106307Y-107999069D01*
X129199102Y-108223097D01*
X129333820Y-108424717D01*
X129505283Y-108596180D01*
X129706903Y-108730898D01*
X129930931Y-108823693D01*
X130168757Y-108871000D01*
X130411243Y-108871000D01*
X130649069Y-108823693D01*
X130873097Y-108730898D01*
X131074717Y-108596180D01*
X131246180Y-108424717D01*
X131380898Y-108223097D01*
X131473693Y-107999069D01*
X131521000Y-107761243D01*
X131521000Y-107518757D01*
X149379000Y-107518757D01*
X149379000Y-107761243D01*
X149426307Y-107999069D01*
X149519102Y-108223097D01*
X149653820Y-108424717D01*
X149825283Y-108596180D01*
X150026903Y-108730898D01*
X150250931Y-108823693D01*
X150488757Y-108871000D01*
X150731243Y-108871000D01*
X150969069Y-108823693D01*
X151193097Y-108730898D01*
X151394717Y-108596180D01*
X151566180Y-108424717D01*
X151700898Y-108223097D01*
X151793693Y-107999069D01*
X151841000Y-107761243D01*
X151841000Y-107518757D01*
X151793693Y-107280931D01*
X151700898Y-107056903D01*
X151566180Y-106855283D01*
X151394717Y-106683820D01*
X151193097Y-106549102D01*
X150969069Y-106456307D01*
X150731243Y-106409000D01*
X150488757Y-106409000D01*
X150250931Y-106456307D01*
X150026903Y-106549102D01*
X149825283Y-106683820D01*
X149653820Y-106855283D01*
X149519102Y-107056903D01*
X149426307Y-107280931D01*
X149379000Y-107518757D01*
X131521000Y-107518757D01*
X131473693Y-107280931D01*
X131380898Y-107056903D01*
X131246180Y-106855283D01*
X131074717Y-106683820D01*
X130873097Y-106549102D01*
X130649069Y-106456307D01*
X130411243Y-106409000D01*
X130168757Y-106409000D01*
X129930931Y-106456307D01*
X129706903Y-106549102D01*
X129505283Y-106683820D01*
X129333820Y-106855283D01*
X129199102Y-107056903D01*
X129106307Y-107280931D01*
X129059000Y-107518757D01*
X124700000Y-107518757D01*
X124700000Y-104547591D01*
X129066856Y-100180736D01*
X129106307Y-100379069D01*
X129199102Y-100603097D01*
X129333820Y-100804717D01*
X129505283Y-100976180D01*
X129706903Y-101110898D01*
X129930931Y-101203693D01*
X130168757Y-101251000D01*
X130411243Y-101251000D01*
X130649069Y-101203693D01*
X130873097Y-101110898D01*
X131074717Y-100976180D01*
X131246180Y-100804717D01*
X131380898Y-100603097D01*
X131473693Y-100379069D01*
X131521000Y-100141243D01*
X131521000Y-99898757D01*
X131473693Y-99660931D01*
X131441758Y-99583833D01*
X145870220Y-85155372D01*
X145889527Y-85139527D01*
X145952759Y-85062479D01*
X145999745Y-84974575D01*
X146028678Y-84879193D01*
X146036000Y-84804854D01*
X146038448Y-84780000D01*
X146036000Y-84755146D01*
X146036000Y-82092832D01*
X146113097Y-82060898D01*
X146294000Y-81940022D01*
X146294001Y-85840407D01*
X130726167Y-101408242D01*
X130649069Y-101376307D01*
X130411243Y-101329000D01*
X130168757Y-101329000D01*
X129930931Y-101376307D01*
X129706903Y-101469102D01*
X129505283Y-101603820D01*
X129333820Y-101775283D01*
X129199102Y-101976903D01*
X129106307Y-102200931D01*
X129059000Y-102438757D01*
X129059000Y-102681243D01*
X129106307Y-102919069D01*
X129199102Y-103143097D01*
X129333820Y-103344717D01*
X129505283Y-103516180D01*
X129706903Y-103650898D01*
X129930931Y-103743693D01*
X130168757Y-103791000D01*
X130411243Y-103791000D01*
X130649069Y-103743693D01*
X130873097Y-103650898D01*
X131074717Y-103516180D01*
X131246180Y-103344717D01*
X131380898Y-103143097D01*
X131473693Y-102919069D01*
X131521000Y-102681243D01*
X131521000Y-102438757D01*
X131473693Y-102200931D01*
X131441758Y-102123833D01*
X147140220Y-86425372D01*
X147159527Y-86409527D01*
X147222759Y-86332479D01*
X147269745Y-86244575D01*
X147298678Y-86149193D01*
X147306000Y-86074854D01*
X147308448Y-86050000D01*
X147306000Y-86025146D01*
X147306000Y-81940023D01*
X147486903Y-82060898D01*
X147710931Y-82153693D01*
X147948757Y-82201000D01*
X148191243Y-82201000D01*
X148429069Y-82153693D01*
X148653097Y-82060898D01*
X148834000Y-81940022D01*
X148834001Y-85840407D01*
X130726167Y-103948242D01*
X130649069Y-103916307D01*
X130411243Y-103869000D01*
X130168757Y-103869000D01*
X129930931Y-103916307D01*
X129706903Y-104009102D01*
X129505283Y-104143820D01*
X129333820Y-104315283D01*
X129199102Y-104516903D01*
X129106307Y-104740931D01*
X129059000Y-104978757D01*
X129059000Y-105221243D01*
X129106307Y-105459069D01*
X129199102Y-105683097D01*
X129333820Y-105884717D01*
X129505283Y-106056180D01*
X129706903Y-106190898D01*
X129930931Y-106283693D01*
X130168757Y-106331000D01*
X130411243Y-106331000D01*
X130649069Y-106283693D01*
X130873097Y-106190898D01*
X131074717Y-106056180D01*
X131246180Y-105884717D01*
X131380898Y-105683097D01*
X131473693Y-105459069D01*
X131521000Y-105221243D01*
X131521000Y-104978757D01*
X149379000Y-104978757D01*
X149379000Y-105221243D01*
X149426307Y-105459069D01*
X149519102Y-105683097D01*
X149653820Y-105884717D01*
X149825283Y-106056180D01*
X150026903Y-106190898D01*
X150250931Y-106283693D01*
X150488757Y-106331000D01*
X150731243Y-106331000D01*
X150969069Y-106283693D01*
X151193097Y-106190898D01*
X151394717Y-106056180D01*
X151566180Y-105884717D01*
X151700898Y-105683097D01*
X151793693Y-105459069D01*
X151841000Y-105221243D01*
X151841000Y-104978757D01*
X151793693Y-104740931D01*
X151700898Y-104516903D01*
X151566180Y-104315283D01*
X151394717Y-104143820D01*
X151193097Y-104009102D01*
X150969069Y-103916307D01*
X150731243Y-103869000D01*
X150488757Y-103869000D01*
X150250931Y-103916307D01*
X150026903Y-104009102D01*
X149825283Y-104143820D01*
X149653820Y-104315283D01*
X149519102Y-104516903D01*
X149426307Y-104740931D01*
X149379000Y-104978757D01*
X131521000Y-104978757D01*
X131473693Y-104740931D01*
X131441758Y-104663833D01*
X149680220Y-86425372D01*
X149699527Y-86409527D01*
X149762759Y-86332479D01*
X149809745Y-86244575D01*
X149838678Y-86149193D01*
X149846000Y-86074854D01*
X149846000Y-86074847D01*
X149848447Y-86050001D01*
X149848085Y-86046325D01*
X149978748Y-86124157D01*
X150141168Y-86181772D01*
X150026903Y-86229102D01*
X149825283Y-86363820D01*
X149653820Y-86535283D01*
X149519102Y-86736903D01*
X149426307Y-86960931D01*
X149379000Y-87198757D01*
X149379000Y-87441243D01*
X149426307Y-87679069D01*
X149519102Y-87903097D01*
X149653820Y-88104717D01*
X149825283Y-88276180D01*
X150026903Y-88410898D01*
X150250931Y-88503693D01*
X150488757Y-88551000D01*
X150731243Y-88551000D01*
X150969069Y-88503693D01*
X151193097Y-88410898D01*
X151386000Y-88282004D01*
X151386000Y-88897996D01*
X151193097Y-88769102D01*
X150969069Y-88676307D01*
X150731243Y-88629000D01*
X150488757Y-88629000D01*
X150250931Y-88676307D01*
X150026903Y-88769102D01*
X149825283Y-88903820D01*
X149653820Y-89075283D01*
X149519102Y-89276903D01*
X149426307Y-89500931D01*
X149379000Y-89738757D01*
X149379000Y-89981243D01*
X149426307Y-90219069D01*
X149519102Y-90443097D01*
X149653820Y-90644717D01*
X149825283Y-90816180D01*
X150026903Y-90950898D01*
X150250931Y-91043693D01*
X150488757Y-91091000D01*
X150731243Y-91091000D01*
X150969069Y-91043693D01*
X151193097Y-90950898D01*
X151386001Y-90822004D01*
X151386001Y-91437996D01*
X151193097Y-91309102D01*
X150969069Y-91216307D01*
X150731243Y-91169000D01*
X150488757Y-91169000D01*
X150250931Y-91216307D01*
X150026903Y-91309102D01*
X149825283Y-91443820D01*
X149653820Y-91615283D01*
X149519102Y-91816903D01*
X149426307Y-92040931D01*
X149379000Y-92278757D01*
X149379000Y-92521243D01*
X149426307Y-92759069D01*
X149519102Y-92983097D01*
X149653820Y-93184717D01*
X149825283Y-93356180D01*
X150026903Y-93490898D01*
X150250931Y-93583693D01*
X150488757Y-93631000D01*
X150731243Y-93631000D01*
X150969069Y-93583693D01*
X151193097Y-93490898D01*
X151386001Y-93362004D01*
X151386001Y-93977996D01*
X151193097Y-93849102D01*
X150969069Y-93756307D01*
X150731243Y-93709000D01*
X150488757Y-93709000D01*
X150250931Y-93756307D01*
X150026903Y-93849102D01*
X149825283Y-93983820D01*
X149653820Y-94155283D01*
X149519102Y-94356903D01*
X149426307Y-94580931D01*
X149379000Y-94818757D01*
X149379000Y-95061243D01*
X149426307Y-95299069D01*
X149519102Y-95523097D01*
X149653820Y-95724717D01*
X149825283Y-95896180D01*
X150026903Y-96030898D01*
X150250931Y-96123693D01*
X150488757Y-96171000D01*
X150731243Y-96171000D01*
X150969069Y-96123693D01*
X151193097Y-96030898D01*
X151386001Y-95902004D01*
X151386001Y-96517996D01*
X151193097Y-96389102D01*
X150969069Y-96296307D01*
X150731243Y-96249000D01*
X150488757Y-96249000D01*
X150250931Y-96296307D01*
X150026903Y-96389102D01*
X149825283Y-96523820D01*
X149653820Y-96695283D01*
X149519102Y-96896903D01*
X149426307Y-97120931D01*
X149379000Y-97358757D01*
X149379000Y-97601243D01*
X149426307Y-97839069D01*
X149519102Y-98063097D01*
X149653820Y-98264717D01*
X149825283Y-98436180D01*
X150026903Y-98570898D01*
X150250931Y-98663693D01*
X150488757Y-98711000D01*
X150731243Y-98711000D01*
X150969069Y-98663693D01*
X151193097Y-98570898D01*
X151386001Y-98442004D01*
X151386001Y-99057996D01*
X151193097Y-98929102D01*
X150969069Y-98836307D01*
X150731243Y-98789000D01*
X150488757Y-98789000D01*
X150250931Y-98836307D01*
X150026903Y-98929102D01*
X149825283Y-99063820D01*
X149653820Y-99235283D01*
X149519102Y-99436903D01*
X149426307Y-99660931D01*
X149379000Y-99898757D01*
X149379000Y-100141243D01*
X149426307Y-100379069D01*
X149519102Y-100603097D01*
X149653820Y-100804717D01*
X149825283Y-100976180D01*
X150026903Y-101110898D01*
X150250931Y-101203693D01*
X150488757Y-101251000D01*
X150731243Y-101251000D01*
X150969069Y-101203693D01*
X151193097Y-101110898D01*
X151386001Y-100982004D01*
X151386001Y-101068407D01*
X151046167Y-101408242D01*
X150969069Y-101376307D01*
X150731243Y-101329000D01*
X150488757Y-101329000D01*
X150250931Y-101376307D01*
X150026903Y-101469102D01*
X149825283Y-101603820D01*
X149653820Y-101775283D01*
X149519102Y-101976903D01*
X149426307Y-102200931D01*
X149379000Y-102438757D01*
X149379000Y-102681243D01*
X149426307Y-102919069D01*
X149519102Y-103143097D01*
X149653820Y-103344717D01*
X149825283Y-103516180D01*
X150026903Y-103650898D01*
X150250931Y-103743693D01*
X150488757Y-103791000D01*
X150731243Y-103791000D01*
X150969069Y-103743693D01*
X151193097Y-103650898D01*
X151394717Y-103516180D01*
X151566180Y-103344717D01*
X151700898Y-103143097D01*
X151793693Y-102919069D01*
X151841000Y-102681243D01*
X151841000Y-102438757D01*
X151793693Y-102200931D01*
X151761758Y-102123833D01*
X151894001Y-101991591D01*
X151894001Y-110720407D01*
X151046167Y-111568242D01*
X150969069Y-111536307D01*
X150731243Y-111489000D01*
X150488757Y-111489000D01*
X150250931Y-111536307D01*
X150026903Y-111629102D01*
X149825283Y-111763820D01*
X149653820Y-111935283D01*
X149519102Y-112136903D01*
X149426307Y-112360931D01*
X149379000Y-112598757D01*
X149379000Y-112841243D01*
X149426307Y-113079069D01*
X149519102Y-113303097D01*
X149653820Y-113504717D01*
X149825283Y-113676180D01*
X150026903Y-113810898D01*
X150141168Y-113858228D01*
X149978748Y-113915843D01*
X149728645Y-114064822D01*
X149512412Y-114259731D01*
X149338359Y-114493080D01*
X149213175Y-114755901D01*
X149168524Y-114903110D01*
X149289845Y-115133000D01*
X150483000Y-115133000D01*
X150483000Y-115113000D01*
X150737000Y-115113000D01*
X150737000Y-115133000D01*
X151930155Y-115133000D01*
X152051476Y-114903110D01*
X152006825Y-114755901D01*
X151881641Y-114493080D01*
X151707588Y-114259731D01*
X151491355Y-114064822D01*
X151241252Y-113915843D01*
X151078832Y-113858228D01*
X151193097Y-113810898D01*
X151394717Y-113676180D01*
X151566180Y-113504717D01*
X151700898Y-113303097D01*
X151793693Y-113079069D01*
X151841000Y-112841243D01*
X151841000Y-112598757D01*
X151793693Y-112360931D01*
X151761758Y-112283833D01*
X152740220Y-111305372D01*
X152759527Y-111289527D01*
X152822759Y-111212479D01*
X152869745Y-111124575D01*
X152898678Y-111029193D01*
X152906000Y-110954854D01*
X152906000Y-110954847D01*
X152908447Y-110930001D01*
X152906000Y-110905155D01*
X152906000Y-82045374D01*
X153314231Y-82045374D01*
X153614411Y-82483828D01*
X154193356Y-82794296D01*
X154821746Y-82985852D01*
X155475431Y-83051134D01*
X156129293Y-82987634D01*
X156758203Y-82797792D01*
X157337992Y-82488904D01*
X157345589Y-82483828D01*
X157645769Y-82045374D01*
X155480000Y-79879605D01*
X153314231Y-82045374D01*
X152906000Y-82045374D01*
X152906000Y-81709244D01*
X153134626Y-81865769D01*
X155300395Y-79700000D01*
X153134626Y-77534231D01*
X152896009Y-77697596D01*
X152886425Y-77666000D01*
X152869745Y-77611014D01*
X152854118Y-77581779D01*
X152822759Y-77523110D01*
X152759527Y-77446062D01*
X152740220Y-77430217D01*
X151916002Y-76606000D01*
X154194679Y-76606000D01*
X153622008Y-76911096D01*
X153614411Y-76916172D01*
X153314231Y-77354626D01*
X155480000Y-79520395D01*
X155494143Y-79506253D01*
X155673748Y-79685858D01*
X155659605Y-79700000D01*
X157825374Y-81865769D01*
X158263828Y-81565589D01*
X158574001Y-80987194D01*
X158574000Y-127414679D01*
X158268904Y-126842008D01*
X158263828Y-126834411D01*
X157825374Y-126534231D01*
X155659605Y-128700000D01*
X155673748Y-128714143D01*
X155494143Y-128893748D01*
X155480000Y-128879605D01*
X153314231Y-131045374D01*
X153614411Y-131483828D01*
X154192804Y-131794000D01*
X98765321Y-131794000D01*
X99337992Y-131488904D01*
X99345589Y-131483828D01*
X99645769Y-131045374D01*
X97480000Y-128879605D01*
X97465858Y-128893748D01*
X97286253Y-128714143D01*
X97300395Y-128700000D01*
X97659605Y-128700000D01*
X99825374Y-130865769D01*
X100263828Y-130565589D01*
X100574296Y-129986644D01*
X100765852Y-129358254D01*
X100831134Y-128704569D01*
X100830247Y-128695431D01*
X152128866Y-128695431D01*
X152192366Y-129349293D01*
X152382208Y-129978203D01*
X152691096Y-130557992D01*
X152696172Y-130565589D01*
X153134626Y-130865769D01*
X155300395Y-128700000D01*
X153134626Y-126534231D01*
X152696172Y-126834411D01*
X152385704Y-127413356D01*
X152194148Y-128041746D01*
X152128866Y-128695431D01*
X100830247Y-128695431D01*
X100767634Y-128050707D01*
X100577792Y-127421797D01*
X100268904Y-126842008D01*
X100263828Y-126834411D01*
X99825374Y-126534231D01*
X97659605Y-128700000D01*
X97300395Y-128700000D01*
X95134626Y-126534231D01*
X94696172Y-126834411D01*
X94386000Y-127412804D01*
X94386000Y-126354626D01*
X95314231Y-126354626D01*
X97480000Y-128520395D01*
X99645769Y-126354626D01*
X153314231Y-126354626D01*
X155480000Y-128520395D01*
X157645769Y-126354626D01*
X157345589Y-125916172D01*
X156766644Y-125605704D01*
X156138254Y-125414148D01*
X155484569Y-125348866D01*
X154830707Y-125412366D01*
X154201797Y-125602208D01*
X153622008Y-125911096D01*
X153614411Y-125916172D01*
X153314231Y-126354626D01*
X99645769Y-126354626D01*
X99345589Y-125916172D01*
X98766644Y-125605704D01*
X98138254Y-125414148D01*
X97484569Y-125348866D01*
X96830707Y-125412366D01*
X96201797Y-125602208D01*
X95622008Y-125911096D01*
X95614411Y-125916172D01*
X95314231Y-126354626D01*
X94386000Y-126354626D01*
X94386000Y-122030000D01*
X121437157Y-122030000D01*
X121437157Y-123730000D01*
X121444513Y-123804689D01*
X121466299Y-123876508D01*
X121501678Y-123942696D01*
X121549289Y-124000711D01*
X121607304Y-124048322D01*
X121673492Y-124083701D01*
X121745311Y-124105487D01*
X121820000Y-124112843D01*
X123520000Y-124112843D01*
X123594689Y-124105487D01*
X123666508Y-124083701D01*
X123732696Y-124048322D01*
X123790711Y-124000711D01*
X123838322Y-123942696D01*
X123873701Y-123876508D01*
X123895487Y-123804689D01*
X123902843Y-123730000D01*
X123902843Y-122030000D01*
X149377157Y-122030000D01*
X149377157Y-123730000D01*
X149384513Y-123804689D01*
X149406299Y-123876508D01*
X149441678Y-123942696D01*
X149489289Y-124000711D01*
X149547304Y-124048322D01*
X149613492Y-124083701D01*
X149685311Y-124105487D01*
X149760000Y-124112843D01*
X151460000Y-124112843D01*
X151534689Y-124105487D01*
X151606508Y-124083701D01*
X151672696Y-124048322D01*
X151730711Y-124000711D01*
X151778322Y-123942696D01*
X151813701Y-123876508D01*
X151835487Y-123804689D01*
X151842843Y-123730000D01*
X151842843Y-122030000D01*
X151835487Y-121955311D01*
X151813701Y-121883492D01*
X151778322Y-121817304D01*
X151730711Y-121759289D01*
X151672696Y-121711678D01*
X151606508Y-121676299D01*
X151534689Y-121654513D01*
X151460000Y-121647157D01*
X149760000Y-121647157D01*
X149685311Y-121654513D01*
X149613492Y-121676299D01*
X149547304Y-121711678D01*
X149489289Y-121759289D01*
X149441678Y-121817304D01*
X149406299Y-121883492D01*
X149384513Y-121955311D01*
X149377157Y-122030000D01*
X123902843Y-122030000D01*
X123895487Y-121955311D01*
X123873701Y-121883492D01*
X123838322Y-121817304D01*
X123790711Y-121759289D01*
X123732696Y-121711678D01*
X123666508Y-121676299D01*
X123594689Y-121654513D01*
X123520000Y-121647157D01*
X121820000Y-121647157D01*
X121745311Y-121654513D01*
X121673492Y-121676299D01*
X121607304Y-121711678D01*
X121549289Y-121759289D01*
X121501678Y-121817304D01*
X121466299Y-121883492D01*
X121444513Y-121955311D01*
X121437157Y-122030000D01*
X94386000Y-122030000D01*
X94386000Y-120218757D01*
X121439000Y-120218757D01*
X121439000Y-120461243D01*
X121486307Y-120699069D01*
X121579102Y-120923097D01*
X121713820Y-121124717D01*
X121885283Y-121296180D01*
X122086903Y-121430898D01*
X122310931Y-121523693D01*
X122548757Y-121571000D01*
X122791243Y-121571000D01*
X123029069Y-121523693D01*
X123253097Y-121430898D01*
X123454717Y-121296180D01*
X123626180Y-121124717D01*
X123760898Y-120923097D01*
X123853693Y-120699069D01*
X123901000Y-120461243D01*
X123901000Y-120218757D01*
X149379000Y-120218757D01*
X149379000Y-120461243D01*
X149426307Y-120699069D01*
X149519102Y-120923097D01*
X149653820Y-121124717D01*
X149825283Y-121296180D01*
X150026903Y-121430898D01*
X150250931Y-121523693D01*
X150488757Y-121571000D01*
X150731243Y-121571000D01*
X150969069Y-121523693D01*
X151193097Y-121430898D01*
X151394717Y-121296180D01*
X151566180Y-121124717D01*
X151700898Y-120923097D01*
X151793693Y-120699069D01*
X151841000Y-120461243D01*
X151841000Y-120218757D01*
X151793693Y-119980931D01*
X151700898Y-119756903D01*
X151566180Y-119555283D01*
X151394717Y-119383820D01*
X151193097Y-119249102D01*
X150969069Y-119156307D01*
X150731243Y-119109000D01*
X150488757Y-119109000D01*
X150250931Y-119156307D01*
X150026903Y-119249102D01*
X149825283Y-119383820D01*
X149653820Y-119555283D01*
X149519102Y-119756903D01*
X149426307Y-119980931D01*
X149379000Y-120218757D01*
X123901000Y-120218757D01*
X123853693Y-119980931D01*
X123760898Y-119756903D01*
X123626180Y-119555283D01*
X123454717Y-119383820D01*
X123253097Y-119249102D01*
X123029069Y-119156307D01*
X122791243Y-119109000D01*
X122548757Y-119109000D01*
X122310931Y-119156307D01*
X122086903Y-119249102D01*
X121885283Y-119383820D01*
X121713820Y-119555283D01*
X121579102Y-119756903D01*
X121486307Y-119980931D01*
X121439000Y-120218757D01*
X94386000Y-120218757D01*
X94386000Y-115616890D01*
X121228524Y-115616890D01*
X121273175Y-115764099D01*
X121398359Y-116026920D01*
X121572412Y-116260269D01*
X121788645Y-116455178D01*
X122038748Y-116604157D01*
X122201168Y-116661772D01*
X122086903Y-116709102D01*
X121885283Y-116843820D01*
X121713820Y-117015283D01*
X121579102Y-117216903D01*
X121486307Y-117440931D01*
X121439000Y-117678757D01*
X121439000Y-117921243D01*
X121486307Y-118159069D01*
X121579102Y-118383097D01*
X121713820Y-118584717D01*
X121885283Y-118756180D01*
X122086903Y-118890898D01*
X122310931Y-118983693D01*
X122548757Y-119031000D01*
X122791243Y-119031000D01*
X123029069Y-118983693D01*
X123253097Y-118890898D01*
X123454717Y-118756180D01*
X123626180Y-118584717D01*
X123760898Y-118383097D01*
X123853693Y-118159069D01*
X123901000Y-117921243D01*
X123901000Y-117678757D01*
X123853693Y-117440931D01*
X123760898Y-117216903D01*
X123626180Y-117015283D01*
X123454717Y-116843820D01*
X123253097Y-116709102D01*
X123138832Y-116661772D01*
X123301252Y-116604157D01*
X123551355Y-116455178D01*
X123767588Y-116260269D01*
X123941641Y-116026920D01*
X124066825Y-115764099D01*
X124111476Y-115616890D01*
X149168524Y-115616890D01*
X149213175Y-115764099D01*
X149338359Y-116026920D01*
X149512412Y-116260269D01*
X149728645Y-116455178D01*
X149978748Y-116604157D01*
X150141168Y-116661772D01*
X150026903Y-116709102D01*
X149825283Y-116843820D01*
X149653820Y-117015283D01*
X149519102Y-117216903D01*
X149426307Y-117440931D01*
X149379000Y-117678757D01*
X149379000Y-117921243D01*
X149426307Y-118159069D01*
X149519102Y-118383097D01*
X149653820Y-118584717D01*
X149825283Y-118756180D01*
X150026903Y-118890898D01*
X150250931Y-118983693D01*
X150488757Y-119031000D01*
X150731243Y-119031000D01*
X150969069Y-118983693D01*
X151193097Y-118890898D01*
X151394717Y-118756180D01*
X151566180Y-118584717D01*
X151700898Y-118383097D01*
X151793693Y-118159069D01*
X151841000Y-117921243D01*
X151841000Y-117678757D01*
X151793693Y-117440931D01*
X151700898Y-117216903D01*
X151566180Y-117015283D01*
X151394717Y-116843820D01*
X151193097Y-116709102D01*
X151078832Y-116661772D01*
X151241252Y-116604157D01*
X151491355Y-116455178D01*
X151707588Y-116260269D01*
X151881641Y-116026920D01*
X152006825Y-115764099D01*
X152051476Y-115616890D01*
X151930155Y-115387000D01*
X150737000Y-115387000D01*
X150737000Y-115407000D01*
X150483000Y-115407000D01*
X150483000Y-115387000D01*
X149289845Y-115387000D01*
X149168524Y-115616890D01*
X124111476Y-115616890D01*
X123990155Y-115387000D01*
X122797000Y-115387000D01*
X122797000Y-115407000D01*
X122543000Y-115407000D01*
X122543000Y-115387000D01*
X121349845Y-115387000D01*
X121228524Y-115616890D01*
X94386000Y-115616890D01*
X94386000Y-114903110D01*
X121228524Y-114903110D01*
X121349845Y-115133000D01*
X122543000Y-115133000D01*
X122543000Y-115113000D01*
X122797000Y-115113000D01*
X122797000Y-115133000D01*
X123990155Y-115133000D01*
X124111476Y-114903110D01*
X124066825Y-114755901D01*
X123941641Y-114493080D01*
X123767588Y-114259731D01*
X123551355Y-114064822D01*
X123301252Y-113915843D01*
X123138832Y-113858228D01*
X123253097Y-113810898D01*
X123454717Y-113676180D01*
X123626180Y-113504717D01*
X123760898Y-113303097D01*
X123853693Y-113079069D01*
X123901000Y-112841243D01*
X123901000Y-112598757D01*
X123853693Y-112360931D01*
X123760898Y-112136903D01*
X123626180Y-111935283D01*
X123560897Y-111870000D01*
X129057157Y-111870000D01*
X129057157Y-113570000D01*
X129064513Y-113644689D01*
X129086299Y-113716508D01*
X129121678Y-113782696D01*
X129169289Y-113840711D01*
X129227304Y-113888322D01*
X129293492Y-113923701D01*
X129365311Y-113945487D01*
X129440000Y-113952843D01*
X131140000Y-113952843D01*
X131214689Y-113945487D01*
X131286508Y-113923701D01*
X131352696Y-113888322D01*
X131410711Y-113840711D01*
X131458322Y-113782696D01*
X131493701Y-113716508D01*
X131515487Y-113644689D01*
X131522843Y-113570000D01*
X131522843Y-111870000D01*
X131515487Y-111795311D01*
X131493701Y-111723492D01*
X131458322Y-111657304D01*
X131410711Y-111599289D01*
X131352696Y-111551678D01*
X131286508Y-111516299D01*
X131214689Y-111494513D01*
X131140000Y-111487157D01*
X129440000Y-111487157D01*
X129365311Y-111494513D01*
X129293492Y-111516299D01*
X129227304Y-111551678D01*
X129169289Y-111599289D01*
X129121678Y-111657304D01*
X129086299Y-111723492D01*
X129064513Y-111795311D01*
X129057157Y-111870000D01*
X123560897Y-111870000D01*
X123454717Y-111763820D01*
X123253097Y-111629102D01*
X123029069Y-111536307D01*
X122791243Y-111489000D01*
X122548757Y-111489000D01*
X122310931Y-111536307D01*
X122086903Y-111629102D01*
X121885283Y-111763820D01*
X121713820Y-111935283D01*
X121579102Y-112136903D01*
X121486307Y-112360931D01*
X121439000Y-112598757D01*
X121439000Y-112841243D01*
X121486307Y-113079069D01*
X121579102Y-113303097D01*
X121713820Y-113504717D01*
X121885283Y-113676180D01*
X122086903Y-113810898D01*
X122201168Y-113858228D01*
X122038748Y-113915843D01*
X121788645Y-114064822D01*
X121572412Y-114259731D01*
X121398359Y-114493080D01*
X121273175Y-114755901D01*
X121228524Y-114903110D01*
X94386000Y-114903110D01*
X94386000Y-111870000D01*
X101117157Y-111870000D01*
X101117157Y-113570000D01*
X101124513Y-113644689D01*
X101146299Y-113716508D01*
X101181678Y-113782696D01*
X101229289Y-113840711D01*
X101287304Y-113888322D01*
X101353492Y-113923701D01*
X101425311Y-113945487D01*
X101500000Y-113952843D01*
X103200000Y-113952843D01*
X103274689Y-113945487D01*
X103346508Y-113923701D01*
X103412696Y-113888322D01*
X103470711Y-113840711D01*
X103518322Y-113782696D01*
X103553701Y-113716508D01*
X103575487Y-113644689D01*
X103582843Y-113570000D01*
X103582843Y-111870000D01*
X103575487Y-111795311D01*
X103553701Y-111723492D01*
X103518322Y-111657304D01*
X103470711Y-111599289D01*
X103412696Y-111551678D01*
X103346508Y-111516299D01*
X103274689Y-111494513D01*
X103200000Y-111487157D01*
X101500000Y-111487157D01*
X101425311Y-111494513D01*
X101353492Y-111516299D01*
X101287304Y-111551678D01*
X101229289Y-111599289D01*
X101181678Y-111657304D01*
X101146299Y-111723492D01*
X101124513Y-111795311D01*
X101117157Y-111870000D01*
X94386000Y-111870000D01*
X94386000Y-110058757D01*
X101119000Y-110058757D01*
X101119000Y-110301243D01*
X101166307Y-110539069D01*
X101259102Y-110763097D01*
X101393820Y-110964717D01*
X101565283Y-111136180D01*
X101766903Y-111270898D01*
X101990931Y-111363693D01*
X102228757Y-111411000D01*
X102471243Y-111411000D01*
X102709069Y-111363693D01*
X102933097Y-111270898D01*
X103134717Y-111136180D01*
X103306180Y-110964717D01*
X103440898Y-110763097D01*
X103533693Y-110539069D01*
X103581000Y-110301243D01*
X103581000Y-110058757D01*
X103533693Y-109820931D01*
X103440898Y-109596903D01*
X103306180Y-109395283D01*
X103134717Y-109223820D01*
X102933097Y-109089102D01*
X102709069Y-108996307D01*
X102471243Y-108949000D01*
X102228757Y-108949000D01*
X101990931Y-108996307D01*
X101766903Y-109089102D01*
X101565283Y-109223820D01*
X101393820Y-109395283D01*
X101259102Y-109596903D01*
X101166307Y-109820931D01*
X101119000Y-110058757D01*
X94386000Y-110058757D01*
X94386000Y-80985321D01*
X94691096Y-81557992D01*
X94696172Y-81565589D01*
X95134626Y-81865769D01*
X97300395Y-79700000D01*
X97286253Y-79685858D01*
X97465858Y-79506253D01*
X97480000Y-79520395D01*
X99645769Y-77354626D01*
X99345589Y-76916172D01*
X98767196Y-76606000D01*
X109339406Y-76606000D01*
X108516893Y-77428513D01*
G37*
X108516893Y-77428513D02*
X108430269Y-77332412D01*
X108196920Y-77158359D01*
X107934099Y-77033175D01*
X107786890Y-76988524D01*
X107557000Y-77109845D01*
X107557000Y-78303000D01*
X107577000Y-78303000D01*
X107577000Y-78557000D01*
X107557000Y-78557000D01*
X107557000Y-78577000D01*
X107303000Y-78577000D01*
X107303000Y-78557000D01*
X107283000Y-78557000D01*
X107283000Y-78303000D01*
X107303000Y-78303000D01*
X107303000Y-77109845D01*
X107073110Y-76988524D01*
X106925901Y-77033175D01*
X106663080Y-77158359D01*
X106429731Y-77332412D01*
X106234822Y-77548645D01*
X106085843Y-77798748D01*
X106028228Y-77961168D01*
X105980898Y-77846903D01*
X105846180Y-77645283D01*
X105674717Y-77473820D01*
X105473097Y-77339102D01*
X105249069Y-77246307D01*
X105011243Y-77199000D01*
X104768757Y-77199000D01*
X104530931Y-77246307D01*
X104306903Y-77339102D01*
X104105283Y-77473820D01*
X103933820Y-77645283D01*
X103799102Y-77846903D01*
X103798233Y-77849000D01*
X103441767Y-77849000D01*
X103440898Y-77846903D01*
X103306180Y-77645283D01*
X103134717Y-77473820D01*
X102933097Y-77339102D01*
X102709069Y-77246307D01*
X102471243Y-77199000D01*
X102228757Y-77199000D01*
X101990931Y-77246307D01*
X101766903Y-77339102D01*
X101565283Y-77473820D01*
X101393820Y-77645283D01*
X101259102Y-77846903D01*
X101166307Y-78070931D01*
X101119000Y-78308757D01*
X101119000Y-78551243D01*
X101166307Y-78789069D01*
X101167176Y-78791167D01*
X100780027Y-79178316D01*
X100767634Y-79050707D01*
X100577792Y-78421797D01*
X100268904Y-77842008D01*
X100263828Y-77834411D01*
X99825374Y-77534231D01*
X97659605Y-79700000D01*
X97673748Y-79714143D01*
X97494143Y-79893748D01*
X97480000Y-79879605D01*
X95314231Y-82045374D01*
X95614411Y-82483828D01*
X96193356Y-82794296D01*
X96821746Y-82985852D01*
X97475431Y-83051134D01*
X98129293Y-82987634D01*
X98758203Y-82797792D01*
X99337992Y-82488904D01*
X99345589Y-82483828D01*
X99645768Y-82045376D01*
X99729367Y-82128975D01*
X99419355Y-82438988D01*
X99397184Y-82457183D01*
X99345475Y-82520191D01*
X99324579Y-82545653D01*
X99270629Y-82646586D01*
X99237407Y-82756105D01*
X99226189Y-82870000D01*
X99229001Y-82898550D01*
X99229000Y-105071460D01*
X99226189Y-105100000D01*
X99229000Y-105128539D01*
X99237407Y-105213895D01*
X99270629Y-105323414D01*
X99324579Y-105424347D01*
X99397183Y-105512817D01*
X99419360Y-105531017D01*
X101167176Y-107278834D01*
X101166307Y-107280931D01*
X101119000Y-107518757D01*
X101119000Y-107761243D01*
X101166307Y-107999069D01*
X101259102Y-108223097D01*
X101393820Y-108424717D01*
X101565283Y-108596180D01*
X101766903Y-108730898D01*
X101990931Y-108823693D01*
X102228757Y-108871000D01*
X102471243Y-108871000D01*
X102709069Y-108823693D01*
X102933097Y-108730898D01*
X103134717Y-108596180D01*
X103306180Y-108424717D01*
X103440898Y-108223097D01*
X103533693Y-107999069D01*
X103581000Y-107761243D01*
X103581000Y-107518757D01*
X103533693Y-107280931D01*
X103440898Y-107056903D01*
X103306180Y-106855283D01*
X103134717Y-106683820D01*
X102933097Y-106549102D01*
X102709069Y-106456307D01*
X102471243Y-106409000D01*
X102228757Y-106409000D01*
X101990931Y-106456307D01*
X101988834Y-106457176D01*
X101633255Y-106101597D01*
X101766903Y-106190898D01*
X101990931Y-106283693D01*
X102228757Y-106331000D01*
X102471243Y-106331000D01*
X102709069Y-106283693D01*
X102933097Y-106190898D01*
X103134717Y-106056180D01*
X103306180Y-105884717D01*
X103440898Y-105683097D01*
X103533693Y-105459069D01*
X103581000Y-105221243D01*
X103581000Y-104978757D01*
X103533693Y-104740931D01*
X103440898Y-104516903D01*
X103306180Y-104315283D01*
X103134717Y-104143820D01*
X102933097Y-104009102D01*
X102709069Y-103916307D01*
X102471243Y-103869000D01*
X102228757Y-103869000D01*
X101990931Y-103916307D01*
X101766903Y-104009102D01*
X101565283Y-104143820D01*
X101393820Y-104315283D01*
X101259102Y-104516903D01*
X101166307Y-104740931D01*
X101119000Y-104978757D01*
X101119000Y-105221243D01*
X101166307Y-105459069D01*
X101259102Y-105683097D01*
X101348403Y-105816746D01*
X100391000Y-104859343D01*
X100391000Y-102438757D01*
X101119000Y-102438757D01*
X101119000Y-102681243D01*
X101166307Y-102919069D01*
X101259102Y-103143097D01*
X101393820Y-103344717D01*
X101565283Y-103516180D01*
X101766903Y-103650898D01*
X101990931Y-103743693D01*
X102228757Y-103791000D01*
X102471243Y-103791000D01*
X102709069Y-103743693D01*
X102933097Y-103650898D01*
X103134717Y-103516180D01*
X103306180Y-103344717D01*
X103440898Y-103143097D01*
X103533693Y-102919069D01*
X103581000Y-102681243D01*
X103581000Y-102438757D01*
X103533693Y-102200931D01*
X103440898Y-101976903D01*
X103306180Y-101775283D01*
X103134717Y-101603820D01*
X102933097Y-101469102D01*
X102709069Y-101376307D01*
X102471243Y-101329000D01*
X102228757Y-101329000D01*
X101990931Y-101376307D01*
X101766903Y-101469102D01*
X101565283Y-101603820D01*
X101393820Y-101775283D01*
X101259102Y-101976903D01*
X101166307Y-102200931D01*
X101119000Y-102438757D01*
X100391000Y-102438757D01*
X100391000Y-99898757D01*
X101119000Y-99898757D01*
X101119000Y-100141243D01*
X101166307Y-100379069D01*
X101259102Y-100603097D01*
X101393820Y-100804717D01*
X101565283Y-100976180D01*
X101766903Y-101110898D01*
X101990931Y-101203693D01*
X102228757Y-101251000D01*
X102471243Y-101251000D01*
X102709069Y-101203693D01*
X102933097Y-101110898D01*
X103134717Y-100976180D01*
X103306180Y-100804717D01*
X103440898Y-100603097D01*
X103533693Y-100379069D01*
X103581000Y-100141243D01*
X103581000Y-99898757D01*
X103533693Y-99660931D01*
X103440898Y-99436903D01*
X103306180Y-99235283D01*
X103134717Y-99063820D01*
X102933097Y-98929102D01*
X102709069Y-98836307D01*
X102471243Y-98789000D01*
X102228757Y-98789000D01*
X101990931Y-98836307D01*
X101766903Y-98929102D01*
X101565283Y-99063820D01*
X101393820Y-99235283D01*
X101259102Y-99436903D01*
X101166307Y-99660931D01*
X101119000Y-99898757D01*
X100391000Y-99898757D01*
X100391000Y-94818757D01*
X101119000Y-94818757D01*
X101119000Y-95061243D01*
X101166307Y-95299069D01*
X101259102Y-95523097D01*
X101393820Y-95724717D01*
X101565283Y-95896180D01*
X101766903Y-96030898D01*
X101990931Y-96123693D01*
X102228757Y-96171000D01*
X102471243Y-96171000D01*
X102709069Y-96123693D01*
X102933097Y-96030898D01*
X103134717Y-95896180D01*
X103306180Y-95724717D01*
X103440898Y-95523097D01*
X103533693Y-95299069D01*
X103581000Y-95061243D01*
X103581000Y-94818757D01*
X103533693Y-94580931D01*
X103440898Y-94356903D01*
X103306180Y-94155283D01*
X103134717Y-93983820D01*
X102933097Y-93849102D01*
X102709069Y-93756307D01*
X102471243Y-93709000D01*
X102228757Y-93709000D01*
X101990931Y-93756307D01*
X101766903Y-93849102D01*
X101565283Y-93983820D01*
X101393820Y-94155283D01*
X101259102Y-94356903D01*
X101166307Y-94580931D01*
X101119000Y-94818757D01*
X100391000Y-94818757D01*
X100391000Y-92278757D01*
X101119000Y-92278757D01*
X101119000Y-92521243D01*
X101166307Y-92759069D01*
X101259102Y-92983097D01*
X101393820Y-93184717D01*
X101565283Y-93356180D01*
X101766903Y-93490898D01*
X101990931Y-93583693D01*
X102228757Y-93631000D01*
X102471243Y-93631000D01*
X102709069Y-93583693D01*
X102933097Y-93490898D01*
X103134717Y-93356180D01*
X103306180Y-93184717D01*
X103440898Y-92983097D01*
X103533693Y-92759069D01*
X103581000Y-92521243D01*
X103581000Y-92278757D01*
X103533693Y-92040931D01*
X103440898Y-91816903D01*
X103306180Y-91615283D01*
X103134717Y-91443820D01*
X102933097Y-91309102D01*
X102709069Y-91216307D01*
X102471243Y-91169000D01*
X102228757Y-91169000D01*
X101990931Y-91216307D01*
X101766903Y-91309102D01*
X101565283Y-91443820D01*
X101393820Y-91615283D01*
X101259102Y-91816903D01*
X101166307Y-92040931D01*
X101119000Y-92278757D01*
X100391000Y-92278757D01*
X100391000Y-89738757D01*
X101119000Y-89738757D01*
X101119000Y-89981243D01*
X101166307Y-90219069D01*
X101259102Y-90443097D01*
X101393820Y-90644717D01*
X101565283Y-90816180D01*
X101766903Y-90950898D01*
X101990931Y-91043693D01*
X102228757Y-91091000D01*
X102471243Y-91091000D01*
X102709069Y-91043693D01*
X102933097Y-90950898D01*
X103134717Y-90816180D01*
X103306180Y-90644717D01*
X103440898Y-90443097D01*
X103533693Y-90219069D01*
X103581000Y-89981243D01*
X103581000Y-89738757D01*
X103533693Y-89500931D01*
X103440898Y-89276903D01*
X103306180Y-89075283D01*
X103134717Y-88903820D01*
X102933097Y-88769102D01*
X102709069Y-88676307D01*
X102471243Y-88629000D01*
X102228757Y-88629000D01*
X101990931Y-88676307D01*
X101766903Y-88769102D01*
X101565283Y-88903820D01*
X101393820Y-89075283D01*
X101259102Y-89276903D01*
X101166307Y-89500931D01*
X101119000Y-89738757D01*
X100391000Y-89738757D01*
X100391000Y-87198757D01*
X101119000Y-87198757D01*
X101119000Y-87441243D01*
X101166307Y-87679069D01*
X101259102Y-87903097D01*
X101393820Y-88104717D01*
X101565283Y-88276180D01*
X101766903Y-88410898D01*
X101990931Y-88503693D01*
X102228757Y-88551000D01*
X102471243Y-88551000D01*
X102709069Y-88503693D01*
X102933097Y-88410898D01*
X103134717Y-88276180D01*
X103306180Y-88104717D01*
X103440898Y-87903097D01*
X103533693Y-87679069D01*
X103581000Y-87441243D01*
X103581000Y-87198757D01*
X103533693Y-86960931D01*
X103440898Y-86736903D01*
X103306180Y-86535283D01*
X103134717Y-86363820D01*
X102933097Y-86229102D01*
X102709069Y-86136307D01*
X102471243Y-86089000D01*
X102228757Y-86089000D01*
X101990931Y-86136307D01*
X101766903Y-86229102D01*
X101565283Y-86363820D01*
X101393820Y-86535283D01*
X101259102Y-86736903D01*
X101166307Y-86960931D01*
X101119000Y-87198757D01*
X100391000Y-87198757D01*
X100391000Y-84658757D01*
X101119000Y-84658757D01*
X101119000Y-84901243D01*
X101166307Y-85139069D01*
X101259102Y-85363097D01*
X101393820Y-85564717D01*
X101565283Y-85736180D01*
X101766903Y-85870898D01*
X101990931Y-85963693D01*
X102228757Y-86011000D01*
X102471243Y-86011000D01*
X102709069Y-85963693D01*
X102933097Y-85870898D01*
X103134717Y-85736180D01*
X103306180Y-85564717D01*
X103440898Y-85363097D01*
X103533693Y-85139069D01*
X103581000Y-84901243D01*
X103581000Y-84658757D01*
X103533693Y-84420931D01*
X103440898Y-84196903D01*
X103306180Y-83995283D01*
X103134717Y-83823820D01*
X102933097Y-83689102D01*
X102709069Y-83596307D01*
X102471243Y-83549000D01*
X102228757Y-83549000D01*
X101990931Y-83596307D01*
X101766903Y-83689102D01*
X101565283Y-83823820D01*
X101393820Y-83995283D01*
X101259102Y-84196903D01*
X101166307Y-84420931D01*
X101119000Y-84658757D01*
X100391000Y-84658757D01*
X100391000Y-83110657D01*
X101336852Y-82164806D01*
X101353492Y-82173701D01*
X101425311Y-82195487D01*
X101500000Y-82202843D01*
X103200000Y-82202843D01*
X103274689Y-82195487D01*
X103346508Y-82173701D01*
X103412696Y-82138322D01*
X103470711Y-82090711D01*
X103518322Y-82032696D01*
X103553701Y-81966508D01*
X103575487Y-81894689D01*
X103582843Y-81820000D01*
X103582843Y-80848757D01*
X103659000Y-80848757D01*
X103659000Y-81091243D01*
X103706307Y-81329069D01*
X103799102Y-81553097D01*
X103933820Y-81754717D01*
X104105283Y-81926180D01*
X104306903Y-82060898D01*
X104530931Y-82153693D01*
X104768757Y-82201000D01*
X105011243Y-82201000D01*
X105249069Y-82153693D01*
X105473097Y-82060898D01*
X105674717Y-81926180D01*
X105846180Y-81754717D01*
X105980898Y-81553097D01*
X106073693Y-81329069D01*
X106121000Y-81091243D01*
X106121000Y-80848757D01*
X106073693Y-80610931D01*
X105980898Y-80386903D01*
X105846180Y-80185283D01*
X105674717Y-80013820D01*
X105473097Y-79879102D01*
X105249069Y-79786307D01*
X105011243Y-79739000D01*
X104768757Y-79739000D01*
X104530931Y-79786307D01*
X104306903Y-79879102D01*
X104105283Y-80013820D01*
X103933820Y-80185283D01*
X103799102Y-80386903D01*
X103706307Y-80610931D01*
X103659000Y-80848757D01*
X103582843Y-80848757D01*
X103582843Y-80120000D01*
X103575487Y-80045311D01*
X103553701Y-79973492D01*
X103518322Y-79907304D01*
X103470711Y-79849289D01*
X103412696Y-79801678D01*
X103346508Y-79766299D01*
X103274689Y-79744513D01*
X103200000Y-79737157D01*
X101864500Y-79737157D01*
X101988833Y-79612824D01*
X101990931Y-79613693D01*
X102228757Y-79661000D01*
X102471243Y-79661000D01*
X102709069Y-79613693D01*
X102933097Y-79520898D01*
X103134717Y-79386180D01*
X103306180Y-79214717D01*
X103440898Y-79013097D01*
X103441767Y-79011000D01*
X103798233Y-79011000D01*
X103799102Y-79013097D01*
X103933820Y-79214717D01*
X104105283Y-79386180D01*
X104306903Y-79520898D01*
X104530931Y-79613693D01*
X104768757Y-79661000D01*
X105011243Y-79661000D01*
X105249069Y-79613693D01*
X105473097Y-79520898D01*
X105674717Y-79386180D01*
X105846180Y-79214717D01*
X105980898Y-79013097D01*
X106028228Y-78898832D01*
X106085843Y-79061252D01*
X106234822Y-79311355D01*
X106429731Y-79527588D01*
X106663080Y-79701641D01*
X106925901Y-79826825D01*
X106953154Y-79835091D01*
X106846903Y-79879102D01*
X106645283Y-80013820D01*
X106473820Y-80185283D01*
X106339102Y-80386903D01*
X106246307Y-80610931D01*
X106199000Y-80848757D01*
X106199000Y-81091243D01*
X106246307Y-81329069D01*
X106339102Y-81553097D01*
X106473820Y-81754717D01*
X106645283Y-81926180D01*
X106846903Y-82060898D01*
X107070931Y-82153693D01*
X107308757Y-82201000D01*
X107551243Y-82201000D01*
X107789069Y-82153693D01*
X108013097Y-82060898D01*
X108194000Y-81940022D01*
X108194001Y-90920407D01*
X102859783Y-96254626D01*
X102859777Y-96254631D01*
X102786166Y-96328242D01*
X102709069Y-96296307D01*
X102471243Y-96249000D01*
X102228757Y-96249000D01*
X101990931Y-96296307D01*
X101766903Y-96389102D01*
X101565283Y-96523820D01*
X101393820Y-96695283D01*
X101259102Y-96896903D01*
X101166307Y-97120931D01*
X101119000Y-97358757D01*
X101119000Y-97601243D01*
X101166307Y-97839069D01*
X101259102Y-98063097D01*
X101393820Y-98264717D01*
X101565283Y-98436180D01*
X101766903Y-98570898D01*
X101990931Y-98663693D01*
X102228757Y-98711000D01*
X102471243Y-98711000D01*
X102709069Y-98663693D01*
X102933097Y-98570898D01*
X103134717Y-98436180D01*
X103306180Y-98264717D01*
X103440898Y-98063097D01*
X103533693Y-97839069D01*
X103581000Y-97601243D01*
X103581000Y-97358757D01*
X103533693Y-97120931D01*
X103501758Y-97043834D01*
X103575369Y-96970223D01*
X103575374Y-96970217D01*
X109040222Y-91505370D01*
X109059527Y-91489527D01*
X109122759Y-91412479D01*
X109169745Y-91324575D01*
X109198678Y-91229193D01*
X109206000Y-91154854D01*
X109206000Y-91154847D01*
X109208447Y-91130001D01*
X109206000Y-91105155D01*
X109206000Y-81940023D01*
X109386903Y-82060898D01*
X109464001Y-82092833D01*
X109464000Y-94915154D01*
X109461553Y-94940000D01*
X109464000Y-94964846D01*
X109464000Y-94964853D01*
X109471322Y-95039192D01*
X109500255Y-95134574D01*
X109547241Y-95222479D01*
X109610473Y-95299527D01*
X109629785Y-95315376D01*
X121518242Y-107203834D01*
X121486307Y-107280931D01*
X121439000Y-107518757D01*
X121439000Y-107761243D01*
X121486307Y-107999069D01*
X121579102Y-108223097D01*
X121713820Y-108424717D01*
X121885283Y-108596180D01*
X122086903Y-108730898D01*
X122310931Y-108823693D01*
X122548757Y-108871000D01*
X122791243Y-108871000D01*
X123029069Y-108823693D01*
X123253097Y-108730898D01*
X123454717Y-108596180D01*
X123626180Y-108424717D01*
X123688001Y-108332195D01*
X123688001Y-108446407D01*
X123106167Y-109028242D01*
X123029069Y-108996307D01*
X122791243Y-108949000D01*
X122548757Y-108949000D01*
X122310931Y-108996307D01*
X122086903Y-109089102D01*
X121885283Y-109223820D01*
X121713820Y-109395283D01*
X121579102Y-109596903D01*
X121486307Y-109820931D01*
X121439000Y-110058757D01*
X121439000Y-110301243D01*
X121486307Y-110539069D01*
X121579102Y-110763097D01*
X121713820Y-110964717D01*
X121885283Y-111136180D01*
X122086903Y-111270898D01*
X122310931Y-111363693D01*
X122548757Y-111411000D01*
X122791243Y-111411000D01*
X123029069Y-111363693D01*
X123253097Y-111270898D01*
X123454717Y-111136180D01*
X123626180Y-110964717D01*
X123760898Y-110763097D01*
X123853693Y-110539069D01*
X123901000Y-110301243D01*
X123901000Y-110058757D01*
X129059000Y-110058757D01*
X129059000Y-110301243D01*
X129106307Y-110539069D01*
X129199102Y-110763097D01*
X129333820Y-110964717D01*
X129505283Y-111136180D01*
X129706903Y-111270898D01*
X129930931Y-111363693D01*
X130168757Y-111411000D01*
X130411243Y-111411000D01*
X130649069Y-111363693D01*
X130873097Y-111270898D01*
X131074717Y-111136180D01*
X131246180Y-110964717D01*
X131380898Y-110763097D01*
X131473693Y-110539069D01*
X131521000Y-110301243D01*
X131521000Y-110058757D01*
X149379000Y-110058757D01*
X149379000Y-110301243D01*
X149426307Y-110539069D01*
X149519102Y-110763097D01*
X149653820Y-110964717D01*
X149825283Y-111136180D01*
X150026903Y-111270898D01*
X150250931Y-111363693D01*
X150488757Y-111411000D01*
X150731243Y-111411000D01*
X150969069Y-111363693D01*
X151193097Y-111270898D01*
X151394717Y-111136180D01*
X151566180Y-110964717D01*
X151700898Y-110763097D01*
X151793693Y-110539069D01*
X151841000Y-110301243D01*
X151841000Y-110058757D01*
X151793693Y-109820931D01*
X151700898Y-109596903D01*
X151566180Y-109395283D01*
X151394717Y-109223820D01*
X151193097Y-109089102D01*
X150969069Y-108996307D01*
X150731243Y-108949000D01*
X150488757Y-108949000D01*
X150250931Y-108996307D01*
X150026903Y-109089102D01*
X149825283Y-109223820D01*
X149653820Y-109395283D01*
X149519102Y-109596903D01*
X149426307Y-109820931D01*
X149379000Y-110058757D01*
X131521000Y-110058757D01*
X131473693Y-109820931D01*
X131380898Y-109596903D01*
X131246180Y-109395283D01*
X131074717Y-109223820D01*
X130873097Y-109089102D01*
X130649069Y-108996307D01*
X130411243Y-108949000D01*
X130168757Y-108949000D01*
X129930931Y-108996307D01*
X129706903Y-109089102D01*
X129505283Y-109223820D01*
X129333820Y-109395283D01*
X129199102Y-109596903D01*
X129106307Y-109820931D01*
X129059000Y-110058757D01*
X123901000Y-110058757D01*
X123853693Y-109820931D01*
X123821758Y-109743833D01*
X124534220Y-109031372D01*
X124553527Y-109015527D01*
X124616759Y-108938479D01*
X124663745Y-108850575D01*
X124692678Y-108755193D01*
X124700000Y-108680854D01*
X124700000Y-108680847D01*
X124702447Y-108656001D01*
X124700000Y-108631155D01*
X124700000Y-107518757D01*
X129059000Y-107518757D01*
X129059000Y-107761243D01*
X129106307Y-107999069D01*
X129199102Y-108223097D01*
X129333820Y-108424717D01*
X129505283Y-108596180D01*
X129706903Y-108730898D01*
X129930931Y-108823693D01*
X130168757Y-108871000D01*
X130411243Y-108871000D01*
X130649069Y-108823693D01*
X130873097Y-108730898D01*
X131074717Y-108596180D01*
X131246180Y-108424717D01*
X131380898Y-108223097D01*
X131473693Y-107999069D01*
X131521000Y-107761243D01*
X131521000Y-107518757D01*
X149379000Y-107518757D01*
X149379000Y-107761243D01*
X149426307Y-107999069D01*
X149519102Y-108223097D01*
X149653820Y-108424717D01*
X149825283Y-108596180D01*
X150026903Y-108730898D01*
X150250931Y-108823693D01*
X150488757Y-108871000D01*
X150731243Y-108871000D01*
X150969069Y-108823693D01*
X151193097Y-108730898D01*
X151394717Y-108596180D01*
X151566180Y-108424717D01*
X151700898Y-108223097D01*
X151793693Y-107999069D01*
X151841000Y-107761243D01*
X151841000Y-107518757D01*
X151793693Y-107280931D01*
X151700898Y-107056903D01*
X151566180Y-106855283D01*
X151394717Y-106683820D01*
X151193097Y-106549102D01*
X150969069Y-106456307D01*
X150731243Y-106409000D01*
X150488757Y-106409000D01*
X150250931Y-106456307D01*
X150026903Y-106549102D01*
X149825283Y-106683820D01*
X149653820Y-106855283D01*
X149519102Y-107056903D01*
X149426307Y-107280931D01*
X149379000Y-107518757D01*
X131521000Y-107518757D01*
X131473693Y-107280931D01*
X131380898Y-107056903D01*
X131246180Y-106855283D01*
X131074717Y-106683820D01*
X130873097Y-106549102D01*
X130649069Y-106456307D01*
X130411243Y-106409000D01*
X130168757Y-106409000D01*
X129930931Y-106456307D01*
X129706903Y-106549102D01*
X129505283Y-106683820D01*
X129333820Y-106855283D01*
X129199102Y-107056903D01*
X129106307Y-107280931D01*
X129059000Y-107518757D01*
X124700000Y-107518757D01*
X124700000Y-104547591D01*
X129066856Y-100180736D01*
X129106307Y-100379069D01*
X129199102Y-100603097D01*
X129333820Y-100804717D01*
X129505283Y-100976180D01*
X129706903Y-101110898D01*
X129930931Y-101203693D01*
X130168757Y-101251000D01*
X130411243Y-101251000D01*
X130649069Y-101203693D01*
X130873097Y-101110898D01*
X131074717Y-100976180D01*
X131246180Y-100804717D01*
X131380898Y-100603097D01*
X131473693Y-100379069D01*
X131521000Y-100141243D01*
X131521000Y-99898757D01*
X131473693Y-99660931D01*
X131441758Y-99583833D01*
X145870220Y-85155372D01*
X145889527Y-85139527D01*
X145952759Y-85062479D01*
X145999745Y-84974575D01*
X146028678Y-84879193D01*
X146036000Y-84804854D01*
X146038448Y-84780000D01*
X146036000Y-84755146D01*
X146036000Y-82092832D01*
X146113097Y-82060898D01*
X146294000Y-81940022D01*
X146294001Y-85840407D01*
X130726167Y-101408242D01*
X130649069Y-101376307D01*
X130411243Y-101329000D01*
X130168757Y-101329000D01*
X129930931Y-101376307D01*
X129706903Y-101469102D01*
X129505283Y-101603820D01*
X129333820Y-101775283D01*
X129199102Y-101976903D01*
X129106307Y-102200931D01*
X129059000Y-102438757D01*
X129059000Y-102681243D01*
X129106307Y-102919069D01*
X129199102Y-103143097D01*
X129333820Y-103344717D01*
X129505283Y-103516180D01*
X129706903Y-103650898D01*
X129930931Y-103743693D01*
X130168757Y-103791000D01*
X130411243Y-103791000D01*
X130649069Y-103743693D01*
X130873097Y-103650898D01*
X131074717Y-103516180D01*
X131246180Y-103344717D01*
X131380898Y-103143097D01*
X131473693Y-102919069D01*
X131521000Y-102681243D01*
X131521000Y-102438757D01*
X131473693Y-102200931D01*
X131441758Y-102123833D01*
X147140220Y-86425372D01*
X147159527Y-86409527D01*
X147222759Y-86332479D01*
X147269745Y-86244575D01*
X147298678Y-86149193D01*
X147306000Y-86074854D01*
X147308448Y-86050000D01*
X147306000Y-86025146D01*
X147306000Y-81940023D01*
X147486903Y-82060898D01*
X147710931Y-82153693D01*
X147948757Y-82201000D01*
X148191243Y-82201000D01*
X148429069Y-82153693D01*
X148653097Y-82060898D01*
X148834000Y-81940022D01*
X148834001Y-85840407D01*
X130726167Y-103948242D01*
X130649069Y-103916307D01*
X130411243Y-103869000D01*
X130168757Y-103869000D01*
X129930931Y-103916307D01*
X129706903Y-104009102D01*
X129505283Y-104143820D01*
X129333820Y-104315283D01*
X129199102Y-104516903D01*
X129106307Y-104740931D01*
X129059000Y-104978757D01*
X129059000Y-105221243D01*
X129106307Y-105459069D01*
X129199102Y-105683097D01*
X129333820Y-105884717D01*
X129505283Y-106056180D01*
X129706903Y-106190898D01*
X129930931Y-106283693D01*
X130168757Y-106331000D01*
X130411243Y-106331000D01*
X130649069Y-106283693D01*
X130873097Y-106190898D01*
X131074717Y-106056180D01*
X131246180Y-105884717D01*
X131380898Y-105683097D01*
X131473693Y-105459069D01*
X131521000Y-105221243D01*
X131521000Y-104978757D01*
X149379000Y-104978757D01*
X149379000Y-105221243D01*
X149426307Y-105459069D01*
X149519102Y-105683097D01*
X149653820Y-105884717D01*
X149825283Y-106056180D01*
X150026903Y-106190898D01*
X150250931Y-106283693D01*
X150488757Y-106331000D01*
X150731243Y-106331000D01*
X150969069Y-106283693D01*
X151193097Y-106190898D01*
X151394717Y-106056180D01*
X151566180Y-105884717D01*
X151700898Y-105683097D01*
X151793693Y-105459069D01*
X151841000Y-105221243D01*
X151841000Y-104978757D01*
X151793693Y-104740931D01*
X151700898Y-104516903D01*
X151566180Y-104315283D01*
X151394717Y-104143820D01*
X151193097Y-104009102D01*
X150969069Y-103916307D01*
X150731243Y-103869000D01*
X150488757Y-103869000D01*
X150250931Y-103916307D01*
X150026903Y-104009102D01*
X149825283Y-104143820D01*
X149653820Y-104315283D01*
X149519102Y-104516903D01*
X149426307Y-104740931D01*
X149379000Y-104978757D01*
X131521000Y-104978757D01*
X131473693Y-104740931D01*
X131441758Y-104663833D01*
X149680220Y-86425372D01*
X149699527Y-86409527D01*
X149762759Y-86332479D01*
X149809745Y-86244575D01*
X149838678Y-86149193D01*
X149846000Y-86074854D01*
X149846000Y-86074847D01*
X149848447Y-86050001D01*
X149848085Y-86046325D01*
X149978748Y-86124157D01*
X150141168Y-86181772D01*
X150026903Y-86229102D01*
X149825283Y-86363820D01*
X149653820Y-86535283D01*
X149519102Y-86736903D01*
X149426307Y-86960931D01*
X149379000Y-87198757D01*
X149379000Y-87441243D01*
X149426307Y-87679069D01*
X149519102Y-87903097D01*
X149653820Y-88104717D01*
X149825283Y-88276180D01*
X150026903Y-88410898D01*
X150250931Y-88503693D01*
X150488757Y-88551000D01*
X150731243Y-88551000D01*
X150969069Y-88503693D01*
X151193097Y-88410898D01*
X151386000Y-88282004D01*
X151386000Y-88897996D01*
X151193097Y-88769102D01*
X150969069Y-88676307D01*
X150731243Y-88629000D01*
X150488757Y-88629000D01*
X150250931Y-88676307D01*
X150026903Y-88769102D01*
X149825283Y-88903820D01*
X149653820Y-89075283D01*
X149519102Y-89276903D01*
X149426307Y-89500931D01*
X149379000Y-89738757D01*
X149379000Y-89981243D01*
X149426307Y-90219069D01*
X149519102Y-90443097D01*
X149653820Y-90644717D01*
X149825283Y-90816180D01*
X150026903Y-90950898D01*
X150250931Y-91043693D01*
X150488757Y-91091000D01*
X150731243Y-91091000D01*
X150969069Y-91043693D01*
X151193097Y-90950898D01*
X151386001Y-90822004D01*
X151386001Y-91437996D01*
X151193097Y-91309102D01*
X150969069Y-91216307D01*
X150731243Y-91169000D01*
X150488757Y-91169000D01*
X150250931Y-91216307D01*
X150026903Y-91309102D01*
X149825283Y-91443820D01*
X149653820Y-91615283D01*
X149519102Y-91816903D01*
X149426307Y-92040931D01*
X149379000Y-92278757D01*
X149379000Y-92521243D01*
X149426307Y-92759069D01*
X149519102Y-92983097D01*
X149653820Y-93184717D01*
X149825283Y-93356180D01*
X150026903Y-93490898D01*
X150250931Y-93583693D01*
X150488757Y-93631000D01*
X150731243Y-93631000D01*
X150969069Y-93583693D01*
X151193097Y-93490898D01*
X151386001Y-93362004D01*
X151386001Y-93977996D01*
X151193097Y-93849102D01*
X150969069Y-93756307D01*
X150731243Y-93709000D01*
X150488757Y-93709000D01*
X150250931Y-93756307D01*
X150026903Y-93849102D01*
X149825283Y-93983820D01*
X149653820Y-94155283D01*
X149519102Y-94356903D01*
X149426307Y-94580931D01*
X149379000Y-94818757D01*
X149379000Y-95061243D01*
X149426307Y-95299069D01*
X149519102Y-95523097D01*
X149653820Y-95724717D01*
X149825283Y-95896180D01*
X150026903Y-96030898D01*
X150250931Y-96123693D01*
X150488757Y-96171000D01*
X150731243Y-96171000D01*
X150969069Y-96123693D01*
X151193097Y-96030898D01*
X151386001Y-95902004D01*
X151386001Y-96517996D01*
X151193097Y-96389102D01*
X150969069Y-96296307D01*
X150731243Y-96249000D01*
X150488757Y-96249000D01*
X150250931Y-96296307D01*
X150026903Y-96389102D01*
X149825283Y-96523820D01*
X149653820Y-96695283D01*
X149519102Y-96896903D01*
X149426307Y-97120931D01*
X149379000Y-97358757D01*
X149379000Y-97601243D01*
X149426307Y-97839069D01*
X149519102Y-98063097D01*
X149653820Y-98264717D01*
X149825283Y-98436180D01*
X150026903Y-98570898D01*
X150250931Y-98663693D01*
X150488757Y-98711000D01*
X150731243Y-98711000D01*
X150969069Y-98663693D01*
X151193097Y-98570898D01*
X151386001Y-98442004D01*
X151386001Y-99057996D01*
X151193097Y-98929102D01*
X150969069Y-98836307D01*
X150731243Y-98789000D01*
X150488757Y-98789000D01*
X150250931Y-98836307D01*
X150026903Y-98929102D01*
X149825283Y-99063820D01*
X149653820Y-99235283D01*
X149519102Y-99436903D01*
X149426307Y-99660931D01*
X149379000Y-99898757D01*
X149379000Y-100141243D01*
X149426307Y-100379069D01*
X149519102Y-100603097D01*
X149653820Y-100804717D01*
X149825283Y-100976180D01*
X150026903Y-101110898D01*
X150250931Y-101203693D01*
X150488757Y-101251000D01*
X150731243Y-101251000D01*
X150969069Y-101203693D01*
X151193097Y-101110898D01*
X151386001Y-100982004D01*
X151386001Y-101068407D01*
X151046167Y-101408242D01*
X150969069Y-101376307D01*
X150731243Y-101329000D01*
X150488757Y-101329000D01*
X150250931Y-101376307D01*
X150026903Y-101469102D01*
X149825283Y-101603820D01*
X149653820Y-101775283D01*
X149519102Y-101976903D01*
X149426307Y-102200931D01*
X149379000Y-102438757D01*
X149379000Y-102681243D01*
X149426307Y-102919069D01*
X149519102Y-103143097D01*
X149653820Y-103344717D01*
X149825283Y-103516180D01*
X150026903Y-103650898D01*
X150250931Y-103743693D01*
X150488757Y-103791000D01*
X150731243Y-103791000D01*
X150969069Y-103743693D01*
X151193097Y-103650898D01*
X151394717Y-103516180D01*
X151566180Y-103344717D01*
X151700898Y-103143097D01*
X151793693Y-102919069D01*
X151841000Y-102681243D01*
X151841000Y-102438757D01*
X151793693Y-102200931D01*
X151761758Y-102123833D01*
X151894001Y-101991591D01*
X151894001Y-110720407D01*
X151046167Y-111568242D01*
X150969069Y-111536307D01*
X150731243Y-111489000D01*
X150488757Y-111489000D01*
X150250931Y-111536307D01*
X150026903Y-111629102D01*
X149825283Y-111763820D01*
X149653820Y-111935283D01*
X149519102Y-112136903D01*
X149426307Y-112360931D01*
X149379000Y-112598757D01*
X149379000Y-112841243D01*
X149426307Y-113079069D01*
X149519102Y-113303097D01*
X149653820Y-113504717D01*
X149825283Y-113676180D01*
X150026903Y-113810898D01*
X150141168Y-113858228D01*
X149978748Y-113915843D01*
X149728645Y-114064822D01*
X149512412Y-114259731D01*
X149338359Y-114493080D01*
X149213175Y-114755901D01*
X149168524Y-114903110D01*
X149289845Y-115133000D01*
X150483000Y-115133000D01*
X150483000Y-115113000D01*
X150737000Y-115113000D01*
X150737000Y-115133000D01*
X151930155Y-115133000D01*
X152051476Y-114903110D01*
X152006825Y-114755901D01*
X151881641Y-114493080D01*
X151707588Y-114259731D01*
X151491355Y-114064822D01*
X151241252Y-113915843D01*
X151078832Y-113858228D01*
X151193097Y-113810898D01*
X151394717Y-113676180D01*
X151566180Y-113504717D01*
X151700898Y-113303097D01*
X151793693Y-113079069D01*
X151841000Y-112841243D01*
X151841000Y-112598757D01*
X151793693Y-112360931D01*
X151761758Y-112283833D01*
X152740220Y-111305372D01*
X152759527Y-111289527D01*
X152822759Y-111212479D01*
X152869745Y-111124575D01*
X152898678Y-111029193D01*
X152906000Y-110954854D01*
X152906000Y-110954847D01*
X152908447Y-110930001D01*
X152906000Y-110905155D01*
X152906000Y-82045374D01*
X153314231Y-82045374D01*
X153614411Y-82483828D01*
X154193356Y-82794296D01*
X154821746Y-82985852D01*
X155475431Y-83051134D01*
X156129293Y-82987634D01*
X156758203Y-82797792D01*
X157337992Y-82488904D01*
X157345589Y-82483828D01*
X157645769Y-82045374D01*
X155480000Y-79879605D01*
X153314231Y-82045374D01*
X152906000Y-82045374D01*
X152906000Y-81709244D01*
X153134626Y-81865769D01*
X155300395Y-79700000D01*
X153134626Y-77534231D01*
X152896009Y-77697596D01*
X152886425Y-77666000D01*
X152869745Y-77611014D01*
X152854118Y-77581779D01*
X152822759Y-77523110D01*
X152759527Y-77446062D01*
X152740220Y-77430217D01*
X151916002Y-76606000D01*
X154194679Y-76606000D01*
X153622008Y-76911096D01*
X153614411Y-76916172D01*
X153314231Y-77354626D01*
X155480000Y-79520395D01*
X155494143Y-79506253D01*
X155673748Y-79685858D01*
X155659605Y-79700000D01*
X157825374Y-81865769D01*
X158263828Y-81565589D01*
X158574001Y-80987194D01*
X158574000Y-127414679D01*
X158268904Y-126842008D01*
X158263828Y-126834411D01*
X157825374Y-126534231D01*
X155659605Y-128700000D01*
X155673748Y-128714143D01*
X155494143Y-128893748D01*
X155480000Y-128879605D01*
X153314231Y-131045374D01*
X153614411Y-131483828D01*
X154192804Y-131794000D01*
X98765321Y-131794000D01*
X99337992Y-131488904D01*
X99345589Y-131483828D01*
X99645769Y-131045374D01*
X97480000Y-128879605D01*
X97465858Y-128893748D01*
X97286253Y-128714143D01*
X97300395Y-128700000D01*
X97659605Y-128700000D01*
X99825374Y-130865769D01*
X100263828Y-130565589D01*
X100574296Y-129986644D01*
X100765852Y-129358254D01*
X100831134Y-128704569D01*
X100830247Y-128695431D01*
X152128866Y-128695431D01*
X152192366Y-129349293D01*
X152382208Y-129978203D01*
X152691096Y-130557992D01*
X152696172Y-130565589D01*
X153134626Y-130865769D01*
X155300395Y-128700000D01*
X153134626Y-126534231D01*
X152696172Y-126834411D01*
X152385704Y-127413356D01*
X152194148Y-128041746D01*
X152128866Y-128695431D01*
X100830247Y-128695431D01*
X100767634Y-128050707D01*
X100577792Y-127421797D01*
X100268904Y-126842008D01*
X100263828Y-126834411D01*
X99825374Y-126534231D01*
X97659605Y-128700000D01*
X97300395Y-128700000D01*
X95134626Y-126534231D01*
X94696172Y-126834411D01*
X94386000Y-127412804D01*
X94386000Y-126354626D01*
X95314231Y-126354626D01*
X97480000Y-128520395D01*
X99645769Y-126354626D01*
X153314231Y-126354626D01*
X155480000Y-128520395D01*
X157645769Y-126354626D01*
X157345589Y-125916172D01*
X156766644Y-125605704D01*
X156138254Y-125414148D01*
X155484569Y-125348866D01*
X154830707Y-125412366D01*
X154201797Y-125602208D01*
X153622008Y-125911096D01*
X153614411Y-125916172D01*
X153314231Y-126354626D01*
X99645769Y-126354626D01*
X99345589Y-125916172D01*
X98766644Y-125605704D01*
X98138254Y-125414148D01*
X97484569Y-125348866D01*
X96830707Y-125412366D01*
X96201797Y-125602208D01*
X95622008Y-125911096D01*
X95614411Y-125916172D01*
X95314231Y-126354626D01*
X94386000Y-126354626D01*
X94386000Y-122030000D01*
X121437157Y-122030000D01*
X121437157Y-123730000D01*
X121444513Y-123804689D01*
X121466299Y-123876508D01*
X121501678Y-123942696D01*
X121549289Y-124000711D01*
X121607304Y-124048322D01*
X121673492Y-124083701D01*
X121745311Y-124105487D01*
X121820000Y-124112843D01*
X123520000Y-124112843D01*
X123594689Y-124105487D01*
X123666508Y-124083701D01*
X123732696Y-124048322D01*
X123790711Y-124000711D01*
X123838322Y-123942696D01*
X123873701Y-123876508D01*
X123895487Y-123804689D01*
X123902843Y-123730000D01*
X123902843Y-122030000D01*
X149377157Y-122030000D01*
X149377157Y-123730000D01*
X149384513Y-123804689D01*
X149406299Y-123876508D01*
X149441678Y-123942696D01*
X149489289Y-124000711D01*
X149547304Y-124048322D01*
X149613492Y-124083701D01*
X149685311Y-124105487D01*
X149760000Y-124112843D01*
X151460000Y-124112843D01*
X151534689Y-124105487D01*
X151606508Y-124083701D01*
X151672696Y-124048322D01*
X151730711Y-124000711D01*
X151778322Y-123942696D01*
X151813701Y-123876508D01*
X151835487Y-123804689D01*
X151842843Y-123730000D01*
X151842843Y-122030000D01*
X151835487Y-121955311D01*
X151813701Y-121883492D01*
X151778322Y-121817304D01*
X151730711Y-121759289D01*
X151672696Y-121711678D01*
X151606508Y-121676299D01*
X151534689Y-121654513D01*
X151460000Y-121647157D01*
X149760000Y-121647157D01*
X149685311Y-121654513D01*
X149613492Y-121676299D01*
X149547304Y-121711678D01*
X149489289Y-121759289D01*
X149441678Y-121817304D01*
X149406299Y-121883492D01*
X149384513Y-121955311D01*
X149377157Y-122030000D01*
X123902843Y-122030000D01*
X123895487Y-121955311D01*
X123873701Y-121883492D01*
X123838322Y-121817304D01*
X123790711Y-121759289D01*
X123732696Y-121711678D01*
X123666508Y-121676299D01*
X123594689Y-121654513D01*
X123520000Y-121647157D01*
X121820000Y-121647157D01*
X121745311Y-121654513D01*
X121673492Y-121676299D01*
X121607304Y-121711678D01*
X121549289Y-121759289D01*
X121501678Y-121817304D01*
X121466299Y-121883492D01*
X121444513Y-121955311D01*
X121437157Y-122030000D01*
X94386000Y-122030000D01*
X94386000Y-120218757D01*
X121439000Y-120218757D01*
X121439000Y-120461243D01*
X121486307Y-120699069D01*
X121579102Y-120923097D01*
X121713820Y-121124717D01*
X121885283Y-121296180D01*
X122086903Y-121430898D01*
X122310931Y-121523693D01*
X122548757Y-121571000D01*
X122791243Y-121571000D01*
X123029069Y-121523693D01*
X123253097Y-121430898D01*
X123454717Y-121296180D01*
X123626180Y-121124717D01*
X123760898Y-120923097D01*
X123853693Y-120699069D01*
X123901000Y-120461243D01*
X123901000Y-120218757D01*
X149379000Y-120218757D01*
X149379000Y-120461243D01*
X149426307Y-120699069D01*
X149519102Y-120923097D01*
X149653820Y-121124717D01*
X149825283Y-121296180D01*
X150026903Y-121430898D01*
X150250931Y-121523693D01*
X150488757Y-121571000D01*
X150731243Y-121571000D01*
X150969069Y-121523693D01*
X151193097Y-121430898D01*
X151394717Y-121296180D01*
X151566180Y-121124717D01*
X151700898Y-120923097D01*
X151793693Y-120699069D01*
X151841000Y-120461243D01*
X151841000Y-120218757D01*
X151793693Y-119980931D01*
X151700898Y-119756903D01*
X151566180Y-119555283D01*
X151394717Y-119383820D01*
X151193097Y-119249102D01*
X150969069Y-119156307D01*
X150731243Y-119109000D01*
X150488757Y-119109000D01*
X150250931Y-119156307D01*
X150026903Y-119249102D01*
X149825283Y-119383820D01*
X149653820Y-119555283D01*
X149519102Y-119756903D01*
X149426307Y-119980931D01*
X149379000Y-120218757D01*
X123901000Y-120218757D01*
X123853693Y-119980931D01*
X123760898Y-119756903D01*
X123626180Y-119555283D01*
X123454717Y-119383820D01*
X123253097Y-119249102D01*
X123029069Y-119156307D01*
X122791243Y-119109000D01*
X122548757Y-119109000D01*
X122310931Y-119156307D01*
X122086903Y-119249102D01*
X121885283Y-119383820D01*
X121713820Y-119555283D01*
X121579102Y-119756903D01*
X121486307Y-119980931D01*
X121439000Y-120218757D01*
X94386000Y-120218757D01*
X94386000Y-115616890D01*
X121228524Y-115616890D01*
X121273175Y-115764099D01*
X121398359Y-116026920D01*
X121572412Y-116260269D01*
X121788645Y-116455178D01*
X122038748Y-116604157D01*
X122201168Y-116661772D01*
X122086903Y-116709102D01*
X121885283Y-116843820D01*
X121713820Y-117015283D01*
X121579102Y-117216903D01*
X121486307Y-117440931D01*
X121439000Y-117678757D01*
X121439000Y-117921243D01*
X121486307Y-118159069D01*
X121579102Y-118383097D01*
X121713820Y-118584717D01*
X121885283Y-118756180D01*
X122086903Y-118890898D01*
X122310931Y-118983693D01*
X122548757Y-119031000D01*
X122791243Y-119031000D01*
X123029069Y-118983693D01*
X123253097Y-118890898D01*
X123454717Y-118756180D01*
X123626180Y-118584717D01*
X123760898Y-118383097D01*
X123853693Y-118159069D01*
X123901000Y-117921243D01*
X123901000Y-117678757D01*
X123853693Y-117440931D01*
X123760898Y-117216903D01*
X123626180Y-117015283D01*
X123454717Y-116843820D01*
X123253097Y-116709102D01*
X123138832Y-116661772D01*
X123301252Y-116604157D01*
X123551355Y-116455178D01*
X123767588Y-116260269D01*
X123941641Y-116026920D01*
X124066825Y-115764099D01*
X124111476Y-115616890D01*
X149168524Y-115616890D01*
X149213175Y-115764099D01*
X149338359Y-116026920D01*
X149512412Y-116260269D01*
X149728645Y-116455178D01*
X149978748Y-116604157D01*
X150141168Y-116661772D01*
X150026903Y-116709102D01*
X149825283Y-116843820D01*
X149653820Y-117015283D01*
X149519102Y-117216903D01*
X149426307Y-117440931D01*
X149379000Y-117678757D01*
X149379000Y-117921243D01*
X149426307Y-118159069D01*
X149519102Y-118383097D01*
X149653820Y-118584717D01*
X149825283Y-118756180D01*
X150026903Y-118890898D01*
X150250931Y-118983693D01*
X150488757Y-119031000D01*
X150731243Y-119031000D01*
X150969069Y-118983693D01*
X151193097Y-118890898D01*
X151394717Y-118756180D01*
X151566180Y-118584717D01*
X151700898Y-118383097D01*
X151793693Y-118159069D01*
X151841000Y-117921243D01*
X151841000Y-117678757D01*
X151793693Y-117440931D01*
X151700898Y-117216903D01*
X151566180Y-117015283D01*
X151394717Y-116843820D01*
X151193097Y-116709102D01*
X151078832Y-116661772D01*
X151241252Y-116604157D01*
X151491355Y-116455178D01*
X151707588Y-116260269D01*
X151881641Y-116026920D01*
X152006825Y-115764099D01*
X152051476Y-115616890D01*
X151930155Y-115387000D01*
X150737000Y-115387000D01*
X150737000Y-115407000D01*
X150483000Y-115407000D01*
X150483000Y-115387000D01*
X149289845Y-115387000D01*
X149168524Y-115616890D01*
X124111476Y-115616890D01*
X123990155Y-115387000D01*
X122797000Y-115387000D01*
X122797000Y-115407000D01*
X122543000Y-115407000D01*
X122543000Y-115387000D01*
X121349845Y-115387000D01*
X121228524Y-115616890D01*
X94386000Y-115616890D01*
X94386000Y-114903110D01*
X121228524Y-114903110D01*
X121349845Y-115133000D01*
X122543000Y-115133000D01*
X122543000Y-115113000D01*
X122797000Y-115113000D01*
X122797000Y-115133000D01*
X123990155Y-115133000D01*
X124111476Y-114903110D01*
X124066825Y-114755901D01*
X123941641Y-114493080D01*
X123767588Y-114259731D01*
X123551355Y-114064822D01*
X123301252Y-113915843D01*
X123138832Y-113858228D01*
X123253097Y-113810898D01*
X123454717Y-113676180D01*
X123626180Y-113504717D01*
X123760898Y-113303097D01*
X123853693Y-113079069D01*
X123901000Y-112841243D01*
X123901000Y-112598757D01*
X123853693Y-112360931D01*
X123760898Y-112136903D01*
X123626180Y-111935283D01*
X123560897Y-111870000D01*
X129057157Y-111870000D01*
X129057157Y-113570000D01*
X129064513Y-113644689D01*
X129086299Y-113716508D01*
X129121678Y-113782696D01*
X129169289Y-113840711D01*
X129227304Y-113888322D01*
X129293492Y-113923701D01*
X129365311Y-113945487D01*
X129440000Y-113952843D01*
X131140000Y-113952843D01*
X131214689Y-113945487D01*
X131286508Y-113923701D01*
X131352696Y-113888322D01*
X131410711Y-113840711D01*
X131458322Y-113782696D01*
X131493701Y-113716508D01*
X131515487Y-113644689D01*
X131522843Y-113570000D01*
X131522843Y-111870000D01*
X131515487Y-111795311D01*
X131493701Y-111723492D01*
X131458322Y-111657304D01*
X131410711Y-111599289D01*
X131352696Y-111551678D01*
X131286508Y-111516299D01*
X131214689Y-111494513D01*
X131140000Y-111487157D01*
X129440000Y-111487157D01*
X129365311Y-111494513D01*
X129293492Y-111516299D01*
X129227304Y-111551678D01*
X129169289Y-111599289D01*
X129121678Y-111657304D01*
X129086299Y-111723492D01*
X129064513Y-111795311D01*
X129057157Y-111870000D01*
X123560897Y-111870000D01*
X123454717Y-111763820D01*
X123253097Y-111629102D01*
X123029069Y-111536307D01*
X122791243Y-111489000D01*
X122548757Y-111489000D01*
X122310931Y-111536307D01*
X122086903Y-111629102D01*
X121885283Y-111763820D01*
X121713820Y-111935283D01*
X121579102Y-112136903D01*
X121486307Y-112360931D01*
X121439000Y-112598757D01*
X121439000Y-112841243D01*
X121486307Y-113079069D01*
X121579102Y-113303097D01*
X121713820Y-113504717D01*
X121885283Y-113676180D01*
X122086903Y-113810898D01*
X122201168Y-113858228D01*
X122038748Y-113915843D01*
X121788645Y-114064822D01*
X121572412Y-114259731D01*
X121398359Y-114493080D01*
X121273175Y-114755901D01*
X121228524Y-114903110D01*
X94386000Y-114903110D01*
X94386000Y-111870000D01*
X101117157Y-111870000D01*
X101117157Y-113570000D01*
X101124513Y-113644689D01*
X101146299Y-113716508D01*
X101181678Y-113782696D01*
X101229289Y-113840711D01*
X101287304Y-113888322D01*
X101353492Y-113923701D01*
X101425311Y-113945487D01*
X101500000Y-113952843D01*
X103200000Y-113952843D01*
X103274689Y-113945487D01*
X103346508Y-113923701D01*
X103412696Y-113888322D01*
X103470711Y-113840711D01*
X103518322Y-113782696D01*
X103553701Y-113716508D01*
X103575487Y-113644689D01*
X103582843Y-113570000D01*
X103582843Y-111870000D01*
X103575487Y-111795311D01*
X103553701Y-111723492D01*
X103518322Y-111657304D01*
X103470711Y-111599289D01*
X103412696Y-111551678D01*
X103346508Y-111516299D01*
X103274689Y-111494513D01*
X103200000Y-111487157D01*
X101500000Y-111487157D01*
X101425311Y-111494513D01*
X101353492Y-111516299D01*
X101287304Y-111551678D01*
X101229289Y-111599289D01*
X101181678Y-111657304D01*
X101146299Y-111723492D01*
X101124513Y-111795311D01*
X101117157Y-111870000D01*
X94386000Y-111870000D01*
X94386000Y-110058757D01*
X101119000Y-110058757D01*
X101119000Y-110301243D01*
X101166307Y-110539069D01*
X101259102Y-110763097D01*
X101393820Y-110964717D01*
X101565283Y-111136180D01*
X101766903Y-111270898D01*
X101990931Y-111363693D01*
X102228757Y-111411000D01*
X102471243Y-111411000D01*
X102709069Y-111363693D01*
X102933097Y-111270898D01*
X103134717Y-111136180D01*
X103306180Y-110964717D01*
X103440898Y-110763097D01*
X103533693Y-110539069D01*
X103581000Y-110301243D01*
X103581000Y-110058757D01*
X103533693Y-109820931D01*
X103440898Y-109596903D01*
X103306180Y-109395283D01*
X103134717Y-109223820D01*
X102933097Y-109089102D01*
X102709069Y-108996307D01*
X102471243Y-108949000D01*
X102228757Y-108949000D01*
X101990931Y-108996307D01*
X101766903Y-109089102D01*
X101565283Y-109223820D01*
X101393820Y-109395283D01*
X101259102Y-109596903D01*
X101166307Y-109820931D01*
X101119000Y-110058757D01*
X94386000Y-110058757D01*
X94386000Y-80985321D01*
X94691096Y-81557992D01*
X94696172Y-81565589D01*
X95134626Y-81865769D01*
X97300395Y-79700000D01*
X97286253Y-79685858D01*
X97465858Y-79506253D01*
X97480000Y-79520395D01*
X99645769Y-77354626D01*
X99345589Y-76916172D01*
X98767196Y-76606000D01*
X109339406Y-76606000D01*
X108516893Y-77428513D01*
G36*
X140886167Y-77278242D02*
G01*
X140809069Y-77246307D01*
X140571243Y-77199000D01*
X140328757Y-77199000D01*
X140090931Y-77246307D01*
X139866903Y-77339102D01*
X139665283Y-77473820D01*
X139493820Y-77645283D01*
X139359102Y-77846903D01*
X139311772Y-77961168D01*
X139254157Y-77798748D01*
X139105178Y-77548645D01*
X138910269Y-77332412D01*
X138676920Y-77158359D01*
X138414099Y-77033175D01*
X138266890Y-76988524D01*
X138037000Y-77109845D01*
X138037000Y-78303000D01*
X138057000Y-78303000D01*
X138057000Y-78557000D01*
X138037000Y-78557000D01*
X138037000Y-78577000D01*
X137783000Y-78577000D01*
X137783000Y-78557000D01*
X137763000Y-78557000D01*
X137763000Y-78303000D01*
X137783000Y-78303000D01*
X137783000Y-77109845D01*
X137553110Y-76988524D01*
X137405901Y-77033175D01*
X137143080Y-77158359D01*
X136909731Y-77332412D01*
X136714822Y-77548645D01*
X136565843Y-77798748D01*
X136508228Y-77961168D01*
X136460898Y-77846903D01*
X136326180Y-77645283D01*
X136154717Y-77473820D01*
X135953097Y-77339102D01*
X135729069Y-77246307D01*
X135491243Y-77199000D01*
X135248757Y-77199000D01*
X135010931Y-77246307D01*
X134786903Y-77339102D01*
X134585283Y-77473820D01*
X134413820Y-77645283D01*
X134279102Y-77846903D01*
X134186307Y-78070931D01*
X134139000Y-78308757D01*
X134139000Y-78551243D01*
X134186307Y-78789069D01*
X134279102Y-79013097D01*
X134413820Y-79214717D01*
X134585283Y-79386180D01*
X134786903Y-79520898D01*
X135010931Y-79613693D01*
X135248757Y-79661000D01*
X135491243Y-79661000D01*
X135729069Y-79613693D01*
X135953097Y-79520898D01*
X136154717Y-79386180D01*
X136326180Y-79214717D01*
X136460898Y-79013097D01*
X136508228Y-78898832D01*
X136565843Y-79061252D01*
X136714822Y-79311355D01*
X136909731Y-79527588D01*
X137143080Y-79701641D01*
X137405901Y-79826825D01*
X137433154Y-79835091D01*
X137326903Y-79879102D01*
X137125283Y-80013820D01*
X136953820Y-80185283D01*
X136819102Y-80386903D01*
X136726307Y-80610931D01*
X136679000Y-80848757D01*
X136679000Y-81091243D01*
X136726307Y-81329069D01*
X136819102Y-81553097D01*
X136953820Y-81754717D01*
X137125283Y-81926180D01*
X137326903Y-82060898D01*
X137404000Y-82092833D01*
X137404001Y-88888407D01*
X131513144Y-94779264D01*
X131473693Y-94580931D01*
X131441758Y-94503833D01*
X135710222Y-90235370D01*
X135729527Y-90219527D01*
X135792759Y-90142479D01*
X135839745Y-90054575D01*
X135868678Y-89959193D01*
X135876000Y-89884854D01*
X135878448Y-89860000D01*
X135876000Y-89835146D01*
X135876000Y-82092832D01*
X135953097Y-82060898D01*
X136154717Y-81926180D01*
X136326180Y-81754717D01*
X136460898Y-81553097D01*
X136553693Y-81329069D01*
X136601000Y-81091243D01*
X136601000Y-80848757D01*
X136553693Y-80610931D01*
X136460898Y-80386903D01*
X136326180Y-80185283D01*
X136154717Y-80013820D01*
X135953097Y-79879102D01*
X135729069Y-79786307D01*
X135491243Y-79739000D01*
X135248757Y-79739000D01*
X135010931Y-79786307D01*
X134786903Y-79879102D01*
X134606000Y-79999977D01*
X134606000Y-79724845D01*
X134608447Y-79699999D01*
X134606000Y-79675153D01*
X134606000Y-79675146D01*
X134598678Y-79600807D01*
X134569745Y-79505425D01*
X134522759Y-79417521D01*
X134459527Y-79340473D01*
X134440220Y-79324628D01*
X133981758Y-78866167D01*
X134013693Y-78789069D01*
X134061000Y-78551243D01*
X134061000Y-78308757D01*
X134013693Y-78070931D01*
X133920898Y-77846903D01*
X133786180Y-77645283D01*
X133614717Y-77473820D01*
X133413097Y-77339102D01*
X133189069Y-77246307D01*
X132951243Y-77199000D01*
X132708757Y-77199000D01*
X132470931Y-77246307D01*
X132246903Y-77339102D01*
X132045283Y-77473820D01*
X131873820Y-77645283D01*
X131739102Y-77846903D01*
X131646307Y-78070931D01*
X131599000Y-78308757D01*
X131599000Y-78551243D01*
X131646307Y-78789069D01*
X131739102Y-79013097D01*
X131873820Y-79214717D01*
X132045283Y-79386180D01*
X132246903Y-79520898D01*
X132353154Y-79564909D01*
X132325901Y-79573175D01*
X132068052Y-79695991D01*
X132066000Y-79675153D01*
X132066000Y-79675146D01*
X132058678Y-79600807D01*
X132029745Y-79505425D01*
X131982759Y-79417521D01*
X131919527Y-79340473D01*
X131900220Y-79324628D01*
X131441758Y-78866167D01*
X131473693Y-78789069D01*
X131521000Y-78551243D01*
X131521000Y-78308757D01*
X131473693Y-78070931D01*
X131380898Y-77846903D01*
X131246180Y-77645283D01*
X131074717Y-77473820D01*
X130873097Y-77339102D01*
X130649069Y-77246307D01*
X130411243Y-77199000D01*
X130168757Y-77199000D01*
X129930931Y-77246307D01*
X129706903Y-77339102D01*
X129505283Y-77473820D01*
X129333820Y-77645283D01*
X129199102Y-77846903D01*
X129106307Y-78070931D01*
X129059000Y-78308757D01*
X129059000Y-78551243D01*
X129106307Y-78789069D01*
X129199102Y-79013097D01*
X129333820Y-79214717D01*
X129505283Y-79386180D01*
X129706903Y-79520898D01*
X129930931Y-79613693D01*
X130168757Y-79661000D01*
X130411243Y-79661000D01*
X130649069Y-79613693D01*
X130726167Y-79581758D01*
X131054000Y-79909592D01*
X131054000Y-79999977D01*
X130873097Y-79879102D01*
X130649069Y-79786307D01*
X130411243Y-79739000D01*
X130168757Y-79739000D01*
X129930931Y-79786307D01*
X129706903Y-79879102D01*
X129505283Y-80013820D01*
X129333820Y-80185283D01*
X129199102Y-80386903D01*
X129106307Y-80610931D01*
X129059000Y-80848757D01*
X129059000Y-81091243D01*
X129106307Y-81329069D01*
X129121546Y-81365859D01*
X127663781Y-82823624D01*
X127644474Y-82839469D01*
X127581242Y-82916517D01*
X127567314Y-82942575D01*
X127534255Y-83004422D01*
X127505322Y-83099804D01*
X127495553Y-83198996D01*
X127498001Y-83223852D01*
X127498000Y-91936408D01*
X123106167Y-96328242D01*
X123029069Y-96296307D01*
X122791243Y-96249000D01*
X122548757Y-96249000D01*
X122310931Y-96296307D01*
X122086903Y-96389102D01*
X121885283Y-96523820D01*
X121713820Y-96695283D01*
X121579102Y-96896903D01*
X121486307Y-97120931D01*
X121439000Y-97358757D01*
X121439000Y-97601243D01*
X121486307Y-97839069D01*
X121579102Y-98063097D01*
X121713820Y-98264717D01*
X121885283Y-98436180D01*
X122086903Y-98570898D01*
X122310931Y-98663693D01*
X122548757Y-98711000D01*
X122791243Y-98711000D01*
X123029069Y-98663693D01*
X123253097Y-98570898D01*
X123454717Y-98436180D01*
X123626180Y-98264717D01*
X123760898Y-98063097D01*
X123853693Y-97839069D01*
X123901000Y-97601243D01*
X123901000Y-97358757D01*
X123853693Y-97120931D01*
X123821758Y-97043833D01*
X128006000Y-92859592D01*
X128006000Y-93968408D01*
X123106167Y-98868242D01*
X123029069Y-98836307D01*
X122791243Y-98789000D01*
X122548757Y-98789000D01*
X122310931Y-98836307D01*
X122086903Y-98929102D01*
X121885283Y-99063820D01*
X121713820Y-99235283D01*
X121579102Y-99436903D01*
X121486307Y-99660931D01*
X121439000Y-99898757D01*
X121439000Y-100141243D01*
X121486307Y-100379069D01*
X121579102Y-100603097D01*
X121713820Y-100804717D01*
X121885283Y-100976180D01*
X122086903Y-101110898D01*
X122310931Y-101203693D01*
X122548757Y-101251000D01*
X122791243Y-101251000D01*
X123029069Y-101203693D01*
X123253097Y-101110898D01*
X123454717Y-100976180D01*
X123626180Y-100804717D01*
X123760898Y-100603097D01*
X123853693Y-100379069D01*
X123901000Y-100141243D01*
X123901000Y-99898757D01*
X123853693Y-99660931D01*
X123821758Y-99583833D01*
X128852220Y-94553372D01*
X128871527Y-94537527D01*
X128934759Y-94460479D01*
X128981745Y-94372575D01*
X129010678Y-94277193D01*
X129018000Y-94202854D01*
X129018000Y-94202853D01*
X129020448Y-94178000D01*
X129018000Y-94153146D01*
X129018000Y-84735591D01*
X129059000Y-84694591D01*
X129059000Y-84901243D01*
X129106307Y-85139069D01*
X129199102Y-85363097D01*
X129333820Y-85564717D01*
X129505283Y-85736180D01*
X129706903Y-85870898D01*
X129930931Y-85963693D01*
X130168757Y-86011000D01*
X130411243Y-86011000D01*
X130649069Y-85963693D01*
X130873097Y-85870898D01*
X131054001Y-85750022D01*
X131054001Y-86349978D01*
X130873097Y-86229102D01*
X130649069Y-86136307D01*
X130411243Y-86089000D01*
X130168757Y-86089000D01*
X129930931Y-86136307D01*
X129706903Y-86229102D01*
X129505283Y-86363820D01*
X129333820Y-86535283D01*
X129199102Y-86736903D01*
X129106307Y-86960931D01*
X129059000Y-87198757D01*
X129059000Y-87441243D01*
X129106307Y-87679069D01*
X129199102Y-87903097D01*
X129333820Y-88104717D01*
X129505283Y-88276180D01*
X129706903Y-88410898D01*
X129930931Y-88503693D01*
X130168757Y-88551000D01*
X130411243Y-88551000D01*
X130649069Y-88503693D01*
X130873097Y-88410898D01*
X131054001Y-88290022D01*
X131054001Y-88380407D01*
X130726167Y-88708242D01*
X130649069Y-88676307D01*
X130411243Y-88629000D01*
X130168757Y-88629000D01*
X129930931Y-88676307D01*
X129706903Y-88769102D01*
X129505283Y-88903820D01*
X129333820Y-89075283D01*
X129199102Y-89276903D01*
X129106307Y-89500931D01*
X129059000Y-89738757D01*
X129059000Y-89981243D01*
X129106307Y-90219069D01*
X129199102Y-90443097D01*
X129333820Y-90644717D01*
X129505283Y-90816180D01*
X129706903Y-90950898D01*
X129930931Y-91043693D01*
X130168757Y-91091000D01*
X130411243Y-91091000D01*
X130649069Y-91043693D01*
X130873097Y-90950898D01*
X131074717Y-90816180D01*
X131246180Y-90644717D01*
X131380898Y-90443097D01*
X131473693Y-90219069D01*
X131521000Y-89981243D01*
X131521000Y-89738757D01*
X131473693Y-89500931D01*
X131441758Y-89423833D01*
X131900220Y-88965372D01*
X131919527Y-88949527D01*
X131935372Y-88930220D01*
X131954369Y-88911223D01*
X132001757Y-88853480D01*
X132048744Y-88765576D01*
X132077677Y-88670194D01*
X132087447Y-88571001D01*
X132077677Y-88471808D01*
X132066000Y-88433313D01*
X132066000Y-82243032D01*
X132325901Y-82366825D01*
X132473110Y-82411476D01*
X132703000Y-82290155D01*
X132703000Y-81097000D01*
X132683000Y-81097000D01*
X132683000Y-80843000D01*
X132703000Y-80843000D01*
X132703000Y-80823000D01*
X132957000Y-80823000D01*
X132957000Y-80843000D01*
X132977000Y-80843000D01*
X132977000Y-81097000D01*
X132957000Y-81097000D01*
X132957000Y-82290155D01*
X133186890Y-82411476D01*
X133334099Y-82366825D01*
X133594000Y-82243032D01*
X133594001Y-88380407D01*
X130726167Y-91248242D01*
X130649069Y-91216307D01*
X130411243Y-91169000D01*
X130168757Y-91169000D01*
X129930931Y-91216307D01*
X129706903Y-91309102D01*
X129505283Y-91443820D01*
X129333820Y-91615283D01*
X129199102Y-91816903D01*
X129106307Y-92040931D01*
X129059000Y-92278757D01*
X129059000Y-92521243D01*
X129106307Y-92759069D01*
X129199102Y-92983097D01*
X129333820Y-93184717D01*
X129505283Y-93356180D01*
X129706903Y-93490898D01*
X129930931Y-93583693D01*
X130168757Y-93631000D01*
X130411243Y-93631000D01*
X130649069Y-93583693D01*
X130873097Y-93490898D01*
X131074717Y-93356180D01*
X131246180Y-93184717D01*
X131380898Y-92983097D01*
X131473693Y-92759069D01*
X131521000Y-92521243D01*
X131521000Y-92278757D01*
X131473693Y-92040931D01*
X131441758Y-91963833D01*
X134440220Y-88965372D01*
X134459527Y-88949527D01*
X134522759Y-88872479D01*
X134569745Y-88784575D01*
X134598678Y-88689193D01*
X134606000Y-88614854D01*
X134608448Y-88590000D01*
X134606000Y-88565146D01*
X134606000Y-81940023D01*
X134786903Y-82060898D01*
X134864000Y-82092833D01*
X134864001Y-89650407D01*
X130726167Y-93788242D01*
X130649069Y-93756307D01*
X130411243Y-93709000D01*
X130168757Y-93709000D01*
X129930931Y-93756307D01*
X129706903Y-93849102D01*
X129505283Y-93983820D01*
X129333820Y-94155283D01*
X129199102Y-94356903D01*
X129106307Y-94580931D01*
X129059000Y-94818757D01*
X129059000Y-95061243D01*
X129106307Y-95299069D01*
X129199102Y-95523097D01*
X129333820Y-95724717D01*
X129460617Y-95851514D01*
X129445627Y-95869779D01*
X128679785Y-96635622D01*
X128660473Y-96651471D01*
X128597241Y-96728519D01*
X128550255Y-96816424D01*
X128521322Y-96911806D01*
X128514000Y-96986145D01*
X128514000Y-96986152D01*
X128511553Y-97010998D01*
X128514000Y-97035845D01*
X128514001Y-98540407D01*
X123106167Y-103948242D01*
X123029069Y-103916307D01*
X122791243Y-103869000D01*
X122548757Y-103869000D01*
X122310931Y-103916307D01*
X122086903Y-104009102D01*
X121885283Y-104143820D01*
X121713820Y-104315283D01*
X121579102Y-104516903D01*
X121486307Y-104740931D01*
X121439000Y-104978757D01*
X121439000Y-105221243D01*
X121486307Y-105459069D01*
X121579102Y-105683097D01*
X121713820Y-105884717D01*
X121885283Y-106056180D01*
X122086903Y-106190898D01*
X122310931Y-106283693D01*
X122548757Y-106331000D01*
X122791243Y-106331000D01*
X123029069Y-106283693D01*
X123253097Y-106190898D01*
X123454717Y-106056180D01*
X123626180Y-105884717D01*
X123688000Y-105792196D01*
X123688001Y-106947804D01*
X123626180Y-106855283D01*
X123454717Y-106683820D01*
X123253097Y-106549102D01*
X123029069Y-106456307D01*
X122791243Y-106409000D01*
X122548757Y-106409000D01*
X122310931Y-106456307D01*
X122233834Y-106488242D01*
X118184349Y-102438757D01*
X121439000Y-102438757D01*
X121439000Y-102681243D01*
X121486307Y-102919069D01*
X121579102Y-103143097D01*
X121713820Y-103344717D01*
X121885283Y-103516180D01*
X122086903Y-103650898D01*
X122310931Y-103743693D01*
X122548757Y-103791000D01*
X122791243Y-103791000D01*
X123029069Y-103743693D01*
X123253097Y-103650898D01*
X123454717Y-103516180D01*
X123626180Y-103344717D01*
X123760898Y-103143097D01*
X123853693Y-102919069D01*
X123901000Y-102681243D01*
X123901000Y-102438757D01*
X123853693Y-102200931D01*
X123760898Y-101976903D01*
X123626180Y-101775283D01*
X123454717Y-101603820D01*
X123253097Y-101469102D01*
X123029069Y-101376307D01*
X122791243Y-101329000D01*
X122548757Y-101329000D01*
X122310931Y-101376307D01*
X122086903Y-101469102D01*
X121885283Y-101603820D01*
X121713820Y-101775283D01*
X121579102Y-101976903D01*
X121486307Y-102200931D01*
X121439000Y-102438757D01*
X118184349Y-102438757D01*
X110476000Y-94730409D01*
X110476000Y-82092832D01*
X110553097Y-82060898D01*
X110734000Y-81940023D01*
X110734000Y-82215154D01*
X110731553Y-82240000D01*
X110734000Y-82264846D01*
X110734000Y-82264853D01*
X110741322Y-82339192D01*
X110770255Y-82434574D01*
X110817241Y-82522479D01*
X110880473Y-82599527D01*
X110899785Y-82615376D01*
X118484628Y-90200220D01*
X118500473Y-90219527D01*
X118577521Y-90282759D01*
X118665425Y-90329745D01*
X118738607Y-90351944D01*
X118760806Y-90358678D01*
X118770694Y-90359652D01*
X118835146Y-90366000D01*
X118835153Y-90366000D01*
X118859999Y-90368447D01*
X118884845Y-90366000D01*
X121547168Y-90366000D01*
X121579102Y-90443097D01*
X121713820Y-90644717D01*
X121831641Y-90762538D01*
X121821972Y-90770473D01*
X121806128Y-90789779D01*
X121059785Y-91536123D01*
X121040473Y-91551972D01*
X120977241Y-91629020D01*
X120930255Y-91716925D01*
X120901322Y-91812307D01*
X120894000Y-91886646D01*
X120894000Y-91886653D01*
X120891553Y-91911499D01*
X120894000Y-91936346D01*
X120894001Y-93645144D01*
X120891553Y-93670000D01*
X120901322Y-93769192D01*
X120930255Y-93864574D01*
X120930256Y-93864575D01*
X120977242Y-93952479D01*
X121040474Y-94029527D01*
X121059780Y-94045371D01*
X121518242Y-94503833D01*
X121486307Y-94580931D01*
X121439000Y-94818757D01*
X121439000Y-95061243D01*
X121486307Y-95299069D01*
X121579102Y-95523097D01*
X121713820Y-95724717D01*
X121885283Y-95896180D01*
X122086903Y-96030898D01*
X122310931Y-96123693D01*
X122548757Y-96171000D01*
X122791243Y-96171000D01*
X123029069Y-96123693D01*
X123253097Y-96030898D01*
X123454717Y-95896180D01*
X123626180Y-95724717D01*
X123760898Y-95523097D01*
X123853693Y-95299069D01*
X123901000Y-95061243D01*
X123901000Y-94818757D01*
X123853693Y-94580931D01*
X123760898Y-94356903D01*
X123626180Y-94155283D01*
X123454717Y-93983820D01*
X123253097Y-93849102D01*
X123029069Y-93756307D01*
X122791243Y-93709000D01*
X122548757Y-93709000D01*
X122310931Y-93756307D01*
X122233833Y-93788242D01*
X121906000Y-93460409D01*
X121906000Y-93370023D01*
X122086903Y-93490898D01*
X122310931Y-93583693D01*
X122548757Y-93631000D01*
X122791243Y-93631000D01*
X123029069Y-93583693D01*
X123253097Y-93490898D01*
X123454717Y-93356180D01*
X123626180Y-93184717D01*
X123760898Y-92983097D01*
X123853693Y-92759069D01*
X123901000Y-92521243D01*
X123901000Y-92392591D01*
X125550220Y-90743372D01*
X125569527Y-90727527D01*
X125632759Y-90650479D01*
X125679745Y-90562575D01*
X125708678Y-90467193D01*
X125716000Y-90392854D01*
X125716000Y-90392846D01*
X125718447Y-90368000D01*
X125716000Y-90343154D01*
X125716000Y-83719591D01*
X127313833Y-82121758D01*
X127390931Y-82153693D01*
X127628757Y-82201000D01*
X127871243Y-82201000D01*
X128109069Y-82153693D01*
X128333097Y-82060898D01*
X128534717Y-81926180D01*
X128706180Y-81754717D01*
X128840898Y-81553097D01*
X128933693Y-81329069D01*
X128981000Y-81091243D01*
X128981000Y-80848757D01*
X128933693Y-80610931D01*
X128840898Y-80386903D01*
X128706180Y-80185283D01*
X128534717Y-80013820D01*
X128333097Y-79879102D01*
X128109069Y-79786307D01*
X127871243Y-79739000D01*
X127628757Y-79739000D01*
X127390931Y-79786307D01*
X127166903Y-79879102D01*
X126965283Y-80013820D01*
X126793820Y-80185283D01*
X126659102Y-80386903D01*
X126566307Y-80610931D01*
X126519000Y-80848757D01*
X126519000Y-81091243D01*
X126566307Y-81329069D01*
X126598242Y-81406167D01*
X125208000Y-82796409D01*
X125208000Y-82201000D01*
X125331243Y-82201000D01*
X125569069Y-82153693D01*
X125793097Y-82060898D01*
X125994717Y-81926180D01*
X126166180Y-81754717D01*
X126300898Y-81553097D01*
X126393693Y-81329069D01*
X126441000Y-81091243D01*
X126441000Y-80848757D01*
X126393693Y-80610931D01*
X126300898Y-80386903D01*
X126166180Y-80185283D01*
X125994717Y-80013820D01*
X125793097Y-79879102D01*
X125686846Y-79835091D01*
X125714099Y-79826825D01*
X125976920Y-79701641D01*
X126210269Y-79527588D01*
X126405178Y-79311355D01*
X126554157Y-79061252D01*
X126611772Y-78898832D01*
X126659102Y-79013097D01*
X126793820Y-79214717D01*
X126965283Y-79386180D01*
X127166903Y-79520898D01*
X127390931Y-79613693D01*
X127628757Y-79661000D01*
X127871243Y-79661000D01*
X128109069Y-79613693D01*
X128333097Y-79520898D01*
X128534717Y-79386180D01*
X128706180Y-79214717D01*
X128840898Y-79013097D01*
X128933693Y-78789069D01*
X128981000Y-78551243D01*
X128981000Y-78308757D01*
X128933693Y-78070931D01*
X128840898Y-77846903D01*
X128706180Y-77645283D01*
X128534717Y-77473820D01*
X128333097Y-77339102D01*
X128109069Y-77246307D01*
X127871243Y-77199000D01*
X127628757Y-77199000D01*
X127390931Y-77246307D01*
X127166903Y-77339102D01*
X126965283Y-77473820D01*
X126793820Y-77645283D01*
X126659102Y-77846903D01*
X126611772Y-77961168D01*
X126554157Y-77798748D01*
X126405178Y-77548645D01*
X126210269Y-77332412D01*
X125976920Y-77158359D01*
X125714099Y-77033175D01*
X125566890Y-76988524D01*
X125337000Y-77109845D01*
X125337000Y-78303000D01*
X125357000Y-78303000D01*
X125357000Y-78557000D01*
X125337000Y-78557000D01*
X125337000Y-78577000D01*
X125083000Y-78577000D01*
X125083000Y-78557000D01*
X125063000Y-78557000D01*
X125063000Y-78303000D01*
X125083000Y-78303000D01*
X125083000Y-77109845D01*
X124853110Y-76988524D01*
X124705901Y-77033175D01*
X124443080Y-77158359D01*
X124209731Y-77332412D01*
X124014822Y-77548645D01*
X123865843Y-77798748D01*
X123808228Y-77961168D01*
X123760898Y-77846903D01*
X123626180Y-77645283D01*
X123454717Y-77473820D01*
X123253097Y-77339102D01*
X123029069Y-77246307D01*
X122791243Y-77199000D01*
X122548757Y-77199000D01*
X122310931Y-77246307D01*
X122086903Y-77339102D01*
X121885283Y-77473820D01*
X121713820Y-77645283D01*
X121579102Y-77846903D01*
X121486307Y-78070931D01*
X121439000Y-78308757D01*
X121439000Y-78551243D01*
X121486307Y-78789069D01*
X121579102Y-79013097D01*
X121713820Y-79214717D01*
X121885283Y-79386180D01*
X122086903Y-79520898D01*
X122310931Y-79613693D01*
X122548757Y-79661000D01*
X122791243Y-79661000D01*
X123029069Y-79613693D01*
X123253097Y-79520898D01*
X123454717Y-79386180D01*
X123626180Y-79214717D01*
X123760898Y-79013097D01*
X123808228Y-78898832D01*
X123865843Y-79061252D01*
X124014822Y-79311355D01*
X124209731Y-79527588D01*
X124443080Y-79701641D01*
X124705901Y-79826825D01*
X124733154Y-79835091D01*
X124626903Y-79879102D01*
X124425283Y-80013820D01*
X124253820Y-80185283D01*
X124119102Y-80386903D01*
X124026307Y-80610931D01*
X123979000Y-80848757D01*
X123979000Y-81091243D01*
X124026307Y-81329069D01*
X124119102Y-81553097D01*
X124196000Y-81668183D01*
X124196001Y-89904407D01*
X123834144Y-90266264D01*
X123853693Y-90219069D01*
X123901000Y-89981243D01*
X123901000Y-89738757D01*
X123853693Y-89500931D01*
X123760898Y-89276903D01*
X123626180Y-89075283D01*
X123454717Y-88903820D01*
X123253097Y-88769102D01*
X123029069Y-88676307D01*
X122791243Y-88629000D01*
X122548757Y-88629000D01*
X122310931Y-88676307D01*
X122086903Y-88769102D01*
X121885283Y-88903820D01*
X121713820Y-89075283D01*
X121579102Y-89276903D01*
X121547168Y-89354000D01*
X119069592Y-89354000D01*
X112115729Y-82400138D01*
X112153110Y-82411476D01*
X112383000Y-82290155D01*
X112383000Y-81097000D01*
X112363000Y-81097000D01*
X112363000Y-80843000D01*
X112383000Y-80843000D01*
X112383000Y-80823000D01*
X112637000Y-80823000D01*
X112637000Y-80843000D01*
X112657000Y-80843000D01*
X112657000Y-81097000D01*
X112637000Y-81097000D01*
X112637000Y-82290155D01*
X112866890Y-82411476D01*
X113014099Y-82366825D01*
X113276920Y-82241641D01*
X113479757Y-82090346D01*
X119049630Y-87660220D01*
X119065475Y-87679527D01*
X119142523Y-87742759D01*
X119230427Y-87789745D01*
X119303609Y-87811944D01*
X119325808Y-87818678D01*
X119335696Y-87819652D01*
X119400148Y-87826000D01*
X119400155Y-87826000D01*
X119425001Y-87828447D01*
X119449847Y-87826000D01*
X121547168Y-87826000D01*
X121579102Y-87903097D01*
X121713820Y-88104717D01*
X121885283Y-88276180D01*
X122086903Y-88410898D01*
X122310931Y-88503693D01*
X122548757Y-88551000D01*
X122791243Y-88551000D01*
X123029069Y-88503693D01*
X123253097Y-88410898D01*
X123454717Y-88276180D01*
X123626180Y-88104717D01*
X123760898Y-87903097D01*
X123853693Y-87679069D01*
X123901000Y-87441243D01*
X123901000Y-87198757D01*
X123853693Y-86960931D01*
X123760898Y-86736903D01*
X123626180Y-86535283D01*
X123454717Y-86363820D01*
X123253097Y-86229102D01*
X123138832Y-86181772D01*
X123301252Y-86124157D01*
X123551355Y-85975178D01*
X123767588Y-85780269D01*
X123941641Y-85546920D01*
X124066825Y-85284099D01*
X124111476Y-85136890D01*
X123990155Y-84907000D01*
X122797000Y-84907000D01*
X122797000Y-84927000D01*
X122543000Y-84927000D01*
X122543000Y-84907000D01*
X121349845Y-84907000D01*
X121228524Y-85136890D01*
X121273175Y-85284099D01*
X121398359Y-85546920D01*
X121572412Y-85780269D01*
X121788645Y-85975178D01*
X122038748Y-86124157D01*
X122201168Y-86181772D01*
X122086903Y-86229102D01*
X121885283Y-86363820D01*
X121713820Y-86535283D01*
X121579102Y-86736903D01*
X121547168Y-86814000D01*
X119634594Y-86814000D01*
X117243704Y-84423110D01*
X121228524Y-84423110D01*
X121349845Y-84653000D01*
X122543000Y-84653000D01*
X122543000Y-83459186D01*
X122797000Y-83459186D01*
X122797000Y-84653000D01*
X123990155Y-84653000D01*
X124111476Y-84423110D01*
X124066825Y-84275901D01*
X123941641Y-84013080D01*
X123767588Y-83779731D01*
X123551355Y-83584822D01*
X123301252Y-83435843D01*
X123026891Y-83338519D01*
X122797000Y-83459186D01*
X122543000Y-83459186D01*
X122313109Y-83338519D01*
X122038748Y-83435843D01*
X121788645Y-83584822D01*
X121572412Y-83779731D01*
X121398359Y-84013080D01*
X121273175Y-84275901D01*
X121228524Y-84423110D01*
X117243704Y-84423110D01*
X115021593Y-82201000D01*
X115171243Y-82201000D01*
X115409069Y-82153693D01*
X115633097Y-82060898D01*
X115834717Y-81926180D01*
X116006180Y-81754717D01*
X116140898Y-81553097D01*
X116233693Y-81329069D01*
X116281000Y-81091243D01*
X116281000Y-80848757D01*
X116233693Y-80610931D01*
X116140898Y-80386903D01*
X116006180Y-80185283D01*
X115834717Y-80013820D01*
X115633097Y-79879102D01*
X115409069Y-79786307D01*
X115171243Y-79739000D01*
X114928757Y-79739000D01*
X114690931Y-79786307D01*
X114466903Y-79879102D01*
X114286000Y-79999977D01*
X114286000Y-79400023D01*
X114466903Y-79520898D01*
X114690931Y-79613693D01*
X114928757Y-79661000D01*
X115171243Y-79661000D01*
X115409069Y-79613693D01*
X115633097Y-79520898D01*
X115834717Y-79386180D01*
X116006180Y-79214717D01*
X116140898Y-79013097D01*
X116188228Y-78898832D01*
X116245843Y-79061252D01*
X116394822Y-79311355D01*
X116589731Y-79527588D01*
X116823080Y-79701641D01*
X117085901Y-79826825D01*
X117113154Y-79835091D01*
X117006903Y-79879102D01*
X116805283Y-80013820D01*
X116633820Y-80185283D01*
X116499102Y-80386903D01*
X116406307Y-80610931D01*
X116359000Y-80848757D01*
X116359000Y-81091243D01*
X116406307Y-81329069D01*
X116499102Y-81553097D01*
X116633820Y-81754717D01*
X116805283Y-81926180D01*
X117006903Y-82060898D01*
X117230931Y-82153693D01*
X117468757Y-82201000D01*
X117711243Y-82201000D01*
X117949069Y-82153693D01*
X118173097Y-82060898D01*
X118374717Y-81926180D01*
X118546180Y-81754717D01*
X118680898Y-81553097D01*
X118773693Y-81329069D01*
X118821000Y-81091243D01*
X118821000Y-80848757D01*
X118899000Y-80848757D01*
X118899000Y-81091243D01*
X118946307Y-81329069D01*
X119039102Y-81553097D01*
X119173820Y-81754717D01*
X119345283Y-81926180D01*
X119546903Y-82060898D01*
X119770931Y-82153693D01*
X120008757Y-82201000D01*
X120251243Y-82201000D01*
X120489069Y-82153693D01*
X120713097Y-82060898D01*
X120914717Y-81926180D01*
X121086180Y-81754717D01*
X121220898Y-81553097D01*
X121313693Y-81329069D01*
X121361000Y-81091243D01*
X121361000Y-80848757D01*
X121439000Y-80848757D01*
X121439000Y-81091243D01*
X121486307Y-81329069D01*
X121579102Y-81553097D01*
X121713820Y-81754717D01*
X121885283Y-81926180D01*
X122086903Y-82060898D01*
X122310931Y-82153693D01*
X122548757Y-82201000D01*
X122791243Y-82201000D01*
X123029069Y-82153693D01*
X123253097Y-82060898D01*
X123454717Y-81926180D01*
X123626180Y-81754717D01*
X123760898Y-81553097D01*
X123853693Y-81329069D01*
X123901000Y-81091243D01*
X123901000Y-80848757D01*
X123853693Y-80610931D01*
X123760898Y-80386903D01*
X123626180Y-80185283D01*
X123454717Y-80013820D01*
X123253097Y-79879102D01*
X123029069Y-79786307D01*
X122791243Y-79739000D01*
X122548757Y-79739000D01*
X122310931Y-79786307D01*
X122086903Y-79879102D01*
X121885283Y-80013820D01*
X121713820Y-80185283D01*
X121579102Y-80386903D01*
X121486307Y-80610931D01*
X121439000Y-80848757D01*
X121361000Y-80848757D01*
X121313693Y-80610931D01*
X121220898Y-80386903D01*
X121086180Y-80185283D01*
X120914717Y-80013820D01*
X120713097Y-79879102D01*
X120489069Y-79786307D01*
X120251243Y-79739000D01*
X120008757Y-79739000D01*
X119770931Y-79786307D01*
X119546903Y-79879102D01*
X119345283Y-80013820D01*
X119173820Y-80185283D01*
X119039102Y-80386903D01*
X118946307Y-80610931D01*
X118899000Y-80848757D01*
X118821000Y-80848757D01*
X118773693Y-80610931D01*
X118680898Y-80386903D01*
X118546180Y-80185283D01*
X118374717Y-80013820D01*
X118173097Y-79879102D01*
X118066846Y-79835091D01*
X118094099Y-79826825D01*
X118356920Y-79701641D01*
X118590269Y-79527588D01*
X118785178Y-79311355D01*
X118934157Y-79061252D01*
X118991772Y-78898832D01*
X119039102Y-79013097D01*
X119173820Y-79214717D01*
X119345283Y-79386180D01*
X119546903Y-79520898D01*
X119770931Y-79613693D01*
X120008757Y-79661000D01*
X120251243Y-79661000D01*
X120489069Y-79613693D01*
X120713097Y-79520898D01*
X120914717Y-79386180D01*
X121086180Y-79214717D01*
X121220898Y-79013097D01*
X121313693Y-78789069D01*
X121361000Y-78551243D01*
X121361000Y-78308757D01*
X121313693Y-78070931D01*
X121220898Y-77846903D01*
X121086180Y-77645283D01*
X120914717Y-77473820D01*
X120713097Y-77339102D01*
X120489069Y-77246307D01*
X120251243Y-77199000D01*
X120008757Y-77199000D01*
X119770931Y-77246307D01*
X119546903Y-77339102D01*
X119345283Y-77473820D01*
X119173820Y-77645283D01*
X119039102Y-77846903D01*
X118991772Y-77961168D01*
X118934157Y-77798748D01*
X118785178Y-77548645D01*
X118590269Y-77332412D01*
X118356920Y-77158359D01*
X118094099Y-77033175D01*
X117946890Y-76988524D01*
X117717000Y-77109845D01*
X117717000Y-78303000D01*
X117737000Y-78303000D01*
X117737000Y-78557000D01*
X117717000Y-78557000D01*
X117717000Y-78577000D01*
X117463000Y-78577000D01*
X117463000Y-78557000D01*
X117443000Y-78557000D01*
X117443000Y-78303000D01*
X117463000Y-78303000D01*
X117463000Y-77109845D01*
X117233110Y-76988524D01*
X117085901Y-77033175D01*
X116823080Y-77158359D01*
X116589731Y-77332412D01*
X116394822Y-77548645D01*
X116245843Y-77798748D01*
X116188228Y-77961168D01*
X116140898Y-77846903D01*
X116006180Y-77645283D01*
X115834717Y-77473820D01*
X115633097Y-77339102D01*
X115409069Y-77246307D01*
X115171243Y-77199000D01*
X114928757Y-77199000D01*
X114690931Y-77246307D01*
X114613833Y-77278242D01*
X113941591Y-76606000D01*
X141558408Y-76606000D01*
X140886167Y-77278242D01*
G37*
X140886167Y-77278242D02*
X140809069Y-77246307D01*
X140571243Y-77199000D01*
X140328757Y-77199000D01*
X140090931Y-77246307D01*
X139866903Y-77339102D01*
X139665283Y-77473820D01*
X139493820Y-77645283D01*
X139359102Y-77846903D01*
X139311772Y-77961168D01*
X139254157Y-77798748D01*
X139105178Y-77548645D01*
X138910269Y-77332412D01*
X138676920Y-77158359D01*
X138414099Y-77033175D01*
X138266890Y-76988524D01*
X138037000Y-77109845D01*
X138037000Y-78303000D01*
X138057000Y-78303000D01*
X138057000Y-78557000D01*
X138037000Y-78557000D01*
X138037000Y-78577000D01*
X137783000Y-78577000D01*
X137783000Y-78557000D01*
X137763000Y-78557000D01*
X137763000Y-78303000D01*
X137783000Y-78303000D01*
X137783000Y-77109845D01*
X137553110Y-76988524D01*
X137405901Y-77033175D01*
X137143080Y-77158359D01*
X136909731Y-77332412D01*
X136714822Y-77548645D01*
X136565843Y-77798748D01*
X136508228Y-77961168D01*
X136460898Y-77846903D01*
X136326180Y-77645283D01*
X136154717Y-77473820D01*
X135953097Y-77339102D01*
X135729069Y-77246307D01*
X135491243Y-77199000D01*
X135248757Y-77199000D01*
X135010931Y-77246307D01*
X134786903Y-77339102D01*
X134585283Y-77473820D01*
X134413820Y-77645283D01*
X134279102Y-77846903D01*
X134186307Y-78070931D01*
X134139000Y-78308757D01*
X134139000Y-78551243D01*
X134186307Y-78789069D01*
X134279102Y-79013097D01*
X134413820Y-79214717D01*
X134585283Y-79386180D01*
X134786903Y-79520898D01*
X135010931Y-79613693D01*
X135248757Y-79661000D01*
X135491243Y-79661000D01*
X135729069Y-79613693D01*
X135953097Y-79520898D01*
X136154717Y-79386180D01*
X136326180Y-79214717D01*
X136460898Y-79013097D01*
X136508228Y-78898832D01*
X136565843Y-79061252D01*
X136714822Y-79311355D01*
X136909731Y-79527588D01*
X137143080Y-79701641D01*
X137405901Y-79826825D01*
X137433154Y-79835091D01*
X137326903Y-79879102D01*
X137125283Y-80013820D01*
X136953820Y-80185283D01*
X136819102Y-80386903D01*
X136726307Y-80610931D01*
X136679000Y-80848757D01*
X136679000Y-81091243D01*
X136726307Y-81329069D01*
X136819102Y-81553097D01*
X136953820Y-81754717D01*
X137125283Y-81926180D01*
X137326903Y-82060898D01*
X137404000Y-82092833D01*
X137404001Y-88888407D01*
X131513144Y-94779264D01*
X131473693Y-94580931D01*
X131441758Y-94503833D01*
X135710222Y-90235370D01*
X135729527Y-90219527D01*
X135792759Y-90142479D01*
X135839745Y-90054575D01*
X135868678Y-89959193D01*
X135876000Y-89884854D01*
X135878448Y-89860000D01*
X135876000Y-89835146D01*
X135876000Y-82092832D01*
X135953097Y-82060898D01*
X136154717Y-81926180D01*
X136326180Y-81754717D01*
X136460898Y-81553097D01*
X136553693Y-81329069D01*
X136601000Y-81091243D01*
X136601000Y-80848757D01*
X136553693Y-80610931D01*
X136460898Y-80386903D01*
X136326180Y-80185283D01*
X136154717Y-80013820D01*
X135953097Y-79879102D01*
X135729069Y-79786307D01*
X135491243Y-79739000D01*
X135248757Y-79739000D01*
X135010931Y-79786307D01*
X134786903Y-79879102D01*
X134606000Y-79999977D01*
X134606000Y-79724845D01*
X134608447Y-79699999D01*
X134606000Y-79675153D01*
X134606000Y-79675146D01*
X134598678Y-79600807D01*
X134569745Y-79505425D01*
X134522759Y-79417521D01*
X134459527Y-79340473D01*
X134440220Y-79324628D01*
X133981758Y-78866167D01*
X134013693Y-78789069D01*
X134061000Y-78551243D01*
X134061000Y-78308757D01*
X134013693Y-78070931D01*
X133920898Y-77846903D01*
X133786180Y-77645283D01*
X133614717Y-77473820D01*
X133413097Y-77339102D01*
X133189069Y-77246307D01*
X132951243Y-77199000D01*
X132708757Y-77199000D01*
X132470931Y-77246307D01*
X132246903Y-77339102D01*
X132045283Y-77473820D01*
X131873820Y-77645283D01*
X131739102Y-77846903D01*
X131646307Y-78070931D01*
X131599000Y-78308757D01*
X131599000Y-78551243D01*
X131646307Y-78789069D01*
X131739102Y-79013097D01*
X131873820Y-79214717D01*
X132045283Y-79386180D01*
X132246903Y-79520898D01*
X132353154Y-79564909D01*
X132325901Y-79573175D01*
X132068052Y-79695991D01*
X132066000Y-79675153D01*
X132066000Y-79675146D01*
X132058678Y-79600807D01*
X132029745Y-79505425D01*
X131982759Y-79417521D01*
X131919527Y-79340473D01*
X131900220Y-79324628D01*
X131441758Y-78866167D01*
X131473693Y-78789069D01*
X131521000Y-78551243D01*
X131521000Y-78308757D01*
X131473693Y-78070931D01*
X131380898Y-77846903D01*
X131246180Y-77645283D01*
X131074717Y-77473820D01*
X130873097Y-77339102D01*
X130649069Y-77246307D01*
X130411243Y-77199000D01*
X130168757Y-77199000D01*
X129930931Y-77246307D01*
X129706903Y-77339102D01*
X129505283Y-77473820D01*
X129333820Y-77645283D01*
X129199102Y-77846903D01*
X129106307Y-78070931D01*
X129059000Y-78308757D01*
X129059000Y-78551243D01*
X129106307Y-78789069D01*
X129199102Y-79013097D01*
X129333820Y-79214717D01*
X129505283Y-79386180D01*
X129706903Y-79520898D01*
X129930931Y-79613693D01*
X130168757Y-79661000D01*
X130411243Y-79661000D01*
X130649069Y-79613693D01*
X130726167Y-79581758D01*
X131054000Y-79909592D01*
X131054000Y-79999977D01*
X130873097Y-79879102D01*
X130649069Y-79786307D01*
X130411243Y-79739000D01*
X130168757Y-79739000D01*
X129930931Y-79786307D01*
X129706903Y-79879102D01*
X129505283Y-80013820D01*
X129333820Y-80185283D01*
X129199102Y-80386903D01*
X129106307Y-80610931D01*
X129059000Y-80848757D01*
X129059000Y-81091243D01*
X129106307Y-81329069D01*
X129121546Y-81365859D01*
X127663781Y-82823624D01*
X127644474Y-82839469D01*
X127581242Y-82916517D01*
X127567314Y-82942575D01*
X127534255Y-83004422D01*
X127505322Y-83099804D01*
X127495553Y-83198996D01*
X127498001Y-83223852D01*
X127498000Y-91936408D01*
X123106167Y-96328242D01*
X123029069Y-96296307D01*
X122791243Y-96249000D01*
X122548757Y-96249000D01*
X122310931Y-96296307D01*
X122086903Y-96389102D01*
X121885283Y-96523820D01*
X121713820Y-96695283D01*
X121579102Y-96896903D01*
X121486307Y-97120931D01*
X121439000Y-97358757D01*
X121439000Y-97601243D01*
X121486307Y-97839069D01*
X121579102Y-98063097D01*
X121713820Y-98264717D01*
X121885283Y-98436180D01*
X122086903Y-98570898D01*
X122310931Y-98663693D01*
X122548757Y-98711000D01*
X122791243Y-98711000D01*
X123029069Y-98663693D01*
X123253097Y-98570898D01*
X123454717Y-98436180D01*
X123626180Y-98264717D01*
X123760898Y-98063097D01*
X123853693Y-97839069D01*
X123901000Y-97601243D01*
X123901000Y-97358757D01*
X123853693Y-97120931D01*
X123821758Y-97043833D01*
X128006000Y-92859592D01*
X128006000Y-93968408D01*
X123106167Y-98868242D01*
X123029069Y-98836307D01*
X122791243Y-98789000D01*
X122548757Y-98789000D01*
X122310931Y-98836307D01*
X122086903Y-98929102D01*
X121885283Y-99063820D01*
X121713820Y-99235283D01*
X121579102Y-99436903D01*
X121486307Y-99660931D01*
X121439000Y-99898757D01*
X121439000Y-100141243D01*
X121486307Y-100379069D01*
X121579102Y-100603097D01*
X121713820Y-100804717D01*
X121885283Y-100976180D01*
X122086903Y-101110898D01*
X122310931Y-101203693D01*
X122548757Y-101251000D01*
X122791243Y-101251000D01*
X123029069Y-101203693D01*
X123253097Y-101110898D01*
X123454717Y-100976180D01*
X123626180Y-100804717D01*
X123760898Y-100603097D01*
X123853693Y-100379069D01*
X123901000Y-100141243D01*
X123901000Y-99898757D01*
X123853693Y-99660931D01*
X123821758Y-99583833D01*
X128852220Y-94553372D01*
X128871527Y-94537527D01*
X128934759Y-94460479D01*
X128981745Y-94372575D01*
X129010678Y-94277193D01*
X129018000Y-94202854D01*
X129018000Y-94202853D01*
X129020448Y-94178000D01*
X129018000Y-94153146D01*
X129018000Y-84735591D01*
X129059000Y-84694591D01*
X129059000Y-84901243D01*
X129106307Y-85139069D01*
X129199102Y-85363097D01*
X129333820Y-85564717D01*
X129505283Y-85736180D01*
X129706903Y-85870898D01*
X129930931Y-85963693D01*
X130168757Y-86011000D01*
X130411243Y-86011000D01*
X130649069Y-85963693D01*
X130873097Y-85870898D01*
X131054001Y-85750022D01*
X131054001Y-86349978D01*
X130873097Y-86229102D01*
X130649069Y-86136307D01*
X130411243Y-86089000D01*
X130168757Y-86089000D01*
X129930931Y-86136307D01*
X129706903Y-86229102D01*
X129505283Y-86363820D01*
X129333820Y-86535283D01*
X129199102Y-86736903D01*
X129106307Y-86960931D01*
X129059000Y-87198757D01*
X129059000Y-87441243D01*
X129106307Y-87679069D01*
X129199102Y-87903097D01*
X129333820Y-88104717D01*
X129505283Y-88276180D01*
X129706903Y-88410898D01*
X129930931Y-88503693D01*
X130168757Y-88551000D01*
X130411243Y-88551000D01*
X130649069Y-88503693D01*
X130873097Y-88410898D01*
X131054001Y-88290022D01*
X131054001Y-88380407D01*
X130726167Y-88708242D01*
X130649069Y-88676307D01*
X130411243Y-88629000D01*
X130168757Y-88629000D01*
X129930931Y-88676307D01*
X129706903Y-88769102D01*
X129505283Y-88903820D01*
X129333820Y-89075283D01*
X129199102Y-89276903D01*
X129106307Y-89500931D01*
X129059000Y-89738757D01*
X129059000Y-89981243D01*
X129106307Y-90219069D01*
X129199102Y-90443097D01*
X129333820Y-90644717D01*
X129505283Y-90816180D01*
X129706903Y-90950898D01*
X129930931Y-91043693D01*
X130168757Y-91091000D01*
X130411243Y-91091000D01*
X130649069Y-91043693D01*
X130873097Y-90950898D01*
X131074717Y-90816180D01*
X131246180Y-90644717D01*
X131380898Y-90443097D01*
X131473693Y-90219069D01*
X131521000Y-89981243D01*
X131521000Y-89738757D01*
X131473693Y-89500931D01*
X131441758Y-89423833D01*
X131900220Y-88965372D01*
X131919527Y-88949527D01*
X131935372Y-88930220D01*
X131954369Y-88911223D01*
X132001757Y-88853480D01*
X132048744Y-88765576D01*
X132077677Y-88670194D01*
X132087447Y-88571001D01*
X132077677Y-88471808D01*
X132066000Y-88433313D01*
X132066000Y-82243032D01*
X132325901Y-82366825D01*
X132473110Y-82411476D01*
X132703000Y-82290155D01*
X132703000Y-81097000D01*
X132683000Y-81097000D01*
X132683000Y-80843000D01*
X132703000Y-80843000D01*
X132703000Y-80823000D01*
X132957000Y-80823000D01*
X132957000Y-80843000D01*
X132977000Y-80843000D01*
X132977000Y-81097000D01*
X132957000Y-81097000D01*
X132957000Y-82290155D01*
X133186890Y-82411476D01*
X133334099Y-82366825D01*
X133594000Y-82243032D01*
X133594001Y-88380407D01*
X130726167Y-91248242D01*
X130649069Y-91216307D01*
X130411243Y-91169000D01*
X130168757Y-91169000D01*
X129930931Y-91216307D01*
X129706903Y-91309102D01*
X129505283Y-91443820D01*
X129333820Y-91615283D01*
X129199102Y-91816903D01*
X129106307Y-92040931D01*
X129059000Y-92278757D01*
X129059000Y-92521243D01*
X129106307Y-92759069D01*
X129199102Y-92983097D01*
X129333820Y-93184717D01*
X129505283Y-93356180D01*
X129706903Y-93490898D01*
X129930931Y-93583693D01*
X130168757Y-93631000D01*
X130411243Y-93631000D01*
X130649069Y-93583693D01*
X130873097Y-93490898D01*
X131074717Y-93356180D01*
X131246180Y-93184717D01*
X131380898Y-92983097D01*
X131473693Y-92759069D01*
X131521000Y-92521243D01*
X131521000Y-92278757D01*
X131473693Y-92040931D01*
X131441758Y-91963833D01*
X134440220Y-88965372D01*
X134459527Y-88949527D01*
X134522759Y-88872479D01*
X134569745Y-88784575D01*
X134598678Y-88689193D01*
X134606000Y-88614854D01*
X134608448Y-88590000D01*
X134606000Y-88565146D01*
X134606000Y-81940023D01*
X134786903Y-82060898D01*
X134864000Y-82092833D01*
X134864001Y-89650407D01*
X130726167Y-93788242D01*
X130649069Y-93756307D01*
X130411243Y-93709000D01*
X130168757Y-93709000D01*
X129930931Y-93756307D01*
X129706903Y-93849102D01*
X129505283Y-93983820D01*
X129333820Y-94155283D01*
X129199102Y-94356903D01*
X129106307Y-94580931D01*
X129059000Y-94818757D01*
X129059000Y-95061243D01*
X129106307Y-95299069D01*
X129199102Y-95523097D01*
X129333820Y-95724717D01*
X129460617Y-95851514D01*
X129445627Y-95869779D01*
X128679785Y-96635622D01*
X128660473Y-96651471D01*
X128597241Y-96728519D01*
X128550255Y-96816424D01*
X128521322Y-96911806D01*
X128514000Y-96986145D01*
X128514000Y-96986152D01*
X128511553Y-97010998D01*
X128514000Y-97035845D01*
X128514001Y-98540407D01*
X123106167Y-103948242D01*
X123029069Y-103916307D01*
X122791243Y-103869000D01*
X122548757Y-103869000D01*
X122310931Y-103916307D01*
X122086903Y-104009102D01*
X121885283Y-104143820D01*
X121713820Y-104315283D01*
X121579102Y-104516903D01*
X121486307Y-104740931D01*
X121439000Y-104978757D01*
X121439000Y-105221243D01*
X121486307Y-105459069D01*
X121579102Y-105683097D01*
X121713820Y-105884717D01*
X121885283Y-106056180D01*
X122086903Y-106190898D01*
X122310931Y-106283693D01*
X122548757Y-106331000D01*
X122791243Y-106331000D01*
X123029069Y-106283693D01*
X123253097Y-106190898D01*
X123454717Y-106056180D01*
X123626180Y-105884717D01*
X123688000Y-105792196D01*
X123688001Y-106947804D01*
X123626180Y-106855283D01*
X123454717Y-106683820D01*
X123253097Y-106549102D01*
X123029069Y-106456307D01*
X122791243Y-106409000D01*
X122548757Y-106409000D01*
X122310931Y-106456307D01*
X122233834Y-106488242D01*
X118184349Y-102438757D01*
X121439000Y-102438757D01*
X121439000Y-102681243D01*
X121486307Y-102919069D01*
X121579102Y-103143097D01*
X121713820Y-103344717D01*
X121885283Y-103516180D01*
X122086903Y-103650898D01*
X122310931Y-103743693D01*
X122548757Y-103791000D01*
X122791243Y-103791000D01*
X123029069Y-103743693D01*
X123253097Y-103650898D01*
X123454717Y-103516180D01*
X123626180Y-103344717D01*
X123760898Y-103143097D01*
X123853693Y-102919069D01*
X123901000Y-102681243D01*
X123901000Y-102438757D01*
X123853693Y-102200931D01*
X123760898Y-101976903D01*
X123626180Y-101775283D01*
X123454717Y-101603820D01*
X123253097Y-101469102D01*
X123029069Y-101376307D01*
X122791243Y-101329000D01*
X122548757Y-101329000D01*
X122310931Y-101376307D01*
X122086903Y-101469102D01*
X121885283Y-101603820D01*
X121713820Y-101775283D01*
X121579102Y-101976903D01*
X121486307Y-102200931D01*
X121439000Y-102438757D01*
X118184349Y-102438757D01*
X110476000Y-94730409D01*
X110476000Y-82092832D01*
X110553097Y-82060898D01*
X110734000Y-81940023D01*
X110734000Y-82215154D01*
X110731553Y-82240000D01*
X110734000Y-82264846D01*
X110734000Y-82264853D01*
X110741322Y-82339192D01*
X110770255Y-82434574D01*
X110817241Y-82522479D01*
X110880473Y-82599527D01*
X110899785Y-82615376D01*
X118484628Y-90200220D01*
X118500473Y-90219527D01*
X118577521Y-90282759D01*
X118665425Y-90329745D01*
X118738607Y-90351944D01*
X118760806Y-90358678D01*
X118770694Y-90359652D01*
X118835146Y-90366000D01*
X118835153Y-90366000D01*
X118859999Y-90368447D01*
X118884845Y-90366000D01*
X121547168Y-90366000D01*
X121579102Y-90443097D01*
X121713820Y-90644717D01*
X121831641Y-90762538D01*
X121821972Y-90770473D01*
X121806128Y-90789779D01*
X121059785Y-91536123D01*
X121040473Y-91551972D01*
X120977241Y-91629020D01*
X120930255Y-91716925D01*
X120901322Y-91812307D01*
X120894000Y-91886646D01*
X120894000Y-91886653D01*
X120891553Y-91911499D01*
X120894000Y-91936346D01*
X120894001Y-93645144D01*
X120891553Y-93670000D01*
X120901322Y-93769192D01*
X120930255Y-93864574D01*
X120930256Y-93864575D01*
X120977242Y-93952479D01*
X121040474Y-94029527D01*
X121059780Y-94045371D01*
X121518242Y-94503833D01*
X121486307Y-94580931D01*
X121439000Y-94818757D01*
X121439000Y-95061243D01*
X121486307Y-95299069D01*
X121579102Y-95523097D01*
X121713820Y-95724717D01*
X121885283Y-95896180D01*
X122086903Y-96030898D01*
X122310931Y-96123693D01*
X122548757Y-96171000D01*
X122791243Y-96171000D01*
X123029069Y-96123693D01*
X123253097Y-96030898D01*
X123454717Y-95896180D01*
X123626180Y-95724717D01*
X123760898Y-95523097D01*
X123853693Y-95299069D01*
X123901000Y-95061243D01*
X123901000Y-94818757D01*
X123853693Y-94580931D01*
X123760898Y-94356903D01*
X123626180Y-94155283D01*
X123454717Y-93983820D01*
X123253097Y-93849102D01*
X123029069Y-93756307D01*
X122791243Y-93709000D01*
X122548757Y-93709000D01*
X122310931Y-93756307D01*
X122233833Y-93788242D01*
X121906000Y-93460409D01*
X121906000Y-93370023D01*
X122086903Y-93490898D01*
X122310931Y-93583693D01*
X122548757Y-93631000D01*
X122791243Y-93631000D01*
X123029069Y-93583693D01*
X123253097Y-93490898D01*
X123454717Y-93356180D01*
X123626180Y-93184717D01*
X123760898Y-92983097D01*
X123853693Y-92759069D01*
X123901000Y-92521243D01*
X123901000Y-92392591D01*
X125550220Y-90743372D01*
X125569527Y-90727527D01*
X125632759Y-90650479D01*
X125679745Y-90562575D01*
X125708678Y-90467193D01*
X125716000Y-90392854D01*
X125716000Y-90392846D01*
X125718447Y-90368000D01*
X125716000Y-90343154D01*
X125716000Y-83719591D01*
X127313833Y-82121758D01*
X127390931Y-82153693D01*
X127628757Y-82201000D01*
X127871243Y-82201000D01*
X128109069Y-82153693D01*
X128333097Y-82060898D01*
X128534717Y-81926180D01*
X128706180Y-81754717D01*
X128840898Y-81553097D01*
X128933693Y-81329069D01*
X128981000Y-81091243D01*
X128981000Y-80848757D01*
X128933693Y-80610931D01*
X128840898Y-80386903D01*
X128706180Y-80185283D01*
X128534717Y-80013820D01*
X128333097Y-79879102D01*
X128109069Y-79786307D01*
X127871243Y-79739000D01*
X127628757Y-79739000D01*
X127390931Y-79786307D01*
X127166903Y-79879102D01*
X126965283Y-80013820D01*
X126793820Y-80185283D01*
X126659102Y-80386903D01*
X126566307Y-80610931D01*
X126519000Y-80848757D01*
X126519000Y-81091243D01*
X126566307Y-81329069D01*
X126598242Y-81406167D01*
X125208000Y-82796409D01*
X125208000Y-82201000D01*
X125331243Y-82201000D01*
X125569069Y-82153693D01*
X125793097Y-82060898D01*
X125994717Y-81926180D01*
X126166180Y-81754717D01*
X126300898Y-81553097D01*
X126393693Y-81329069D01*
X126441000Y-81091243D01*
X126441000Y-80848757D01*
X126393693Y-80610931D01*
X126300898Y-80386903D01*
X126166180Y-80185283D01*
X125994717Y-80013820D01*
X125793097Y-79879102D01*
X125686846Y-79835091D01*
X125714099Y-79826825D01*
X125976920Y-79701641D01*
X126210269Y-79527588D01*
X126405178Y-79311355D01*
X126554157Y-79061252D01*
X126611772Y-78898832D01*
X126659102Y-79013097D01*
X126793820Y-79214717D01*
X126965283Y-79386180D01*
X127166903Y-79520898D01*
X127390931Y-79613693D01*
X127628757Y-79661000D01*
X127871243Y-79661000D01*
X128109069Y-79613693D01*
X128333097Y-79520898D01*
X128534717Y-79386180D01*
X128706180Y-79214717D01*
X128840898Y-79013097D01*
X128933693Y-78789069D01*
X128981000Y-78551243D01*
X128981000Y-78308757D01*
X128933693Y-78070931D01*
X128840898Y-77846903D01*
X128706180Y-77645283D01*
X128534717Y-77473820D01*
X128333097Y-77339102D01*
X128109069Y-77246307D01*
X127871243Y-77199000D01*
X127628757Y-77199000D01*
X127390931Y-77246307D01*
X127166903Y-77339102D01*
X126965283Y-77473820D01*
X126793820Y-77645283D01*
X126659102Y-77846903D01*
X126611772Y-77961168D01*
X126554157Y-77798748D01*
X126405178Y-77548645D01*
X126210269Y-77332412D01*
X125976920Y-77158359D01*
X125714099Y-77033175D01*
X125566890Y-76988524D01*
X125337000Y-77109845D01*
X125337000Y-78303000D01*
X125357000Y-78303000D01*
X125357000Y-78557000D01*
X125337000Y-78557000D01*
X125337000Y-78577000D01*
X125083000Y-78577000D01*
X125083000Y-78557000D01*
X125063000Y-78557000D01*
X125063000Y-78303000D01*
X125083000Y-78303000D01*
X125083000Y-77109845D01*
X124853110Y-76988524D01*
X124705901Y-77033175D01*
X124443080Y-77158359D01*
X124209731Y-77332412D01*
X124014822Y-77548645D01*
X123865843Y-77798748D01*
X123808228Y-77961168D01*
X123760898Y-77846903D01*
X123626180Y-77645283D01*
X123454717Y-77473820D01*
X123253097Y-77339102D01*
X123029069Y-77246307D01*
X122791243Y-77199000D01*
X122548757Y-77199000D01*
X122310931Y-77246307D01*
X122086903Y-77339102D01*
X121885283Y-77473820D01*
X121713820Y-77645283D01*
X121579102Y-77846903D01*
X121486307Y-78070931D01*
X121439000Y-78308757D01*
X121439000Y-78551243D01*
X121486307Y-78789069D01*
X121579102Y-79013097D01*
X121713820Y-79214717D01*
X121885283Y-79386180D01*
X122086903Y-79520898D01*
X122310931Y-79613693D01*
X122548757Y-79661000D01*
X122791243Y-79661000D01*
X123029069Y-79613693D01*
X123253097Y-79520898D01*
X123454717Y-79386180D01*
X123626180Y-79214717D01*
X123760898Y-79013097D01*
X123808228Y-78898832D01*
X123865843Y-79061252D01*
X124014822Y-79311355D01*
X124209731Y-79527588D01*
X124443080Y-79701641D01*
X124705901Y-79826825D01*
X124733154Y-79835091D01*
X124626903Y-79879102D01*
X124425283Y-80013820D01*
X124253820Y-80185283D01*
X124119102Y-80386903D01*
X124026307Y-80610931D01*
X123979000Y-80848757D01*
X123979000Y-81091243D01*
X124026307Y-81329069D01*
X124119102Y-81553097D01*
X124196000Y-81668183D01*
X124196001Y-89904407D01*
X123834144Y-90266264D01*
X123853693Y-90219069D01*
X123901000Y-89981243D01*
X123901000Y-89738757D01*
X123853693Y-89500931D01*
X123760898Y-89276903D01*
X123626180Y-89075283D01*
X123454717Y-88903820D01*
X123253097Y-88769102D01*
X123029069Y-88676307D01*
X122791243Y-88629000D01*
X122548757Y-88629000D01*
X122310931Y-88676307D01*
X122086903Y-88769102D01*
X121885283Y-88903820D01*
X121713820Y-89075283D01*
X121579102Y-89276903D01*
X121547168Y-89354000D01*
X119069592Y-89354000D01*
X112115729Y-82400138D01*
X112153110Y-82411476D01*
X112383000Y-82290155D01*
X112383000Y-81097000D01*
X112363000Y-81097000D01*
X112363000Y-80843000D01*
X112383000Y-80843000D01*
X112383000Y-80823000D01*
X112637000Y-80823000D01*
X112637000Y-80843000D01*
X112657000Y-80843000D01*
X112657000Y-81097000D01*
X112637000Y-81097000D01*
X112637000Y-82290155D01*
X112866890Y-82411476D01*
X113014099Y-82366825D01*
X113276920Y-82241641D01*
X113479757Y-82090346D01*
X119049630Y-87660220D01*
X119065475Y-87679527D01*
X119142523Y-87742759D01*
X119230427Y-87789745D01*
X119303609Y-87811944D01*
X119325808Y-87818678D01*
X119335696Y-87819652D01*
X119400148Y-87826000D01*
X119400155Y-87826000D01*
X119425001Y-87828447D01*
X119449847Y-87826000D01*
X121547168Y-87826000D01*
X121579102Y-87903097D01*
X121713820Y-88104717D01*
X121885283Y-88276180D01*
X122086903Y-88410898D01*
X122310931Y-88503693D01*
X122548757Y-88551000D01*
X122791243Y-88551000D01*
X123029069Y-88503693D01*
X123253097Y-88410898D01*
X123454717Y-88276180D01*
X123626180Y-88104717D01*
X123760898Y-87903097D01*
X123853693Y-87679069D01*
X123901000Y-87441243D01*
X123901000Y-87198757D01*
X123853693Y-86960931D01*
X123760898Y-86736903D01*
X123626180Y-86535283D01*
X123454717Y-86363820D01*
X123253097Y-86229102D01*
X123138832Y-86181772D01*
X123301252Y-86124157D01*
X123551355Y-85975178D01*
X123767588Y-85780269D01*
X123941641Y-85546920D01*
X124066825Y-85284099D01*
X124111476Y-85136890D01*
X123990155Y-84907000D01*
X122797000Y-84907000D01*
X122797000Y-84927000D01*
X122543000Y-84927000D01*
X122543000Y-84907000D01*
X121349845Y-84907000D01*
X121228524Y-85136890D01*
X121273175Y-85284099D01*
X121398359Y-85546920D01*
X121572412Y-85780269D01*
X121788645Y-85975178D01*
X122038748Y-86124157D01*
X122201168Y-86181772D01*
X122086903Y-86229102D01*
X121885283Y-86363820D01*
X121713820Y-86535283D01*
X121579102Y-86736903D01*
X121547168Y-86814000D01*
X119634594Y-86814000D01*
X117243704Y-84423110D01*
X121228524Y-84423110D01*
X121349845Y-84653000D01*
X122543000Y-84653000D01*
X122543000Y-83459186D01*
X122797000Y-83459186D01*
X122797000Y-84653000D01*
X123990155Y-84653000D01*
X124111476Y-84423110D01*
X124066825Y-84275901D01*
X123941641Y-84013080D01*
X123767588Y-83779731D01*
X123551355Y-83584822D01*
X123301252Y-83435843D01*
X123026891Y-83338519D01*
X122797000Y-83459186D01*
X122543000Y-83459186D01*
X122313109Y-83338519D01*
X122038748Y-83435843D01*
X121788645Y-83584822D01*
X121572412Y-83779731D01*
X121398359Y-84013080D01*
X121273175Y-84275901D01*
X121228524Y-84423110D01*
X117243704Y-84423110D01*
X115021593Y-82201000D01*
X115171243Y-82201000D01*
X115409069Y-82153693D01*
X115633097Y-82060898D01*
X115834717Y-81926180D01*
X116006180Y-81754717D01*
X116140898Y-81553097D01*
X116233693Y-81329069D01*
X116281000Y-81091243D01*
X116281000Y-80848757D01*
X116233693Y-80610931D01*
X116140898Y-80386903D01*
X116006180Y-80185283D01*
X115834717Y-80013820D01*
X115633097Y-79879102D01*
X115409069Y-79786307D01*
X115171243Y-79739000D01*
X114928757Y-79739000D01*
X114690931Y-79786307D01*
X114466903Y-79879102D01*
X114286000Y-79999977D01*
X114286000Y-79400023D01*
X114466903Y-79520898D01*
X114690931Y-79613693D01*
X114928757Y-79661000D01*
X115171243Y-79661000D01*
X115409069Y-79613693D01*
X115633097Y-79520898D01*
X115834717Y-79386180D01*
X116006180Y-79214717D01*
X116140898Y-79013097D01*
X116188228Y-78898832D01*
X116245843Y-79061252D01*
X116394822Y-79311355D01*
X116589731Y-79527588D01*
X116823080Y-79701641D01*
X117085901Y-79826825D01*
X117113154Y-79835091D01*
X117006903Y-79879102D01*
X116805283Y-80013820D01*
X116633820Y-80185283D01*
X116499102Y-80386903D01*
X116406307Y-80610931D01*
X116359000Y-80848757D01*
X116359000Y-81091243D01*
X116406307Y-81329069D01*
X116499102Y-81553097D01*
X116633820Y-81754717D01*
X116805283Y-81926180D01*
X117006903Y-82060898D01*
X117230931Y-82153693D01*
X117468757Y-82201000D01*
X117711243Y-82201000D01*
X117949069Y-82153693D01*
X118173097Y-82060898D01*
X118374717Y-81926180D01*
X118546180Y-81754717D01*
X118680898Y-81553097D01*
X118773693Y-81329069D01*
X118821000Y-81091243D01*
X118821000Y-80848757D01*
X118899000Y-80848757D01*
X118899000Y-81091243D01*
X118946307Y-81329069D01*
X119039102Y-81553097D01*
X119173820Y-81754717D01*
X119345283Y-81926180D01*
X119546903Y-82060898D01*
X119770931Y-82153693D01*
X120008757Y-82201000D01*
X120251243Y-82201000D01*
X120489069Y-82153693D01*
X120713097Y-82060898D01*
X120914717Y-81926180D01*
X121086180Y-81754717D01*
X121220898Y-81553097D01*
X121313693Y-81329069D01*
X121361000Y-81091243D01*
X121361000Y-80848757D01*
X121439000Y-80848757D01*
X121439000Y-81091243D01*
X121486307Y-81329069D01*
X121579102Y-81553097D01*
X121713820Y-81754717D01*
X121885283Y-81926180D01*
X122086903Y-82060898D01*
X122310931Y-82153693D01*
X122548757Y-82201000D01*
X122791243Y-82201000D01*
X123029069Y-82153693D01*
X123253097Y-82060898D01*
X123454717Y-81926180D01*
X123626180Y-81754717D01*
X123760898Y-81553097D01*
X123853693Y-81329069D01*
X123901000Y-81091243D01*
X123901000Y-80848757D01*
X123853693Y-80610931D01*
X123760898Y-80386903D01*
X123626180Y-80185283D01*
X123454717Y-80013820D01*
X123253097Y-79879102D01*
X123029069Y-79786307D01*
X122791243Y-79739000D01*
X122548757Y-79739000D01*
X122310931Y-79786307D01*
X122086903Y-79879102D01*
X121885283Y-80013820D01*
X121713820Y-80185283D01*
X121579102Y-80386903D01*
X121486307Y-80610931D01*
X121439000Y-80848757D01*
X121361000Y-80848757D01*
X121313693Y-80610931D01*
X121220898Y-80386903D01*
X121086180Y-80185283D01*
X120914717Y-80013820D01*
X120713097Y-79879102D01*
X120489069Y-79786307D01*
X120251243Y-79739000D01*
X120008757Y-79739000D01*
X119770931Y-79786307D01*
X119546903Y-79879102D01*
X119345283Y-80013820D01*
X119173820Y-80185283D01*
X119039102Y-80386903D01*
X118946307Y-80610931D01*
X118899000Y-80848757D01*
X118821000Y-80848757D01*
X118773693Y-80610931D01*
X118680898Y-80386903D01*
X118546180Y-80185283D01*
X118374717Y-80013820D01*
X118173097Y-79879102D01*
X118066846Y-79835091D01*
X118094099Y-79826825D01*
X118356920Y-79701641D01*
X118590269Y-79527588D01*
X118785178Y-79311355D01*
X118934157Y-79061252D01*
X118991772Y-78898832D01*
X119039102Y-79013097D01*
X119173820Y-79214717D01*
X119345283Y-79386180D01*
X119546903Y-79520898D01*
X119770931Y-79613693D01*
X120008757Y-79661000D01*
X120251243Y-79661000D01*
X120489069Y-79613693D01*
X120713097Y-79520898D01*
X120914717Y-79386180D01*
X121086180Y-79214717D01*
X121220898Y-79013097D01*
X121313693Y-78789069D01*
X121361000Y-78551243D01*
X121361000Y-78308757D01*
X121313693Y-78070931D01*
X121220898Y-77846903D01*
X121086180Y-77645283D01*
X120914717Y-77473820D01*
X120713097Y-77339102D01*
X120489069Y-77246307D01*
X120251243Y-77199000D01*
X120008757Y-77199000D01*
X119770931Y-77246307D01*
X119546903Y-77339102D01*
X119345283Y-77473820D01*
X119173820Y-77645283D01*
X119039102Y-77846903D01*
X118991772Y-77961168D01*
X118934157Y-77798748D01*
X118785178Y-77548645D01*
X118590269Y-77332412D01*
X118356920Y-77158359D01*
X118094099Y-77033175D01*
X117946890Y-76988524D01*
X117717000Y-77109845D01*
X117717000Y-78303000D01*
X117737000Y-78303000D01*
X117737000Y-78557000D01*
X117717000Y-78557000D01*
X117717000Y-78577000D01*
X117463000Y-78577000D01*
X117463000Y-78557000D01*
X117443000Y-78557000D01*
X117443000Y-78303000D01*
X117463000Y-78303000D01*
X117463000Y-77109845D01*
X117233110Y-76988524D01*
X117085901Y-77033175D01*
X116823080Y-77158359D01*
X116589731Y-77332412D01*
X116394822Y-77548645D01*
X116245843Y-77798748D01*
X116188228Y-77961168D01*
X116140898Y-77846903D01*
X116006180Y-77645283D01*
X115834717Y-77473820D01*
X115633097Y-77339102D01*
X115409069Y-77246307D01*
X115171243Y-77199000D01*
X114928757Y-77199000D01*
X114690931Y-77246307D01*
X114613833Y-77278242D01*
X113941591Y-76606000D01*
X141558408Y-76606000D01*
X140886167Y-77278242D01*
G36*
X139359102Y-79013097D02*
G01*
X139493820Y-79214717D01*
X139665283Y-79386180D01*
X139866903Y-79520898D01*
X140090931Y-79613693D01*
X140328757Y-79661000D01*
X140571243Y-79661000D01*
X140809069Y-79613693D01*
X141033097Y-79520898D01*
X141214000Y-79400023D01*
X141214000Y-79490408D01*
X140886167Y-79818242D01*
X140809069Y-79786307D01*
X140571243Y-79739000D01*
X140328757Y-79739000D01*
X140090931Y-79786307D01*
X139866903Y-79879102D01*
X139665283Y-80013820D01*
X139493820Y-80185283D01*
X139359102Y-80386903D01*
X139266307Y-80610931D01*
X139219000Y-80848757D01*
X139219000Y-81091243D01*
X139266307Y-81329069D01*
X139359102Y-81553097D01*
X139493820Y-81754717D01*
X139665283Y-81926180D01*
X139866903Y-82060898D01*
X140090931Y-82153693D01*
X140328757Y-82201000D01*
X140571243Y-82201000D01*
X140809069Y-82153693D01*
X141033097Y-82060898D01*
X141234717Y-81926180D01*
X141406180Y-81754717D01*
X141540898Y-81553097D01*
X141633693Y-81329069D01*
X141681000Y-81091243D01*
X141681000Y-80848757D01*
X141633693Y-80610931D01*
X141601758Y-80533833D01*
X142060222Y-80075370D01*
X142079527Y-80059527D01*
X142142759Y-79982479D01*
X142189745Y-79894575D01*
X142213171Y-79817347D01*
X142218678Y-79799194D01*
X142221409Y-79771461D01*
X142226000Y-79724854D01*
X142226000Y-79724847D01*
X142228052Y-79704009D01*
X142485901Y-79826825D01*
X142513154Y-79835091D01*
X142406903Y-79879102D01*
X142205283Y-80013820D01*
X142033820Y-80185283D01*
X141899102Y-80386903D01*
X141806307Y-80610931D01*
X141759000Y-80848757D01*
X141759000Y-81091243D01*
X141806307Y-81329069D01*
X141899102Y-81553097D01*
X142033820Y-81754717D01*
X142205283Y-81926180D01*
X142406903Y-82060898D01*
X142484000Y-82092833D01*
X142484001Y-86473997D01*
X131521000Y-97436999D01*
X131521000Y-97358757D01*
X131473693Y-97120931D01*
X131380898Y-96896903D01*
X131246180Y-96695283D01*
X131137148Y-96586251D01*
X131157527Y-96569527D01*
X131173376Y-96550215D01*
X138250220Y-89473372D01*
X138269527Y-89457527D01*
X138332759Y-89380479D01*
X138379745Y-89292575D01*
X138408678Y-89197193D01*
X138416000Y-89122854D01*
X138418448Y-89098000D01*
X138416000Y-89073146D01*
X138416000Y-82092832D01*
X138493097Y-82060898D01*
X138694717Y-81926180D01*
X138866180Y-81754717D01*
X139000898Y-81553097D01*
X139093693Y-81329069D01*
X139141000Y-81091243D01*
X139141000Y-80848757D01*
X139093693Y-80610931D01*
X139000898Y-80386903D01*
X138866180Y-80185283D01*
X138694717Y-80013820D01*
X138493097Y-79879102D01*
X138386846Y-79835091D01*
X138414099Y-79826825D01*
X138676920Y-79701641D01*
X138910269Y-79527588D01*
X139105178Y-79311355D01*
X139254157Y-79061252D01*
X139311772Y-78898832D01*
X139359102Y-79013097D01*
G37*
X139359102Y-79013097D02*
X139493820Y-79214717D01*
X139665283Y-79386180D01*
X139866903Y-79520898D01*
X140090931Y-79613693D01*
X140328757Y-79661000D01*
X140571243Y-79661000D01*
X140809069Y-79613693D01*
X141033097Y-79520898D01*
X141214000Y-79400023D01*
X141214000Y-79490408D01*
X140886167Y-79818242D01*
X140809069Y-79786307D01*
X140571243Y-79739000D01*
X140328757Y-79739000D01*
X140090931Y-79786307D01*
X139866903Y-79879102D01*
X139665283Y-80013820D01*
X139493820Y-80185283D01*
X139359102Y-80386903D01*
X139266307Y-80610931D01*
X139219000Y-80848757D01*
X139219000Y-81091243D01*
X139266307Y-81329069D01*
X139359102Y-81553097D01*
X139493820Y-81754717D01*
X139665283Y-81926180D01*
X139866903Y-82060898D01*
X140090931Y-82153693D01*
X140328757Y-82201000D01*
X140571243Y-82201000D01*
X140809069Y-82153693D01*
X141033097Y-82060898D01*
X141234717Y-81926180D01*
X141406180Y-81754717D01*
X141540898Y-81553097D01*
X141633693Y-81329069D01*
X141681000Y-81091243D01*
X141681000Y-80848757D01*
X141633693Y-80610931D01*
X141601758Y-80533833D01*
X142060222Y-80075370D01*
X142079527Y-80059527D01*
X142142759Y-79982479D01*
X142189745Y-79894575D01*
X142213171Y-79817347D01*
X142218678Y-79799194D01*
X142221409Y-79771461D01*
X142226000Y-79724854D01*
X142226000Y-79724847D01*
X142228052Y-79704009D01*
X142485901Y-79826825D01*
X142513154Y-79835091D01*
X142406903Y-79879102D01*
X142205283Y-80013820D01*
X142033820Y-80185283D01*
X141899102Y-80386903D01*
X141806307Y-80610931D01*
X141759000Y-80848757D01*
X141759000Y-81091243D01*
X141806307Y-81329069D01*
X141899102Y-81553097D01*
X142033820Y-81754717D01*
X142205283Y-81926180D01*
X142406903Y-82060898D01*
X142484000Y-82092833D01*
X142484001Y-86473997D01*
X131521000Y-97436999D01*
X131521000Y-97358757D01*
X131473693Y-97120931D01*
X131380898Y-96896903D01*
X131246180Y-96695283D01*
X131137148Y-96586251D01*
X131157527Y-96569527D01*
X131173376Y-96550215D01*
X138250220Y-89473372D01*
X138269527Y-89457527D01*
X138332759Y-89380479D01*
X138379745Y-89292575D01*
X138408678Y-89197193D01*
X138416000Y-89122854D01*
X138418448Y-89098000D01*
X138416000Y-89073146D01*
X138416000Y-82092832D01*
X138493097Y-82060898D01*
X138694717Y-81926180D01*
X138866180Y-81754717D01*
X139000898Y-81553097D01*
X139093693Y-81329069D01*
X139141000Y-81091243D01*
X139141000Y-80848757D01*
X139093693Y-80610931D01*
X139000898Y-80386903D01*
X138866180Y-80185283D01*
X138694717Y-80013820D01*
X138493097Y-79879102D01*
X138386846Y-79835091D01*
X138414099Y-79826825D01*
X138676920Y-79701641D01*
X138910269Y-79527588D01*
X139105178Y-79311355D01*
X139254157Y-79061252D01*
X139311772Y-78898832D01*
X139359102Y-79013097D01*
G36*
X146979102Y-77846903D02*
G01*
X146886307Y-78070931D01*
X146839000Y-78308757D01*
X146839000Y-78551243D01*
X146886307Y-78789069D01*
X146918242Y-78866167D01*
X146459785Y-79324624D01*
X146440473Y-79340473D01*
X146377241Y-79417521D01*
X146330255Y-79505426D01*
X146301322Y-79600808D01*
X146294000Y-79675147D01*
X146294000Y-79675154D01*
X146291553Y-79700000D01*
X146294000Y-79724846D01*
X146294000Y-79999977D01*
X146113097Y-79879102D01*
X145889069Y-79786307D01*
X145651243Y-79739000D01*
X145408757Y-79739000D01*
X145170931Y-79786307D01*
X144946903Y-79879102D01*
X144745283Y-80013820D01*
X144573820Y-80185283D01*
X144439102Y-80386903D01*
X144346307Y-80610931D01*
X144299000Y-80848757D01*
X144299000Y-81091243D01*
X144346307Y-81329069D01*
X144439102Y-81553097D01*
X144573820Y-81754717D01*
X144745283Y-81926180D01*
X144946903Y-82060898D01*
X145024000Y-82092833D01*
X145024001Y-84570407D01*
X143496000Y-86098408D01*
X143496000Y-82092832D01*
X143573097Y-82060898D01*
X143774717Y-81926180D01*
X143946180Y-81754717D01*
X144080898Y-81553097D01*
X144173693Y-81329069D01*
X144221000Y-81091243D01*
X144221000Y-80848757D01*
X144173693Y-80610931D01*
X144080898Y-80386903D01*
X143946180Y-80185283D01*
X143774717Y-80013820D01*
X143573097Y-79879102D01*
X143466846Y-79835091D01*
X143494099Y-79826825D01*
X143756920Y-79701641D01*
X143990269Y-79527588D01*
X144185178Y-79311355D01*
X144334157Y-79061252D01*
X144391772Y-78898832D01*
X144439102Y-79013097D01*
X144573820Y-79214717D01*
X144745283Y-79386180D01*
X144946903Y-79520898D01*
X145170931Y-79613693D01*
X145408757Y-79661000D01*
X145651243Y-79661000D01*
X145889069Y-79613693D01*
X146113097Y-79520898D01*
X146314717Y-79386180D01*
X146486180Y-79214717D01*
X146620898Y-79013097D01*
X146713693Y-78789069D01*
X146761000Y-78551243D01*
X146761000Y-78308757D01*
X146713693Y-78070931D01*
X146620898Y-77846903D01*
X146537441Y-77722000D01*
X147062559Y-77722000D01*
X146979102Y-77846903D01*
G37*
X146979102Y-77846903D02*
X146886307Y-78070931D01*
X146839000Y-78308757D01*
X146839000Y-78551243D01*
X146886307Y-78789069D01*
X146918242Y-78866167D01*
X146459785Y-79324624D01*
X146440473Y-79340473D01*
X146377241Y-79417521D01*
X146330255Y-79505426D01*
X146301322Y-79600808D01*
X146294000Y-79675147D01*
X146294000Y-79675154D01*
X146291553Y-79700000D01*
X146294000Y-79724846D01*
X146294000Y-79999977D01*
X146113097Y-79879102D01*
X145889069Y-79786307D01*
X145651243Y-79739000D01*
X145408757Y-79739000D01*
X145170931Y-79786307D01*
X144946903Y-79879102D01*
X144745283Y-80013820D01*
X144573820Y-80185283D01*
X144439102Y-80386903D01*
X144346307Y-80610931D01*
X144299000Y-80848757D01*
X144299000Y-81091243D01*
X144346307Y-81329069D01*
X144439102Y-81553097D01*
X144573820Y-81754717D01*
X144745283Y-81926180D01*
X144946903Y-82060898D01*
X145024000Y-82092833D01*
X145024001Y-84570407D01*
X143496000Y-86098408D01*
X143496000Y-82092832D01*
X143573097Y-82060898D01*
X143774717Y-81926180D01*
X143946180Y-81754717D01*
X144080898Y-81553097D01*
X144173693Y-81329069D01*
X144221000Y-81091243D01*
X144221000Y-80848757D01*
X144173693Y-80610931D01*
X144080898Y-80386903D01*
X143946180Y-80185283D01*
X143774717Y-80013820D01*
X143573097Y-79879102D01*
X143466846Y-79835091D01*
X143494099Y-79826825D01*
X143756920Y-79701641D01*
X143990269Y-79527588D01*
X144185178Y-79311355D01*
X144334157Y-79061252D01*
X144391772Y-78898832D01*
X144439102Y-79013097D01*
X144573820Y-79214717D01*
X144745283Y-79386180D01*
X144946903Y-79520898D01*
X145170931Y-79613693D01*
X145408757Y-79661000D01*
X145651243Y-79661000D01*
X145889069Y-79613693D01*
X146113097Y-79520898D01*
X146314717Y-79386180D01*
X146486180Y-79214717D01*
X146620898Y-79013097D01*
X146713693Y-78789069D01*
X146761000Y-78551243D01*
X146761000Y-78308757D01*
X146713693Y-78070931D01*
X146620898Y-77846903D01*
X146537441Y-77722000D01*
X147062559Y-77722000D01*
X146979102Y-77846903D01*
G36*
X150737000Y-80843000D02*
G01*
X150757000Y-80843000D01*
X150757000Y-81097000D01*
X150737000Y-81097000D01*
X150737000Y-82290155D01*
X150966890Y-82411476D01*
X151114099Y-82366825D01*
X151376920Y-82241641D01*
X151386000Y-82234868D01*
X151386000Y-83522065D01*
X151241252Y-83435843D01*
X150966891Y-83338519D01*
X150737000Y-83459186D01*
X150737000Y-84653000D01*
X150757000Y-84653000D01*
X150757000Y-84907000D01*
X150737000Y-84907000D01*
X150737000Y-84927000D01*
X150483000Y-84927000D01*
X150483000Y-84907000D01*
X150463000Y-84907000D01*
X150463000Y-84653000D01*
X150483000Y-84653000D01*
X150483000Y-83459186D01*
X150253109Y-83338519D01*
X149978748Y-83435843D01*
X149846000Y-83514917D01*
X149846000Y-82243032D01*
X150105901Y-82366825D01*
X150253110Y-82411476D01*
X150483000Y-82290155D01*
X150483000Y-81097000D01*
X150463000Y-81097000D01*
X150463000Y-80843000D01*
X150483000Y-80843000D01*
X150483000Y-80823000D01*
X150737000Y-80823000D01*
X150737000Y-80843000D01*
G37*
X150737000Y-80843000D02*
X150757000Y-80843000D01*
X150757000Y-81097000D01*
X150737000Y-81097000D01*
X150737000Y-82290155D01*
X150966890Y-82411476D01*
X151114099Y-82366825D01*
X151376920Y-82241641D01*
X151386000Y-82234868D01*
X151386000Y-83522065D01*
X151241252Y-83435843D01*
X150966891Y-83338519D01*
X150737000Y-83459186D01*
X150737000Y-84653000D01*
X150757000Y-84653000D01*
X150757000Y-84907000D01*
X150737000Y-84907000D01*
X150737000Y-84927000D01*
X150483000Y-84927000D01*
X150483000Y-84907000D01*
X150463000Y-84907000D01*
X150463000Y-84653000D01*
X150483000Y-84653000D01*
X150483000Y-83459186D01*
X150253109Y-83338519D01*
X149978748Y-83435843D01*
X149846000Y-83514917D01*
X149846000Y-82243032D01*
X150105901Y-82366825D01*
X150253110Y-82411476D01*
X150483000Y-82290155D01*
X150483000Y-81097000D01*
X150463000Y-81097000D01*
X150463000Y-80843000D01*
X150483000Y-80843000D01*
X150483000Y-80823000D01*
X150737000Y-80823000D01*
X150737000Y-80843000D01*
G36*
X143117000Y-78303000D02*
G01*
X143137000Y-78303000D01*
X143137000Y-78557000D01*
X143117000Y-78557000D01*
X143117000Y-78577000D01*
X142863000Y-78577000D01*
X142863000Y-78557000D01*
X142843000Y-78557000D01*
X142843000Y-78303000D01*
X142863000Y-78303000D01*
X142863000Y-78283000D01*
X143117000Y-78283000D01*
X143117000Y-78303000D01*
G37*
X143117000Y-78303000D02*
X143137000Y-78303000D01*
X143137000Y-78557000D01*
X143117000Y-78557000D01*
X143117000Y-78577000D01*
X142863000Y-78577000D01*
X142863000Y-78557000D01*
X142843000Y-78557000D01*
X142843000Y-78303000D01*
X142863000Y-78303000D01*
X142863000Y-78283000D01*
X143117000Y-78283000D01*
X143117000Y-78303000D01*
%TD*%
M02*
