%TF.GenerationSoftware,KiCad,Pcbnew,(5.1.6)-1*%
%TF.CreationDate,2020-08-17T20:49:59+02:00*%
%TF.ProjectId,PiToFeather,5069546f-4665-4617-9468-65722e6b6963,rev?*%
%TF.SameCoordinates,Original*%
%TF.FileFunction,Legend,Top*%
%TF.FilePolarity,Positive*%
%FSLAX46Y46*%
G04 Gerber Fmt 4.6, Leading zero omitted, Abs format (unit mm)*
G04 Created by KiCad (PCBNEW (5.1.6)-1) date 2020-08-17 20:49:59*
%MOMM*%
%LPD*%
G01*
G04 APERTURE LIST*
%ADD10C,0.250000*%
%ADD11C,0.120000*%
%ADD12C,0.150000*%
G04 APERTURE END LIST*
D10*
X105242976Y-87724761D02*
X105385833Y-87772380D01*
X105623928Y-87772380D01*
X105719166Y-87724761D01*
X105766785Y-87677142D01*
X105814404Y-87581904D01*
X105814404Y-87486666D01*
X105766785Y-87391428D01*
X105719166Y-87343809D01*
X105623928Y-87296190D01*
X105433452Y-87248571D01*
X105338214Y-87200952D01*
X105290595Y-87153333D01*
X105242976Y-87058095D01*
X105242976Y-86962857D01*
X105290595Y-86867619D01*
X105338214Y-86820000D01*
X105433452Y-86772380D01*
X105671547Y-86772380D01*
X105814404Y-86820000D01*
X106814404Y-87677142D02*
X106766785Y-87724761D01*
X106623928Y-87772380D01*
X106528690Y-87772380D01*
X106385833Y-87724761D01*
X106290595Y-87629523D01*
X106242976Y-87534285D01*
X106195357Y-87343809D01*
X106195357Y-87200952D01*
X106242976Y-87010476D01*
X106290595Y-86915238D01*
X106385833Y-86820000D01*
X106528690Y-86772380D01*
X106623928Y-86772380D01*
X106766785Y-86820000D01*
X106814404Y-86867619D01*
X107719166Y-87772380D02*
X107242976Y-87772380D01*
X107242976Y-86772380D01*
X105242976Y-85184761D02*
X105385833Y-85232380D01*
X105623928Y-85232380D01*
X105719166Y-85184761D01*
X105766785Y-85137142D01*
X105814404Y-85041904D01*
X105814404Y-84946666D01*
X105766785Y-84851428D01*
X105719166Y-84803809D01*
X105623928Y-84756190D01*
X105433452Y-84708571D01*
X105338214Y-84660952D01*
X105290595Y-84613333D01*
X105242976Y-84518095D01*
X105242976Y-84422857D01*
X105290595Y-84327619D01*
X105338214Y-84280000D01*
X105433452Y-84232380D01*
X105671547Y-84232380D01*
X105814404Y-84280000D01*
X106242976Y-85232380D02*
X106242976Y-84232380D01*
X106481071Y-84232380D01*
X106623928Y-84280000D01*
X106719166Y-84375238D01*
X106766785Y-84470476D01*
X106814404Y-84660952D01*
X106814404Y-84803809D01*
X106766785Y-84994285D01*
X106719166Y-85089523D01*
X106623928Y-85184761D01*
X106481071Y-85232380D01*
X106242976Y-85232380D01*
X107195357Y-84946666D02*
X107671547Y-84946666D01*
X107100119Y-85232380D02*
X107433452Y-84232380D01*
X107766785Y-85232380D01*
X105290595Y-95392380D02*
X105290595Y-94392380D01*
X105766785Y-95392380D02*
X105766785Y-94392380D01*
X106004880Y-94392380D01*
X106147738Y-94440000D01*
X106242976Y-94535238D01*
X106290595Y-94630476D01*
X106338214Y-94820952D01*
X106338214Y-94963809D01*
X106290595Y-95154285D01*
X106242976Y-95249523D01*
X106147738Y-95344761D01*
X106004880Y-95392380D01*
X105766785Y-95392380D01*
X106528690Y-95487619D02*
X107290595Y-95487619D01*
X107481071Y-95344761D02*
X107623928Y-95392380D01*
X107862023Y-95392380D01*
X107957261Y-95344761D01*
X108004880Y-95297142D01*
X108052500Y-95201904D01*
X108052500Y-95106666D01*
X108004880Y-95011428D01*
X107957261Y-94963809D01*
X107862023Y-94916190D01*
X107671547Y-94868571D01*
X107576309Y-94820952D01*
X107528690Y-94773333D01*
X107481071Y-94678095D01*
X107481071Y-94582857D01*
X107528690Y-94487619D01*
X107576309Y-94440000D01*
X107671547Y-94392380D01*
X107909642Y-94392380D01*
X108052500Y-94440000D01*
X108481071Y-95392380D02*
X108481071Y-94392380D01*
X108719166Y-94392380D01*
X108862023Y-94440000D01*
X108957261Y-94535238D01*
X109004880Y-94630476D01*
X109052500Y-94820952D01*
X109052500Y-94963809D01*
X109004880Y-95154285D01*
X108957261Y-95249523D01*
X108862023Y-95344761D01*
X108719166Y-95392380D01*
X108481071Y-95392380D01*
X105862023Y-92757142D02*
X105814404Y-92804761D01*
X105671547Y-92852380D01*
X105576309Y-92852380D01*
X105433452Y-92804761D01*
X105338214Y-92709523D01*
X105290595Y-92614285D01*
X105242976Y-92423809D01*
X105242976Y-92280952D01*
X105290595Y-92090476D01*
X105338214Y-91995238D01*
X105433452Y-91900000D01*
X105576309Y-91852380D01*
X105671547Y-91852380D01*
X105814404Y-91900000D01*
X105862023Y-91947619D01*
X106290595Y-92328571D02*
X106623928Y-92328571D01*
X106766785Y-92852380D02*
X106290595Y-92852380D01*
X106290595Y-91852380D01*
X106766785Y-91852380D01*
X107719166Y-92852380D02*
X107147738Y-92852380D01*
X107433452Y-92852380D02*
X107433452Y-91852380D01*
X107338214Y-91995238D01*
X107242976Y-92090476D01*
X107147738Y-92138095D01*
X105862023Y-90217142D02*
X105814404Y-90264761D01*
X105671547Y-90312380D01*
X105576309Y-90312380D01*
X105433452Y-90264761D01*
X105338214Y-90169523D01*
X105290595Y-90074285D01*
X105242976Y-89883809D01*
X105242976Y-89740952D01*
X105290595Y-89550476D01*
X105338214Y-89455238D01*
X105433452Y-89360000D01*
X105576309Y-89312380D01*
X105671547Y-89312380D01*
X105814404Y-89360000D01*
X105862023Y-89407619D01*
X106290595Y-89788571D02*
X106623928Y-89788571D01*
X106766785Y-90312380D02*
X106290595Y-90312380D01*
X106290595Y-89312380D01*
X106766785Y-89312380D01*
X107385833Y-89312380D02*
X107481071Y-89312380D01*
X107576309Y-89360000D01*
X107623928Y-89407619D01*
X107671547Y-89502857D01*
X107719166Y-89693333D01*
X107719166Y-89931428D01*
X107671547Y-90121904D01*
X107623928Y-90217142D01*
X107576309Y-90264761D01*
X107481071Y-90312380D01*
X107385833Y-90312380D01*
X107290595Y-90264761D01*
X107242976Y-90217142D01*
X107195357Y-90121904D01*
X107147738Y-89931428D01*
X107147738Y-89693333D01*
X107195357Y-89502857D01*
X107242976Y-89407619D01*
X107290595Y-89360000D01*
X107385833Y-89312380D01*
X105290595Y-105552380D02*
X105290595Y-104552380D01*
X105671547Y-104552380D01*
X105766785Y-104600000D01*
X105814404Y-104647619D01*
X105862023Y-104742857D01*
X105862023Y-104885714D01*
X105814404Y-104980952D01*
X105766785Y-105028571D01*
X105671547Y-105076190D01*
X105290595Y-105076190D01*
X106862023Y-105457142D02*
X106814404Y-105504761D01*
X106671547Y-105552380D01*
X106576309Y-105552380D01*
X106433452Y-105504761D01*
X106338214Y-105409523D01*
X106290595Y-105314285D01*
X106242976Y-105123809D01*
X106242976Y-104980952D01*
X106290595Y-104790476D01*
X106338214Y-104695238D01*
X106433452Y-104600000D01*
X106576309Y-104552380D01*
X106671547Y-104552380D01*
X106814404Y-104600000D01*
X106862023Y-104647619D01*
X107290595Y-105552380D02*
X107290595Y-104552380D01*
X107623928Y-105266666D01*
X107957261Y-104552380D01*
X107957261Y-105552380D01*
X108195357Y-105647619D02*
X108957261Y-105647619D01*
X109195357Y-105552380D02*
X109195357Y-104552380D01*
X109433452Y-104552380D01*
X109576309Y-104600000D01*
X109671547Y-104695238D01*
X109719166Y-104790476D01*
X109766785Y-104980952D01*
X109766785Y-105123809D01*
X109719166Y-105314285D01*
X109671547Y-105409523D01*
X109576309Y-105504761D01*
X109433452Y-105552380D01*
X109195357Y-105552380D01*
X110385833Y-104552380D02*
X110576309Y-104552380D01*
X110671547Y-104600000D01*
X110766785Y-104695238D01*
X110814404Y-104885714D01*
X110814404Y-105219047D01*
X110766785Y-105409523D01*
X110671547Y-105504761D01*
X110576309Y-105552380D01*
X110385833Y-105552380D01*
X110290595Y-105504761D01*
X110195357Y-105409523D01*
X110147738Y-105219047D01*
X110147738Y-104885714D01*
X110195357Y-104695238D01*
X110290595Y-104600000D01*
X110385833Y-104552380D01*
X111242976Y-104552380D02*
X111242976Y-105361904D01*
X111290595Y-105457142D01*
X111338214Y-105504761D01*
X111433452Y-105552380D01*
X111623928Y-105552380D01*
X111719166Y-105504761D01*
X111766785Y-105457142D01*
X111814404Y-105361904D01*
X111814404Y-104552380D01*
X112147738Y-104552380D02*
X112719166Y-104552380D01*
X112433452Y-105552380D02*
X112433452Y-104552380D01*
X105290595Y-100472380D02*
X105290595Y-99472380D01*
X105671547Y-99472380D01*
X105766785Y-99520000D01*
X105814404Y-99567619D01*
X105862023Y-99662857D01*
X105862023Y-99805714D01*
X105814404Y-99900952D01*
X105766785Y-99948571D01*
X105671547Y-99996190D01*
X105290595Y-99996190D01*
X106862023Y-100377142D02*
X106814404Y-100424761D01*
X106671547Y-100472380D01*
X106576309Y-100472380D01*
X106433452Y-100424761D01*
X106338214Y-100329523D01*
X106290595Y-100234285D01*
X106242976Y-100043809D01*
X106242976Y-99900952D01*
X106290595Y-99710476D01*
X106338214Y-99615238D01*
X106433452Y-99520000D01*
X106576309Y-99472380D01*
X106671547Y-99472380D01*
X106814404Y-99520000D01*
X106862023Y-99567619D01*
X107290595Y-100472380D02*
X107290595Y-99472380D01*
X107623928Y-100186666D01*
X107957261Y-99472380D01*
X107957261Y-100472380D01*
X108195357Y-100567619D02*
X108957261Y-100567619D01*
X109528690Y-99948571D02*
X109195357Y-99948571D01*
X109195357Y-100472380D02*
X109195357Y-99472380D01*
X109671547Y-99472380D01*
X110004880Y-100424761D02*
X110147738Y-100472380D01*
X110385833Y-100472380D01*
X110481071Y-100424761D01*
X110528690Y-100377142D01*
X110576309Y-100281904D01*
X110576309Y-100186666D01*
X110528690Y-100091428D01*
X110481071Y-100043809D01*
X110385833Y-99996190D01*
X110195357Y-99948571D01*
X110100119Y-99900952D01*
X110052500Y-99853333D01*
X110004880Y-99758095D01*
X110004880Y-99662857D01*
X110052500Y-99567619D01*
X110100119Y-99520000D01*
X110195357Y-99472380D01*
X110433452Y-99472380D01*
X110576309Y-99520000D01*
X105290595Y-103012380D02*
X105290595Y-102012380D01*
X105671547Y-102012380D01*
X105766785Y-102060000D01*
X105814404Y-102107619D01*
X105862023Y-102202857D01*
X105862023Y-102345714D01*
X105814404Y-102440952D01*
X105766785Y-102488571D01*
X105671547Y-102536190D01*
X105290595Y-102536190D01*
X106862023Y-102917142D02*
X106814404Y-102964761D01*
X106671547Y-103012380D01*
X106576309Y-103012380D01*
X106433452Y-102964761D01*
X106338214Y-102869523D01*
X106290595Y-102774285D01*
X106242976Y-102583809D01*
X106242976Y-102440952D01*
X106290595Y-102250476D01*
X106338214Y-102155238D01*
X106433452Y-102060000D01*
X106576309Y-102012380D01*
X106671547Y-102012380D01*
X106814404Y-102060000D01*
X106862023Y-102107619D01*
X107290595Y-103012380D02*
X107290595Y-102012380D01*
X107623928Y-102726666D01*
X107957261Y-102012380D01*
X107957261Y-103012380D01*
X108195357Y-103107619D02*
X108957261Y-103107619D01*
X109195357Y-103012380D02*
X109195357Y-102012380D01*
X109433452Y-102012380D01*
X109576309Y-102060000D01*
X109671547Y-102155238D01*
X109719166Y-102250476D01*
X109766785Y-102440952D01*
X109766785Y-102583809D01*
X109719166Y-102774285D01*
X109671547Y-102869523D01*
X109576309Y-102964761D01*
X109433452Y-103012380D01*
X109195357Y-103012380D01*
X110195357Y-103012380D02*
X110195357Y-102012380D01*
X110671547Y-103012380D02*
X110671547Y-102012380D01*
X111242976Y-103012380D01*
X111242976Y-102012380D01*
X105242976Y-97884761D02*
X105385833Y-97932380D01*
X105623928Y-97932380D01*
X105719166Y-97884761D01*
X105766785Y-97837142D01*
X105814404Y-97741904D01*
X105814404Y-97646666D01*
X105766785Y-97551428D01*
X105719166Y-97503809D01*
X105623928Y-97456190D01*
X105433452Y-97408571D01*
X105338214Y-97360952D01*
X105290595Y-97313333D01*
X105242976Y-97218095D01*
X105242976Y-97122857D01*
X105290595Y-97027619D01*
X105338214Y-96980000D01*
X105433452Y-96932380D01*
X105671547Y-96932380D01*
X105814404Y-96980000D01*
X106242976Y-97932380D02*
X106242976Y-96932380D01*
X106481071Y-96932380D01*
X106623928Y-96980000D01*
X106719166Y-97075238D01*
X106766785Y-97170476D01*
X106814404Y-97360952D01*
X106814404Y-97503809D01*
X106766785Y-97694285D01*
X106719166Y-97789523D01*
X106623928Y-97884761D01*
X106481071Y-97932380D01*
X106242976Y-97932380D01*
X107195357Y-97646666D02*
X107671547Y-97646666D01*
X107100119Y-97932380D02*
X107433452Y-96932380D01*
X107766785Y-97932380D01*
X105290595Y-107711428D02*
X106052500Y-107711428D01*
X105671547Y-108092380D02*
X105671547Y-107330476D01*
X107004880Y-107092380D02*
X106528690Y-107092380D01*
X106481071Y-107568571D01*
X106528690Y-107520952D01*
X106623928Y-107473333D01*
X106862023Y-107473333D01*
X106957261Y-107520952D01*
X107004880Y-107568571D01*
X107052500Y-107663809D01*
X107052500Y-107901904D01*
X107004880Y-107997142D01*
X106957261Y-108044761D01*
X106862023Y-108092380D01*
X106623928Y-108092380D01*
X106528690Y-108044761D01*
X106481071Y-107997142D01*
X107338214Y-107092380D02*
X107671547Y-108092380D01*
X108004880Y-107092380D01*
X133230595Y-107711428D02*
X133992500Y-107711428D01*
X133611547Y-108092380D02*
X133611547Y-107330476D01*
X134944880Y-107092380D02*
X134468690Y-107092380D01*
X134421071Y-107568571D01*
X134468690Y-107520952D01*
X134563928Y-107473333D01*
X134802023Y-107473333D01*
X134897261Y-107520952D01*
X134944880Y-107568571D01*
X134992500Y-107663809D01*
X134992500Y-107901904D01*
X134944880Y-107997142D01*
X134897261Y-108044761D01*
X134802023Y-108092380D01*
X134563928Y-108092380D01*
X134468690Y-108044761D01*
X134421071Y-107997142D01*
X135278214Y-107092380D02*
X135611547Y-108092380D01*
X135944880Y-107092380D01*
X133230595Y-105552380D02*
X133230595Y-104552380D01*
X133611547Y-104552380D01*
X133706785Y-104600000D01*
X133754404Y-104647619D01*
X133802023Y-104742857D01*
X133802023Y-104885714D01*
X133754404Y-104980952D01*
X133706785Y-105028571D01*
X133611547Y-105076190D01*
X133230595Y-105076190D01*
X134802023Y-105457142D02*
X134754404Y-105504761D01*
X134611547Y-105552380D01*
X134516309Y-105552380D01*
X134373452Y-105504761D01*
X134278214Y-105409523D01*
X134230595Y-105314285D01*
X134182976Y-105123809D01*
X134182976Y-104980952D01*
X134230595Y-104790476D01*
X134278214Y-104695238D01*
X134373452Y-104600000D01*
X134516309Y-104552380D01*
X134611547Y-104552380D01*
X134754404Y-104600000D01*
X134802023Y-104647619D01*
X135230595Y-105552380D02*
X135230595Y-104552380D01*
X135563928Y-105266666D01*
X135897261Y-104552380D01*
X135897261Y-105552380D01*
X136135357Y-105647619D02*
X136897261Y-105647619D01*
X137135357Y-105552380D02*
X137135357Y-104552380D01*
X137373452Y-104552380D01*
X137516309Y-104600000D01*
X137611547Y-104695238D01*
X137659166Y-104790476D01*
X137706785Y-104980952D01*
X137706785Y-105123809D01*
X137659166Y-105314285D01*
X137611547Y-105409523D01*
X137516309Y-105504761D01*
X137373452Y-105552380D01*
X137135357Y-105552380D01*
X138325833Y-104552380D02*
X138516309Y-104552380D01*
X138611547Y-104600000D01*
X138706785Y-104695238D01*
X138754404Y-104885714D01*
X138754404Y-105219047D01*
X138706785Y-105409523D01*
X138611547Y-105504761D01*
X138516309Y-105552380D01*
X138325833Y-105552380D01*
X138230595Y-105504761D01*
X138135357Y-105409523D01*
X138087738Y-105219047D01*
X138087738Y-104885714D01*
X138135357Y-104695238D01*
X138230595Y-104600000D01*
X138325833Y-104552380D01*
X139182976Y-104552380D02*
X139182976Y-105361904D01*
X139230595Y-105457142D01*
X139278214Y-105504761D01*
X139373452Y-105552380D01*
X139563928Y-105552380D01*
X139659166Y-105504761D01*
X139706785Y-105457142D01*
X139754404Y-105361904D01*
X139754404Y-104552380D01*
X140087738Y-104552380D02*
X140659166Y-104552380D01*
X140373452Y-105552380D02*
X140373452Y-104552380D01*
X133230595Y-103012380D02*
X133230595Y-102012380D01*
X133611547Y-102012380D01*
X133706785Y-102060000D01*
X133754404Y-102107619D01*
X133802023Y-102202857D01*
X133802023Y-102345714D01*
X133754404Y-102440952D01*
X133706785Y-102488571D01*
X133611547Y-102536190D01*
X133230595Y-102536190D01*
X134802023Y-102917142D02*
X134754404Y-102964761D01*
X134611547Y-103012380D01*
X134516309Y-103012380D01*
X134373452Y-102964761D01*
X134278214Y-102869523D01*
X134230595Y-102774285D01*
X134182976Y-102583809D01*
X134182976Y-102440952D01*
X134230595Y-102250476D01*
X134278214Y-102155238D01*
X134373452Y-102060000D01*
X134516309Y-102012380D01*
X134611547Y-102012380D01*
X134754404Y-102060000D01*
X134802023Y-102107619D01*
X135230595Y-103012380D02*
X135230595Y-102012380D01*
X135563928Y-102726666D01*
X135897261Y-102012380D01*
X135897261Y-103012380D01*
X136135357Y-103107619D02*
X136897261Y-103107619D01*
X137135357Y-103012380D02*
X137135357Y-102012380D01*
X137373452Y-102012380D01*
X137516309Y-102060000D01*
X137611547Y-102155238D01*
X137659166Y-102250476D01*
X137706785Y-102440952D01*
X137706785Y-102583809D01*
X137659166Y-102774285D01*
X137611547Y-102869523D01*
X137516309Y-102964761D01*
X137373452Y-103012380D01*
X137135357Y-103012380D01*
X138135357Y-103012380D02*
X138135357Y-102012380D01*
X138611547Y-103012380D02*
X138611547Y-102012380D01*
X139182976Y-103012380D01*
X139182976Y-102012380D01*
X133230595Y-100472380D02*
X133230595Y-99472380D01*
X133611547Y-99472380D01*
X133706785Y-99520000D01*
X133754404Y-99567619D01*
X133802023Y-99662857D01*
X133802023Y-99805714D01*
X133754404Y-99900952D01*
X133706785Y-99948571D01*
X133611547Y-99996190D01*
X133230595Y-99996190D01*
X134802023Y-100377142D02*
X134754404Y-100424761D01*
X134611547Y-100472380D01*
X134516309Y-100472380D01*
X134373452Y-100424761D01*
X134278214Y-100329523D01*
X134230595Y-100234285D01*
X134182976Y-100043809D01*
X134182976Y-99900952D01*
X134230595Y-99710476D01*
X134278214Y-99615238D01*
X134373452Y-99520000D01*
X134516309Y-99472380D01*
X134611547Y-99472380D01*
X134754404Y-99520000D01*
X134802023Y-99567619D01*
X135230595Y-100472380D02*
X135230595Y-99472380D01*
X135563928Y-100186666D01*
X135897261Y-99472380D01*
X135897261Y-100472380D01*
X136135357Y-100567619D02*
X136897261Y-100567619D01*
X137468690Y-99948571D02*
X137135357Y-99948571D01*
X137135357Y-100472380D02*
X137135357Y-99472380D01*
X137611547Y-99472380D01*
X137944880Y-100424761D02*
X138087738Y-100472380D01*
X138325833Y-100472380D01*
X138421071Y-100424761D01*
X138468690Y-100377142D01*
X138516309Y-100281904D01*
X138516309Y-100186666D01*
X138468690Y-100091428D01*
X138421071Y-100043809D01*
X138325833Y-99996190D01*
X138135357Y-99948571D01*
X138040119Y-99900952D01*
X137992500Y-99853333D01*
X137944880Y-99758095D01*
X137944880Y-99662857D01*
X137992500Y-99567619D01*
X138040119Y-99520000D01*
X138135357Y-99472380D01*
X138373452Y-99472380D01*
X138516309Y-99520000D01*
X133182976Y-97884761D02*
X133325833Y-97932380D01*
X133563928Y-97932380D01*
X133659166Y-97884761D01*
X133706785Y-97837142D01*
X133754404Y-97741904D01*
X133754404Y-97646666D01*
X133706785Y-97551428D01*
X133659166Y-97503809D01*
X133563928Y-97456190D01*
X133373452Y-97408571D01*
X133278214Y-97360952D01*
X133230595Y-97313333D01*
X133182976Y-97218095D01*
X133182976Y-97122857D01*
X133230595Y-97027619D01*
X133278214Y-96980000D01*
X133373452Y-96932380D01*
X133611547Y-96932380D01*
X133754404Y-96980000D01*
X134182976Y-97932380D02*
X134182976Y-96932380D01*
X134421071Y-96932380D01*
X134563928Y-96980000D01*
X134659166Y-97075238D01*
X134706785Y-97170476D01*
X134754404Y-97360952D01*
X134754404Y-97503809D01*
X134706785Y-97694285D01*
X134659166Y-97789523D01*
X134563928Y-97884761D01*
X134421071Y-97932380D01*
X134182976Y-97932380D01*
X135135357Y-97646666D02*
X135611547Y-97646666D01*
X135040119Y-97932380D02*
X135373452Y-96932380D01*
X135706785Y-97932380D01*
X133230595Y-95392380D02*
X133230595Y-94392380D01*
X133706785Y-95392380D02*
X133706785Y-94392380D01*
X133944880Y-94392380D01*
X134087738Y-94440000D01*
X134182976Y-94535238D01*
X134230595Y-94630476D01*
X134278214Y-94820952D01*
X134278214Y-94963809D01*
X134230595Y-95154285D01*
X134182976Y-95249523D01*
X134087738Y-95344761D01*
X133944880Y-95392380D01*
X133706785Y-95392380D01*
X134468690Y-95487619D02*
X135230595Y-95487619D01*
X135421071Y-95344761D02*
X135563928Y-95392380D01*
X135802023Y-95392380D01*
X135897261Y-95344761D01*
X135944880Y-95297142D01*
X135992500Y-95201904D01*
X135992500Y-95106666D01*
X135944880Y-95011428D01*
X135897261Y-94963809D01*
X135802023Y-94916190D01*
X135611547Y-94868571D01*
X135516309Y-94820952D01*
X135468690Y-94773333D01*
X135421071Y-94678095D01*
X135421071Y-94582857D01*
X135468690Y-94487619D01*
X135516309Y-94440000D01*
X135611547Y-94392380D01*
X135849642Y-94392380D01*
X135992500Y-94440000D01*
X136421071Y-95392380D02*
X136421071Y-94392380D01*
X136659166Y-94392380D01*
X136802023Y-94440000D01*
X136897261Y-94535238D01*
X136944880Y-94630476D01*
X136992500Y-94820952D01*
X136992500Y-94963809D01*
X136944880Y-95154285D01*
X136897261Y-95249523D01*
X136802023Y-95344761D01*
X136659166Y-95392380D01*
X136421071Y-95392380D01*
X133802023Y-92757142D02*
X133754404Y-92804761D01*
X133611547Y-92852380D01*
X133516309Y-92852380D01*
X133373452Y-92804761D01*
X133278214Y-92709523D01*
X133230595Y-92614285D01*
X133182976Y-92423809D01*
X133182976Y-92280952D01*
X133230595Y-92090476D01*
X133278214Y-91995238D01*
X133373452Y-91900000D01*
X133516309Y-91852380D01*
X133611547Y-91852380D01*
X133754404Y-91900000D01*
X133802023Y-91947619D01*
X134230595Y-92328571D02*
X134563928Y-92328571D01*
X134706785Y-92852380D02*
X134230595Y-92852380D01*
X134230595Y-91852380D01*
X134706785Y-91852380D01*
X135659166Y-92852380D02*
X135087738Y-92852380D01*
X135373452Y-92852380D02*
X135373452Y-91852380D01*
X135278214Y-91995238D01*
X135182976Y-92090476D01*
X135087738Y-92138095D01*
X133802023Y-90217142D02*
X133754404Y-90264761D01*
X133611547Y-90312380D01*
X133516309Y-90312380D01*
X133373452Y-90264761D01*
X133278214Y-90169523D01*
X133230595Y-90074285D01*
X133182976Y-89883809D01*
X133182976Y-89740952D01*
X133230595Y-89550476D01*
X133278214Y-89455238D01*
X133373452Y-89360000D01*
X133516309Y-89312380D01*
X133611547Y-89312380D01*
X133754404Y-89360000D01*
X133802023Y-89407619D01*
X134230595Y-89788571D02*
X134563928Y-89788571D01*
X134706785Y-90312380D02*
X134230595Y-90312380D01*
X134230595Y-89312380D01*
X134706785Y-89312380D01*
X135325833Y-89312380D02*
X135421071Y-89312380D01*
X135516309Y-89360000D01*
X135563928Y-89407619D01*
X135611547Y-89502857D01*
X135659166Y-89693333D01*
X135659166Y-89931428D01*
X135611547Y-90121904D01*
X135563928Y-90217142D01*
X135516309Y-90264761D01*
X135421071Y-90312380D01*
X135325833Y-90312380D01*
X135230595Y-90264761D01*
X135182976Y-90217142D01*
X135135357Y-90121904D01*
X135087738Y-89931428D01*
X135087738Y-89693333D01*
X135135357Y-89502857D01*
X135182976Y-89407619D01*
X135230595Y-89360000D01*
X135325833Y-89312380D01*
X133182976Y-87724761D02*
X133325833Y-87772380D01*
X133563928Y-87772380D01*
X133659166Y-87724761D01*
X133706785Y-87677142D01*
X133754404Y-87581904D01*
X133754404Y-87486666D01*
X133706785Y-87391428D01*
X133659166Y-87343809D01*
X133563928Y-87296190D01*
X133373452Y-87248571D01*
X133278214Y-87200952D01*
X133230595Y-87153333D01*
X133182976Y-87058095D01*
X133182976Y-86962857D01*
X133230595Y-86867619D01*
X133278214Y-86820000D01*
X133373452Y-86772380D01*
X133611547Y-86772380D01*
X133754404Y-86820000D01*
X134754404Y-87677142D02*
X134706785Y-87724761D01*
X134563928Y-87772380D01*
X134468690Y-87772380D01*
X134325833Y-87724761D01*
X134230595Y-87629523D01*
X134182976Y-87534285D01*
X134135357Y-87343809D01*
X134135357Y-87200952D01*
X134182976Y-87010476D01*
X134230595Y-86915238D01*
X134325833Y-86820000D01*
X134468690Y-86772380D01*
X134563928Y-86772380D01*
X134706785Y-86820000D01*
X134754404Y-86867619D01*
X135659166Y-87772380D02*
X135182976Y-87772380D01*
X135182976Y-86772380D01*
X133182976Y-85184761D02*
X133325833Y-85232380D01*
X133563928Y-85232380D01*
X133659166Y-85184761D01*
X133706785Y-85137142D01*
X133754404Y-85041904D01*
X133754404Y-84946666D01*
X133706785Y-84851428D01*
X133659166Y-84803809D01*
X133563928Y-84756190D01*
X133373452Y-84708571D01*
X133278214Y-84660952D01*
X133230595Y-84613333D01*
X133182976Y-84518095D01*
X133182976Y-84422857D01*
X133230595Y-84327619D01*
X133278214Y-84280000D01*
X133373452Y-84232380D01*
X133611547Y-84232380D01*
X133754404Y-84280000D01*
X134182976Y-85232380D02*
X134182976Y-84232380D01*
X134421071Y-84232380D01*
X134563928Y-84280000D01*
X134659166Y-84375238D01*
X134706785Y-84470476D01*
X134754404Y-84660952D01*
X134754404Y-84803809D01*
X134706785Y-84994285D01*
X134659166Y-85089523D01*
X134563928Y-85184761D01*
X134421071Y-85232380D01*
X134182976Y-85232380D01*
X135135357Y-84946666D02*
X135611547Y-84946666D01*
X135040119Y-85232380D02*
X135373452Y-84232380D01*
X135706785Y-85232380D01*
X116205595Y-120411428D02*
X116967500Y-120411428D01*
X116586547Y-120792380D02*
X116586547Y-120030476D01*
X117348452Y-119792380D02*
X117967500Y-119792380D01*
X117634166Y-120173333D01*
X117777023Y-120173333D01*
X117872261Y-120220952D01*
X117919880Y-120268571D01*
X117967500Y-120363809D01*
X117967500Y-120601904D01*
X117919880Y-120697142D01*
X117872261Y-120744761D01*
X117777023Y-120792380D01*
X117491309Y-120792380D01*
X117396071Y-120744761D01*
X117348452Y-120697142D01*
X118253214Y-119792380D02*
X118586547Y-120792380D01*
X118919880Y-119792380D01*
X119157976Y-119792380D02*
X119777023Y-119792380D01*
X119443690Y-120173333D01*
X119586547Y-120173333D01*
X119681785Y-120220952D01*
X119729404Y-120268571D01*
X119777023Y-120363809D01*
X119777023Y-120601904D01*
X119729404Y-120697142D01*
X119681785Y-120744761D01*
X119586547Y-120792380D01*
X119300833Y-120792380D01*
X119205595Y-120744761D01*
X119157976Y-120697142D01*
X115967500Y-113172380D02*
X115967500Y-112172380D01*
X116348452Y-112172380D01*
X116443690Y-112220000D01*
X116491309Y-112267619D01*
X116538928Y-112362857D01*
X116538928Y-112505714D01*
X116491309Y-112600952D01*
X116443690Y-112648571D01*
X116348452Y-112696190D01*
X115967500Y-112696190D01*
X116872261Y-112172380D02*
X117110357Y-113172380D01*
X117300833Y-112458095D01*
X117491309Y-113172380D01*
X117729404Y-112172380D01*
X118110357Y-113172380D02*
X118110357Y-112172380D01*
X118443690Y-112886666D01*
X118777023Y-112172380D01*
X118777023Y-113172380D01*
X119443690Y-112172380D02*
X119538928Y-112172380D01*
X119634166Y-112220000D01*
X119681785Y-112267619D01*
X119729404Y-112362857D01*
X119777023Y-112553333D01*
X119777023Y-112791428D01*
X119729404Y-112981904D01*
X119681785Y-113077142D01*
X119634166Y-113124761D01*
X119538928Y-113172380D01*
X119443690Y-113172380D01*
X119348452Y-113124761D01*
X119300833Y-113077142D01*
X119253214Y-112981904D01*
X119205595Y-112791428D01*
X119205595Y-112553333D01*
X119253214Y-112362857D01*
X119300833Y-112267619D01*
X119348452Y-112220000D01*
X119443690Y-112172380D01*
X117015119Y-107997142D02*
X116967500Y-108044761D01*
X116824642Y-108092380D01*
X116729404Y-108092380D01*
X116586547Y-108044761D01*
X116491309Y-107949523D01*
X116443690Y-107854285D01*
X116396071Y-107663809D01*
X116396071Y-107520952D01*
X116443690Y-107330476D01*
X116491309Y-107235238D01*
X116586547Y-107140000D01*
X116729404Y-107092380D01*
X116824642Y-107092380D01*
X116967500Y-107140000D01*
X117015119Y-107187619D01*
X117919880Y-108092380D02*
X117443690Y-108092380D01*
X117443690Y-107092380D01*
X118253214Y-108092380D02*
X118253214Y-107092380D01*
X118824642Y-108092380D02*
X118396071Y-107520952D01*
X118824642Y-107092380D02*
X118253214Y-107663809D01*
X119443690Y-107092380D02*
X119538928Y-107092380D01*
X119634166Y-107140000D01*
X119681785Y-107187619D01*
X119729404Y-107282857D01*
X119777023Y-107473333D01*
X119777023Y-107711428D01*
X119729404Y-107901904D01*
X119681785Y-107997142D01*
X119634166Y-108044761D01*
X119538928Y-108092380D01*
X119443690Y-108092380D01*
X119348452Y-108044761D01*
X119300833Y-107997142D01*
X119253214Y-107901904D01*
X119205595Y-107711428D01*
X119205595Y-107473333D01*
X119253214Y-107282857D01*
X119300833Y-107187619D01*
X119348452Y-107140000D01*
X119443690Y-107092380D01*
X118348452Y-86772380D02*
X118919880Y-86772380D01*
X118634166Y-87772380D02*
X118634166Y-86772380D01*
X119157976Y-86772380D02*
X119824642Y-87772380D01*
X119824642Y-86772380D02*
X119157976Y-87772380D01*
X116586547Y-92852380D02*
X116586547Y-91852380D01*
X116919880Y-92566666D01*
X117253214Y-91852380D01*
X117253214Y-92852380D01*
X117729404Y-92852380D02*
X117729404Y-91852380D01*
X118157976Y-92804761D02*
X118300833Y-92852380D01*
X118538928Y-92852380D01*
X118634166Y-92804761D01*
X118681785Y-92757142D01*
X118729404Y-92661904D01*
X118729404Y-92566666D01*
X118681785Y-92471428D01*
X118634166Y-92423809D01*
X118538928Y-92376190D01*
X118348452Y-92328571D01*
X118253214Y-92280952D01*
X118205595Y-92233333D01*
X118157976Y-92138095D01*
X118157976Y-92042857D01*
X118205595Y-91947619D01*
X118253214Y-91900000D01*
X118348452Y-91852380D01*
X118586547Y-91852380D01*
X118729404Y-91900000D01*
X119348452Y-91852380D02*
X119538928Y-91852380D01*
X119634166Y-91900000D01*
X119729404Y-91995238D01*
X119777023Y-92185714D01*
X119777023Y-92519047D01*
X119729404Y-92709523D01*
X119634166Y-92804761D01*
X119538928Y-92852380D01*
X119348452Y-92852380D01*
X119253214Y-92804761D01*
X119157976Y-92709523D01*
X119110357Y-92519047D01*
X119110357Y-92185714D01*
X119157976Y-91995238D01*
X119253214Y-91900000D01*
X119348452Y-91852380D01*
X116586547Y-95392380D02*
X116586547Y-94392380D01*
X116919880Y-95106666D01*
X117253214Y-94392380D01*
X117253214Y-95392380D01*
X117919880Y-94392380D02*
X118110357Y-94392380D01*
X118205595Y-94440000D01*
X118300833Y-94535238D01*
X118348452Y-94725714D01*
X118348452Y-95059047D01*
X118300833Y-95249523D01*
X118205595Y-95344761D01*
X118110357Y-95392380D01*
X117919880Y-95392380D01*
X117824642Y-95344761D01*
X117729404Y-95249523D01*
X117681785Y-95059047D01*
X117681785Y-94725714D01*
X117729404Y-94535238D01*
X117824642Y-94440000D01*
X117919880Y-94392380D01*
X118729404Y-95344761D02*
X118872261Y-95392380D01*
X119110357Y-95392380D01*
X119205595Y-95344761D01*
X119253214Y-95297142D01*
X119300833Y-95201904D01*
X119300833Y-95106666D01*
X119253214Y-95011428D01*
X119205595Y-94963809D01*
X119110357Y-94916190D01*
X118919880Y-94868571D01*
X118824642Y-94820952D01*
X118777023Y-94773333D01*
X118729404Y-94678095D01*
X118729404Y-94582857D01*
X118777023Y-94487619D01*
X118824642Y-94440000D01*
X118919880Y-94392380D01*
X119157976Y-94392380D01*
X119300833Y-94440000D01*
X119729404Y-95392380D02*
X119729404Y-94392380D01*
X117681785Y-114760000D02*
X117586547Y-114712380D01*
X117443690Y-114712380D01*
X117300833Y-114760000D01*
X117205595Y-114855238D01*
X117157976Y-114950476D01*
X117110357Y-115140952D01*
X117110357Y-115283809D01*
X117157976Y-115474285D01*
X117205595Y-115569523D01*
X117300833Y-115664761D01*
X117443690Y-115712380D01*
X117538928Y-115712380D01*
X117681785Y-115664761D01*
X117729404Y-115617142D01*
X117729404Y-115283809D01*
X117538928Y-115283809D01*
X118157976Y-115712380D02*
X118157976Y-114712380D01*
X118729404Y-115712380D01*
X118729404Y-114712380D01*
X119205595Y-115712380D02*
X119205595Y-114712380D01*
X119443690Y-114712380D01*
X119586547Y-114760000D01*
X119681785Y-114855238D01*
X119729404Y-114950476D01*
X119777023Y-115140952D01*
X119777023Y-115283809D01*
X119729404Y-115474285D01*
X119681785Y-115569523D01*
X119586547Y-115664761D01*
X119443690Y-115712380D01*
X119205595Y-115712380D01*
X117015119Y-105457142D02*
X116967500Y-105504761D01*
X116824642Y-105552380D01*
X116729404Y-105552380D01*
X116586547Y-105504761D01*
X116491309Y-105409523D01*
X116443690Y-105314285D01*
X116396071Y-105123809D01*
X116396071Y-104980952D01*
X116443690Y-104790476D01*
X116491309Y-104695238D01*
X116586547Y-104600000D01*
X116729404Y-104552380D01*
X116824642Y-104552380D01*
X116967500Y-104600000D01*
X117015119Y-104647619D01*
X117919880Y-105552380D02*
X117443690Y-105552380D01*
X117443690Y-104552380D01*
X118253214Y-105552380D02*
X118253214Y-104552380D01*
X118824642Y-105552380D02*
X118396071Y-104980952D01*
X118824642Y-104552380D02*
X118253214Y-105123809D01*
X119777023Y-105552380D02*
X119205595Y-105552380D01*
X119491309Y-105552380D02*
X119491309Y-104552380D01*
X119396071Y-104695238D01*
X119300833Y-104790476D01*
X119205595Y-104838095D01*
X115967500Y-110632380D02*
X115967500Y-109632380D01*
X116348452Y-109632380D01*
X116443690Y-109680000D01*
X116491309Y-109727619D01*
X116538928Y-109822857D01*
X116538928Y-109965714D01*
X116491309Y-110060952D01*
X116443690Y-110108571D01*
X116348452Y-110156190D01*
X115967500Y-110156190D01*
X116872261Y-109632380D02*
X117110357Y-110632380D01*
X117300833Y-109918095D01*
X117491309Y-110632380D01*
X117729404Y-109632380D01*
X118110357Y-110632380D02*
X118110357Y-109632380D01*
X118443690Y-110346666D01*
X118777023Y-109632380D01*
X118777023Y-110632380D01*
X119777023Y-110632380D02*
X119205595Y-110632380D01*
X119491309Y-110632380D02*
X119491309Y-109632380D01*
X119396071Y-109775238D01*
X119300833Y-109870476D01*
X119205595Y-109918095D01*
X117015119Y-102917142D02*
X116967500Y-102964761D01*
X116824642Y-103012380D01*
X116729404Y-103012380D01*
X116586547Y-102964761D01*
X116491309Y-102869523D01*
X116443690Y-102774285D01*
X116396071Y-102583809D01*
X116396071Y-102440952D01*
X116443690Y-102250476D01*
X116491309Y-102155238D01*
X116586547Y-102060000D01*
X116729404Y-102012380D01*
X116824642Y-102012380D01*
X116967500Y-102060000D01*
X117015119Y-102107619D01*
X117919880Y-103012380D02*
X117443690Y-103012380D01*
X117443690Y-102012380D01*
X118253214Y-103012380D02*
X118253214Y-102012380D01*
X118824642Y-103012380D02*
X118396071Y-102440952D01*
X118824642Y-102012380D02*
X118253214Y-102583809D01*
X119205595Y-102107619D02*
X119253214Y-102060000D01*
X119348452Y-102012380D01*
X119586547Y-102012380D01*
X119681785Y-102060000D01*
X119729404Y-102107619D01*
X119777023Y-102202857D01*
X119777023Y-102298095D01*
X119729404Y-102440952D01*
X119157976Y-103012380D01*
X119777023Y-103012380D01*
X116015119Y-100472380D02*
X116015119Y-99472380D01*
X116491309Y-100472380D02*
X116491309Y-99472380D01*
X116729404Y-99472380D01*
X116872261Y-99520000D01*
X116967500Y-99615238D01*
X117015119Y-99710476D01*
X117062738Y-99900952D01*
X117062738Y-100043809D01*
X117015119Y-100234285D01*
X116967500Y-100329523D01*
X116872261Y-100424761D01*
X116729404Y-100472380D01*
X116491309Y-100472380D01*
X117253214Y-100567619D02*
X118015119Y-100567619D01*
X118205595Y-100424761D02*
X118348452Y-100472380D01*
X118586547Y-100472380D01*
X118681785Y-100424761D01*
X118729404Y-100377142D01*
X118777023Y-100281904D01*
X118777023Y-100186666D01*
X118729404Y-100091428D01*
X118681785Y-100043809D01*
X118586547Y-99996190D01*
X118396071Y-99948571D01*
X118300833Y-99900952D01*
X118253214Y-99853333D01*
X118205595Y-99758095D01*
X118205595Y-99662857D01*
X118253214Y-99567619D01*
X118300833Y-99520000D01*
X118396071Y-99472380D01*
X118634166Y-99472380D01*
X118777023Y-99520000D01*
X119777023Y-100377142D02*
X119729404Y-100424761D01*
X119586547Y-100472380D01*
X119491309Y-100472380D01*
X119348452Y-100424761D01*
X119253214Y-100329523D01*
X119205595Y-100234285D01*
X119157976Y-100043809D01*
X119157976Y-99900952D01*
X119205595Y-99710476D01*
X119253214Y-99615238D01*
X119348452Y-99520000D01*
X119491309Y-99472380D01*
X119586547Y-99472380D01*
X119729404Y-99520000D01*
X119777023Y-99567619D01*
X117205595Y-97884761D02*
X117348452Y-97932380D01*
X117586547Y-97932380D01*
X117681785Y-97884761D01*
X117729404Y-97837142D01*
X117777023Y-97741904D01*
X117777023Y-97646666D01*
X117729404Y-97551428D01*
X117681785Y-97503809D01*
X117586547Y-97456190D01*
X117396071Y-97408571D01*
X117300833Y-97360952D01*
X117253214Y-97313333D01*
X117205595Y-97218095D01*
X117205595Y-97122857D01*
X117253214Y-97027619D01*
X117300833Y-96980000D01*
X117396071Y-96932380D01*
X117634166Y-96932380D01*
X117777023Y-96980000D01*
X118777023Y-97837142D02*
X118729404Y-97884761D01*
X118586547Y-97932380D01*
X118491309Y-97932380D01*
X118348452Y-97884761D01*
X118253214Y-97789523D01*
X118205595Y-97694285D01*
X118157976Y-97503809D01*
X118157976Y-97360952D01*
X118205595Y-97170476D01*
X118253214Y-97075238D01*
X118348452Y-96980000D01*
X118491309Y-96932380D01*
X118586547Y-96932380D01*
X118729404Y-96980000D01*
X118777023Y-97027619D01*
X119205595Y-97932380D02*
X119205595Y-96932380D01*
X119777023Y-97932380D02*
X119348452Y-97360952D01*
X119777023Y-96932380D02*
X119205595Y-97503809D01*
X118824642Y-90312380D02*
X118491309Y-89836190D01*
X118253214Y-90312380D02*
X118253214Y-89312380D01*
X118634166Y-89312380D01*
X118729404Y-89360000D01*
X118777023Y-89407619D01*
X118824642Y-89502857D01*
X118824642Y-89645714D01*
X118777023Y-89740952D01*
X118729404Y-89788571D01*
X118634166Y-89836190D01*
X118253214Y-89836190D01*
X119157976Y-89312380D02*
X119824642Y-90312380D01*
X119824642Y-89312380D02*
X119157976Y-90312380D01*
X117681785Y-84280000D02*
X117586547Y-84232380D01*
X117443690Y-84232380D01*
X117300833Y-84280000D01*
X117205595Y-84375238D01*
X117157976Y-84470476D01*
X117110357Y-84660952D01*
X117110357Y-84803809D01*
X117157976Y-84994285D01*
X117205595Y-85089523D01*
X117300833Y-85184761D01*
X117443690Y-85232380D01*
X117538928Y-85232380D01*
X117681785Y-85184761D01*
X117729404Y-85137142D01*
X117729404Y-84803809D01*
X117538928Y-84803809D01*
X118157976Y-85232380D02*
X118157976Y-84232380D01*
X118729404Y-85232380D01*
X118729404Y-84232380D01*
X119205595Y-85232380D02*
X119205595Y-84232380D01*
X119443690Y-84232380D01*
X119586547Y-84280000D01*
X119681785Y-84375238D01*
X119729404Y-84470476D01*
X119777023Y-84660952D01*
X119777023Y-84803809D01*
X119729404Y-84994285D01*
X119681785Y-85089523D01*
X119586547Y-85184761D01*
X119443690Y-85232380D01*
X119205595Y-85232380D01*
X146288452Y-86772380D02*
X146859880Y-86772380D01*
X146574166Y-87772380D02*
X146574166Y-86772380D01*
X147097976Y-86772380D02*
X147764642Y-87772380D01*
X147764642Y-86772380D02*
X147097976Y-87772380D01*
X144145595Y-120411428D02*
X144907500Y-120411428D01*
X144526547Y-120792380D02*
X144526547Y-120030476D01*
X145288452Y-119792380D02*
X145907500Y-119792380D01*
X145574166Y-120173333D01*
X145717023Y-120173333D01*
X145812261Y-120220952D01*
X145859880Y-120268571D01*
X145907500Y-120363809D01*
X145907500Y-120601904D01*
X145859880Y-120697142D01*
X145812261Y-120744761D01*
X145717023Y-120792380D01*
X145431309Y-120792380D01*
X145336071Y-120744761D01*
X145288452Y-120697142D01*
X146193214Y-119792380D02*
X146526547Y-120792380D01*
X146859880Y-119792380D01*
X147097976Y-119792380D02*
X147717023Y-119792380D01*
X147383690Y-120173333D01*
X147526547Y-120173333D01*
X147621785Y-120220952D01*
X147669404Y-120268571D01*
X147717023Y-120363809D01*
X147717023Y-120601904D01*
X147669404Y-120697142D01*
X147621785Y-120744761D01*
X147526547Y-120792380D01*
X147240833Y-120792380D01*
X147145595Y-120744761D01*
X147097976Y-120697142D01*
X145621785Y-114760000D02*
X145526547Y-114712380D01*
X145383690Y-114712380D01*
X145240833Y-114760000D01*
X145145595Y-114855238D01*
X145097976Y-114950476D01*
X145050357Y-115140952D01*
X145050357Y-115283809D01*
X145097976Y-115474285D01*
X145145595Y-115569523D01*
X145240833Y-115664761D01*
X145383690Y-115712380D01*
X145478928Y-115712380D01*
X145621785Y-115664761D01*
X145669404Y-115617142D01*
X145669404Y-115283809D01*
X145478928Y-115283809D01*
X146097976Y-115712380D02*
X146097976Y-114712380D01*
X146669404Y-115712380D01*
X146669404Y-114712380D01*
X147145595Y-115712380D02*
X147145595Y-114712380D01*
X147383690Y-114712380D01*
X147526547Y-114760000D01*
X147621785Y-114855238D01*
X147669404Y-114950476D01*
X147717023Y-115140952D01*
X147717023Y-115283809D01*
X147669404Y-115474285D01*
X147621785Y-115569523D01*
X147526547Y-115664761D01*
X147383690Y-115712380D01*
X147145595Y-115712380D01*
X143907500Y-113172380D02*
X143907500Y-112172380D01*
X144288452Y-112172380D01*
X144383690Y-112220000D01*
X144431309Y-112267619D01*
X144478928Y-112362857D01*
X144478928Y-112505714D01*
X144431309Y-112600952D01*
X144383690Y-112648571D01*
X144288452Y-112696190D01*
X143907500Y-112696190D01*
X144812261Y-112172380D02*
X145050357Y-113172380D01*
X145240833Y-112458095D01*
X145431309Y-113172380D01*
X145669404Y-112172380D01*
X146050357Y-113172380D02*
X146050357Y-112172380D01*
X146383690Y-112886666D01*
X146717023Y-112172380D01*
X146717023Y-113172380D01*
X147383690Y-112172380D02*
X147478928Y-112172380D01*
X147574166Y-112220000D01*
X147621785Y-112267619D01*
X147669404Y-112362857D01*
X147717023Y-112553333D01*
X147717023Y-112791428D01*
X147669404Y-112981904D01*
X147621785Y-113077142D01*
X147574166Y-113124761D01*
X147478928Y-113172380D01*
X147383690Y-113172380D01*
X147288452Y-113124761D01*
X147240833Y-113077142D01*
X147193214Y-112981904D01*
X147145595Y-112791428D01*
X147145595Y-112553333D01*
X147193214Y-112362857D01*
X147240833Y-112267619D01*
X147288452Y-112220000D01*
X147383690Y-112172380D01*
X143907500Y-110632380D02*
X143907500Y-109632380D01*
X144288452Y-109632380D01*
X144383690Y-109680000D01*
X144431309Y-109727619D01*
X144478928Y-109822857D01*
X144478928Y-109965714D01*
X144431309Y-110060952D01*
X144383690Y-110108571D01*
X144288452Y-110156190D01*
X143907500Y-110156190D01*
X144812261Y-109632380D02*
X145050357Y-110632380D01*
X145240833Y-109918095D01*
X145431309Y-110632380D01*
X145669404Y-109632380D01*
X146050357Y-110632380D02*
X146050357Y-109632380D01*
X146383690Y-110346666D01*
X146717023Y-109632380D01*
X146717023Y-110632380D01*
X147717023Y-110632380D02*
X147145595Y-110632380D01*
X147431309Y-110632380D02*
X147431309Y-109632380D01*
X147336071Y-109775238D01*
X147240833Y-109870476D01*
X147145595Y-109918095D01*
X144955119Y-107997142D02*
X144907500Y-108044761D01*
X144764642Y-108092380D01*
X144669404Y-108092380D01*
X144526547Y-108044761D01*
X144431309Y-107949523D01*
X144383690Y-107854285D01*
X144336071Y-107663809D01*
X144336071Y-107520952D01*
X144383690Y-107330476D01*
X144431309Y-107235238D01*
X144526547Y-107140000D01*
X144669404Y-107092380D01*
X144764642Y-107092380D01*
X144907500Y-107140000D01*
X144955119Y-107187619D01*
X145859880Y-108092380D02*
X145383690Y-108092380D01*
X145383690Y-107092380D01*
X146193214Y-108092380D02*
X146193214Y-107092380D01*
X146764642Y-108092380D02*
X146336071Y-107520952D01*
X146764642Y-107092380D02*
X146193214Y-107663809D01*
X147383690Y-107092380D02*
X147478928Y-107092380D01*
X147574166Y-107140000D01*
X147621785Y-107187619D01*
X147669404Y-107282857D01*
X147717023Y-107473333D01*
X147717023Y-107711428D01*
X147669404Y-107901904D01*
X147621785Y-107997142D01*
X147574166Y-108044761D01*
X147478928Y-108092380D01*
X147383690Y-108092380D01*
X147288452Y-108044761D01*
X147240833Y-107997142D01*
X147193214Y-107901904D01*
X147145595Y-107711428D01*
X147145595Y-107473333D01*
X147193214Y-107282857D01*
X147240833Y-107187619D01*
X147288452Y-107140000D01*
X147383690Y-107092380D01*
X144955119Y-105457142D02*
X144907500Y-105504761D01*
X144764642Y-105552380D01*
X144669404Y-105552380D01*
X144526547Y-105504761D01*
X144431309Y-105409523D01*
X144383690Y-105314285D01*
X144336071Y-105123809D01*
X144336071Y-104980952D01*
X144383690Y-104790476D01*
X144431309Y-104695238D01*
X144526547Y-104600000D01*
X144669404Y-104552380D01*
X144764642Y-104552380D01*
X144907500Y-104600000D01*
X144955119Y-104647619D01*
X145859880Y-105552380D02*
X145383690Y-105552380D01*
X145383690Y-104552380D01*
X146193214Y-105552380D02*
X146193214Y-104552380D01*
X146764642Y-105552380D02*
X146336071Y-104980952D01*
X146764642Y-104552380D02*
X146193214Y-105123809D01*
X147717023Y-105552380D02*
X147145595Y-105552380D01*
X147431309Y-105552380D02*
X147431309Y-104552380D01*
X147336071Y-104695238D01*
X147240833Y-104790476D01*
X147145595Y-104838095D01*
X144955119Y-102917142D02*
X144907500Y-102964761D01*
X144764642Y-103012380D01*
X144669404Y-103012380D01*
X144526547Y-102964761D01*
X144431309Y-102869523D01*
X144383690Y-102774285D01*
X144336071Y-102583809D01*
X144336071Y-102440952D01*
X144383690Y-102250476D01*
X144431309Y-102155238D01*
X144526547Y-102060000D01*
X144669404Y-102012380D01*
X144764642Y-102012380D01*
X144907500Y-102060000D01*
X144955119Y-102107619D01*
X145859880Y-103012380D02*
X145383690Y-103012380D01*
X145383690Y-102012380D01*
X146193214Y-103012380D02*
X146193214Y-102012380D01*
X146764642Y-103012380D02*
X146336071Y-102440952D01*
X146764642Y-102012380D02*
X146193214Y-102583809D01*
X147145595Y-102107619D02*
X147193214Y-102060000D01*
X147288452Y-102012380D01*
X147526547Y-102012380D01*
X147621785Y-102060000D01*
X147669404Y-102107619D01*
X147717023Y-102202857D01*
X147717023Y-102298095D01*
X147669404Y-102440952D01*
X147097976Y-103012380D01*
X147717023Y-103012380D01*
X143955119Y-100472380D02*
X143955119Y-99472380D01*
X144431309Y-100472380D02*
X144431309Y-99472380D01*
X144669404Y-99472380D01*
X144812261Y-99520000D01*
X144907500Y-99615238D01*
X144955119Y-99710476D01*
X145002738Y-99900952D01*
X145002738Y-100043809D01*
X144955119Y-100234285D01*
X144907500Y-100329523D01*
X144812261Y-100424761D01*
X144669404Y-100472380D01*
X144431309Y-100472380D01*
X145193214Y-100567619D02*
X145955119Y-100567619D01*
X146145595Y-100424761D02*
X146288452Y-100472380D01*
X146526547Y-100472380D01*
X146621785Y-100424761D01*
X146669404Y-100377142D01*
X146717023Y-100281904D01*
X146717023Y-100186666D01*
X146669404Y-100091428D01*
X146621785Y-100043809D01*
X146526547Y-99996190D01*
X146336071Y-99948571D01*
X146240833Y-99900952D01*
X146193214Y-99853333D01*
X146145595Y-99758095D01*
X146145595Y-99662857D01*
X146193214Y-99567619D01*
X146240833Y-99520000D01*
X146336071Y-99472380D01*
X146574166Y-99472380D01*
X146717023Y-99520000D01*
X147717023Y-100377142D02*
X147669404Y-100424761D01*
X147526547Y-100472380D01*
X147431309Y-100472380D01*
X147288452Y-100424761D01*
X147193214Y-100329523D01*
X147145595Y-100234285D01*
X147097976Y-100043809D01*
X147097976Y-99900952D01*
X147145595Y-99710476D01*
X147193214Y-99615238D01*
X147288452Y-99520000D01*
X147431309Y-99472380D01*
X147526547Y-99472380D01*
X147669404Y-99520000D01*
X147717023Y-99567619D01*
X145145595Y-97884761D02*
X145288452Y-97932380D01*
X145526547Y-97932380D01*
X145621785Y-97884761D01*
X145669404Y-97837142D01*
X145717023Y-97741904D01*
X145717023Y-97646666D01*
X145669404Y-97551428D01*
X145621785Y-97503809D01*
X145526547Y-97456190D01*
X145336071Y-97408571D01*
X145240833Y-97360952D01*
X145193214Y-97313333D01*
X145145595Y-97218095D01*
X145145595Y-97122857D01*
X145193214Y-97027619D01*
X145240833Y-96980000D01*
X145336071Y-96932380D01*
X145574166Y-96932380D01*
X145717023Y-96980000D01*
X146717023Y-97837142D02*
X146669404Y-97884761D01*
X146526547Y-97932380D01*
X146431309Y-97932380D01*
X146288452Y-97884761D01*
X146193214Y-97789523D01*
X146145595Y-97694285D01*
X146097976Y-97503809D01*
X146097976Y-97360952D01*
X146145595Y-97170476D01*
X146193214Y-97075238D01*
X146288452Y-96980000D01*
X146431309Y-96932380D01*
X146526547Y-96932380D01*
X146669404Y-96980000D01*
X146717023Y-97027619D01*
X147145595Y-97932380D02*
X147145595Y-96932380D01*
X147717023Y-97932380D02*
X147288452Y-97360952D01*
X147717023Y-96932380D02*
X147145595Y-97503809D01*
X144526547Y-95392380D02*
X144526547Y-94392380D01*
X144859880Y-95106666D01*
X145193214Y-94392380D01*
X145193214Y-95392380D01*
X145859880Y-94392380D02*
X146050357Y-94392380D01*
X146145595Y-94440000D01*
X146240833Y-94535238D01*
X146288452Y-94725714D01*
X146288452Y-95059047D01*
X146240833Y-95249523D01*
X146145595Y-95344761D01*
X146050357Y-95392380D01*
X145859880Y-95392380D01*
X145764642Y-95344761D01*
X145669404Y-95249523D01*
X145621785Y-95059047D01*
X145621785Y-94725714D01*
X145669404Y-94535238D01*
X145764642Y-94440000D01*
X145859880Y-94392380D01*
X146669404Y-95344761D02*
X146812261Y-95392380D01*
X147050357Y-95392380D01*
X147145595Y-95344761D01*
X147193214Y-95297142D01*
X147240833Y-95201904D01*
X147240833Y-95106666D01*
X147193214Y-95011428D01*
X147145595Y-94963809D01*
X147050357Y-94916190D01*
X146859880Y-94868571D01*
X146764642Y-94820952D01*
X146717023Y-94773333D01*
X146669404Y-94678095D01*
X146669404Y-94582857D01*
X146717023Y-94487619D01*
X146764642Y-94440000D01*
X146859880Y-94392380D01*
X147097976Y-94392380D01*
X147240833Y-94440000D01*
X147669404Y-95392380D02*
X147669404Y-94392380D01*
X144526547Y-92852380D02*
X144526547Y-91852380D01*
X144859880Y-92566666D01*
X145193214Y-91852380D01*
X145193214Y-92852380D01*
X145669404Y-92852380D02*
X145669404Y-91852380D01*
X146097976Y-92804761D02*
X146240833Y-92852380D01*
X146478928Y-92852380D01*
X146574166Y-92804761D01*
X146621785Y-92757142D01*
X146669404Y-92661904D01*
X146669404Y-92566666D01*
X146621785Y-92471428D01*
X146574166Y-92423809D01*
X146478928Y-92376190D01*
X146288452Y-92328571D01*
X146193214Y-92280952D01*
X146145595Y-92233333D01*
X146097976Y-92138095D01*
X146097976Y-92042857D01*
X146145595Y-91947619D01*
X146193214Y-91900000D01*
X146288452Y-91852380D01*
X146526547Y-91852380D01*
X146669404Y-91900000D01*
X147288452Y-91852380D02*
X147478928Y-91852380D01*
X147574166Y-91900000D01*
X147669404Y-91995238D01*
X147717023Y-92185714D01*
X147717023Y-92519047D01*
X147669404Y-92709523D01*
X147574166Y-92804761D01*
X147478928Y-92852380D01*
X147288452Y-92852380D01*
X147193214Y-92804761D01*
X147097976Y-92709523D01*
X147050357Y-92519047D01*
X147050357Y-92185714D01*
X147097976Y-91995238D01*
X147193214Y-91900000D01*
X147288452Y-91852380D01*
X146764642Y-90312380D02*
X146431309Y-89836190D01*
X146193214Y-90312380D02*
X146193214Y-89312380D01*
X146574166Y-89312380D01*
X146669404Y-89360000D01*
X146717023Y-89407619D01*
X146764642Y-89502857D01*
X146764642Y-89645714D01*
X146717023Y-89740952D01*
X146669404Y-89788571D01*
X146574166Y-89836190D01*
X146193214Y-89836190D01*
X147097976Y-89312380D02*
X147764642Y-90312380D01*
X147764642Y-89312380D02*
X147097976Y-90312380D01*
X145621785Y-84280000D02*
X145526547Y-84232380D01*
X145383690Y-84232380D01*
X145240833Y-84280000D01*
X145145595Y-84375238D01*
X145097976Y-84470476D01*
X145050357Y-84660952D01*
X145050357Y-84803809D01*
X145097976Y-84994285D01*
X145145595Y-85089523D01*
X145240833Y-85184761D01*
X145383690Y-85232380D01*
X145478928Y-85232380D01*
X145621785Y-85184761D01*
X145669404Y-85137142D01*
X145669404Y-84803809D01*
X145478928Y-84803809D01*
X146097976Y-85232380D02*
X146097976Y-84232380D01*
X146669404Y-85232380D01*
X146669404Y-84232380D01*
X147145595Y-85232380D02*
X147145595Y-84232380D01*
X147383690Y-84232380D01*
X147526547Y-84280000D01*
X147621785Y-84375238D01*
X147669404Y-84470476D01*
X147717023Y-84660952D01*
X147717023Y-84803809D01*
X147669404Y-84994285D01*
X147621785Y-85089523D01*
X147526547Y-85184761D01*
X147383690Y-85232380D01*
X147145595Y-85232380D01*
D11*
%TO.C,U4*%
X131620000Y-111450000D02*
X128960000Y-111450000D01*
X131620000Y-111450000D02*
X131620000Y-83450000D01*
X131620000Y-83450000D02*
X128960000Y-83450000D01*
X128960000Y-111450000D02*
X128960000Y-83450000D01*
X128960000Y-114050000D02*
X128960000Y-112720000D01*
X130290000Y-114050000D02*
X128960000Y-114050000D01*
%TO.C,U5*%
X151940000Y-121610000D02*
X149280000Y-121610000D01*
X151940000Y-121610000D02*
X151940000Y-83450000D01*
X151940000Y-83450000D02*
X149280000Y-83450000D01*
X149280000Y-121610000D02*
X149280000Y-83450000D01*
X149280000Y-124210000D02*
X149280000Y-122880000D01*
X150610000Y-124210000D02*
X149280000Y-124210000D01*
%TO.C,U3*%
X124000000Y-121610000D02*
X121340000Y-121610000D01*
X124000000Y-121610000D02*
X124000000Y-83450000D01*
X124000000Y-83450000D02*
X121340000Y-83450000D01*
X121340000Y-121610000D02*
X121340000Y-83450000D01*
X121340000Y-124210000D02*
X121340000Y-122880000D01*
X122670000Y-124210000D02*
X121340000Y-124210000D01*
%TO.C,U2*%
X103680000Y-111450000D02*
X101020000Y-111450000D01*
X103680000Y-111450000D02*
X103680000Y-83450000D01*
X103680000Y-83450000D02*
X101020000Y-83450000D01*
X101020000Y-111450000D02*
X101020000Y-83450000D01*
X101020000Y-114050000D02*
X101020000Y-112720000D01*
X102350000Y-114050000D02*
X101020000Y-114050000D01*
%TO.C,U4*%
D12*
X129528095Y-114942380D02*
X129528095Y-115751904D01*
X129575714Y-115847142D01*
X129623333Y-115894761D01*
X129718571Y-115942380D01*
X129909047Y-115942380D01*
X130004285Y-115894761D01*
X130051904Y-115847142D01*
X130099523Y-115751904D01*
X130099523Y-114942380D01*
X131004285Y-115275714D02*
X131004285Y-115942380D01*
X130766190Y-114894761D02*
X130528095Y-115609047D01*
X131147142Y-115609047D01*
%TO.C,U5*%
X149848095Y-125102380D02*
X149848095Y-125911904D01*
X149895714Y-126007142D01*
X149943333Y-126054761D01*
X150038571Y-126102380D01*
X150229047Y-126102380D01*
X150324285Y-126054761D01*
X150371904Y-126007142D01*
X150419523Y-125911904D01*
X150419523Y-125102380D01*
X151371904Y-125102380D02*
X150895714Y-125102380D01*
X150848095Y-125578571D01*
X150895714Y-125530952D01*
X150990952Y-125483333D01*
X151229047Y-125483333D01*
X151324285Y-125530952D01*
X151371904Y-125578571D01*
X151419523Y-125673809D01*
X151419523Y-125911904D01*
X151371904Y-126007142D01*
X151324285Y-126054761D01*
X151229047Y-126102380D01*
X150990952Y-126102380D01*
X150895714Y-126054761D01*
X150848095Y-126007142D01*
%TO.C,U3*%
X121908095Y-125102380D02*
X121908095Y-125911904D01*
X121955714Y-126007142D01*
X122003333Y-126054761D01*
X122098571Y-126102380D01*
X122289047Y-126102380D01*
X122384285Y-126054761D01*
X122431904Y-126007142D01*
X122479523Y-125911904D01*
X122479523Y-125102380D01*
X122860476Y-125102380D02*
X123479523Y-125102380D01*
X123146190Y-125483333D01*
X123289047Y-125483333D01*
X123384285Y-125530952D01*
X123431904Y-125578571D01*
X123479523Y-125673809D01*
X123479523Y-125911904D01*
X123431904Y-126007142D01*
X123384285Y-126054761D01*
X123289047Y-126102380D01*
X123003333Y-126102380D01*
X122908095Y-126054761D01*
X122860476Y-126007142D01*
%TO.C,U2*%
X101588095Y-114942380D02*
X101588095Y-115751904D01*
X101635714Y-115847142D01*
X101683333Y-115894761D01*
X101778571Y-115942380D01*
X101969047Y-115942380D01*
X102064285Y-115894761D01*
X102111904Y-115847142D01*
X102159523Y-115751904D01*
X102159523Y-114942380D01*
X102588095Y-115037619D02*
X102635714Y-114990000D01*
X102730952Y-114942380D01*
X102969047Y-114942380D01*
X103064285Y-114990000D01*
X103111904Y-115037619D01*
X103159523Y-115132857D01*
X103159523Y-115228095D01*
X103111904Y-115370952D01*
X102540476Y-115942380D01*
X103159523Y-115942380D01*
%TD*%
M02*
