%TF.GenerationSoftware,KiCad,Pcbnew,(5.1.6)-1*%
%TF.CreationDate,2020-08-17T20:49:59+02:00*%
%TF.ProjectId,PiToFeather,5069546f-4665-4617-9468-65722e6b6963,rev?*%
%TF.SameCoordinates,Original*%
%TF.FileFunction,Copper,L1,Top*%
%TF.FilePolarity,Positive*%
%FSLAX46Y46*%
G04 Gerber Fmt 4.6, Leading zero omitted, Abs format (unit mm)*
G04 Created by KiCad (PCBNEW (5.1.6)-1) date 2020-08-17 20:49:59*
%MOMM*%
%LPD*%
G01*
G04 APERTURE LIST*
%TA.AperFunction,ComponentPad*%
%ADD10C,5.400000*%
%TD*%
%TA.AperFunction,ComponentPad*%
%ADD11O,1.700000X1.700000*%
%TD*%
%TA.AperFunction,ComponentPad*%
%ADD12R,1.700000X1.700000*%
%TD*%
%TA.AperFunction,ViaPad*%
%ADD13C,0.800000*%
%TD*%
%TA.AperFunction,Conductor*%
%ADD14C,0.250000*%
%TD*%
%TA.AperFunction,Conductor*%
%ADD15C,0.400000*%
%TD*%
%TA.AperFunction,Conductor*%
%ADD16C,0.254000*%
%TD*%
G04 APERTURE END LIST*
D10*
%TO.P,H4,1*%
%TO.N,GND*%
X97480000Y-128700000D03*
%TD*%
%TO.P,H3,1*%
%TO.N,GND*%
X155480000Y-128700000D03*
%TD*%
%TO.P,H2,1*%
%TO.N,GND*%
X155480000Y-79700000D03*
%TD*%
%TO.P,H1,1*%
%TO.N,GND*%
X97480000Y-79700000D03*
%TD*%
D11*
%TO.P,U1,40*%
%TO.N,PCM_DOUT*%
X150610000Y-78430000D03*
%TO.P,U1,39*%
%TO.N,GND*%
X150610000Y-80970000D03*
%TO.P,U1,38*%
%TO.N,PCM_DIN*%
X148070000Y-78430000D03*
%TO.P,U1,37*%
%TO.N,N/C*%
X148070000Y-80970000D03*
%TO.P,U1,36*%
X145530000Y-78430000D03*
%TO.P,U1,35*%
%TO.N,PCM_FS*%
X145530000Y-80970000D03*
%TO.P,U1,34*%
%TO.N,GND*%
X142990000Y-78430000D03*
%TO.P,U1,33*%
%TO.N,PWM1*%
X142990000Y-80970000D03*
%TO.P,U1,32*%
%TO.N,PWM0*%
X140450000Y-78430000D03*
%TO.P,U1,31*%
%TO.N,CLK2*%
X140450000Y-80970000D03*
%TO.P,U1,30*%
%TO.N,GND*%
X137910000Y-78430000D03*
%TO.P,U1,29*%
%TO.N,CLK1*%
X137910000Y-80970000D03*
%TO.P,U1,28*%
%TO.N,ID_SC*%
X135370000Y-78430000D03*
%TO.P,U1,27*%
%TO.N,ID_SD*%
X135370000Y-80970000D03*
%TO.P,U1,26*%
%TO.N,CE1*%
X132830000Y-78430000D03*
%TO.P,U1,25*%
%TO.N,GND*%
X132830000Y-80970000D03*
%TO.P,U1,24*%
%TO.N,CE0*%
X130290000Y-78430000D03*
%TO.P,U1,23*%
%TO.N,SCK*%
X130290000Y-80970000D03*
%TO.P,U1,22*%
%TO.N,N/C*%
X127750000Y-78430000D03*
%TO.P,U1,21*%
%TO.N,MISO*%
X127750000Y-80970000D03*
%TO.P,U1,20*%
%TO.N,GND*%
X125210000Y-78430000D03*
%TO.P,U1,19*%
%TO.N,MOSI*%
X125210000Y-80970000D03*
%TO.P,U1,18*%
%TO.N,N/C*%
X122670000Y-78430000D03*
%TO.P,U1,17*%
%TO.N,+3V3*%
X122670000Y-80970000D03*
%TO.P,U1,16*%
%TO.N,N/C*%
X120130000Y-78430000D03*
%TO.P,U1,15*%
X120130000Y-80970000D03*
%TO.P,U1,14*%
%TO.N,GND*%
X117590000Y-78430000D03*
%TO.P,U1,13*%
%TO.N,N/C*%
X117590000Y-80970000D03*
%TO.P,U1,12*%
%TO.N,PCM_CLK*%
X115050000Y-78430000D03*
%TO.P,U1,11*%
%TO.N,N/C*%
X115050000Y-80970000D03*
%TO.P,U1,10*%
%TO.N,RX*%
X112510000Y-78430000D03*
%TO.P,U1,9*%
%TO.N,GND*%
X112510000Y-80970000D03*
%TO.P,U1,8*%
%TO.N,TX*%
X109970000Y-78430000D03*
%TO.P,U1,7*%
%TO.N,CLK0*%
X109970000Y-80970000D03*
%TO.P,U1,6*%
%TO.N,GND*%
X107430000Y-78430000D03*
%TO.P,U1,5*%
%TO.N,SCL*%
X107430000Y-80970000D03*
%TO.P,U1,4*%
%TO.N,+5V*%
X104890000Y-78430000D03*
%TO.P,U1,3*%
%TO.N,SDA*%
X104890000Y-80970000D03*
%TO.P,U1,2*%
%TO.N,+5V*%
X102350000Y-78430000D03*
D12*
%TO.P,U1,1*%
%TO.N,+3V3*%
X102350000Y-80970000D03*
%TD*%
D11*
%TO.P,U4,12*%
%TO.N,SDA*%
X130290000Y-84780000D03*
%TO.P,U4,11*%
%TO.N,SCL*%
X130290000Y-87320000D03*
%TO.P,U4,10*%
%TO.N,CE0*%
X130290000Y-89860000D03*
%TO.P,U4,9*%
%TO.N,CE1*%
X130290000Y-92400000D03*
%TO.P,U4,8*%
%TO.N,ID_SD*%
X130290000Y-94940000D03*
%TO.P,U4,7*%
%TO.N,PCM_CLK*%
X130290000Y-97480000D03*
%TO.P,U4,6*%
%TO.N,PCM_FS*%
X130290000Y-100020000D03*
%TO.P,U4,5*%
%TO.N,PCM_DIN*%
X130290000Y-102560000D03*
%TO.P,U4,4*%
%TO.N,PCM_DOUT*%
X130290000Y-105100000D03*
%TO.P,U4,3*%
%TO.N,+5V*%
X130290000Y-107640000D03*
%TO.P,U4,2*%
%TO.N,N/C*%
X130290000Y-110180000D03*
D12*
%TO.P,U4,1*%
X130290000Y-112720000D03*
%TD*%
D11*
%TO.P,U5,16*%
%TO.N,GND*%
X150610000Y-84780000D03*
%TO.P,U5,15*%
%TO.N,TX*%
X150610000Y-87320000D03*
%TO.P,U5,14*%
%TO.N,RX*%
X150610000Y-89860000D03*
%TO.P,U5,13*%
%TO.N,MISO*%
X150610000Y-92400000D03*
%TO.P,U5,12*%
%TO.N,MOSI*%
X150610000Y-94940000D03*
%TO.P,U5,11*%
%TO.N,SCK*%
X150610000Y-97480000D03*
%TO.P,U5,10*%
%TO.N,ID_SC*%
X150610000Y-100020000D03*
%TO.P,U5,9*%
%TO.N,CLK2*%
X150610000Y-102560000D03*
%TO.P,U5,8*%
%TO.N,CLK1*%
X150610000Y-105100000D03*
%TO.P,U5,7*%
%TO.N,CLK0*%
X150610000Y-107640000D03*
%TO.P,U5,6*%
%TO.N,PWM1*%
X150610000Y-110180000D03*
%TO.P,U5,5*%
%TO.N,PWM0*%
X150610000Y-112720000D03*
%TO.P,U5,4*%
%TO.N,GND*%
X150610000Y-115260000D03*
%TO.P,U5,3*%
%TO.N,N/C*%
X150610000Y-117800000D03*
%TO.P,U5,2*%
%TO.N,+3V3*%
X150610000Y-120340000D03*
D12*
%TO.P,U5,1*%
%TO.N,N/C*%
X150610000Y-122880000D03*
%TD*%
D11*
%TO.P,U3,16*%
%TO.N,GND*%
X122670000Y-84780000D03*
%TO.P,U3,15*%
%TO.N,TX*%
X122670000Y-87320000D03*
%TO.P,U3,14*%
%TO.N,RX*%
X122670000Y-89860000D03*
%TO.P,U3,13*%
%TO.N,MISO*%
X122670000Y-92400000D03*
%TO.P,U3,12*%
%TO.N,MOSI*%
X122670000Y-94940000D03*
%TO.P,U3,11*%
%TO.N,SCK*%
X122670000Y-97480000D03*
%TO.P,U3,10*%
%TO.N,ID_SC*%
X122670000Y-100020000D03*
%TO.P,U3,9*%
%TO.N,CLK2*%
X122670000Y-102560000D03*
%TO.P,U3,8*%
%TO.N,CLK1*%
X122670000Y-105100000D03*
%TO.P,U3,7*%
%TO.N,CLK0*%
X122670000Y-107640000D03*
%TO.P,U3,6*%
%TO.N,PWM1*%
X122670000Y-110180000D03*
%TO.P,U3,5*%
%TO.N,PWM0*%
X122670000Y-112720000D03*
%TO.P,U3,4*%
%TO.N,GND*%
X122670000Y-115260000D03*
%TO.P,U3,3*%
%TO.N,N/C*%
X122670000Y-117800000D03*
%TO.P,U3,2*%
%TO.N,+3V3*%
X122670000Y-120340000D03*
D12*
%TO.P,U3,1*%
%TO.N,N/C*%
X122670000Y-122880000D03*
%TD*%
D11*
%TO.P,U2,12*%
%TO.N,SDA*%
X102350000Y-84780000D03*
%TO.P,U2,11*%
%TO.N,SCL*%
X102350000Y-87320000D03*
%TO.P,U2,10*%
%TO.N,CE0*%
X102350000Y-89860000D03*
%TO.P,U2,9*%
%TO.N,CE1*%
X102350000Y-92400000D03*
%TO.P,U2,8*%
%TO.N,ID_SD*%
X102350000Y-94940000D03*
%TO.P,U2,7*%
%TO.N,PCM_CLK*%
X102350000Y-97480000D03*
%TO.P,U2,6*%
%TO.N,PCM_FS*%
X102350000Y-100020000D03*
%TO.P,U2,5*%
%TO.N,PCM_DIN*%
X102350000Y-102560000D03*
%TO.P,U2,4*%
%TO.N,PCM_DOUT*%
X102350000Y-105100000D03*
%TO.P,U2,3*%
%TO.N,+5V*%
X102350000Y-107640000D03*
%TO.P,U2,2*%
%TO.N,N/C*%
X102350000Y-110180000D03*
D12*
%TO.P,U2,1*%
X102350000Y-112720000D03*
%TD*%
D13*
%TO.N,GND*%
X144260000Y-89860000D03*
X141720000Y-89860000D03*
X134100000Y-89860000D03*
X144260000Y-92400000D03*
X141720000Y-92400000D03*
X139180000Y-92400000D03*
X144260000Y-94940000D03*
X141720000Y-94940000D03*
X139180000Y-94940000D03*
X136640000Y-94940000D03*
X144260000Y-84780000D03*
X141720000Y-84780000D03*
X139180000Y-84780000D03*
X136640000Y-84780000D03*
X132830000Y-84780000D03*
X132830000Y-87320000D03*
X136640000Y-87320000D03*
X139180000Y-87320000D03*
X144260000Y-87320000D03*
X144260000Y-97480000D03*
X141720000Y-97480000D03*
X146800000Y-89860000D03*
X146800000Y-92400000D03*
X146800000Y-94940000D03*
X146800000Y-97480000D03*
X146800000Y-100020000D03*
X144260000Y-100020000D03*
X141720000Y-100020000D03*
X139180000Y-100020000D03*
X139180000Y-97480000D03*
X136640000Y-97480000D03*
X136640000Y-100020000D03*
X134100000Y-100020000D03*
X146800000Y-102560000D03*
X144260000Y-102560000D03*
X141720000Y-102560000D03*
X139180000Y-102560000D03*
X136640000Y-102560000D03*
X134100000Y-102560000D03*
X146800000Y-105100000D03*
X144260000Y-105100000D03*
X141720000Y-105100000D03*
X139180000Y-105100000D03*
X136640000Y-105100000D03*
X134100000Y-105100000D03*
X146800000Y-107640000D03*
X144260000Y-107640000D03*
X141720000Y-107640000D03*
X139180000Y-107640000D03*
X136640000Y-107640000D03*
X134100000Y-107640000D03*
X146800000Y-110180000D03*
X144260000Y-110180000D03*
X141720000Y-110180000D03*
X139180000Y-110180000D03*
X136640000Y-110180000D03*
X134100000Y-110180000D03*
X146800000Y-112720000D03*
X144260000Y-112720000D03*
X141720000Y-112720000D03*
X139180000Y-112720000D03*
X136640000Y-112720000D03*
X134100000Y-112720000D03*
X146800000Y-115260000D03*
X144260000Y-115260000D03*
X141720000Y-115260000D03*
X139180000Y-115260000D03*
X136640000Y-115260000D03*
X134100000Y-115260000D03*
X134100000Y-117800000D03*
X136640000Y-117800000D03*
X139180000Y-117800000D03*
X141720000Y-117800000D03*
X144260000Y-117800000D03*
X146800000Y-117800000D03*
X146800000Y-122880000D03*
X144260000Y-122880000D03*
X141720000Y-122880000D03*
X139180000Y-122880000D03*
X136640000Y-122880000D03*
X134100000Y-122880000D03*
X131560000Y-117800000D03*
X129020000Y-117800000D03*
X126480000Y-117800000D03*
X126480000Y-115260000D03*
X129020000Y-115260000D03*
X131560000Y-115260000D03*
X131560000Y-122880000D03*
X129020000Y-122880000D03*
X126480000Y-122880000D03*
X118352000Y-84780000D03*
X115812000Y-84780000D03*
X111240000Y-84780000D03*
X111240000Y-87320000D03*
X106160000Y-84780000D03*
X106160000Y-87320000D03*
X106160000Y-89860000D03*
X111240000Y-89860000D03*
X113780000Y-87320000D03*
X113780000Y-89860000D03*
X116320000Y-89860000D03*
X118860000Y-92400000D03*
X116320000Y-92400000D03*
X113780000Y-92400000D03*
X111240000Y-92400000D03*
X106160000Y-92400000D03*
X106160000Y-94940000D03*
X111240000Y-94940000D03*
X113780000Y-94940000D03*
X116320000Y-94940000D03*
X118860000Y-94940000D03*
X118860000Y-97480000D03*
X116320000Y-97480000D03*
X113780000Y-97480000D03*
X111240000Y-97480000D03*
X108700000Y-97480000D03*
X106160000Y-97480000D03*
X106160000Y-100020000D03*
X108700000Y-100020000D03*
X111240000Y-100020000D03*
X113780000Y-100020000D03*
X116320000Y-100020000D03*
X118860000Y-100020000D03*
X118860000Y-102560000D03*
X116320000Y-102560000D03*
X113780000Y-102560000D03*
X111240000Y-102560000D03*
X108700000Y-102560000D03*
X106160000Y-102560000D03*
X106160000Y-105100000D03*
X108700000Y-105100000D03*
X111240000Y-105100000D03*
X113780000Y-105100000D03*
X116320000Y-105100000D03*
X118860000Y-105100000D03*
X126480000Y-97480000D03*
X126480000Y-100020000D03*
X126480000Y-105100000D03*
X126480000Y-107640000D03*
X126480000Y-110180000D03*
X126480000Y-112720000D03*
X126480000Y-92400000D03*
X126480000Y-94940000D03*
X126480000Y-89860000D03*
X126480000Y-87320000D03*
X126480000Y-84780000D03*
X146800000Y-120340000D03*
X144260000Y-120340000D03*
X141720000Y-120340000D03*
X139180000Y-120340000D03*
X136640000Y-120340000D03*
X134100000Y-120340000D03*
X131560000Y-120340000D03*
X129020000Y-120340000D03*
X126480000Y-120340000D03*
X118860000Y-107640000D03*
X116320000Y-107640000D03*
X113780000Y-107640000D03*
X111240000Y-107640000D03*
X108700000Y-107640000D03*
X106160000Y-107640000D03*
X118860000Y-110180000D03*
X116320000Y-110180000D03*
X113780000Y-110180000D03*
X111240000Y-110180000D03*
X108700000Y-110180000D03*
X108700000Y-112720000D03*
X111240000Y-112720000D03*
X113780000Y-112720000D03*
X116320000Y-112720000D03*
X118860000Y-112720000D03*
X118860000Y-115260000D03*
X116320000Y-115260000D03*
X113780000Y-115260000D03*
X111240000Y-115260000D03*
X108700000Y-115260000D03*
X106160000Y-110180000D03*
X106160000Y-112720000D03*
X106160000Y-115260000D03*
X106160000Y-117800000D03*
X108700000Y-117800000D03*
X111240000Y-117800000D03*
X113780000Y-117800000D03*
X116320000Y-117800000D03*
X118860000Y-117800000D03*
X118860000Y-120340000D03*
X116320000Y-120340000D03*
X113780000Y-120340000D03*
X111240000Y-120340000D03*
X108700000Y-120340000D03*
X118860000Y-122880000D03*
X116320000Y-122880000D03*
X113780000Y-122880000D03*
X111240000Y-122880000D03*
X108700000Y-122880000D03*
X116320000Y-125420000D03*
X118860000Y-125420000D03*
X111240000Y-125420000D03*
X108700000Y-125420000D03*
X113780000Y-125420000D03*
X111240000Y-127960000D03*
X116320000Y-127960000D03*
X118860000Y-127960000D03*
X113780000Y-127960000D03*
X108700000Y-127960000D03*
X111240000Y-130500000D03*
X118860000Y-130500000D03*
X116320000Y-130500000D03*
X113780000Y-130500000D03*
X108700000Y-130500000D03*
X123940000Y-125420000D03*
X129020000Y-125420000D03*
X131560000Y-125420000D03*
X126480000Y-125420000D03*
X121400000Y-125420000D03*
X123940000Y-127960000D03*
X131560000Y-127960000D03*
X129020000Y-127960000D03*
X126480000Y-127960000D03*
X121400000Y-127960000D03*
X126480000Y-130500000D03*
X121400000Y-130500000D03*
X123940000Y-130500000D03*
X131560000Y-130500000D03*
X129020000Y-130500000D03*
X134100000Y-125420000D03*
X136640000Y-125420000D03*
X139180000Y-125420000D03*
X141720000Y-125420000D03*
X144260000Y-125420000D03*
X144260000Y-127960000D03*
X134100000Y-127960000D03*
X136640000Y-127960000D03*
X139180000Y-127960000D03*
X141720000Y-127960000D03*
X141720000Y-130500000D03*
X144260000Y-130500000D03*
X136640000Y-130500000D03*
X134100000Y-130500000D03*
X139180000Y-130500000D03*
X146800000Y-125420000D03*
X146800000Y-127960000D03*
X146800000Y-130500000D03*
X149340000Y-130500000D03*
X149340000Y-127960000D03*
X149340000Y-125420000D03*
X151880000Y-125420000D03*
X151880000Y-127960000D03*
X151880000Y-130500000D03*
X154420000Y-125420000D03*
X154420000Y-122880000D03*
X154420000Y-120340000D03*
X156960000Y-122880000D03*
X156960000Y-125420000D03*
X156960000Y-120340000D03*
X156960000Y-115260000D03*
X156960000Y-112720000D03*
X156960000Y-117800000D03*
X154420000Y-112720000D03*
X154420000Y-115260000D03*
X154420000Y-117800000D03*
X154420000Y-105100000D03*
X154420000Y-110180000D03*
X154420000Y-107640000D03*
X156960000Y-107640000D03*
X156960000Y-105100000D03*
X156960000Y-110180000D03*
X156960000Y-102560000D03*
X156960000Y-100020000D03*
X156960000Y-97480000D03*
X154420000Y-100020000D03*
X154420000Y-102560000D03*
X154420000Y-97480000D03*
X154420000Y-94940000D03*
X154420000Y-89860000D03*
X154420000Y-92400000D03*
X156960000Y-89860000D03*
X156960000Y-94940000D03*
X156960000Y-92400000D03*
X154420000Y-84780000D03*
X154420000Y-87320000D03*
X156960000Y-87320000D03*
X156960000Y-84780000D03*
X106160000Y-125420000D03*
X106160000Y-122880000D03*
X106160000Y-130500000D03*
X106160000Y-127960000D03*
X103620000Y-125420000D03*
X103620000Y-122880000D03*
X103620000Y-130500000D03*
X103620000Y-127960000D03*
X98540000Y-120340000D03*
X98540000Y-117800000D03*
X98540000Y-125420000D03*
X98540000Y-122880000D03*
X96000000Y-122880000D03*
X96000000Y-120340000D03*
X96000000Y-125420000D03*
X96000000Y-117800000D03*
X96000000Y-110180000D03*
X96000000Y-107640000D03*
X96000000Y-112720000D03*
X96000000Y-115260000D03*
X98540000Y-110180000D03*
X98540000Y-115260000D03*
X98540000Y-112720000D03*
X98540000Y-107640000D03*
X98540000Y-102560000D03*
X98540000Y-97480000D03*
X98540000Y-100020000D03*
X98540000Y-105100000D03*
X96000000Y-102560000D03*
X96000000Y-100020000D03*
X96000000Y-105100000D03*
X96000000Y-97480000D03*
X96000000Y-94940000D03*
X96000000Y-92400000D03*
X98540000Y-92400000D03*
X98540000Y-89860000D03*
X98540000Y-94940000D03*
X96000000Y-87320000D03*
X96000000Y-84780000D03*
X96000000Y-89860000D03*
X98540000Y-84780000D03*
X98540000Y-87320000D03*
X103620000Y-120340000D03*
X101080000Y-125420000D03*
X101080000Y-122880000D03*
X101080000Y-120340000D03*
X101080000Y-117800000D03*
X101080000Y-127960000D03*
X101080000Y-130500000D03*
X103620000Y-77160000D03*
X106160000Y-77160000D03*
X116320000Y-77160000D03*
X118860000Y-77160000D03*
X121400000Y-77160000D03*
X123940000Y-77160000D03*
X126480000Y-77160000D03*
X129020000Y-77160000D03*
X131560000Y-77160000D03*
X134100000Y-77160000D03*
X136640000Y-77160000D03*
X139180000Y-77160000D03*
X139180000Y-79700000D03*
X136640000Y-79700000D03*
X144260000Y-79700000D03*
X123940000Y-79700000D03*
X121400000Y-79700000D03*
X118860000Y-79700000D03*
X116320000Y-79700000D03*
X126480000Y-79700000D03*
X129020000Y-79700000D03*
X103620000Y-115260000D03*
X102350000Y-129230000D03*
X104890000Y-129230000D03*
X107430000Y-129230000D03*
X109970000Y-129230000D03*
X112510000Y-129230000D03*
X115050000Y-129230000D03*
X117590000Y-129230000D03*
X120130000Y-129230000D03*
X122670000Y-129230000D03*
X125210000Y-129230000D03*
X127750000Y-129230000D03*
X130290000Y-129230000D03*
X132830000Y-129230000D03*
X135370000Y-129230000D03*
X137910000Y-129230000D03*
X140450000Y-129230000D03*
X142990000Y-129230000D03*
X145530000Y-129230000D03*
X148070000Y-129230000D03*
X150610000Y-129230000D03*
X155690000Y-124150000D03*
X155690000Y-121610000D03*
X155690000Y-119070000D03*
X155690000Y-116530000D03*
X155690000Y-113990000D03*
X155690000Y-111450000D03*
X155690000Y-108910000D03*
X155690000Y-106370000D03*
X155690000Y-103830000D03*
X155690000Y-101290000D03*
X155690000Y-98750000D03*
X155690000Y-96210000D03*
X155690000Y-93670000D03*
X155690000Y-91130000D03*
X155690000Y-88590000D03*
X155690000Y-86050000D03*
X155690000Y-83510000D03*
X97270000Y-124150000D03*
X97270000Y-121610000D03*
X97270000Y-119070000D03*
X97270000Y-116530000D03*
X97270000Y-113990000D03*
X97270000Y-111450000D03*
X97270000Y-108910000D03*
X97270000Y-106370000D03*
X97270000Y-103830000D03*
X97270000Y-101290000D03*
X97270000Y-98750000D03*
X97270000Y-96210000D03*
X97270000Y-93670000D03*
X97270000Y-91130000D03*
X97270000Y-88590000D03*
X97270000Y-86050000D03*
X97270000Y-83510000D03*
X127242000Y-102560000D03*
X118352000Y-87320000D03*
%TO.N,ID_SC*%
X130290000Y-82748000D03*
%TD*%
D14*
%TO.N,PCM_DOUT*%
X103620000Y-103830000D02*
X129020000Y-103830000D01*
X102350000Y-105100000D02*
X103620000Y-103830000D01*
X129020000Y-103830000D02*
X130290000Y-105100000D01*
%TO.N,PCM_DIN*%
X129020000Y-101290000D02*
X130290000Y-102560000D01*
X103620000Y-101290000D02*
X129020000Y-101290000D01*
X102350000Y-102560000D02*
X103620000Y-101290000D01*
%TO.N,PCM_FS*%
X103620000Y-98750000D02*
X102350000Y-100020000D01*
X130290000Y-100020000D02*
X129020000Y-98750000D01*
X129020000Y-98750000D02*
X103620000Y-98750000D01*
%TO.N,PWM1*%
X149340000Y-111450000D02*
X150610000Y-110180000D01*
X122670000Y-110180000D02*
X123940000Y-111450000D01*
X123940000Y-111450000D02*
X149340000Y-111450000D01*
%TO.N,PWM0*%
X122670000Y-112720000D02*
X123940000Y-113990000D01*
X149340000Y-113990000D02*
X150610000Y-112720000D01*
X123940000Y-113990000D02*
X149340000Y-113990000D01*
%TO.N,CLK2*%
X129656410Y-103830000D02*
X149340000Y-103830000D01*
X149340000Y-103830000D02*
X150610000Y-102560000D01*
X122670000Y-102560000D02*
X123489989Y-103379989D01*
X123489989Y-103379989D02*
X129206400Y-103379989D01*
X129206400Y-103379989D02*
X129656410Y-103830000D01*
%TO.N,CLK1*%
X149340000Y-106370000D02*
X150610000Y-105100000D01*
X129762476Y-106370000D02*
X149340000Y-106370000D01*
X123414989Y-105844989D02*
X129237466Y-105844989D01*
X129237466Y-105844989D02*
X129762476Y-106370000D01*
X122670000Y-105100000D02*
X123414989Y-105844989D01*
%TO.N,ID_SC*%
X131560000Y-81478000D02*
X130290000Y-82748000D01*
X131560000Y-80500998D02*
X131560000Y-81478000D01*
X135370000Y-78430000D02*
X134100000Y-79700000D01*
X134100000Y-79700000D02*
X132360998Y-79700000D01*
X132360998Y-79700000D02*
X131560000Y-80500998D01*
X129206400Y-100839989D02*
X129656410Y-101290000D01*
X149340000Y-101290000D02*
X150610000Y-100020000D01*
X123489989Y-100839989D02*
X129206400Y-100839989D01*
X122670000Y-100020000D02*
X123489989Y-100839989D01*
X129656410Y-101290000D02*
X149340000Y-101290000D01*
%TO.N,ID_SD*%
X103620000Y-93670000D02*
X102350000Y-94940000D01*
X129020000Y-93670000D02*
X103620000Y-93670000D01*
X130290000Y-94940000D02*
X129020000Y-93670000D01*
%TO.N,CE1*%
X103620000Y-91130000D02*
X102350000Y-92400000D01*
X129020000Y-91130000D02*
X103620000Y-91130000D01*
X130290000Y-92400000D02*
X129020000Y-91130000D01*
%TO.N,CE0*%
X130290000Y-78430000D02*
X130290019Y-78430019D01*
X129020000Y-88590000D02*
X103620000Y-88590000D01*
X103620000Y-88590000D02*
X102350000Y-89860000D01*
X130290000Y-89860000D02*
X129020000Y-88590000D01*
%TO.N,SCK*%
X129656410Y-98750000D02*
X149340000Y-98750000D01*
X149340000Y-98750000D02*
X150610000Y-97480000D01*
X122670000Y-97480000D02*
X123489989Y-98299989D01*
X123489989Y-98299989D02*
X129206400Y-98299989D01*
X129206400Y-98299989D02*
X129656410Y-98750000D01*
%TO.N,MISO*%
X129656410Y-93670000D02*
X149340000Y-93670000D01*
X149340000Y-93670000D02*
X150610000Y-92400000D01*
X122670000Y-92400000D02*
X123489989Y-93219989D01*
X123489989Y-93219989D02*
X129206400Y-93219989D01*
X129206400Y-93219989D02*
X129656410Y-93670000D01*
%TO.N,MOSI*%
X149340000Y-96210000D02*
X150610000Y-94940000D01*
X129656410Y-96210000D02*
X149340000Y-96210000D01*
X129206400Y-95759989D02*
X129656410Y-96210000D01*
X123489989Y-95759989D02*
X129206400Y-95759989D01*
X122670000Y-94940000D02*
X123489989Y-95759989D01*
D15*
%TO.N,+3V3*%
X123742000Y-121412000D02*
X122670000Y-120340000D01*
X150610000Y-120340000D02*
X149538000Y-121412000D01*
X149538000Y-121412000D02*
X123742000Y-121412000D01*
X100318000Y-83002000D02*
X102350000Y-80970000D01*
X107740000Y-121412000D02*
X100318000Y-113990000D01*
X100318000Y-113990000D02*
X100318000Y-83002000D01*
X122670000Y-120340000D02*
X121598000Y-121412000D01*
X121598000Y-121412000D02*
X107740000Y-121412000D01*
D14*
%TO.N,PCM_CLK*%
X103620000Y-96210000D02*
X102350000Y-97480000D01*
X129020000Y-96210000D02*
X103620000Y-96210000D01*
X130290000Y-97480000D02*
X129020000Y-96210000D01*
%TO.N,TX*%
X129148410Y-88082000D02*
X129656410Y-88590000D01*
X149340000Y-88590000D02*
X150610000Y-87320000D01*
X129656410Y-88590000D02*
X149340000Y-88590000D01*
X122670000Y-87320000D02*
X123432000Y-88082000D01*
X123432000Y-88082000D02*
X129148410Y-88082000D01*
%TO.N,RX*%
X123489989Y-90679989D02*
X129206400Y-90679989D01*
X129206400Y-90679989D02*
X129656410Y-91130000D01*
X122670000Y-89860000D02*
X123489989Y-90679989D01*
X149340000Y-91130000D02*
X150610000Y-89860000D01*
X129656410Y-91130000D02*
X149340000Y-91130000D01*
%TO.N,CLK0*%
X149340000Y-108910000D02*
X150610000Y-107640000D01*
X122670000Y-107640000D02*
X123940000Y-108910000D01*
X123940000Y-108910000D02*
X149340000Y-108910000D01*
%TO.N,SCL*%
X103620000Y-86050000D02*
X102350000Y-87320000D01*
X130290000Y-87320000D02*
X129020000Y-86050000D01*
X129020000Y-86050000D02*
X103620000Y-86050000D01*
X101080000Y-86050000D02*
X102350000Y-87320000D01*
X102096000Y-83509002D02*
X102096000Y-83510000D01*
X101842000Y-83510000D02*
X101080000Y-84272000D01*
X102096000Y-83510000D02*
X101842000Y-83510000D01*
X106160000Y-79700000D02*
X104382000Y-79700000D01*
X101080000Y-84272000D02*
X101080000Y-86050000D01*
X107430000Y-80970000D02*
X106160000Y-79700000D01*
X104382000Y-79700000D02*
X103620000Y-80462000D01*
X103620000Y-81985002D02*
X102096000Y-83509002D01*
X103620000Y-80462000D02*
X103620000Y-81985002D01*
D15*
%TO.N,+5V*%
X129020000Y-106370000D02*
X130290000Y-107640000D01*
X102350000Y-107640000D02*
X103620000Y-106370000D01*
X103620000Y-106370000D02*
X129020000Y-106370000D01*
D14*
%TO.N,SDA*%
X102350000Y-84018000D02*
X102350000Y-84780000D01*
X104890000Y-80970000D02*
X104890000Y-81478000D01*
X104890000Y-82240000D02*
X102350000Y-84780000D01*
X104890000Y-80970000D02*
X104890000Y-82240000D01*
X103620000Y-83510000D02*
X102350000Y-84780000D01*
X130290000Y-84780000D02*
X129020000Y-83510000D01*
X129020000Y-83510000D02*
X103620000Y-83510000D01*
%TD*%
D16*
%TO.N,GND*%
G36*
X153622008Y-76911096D02*
G01*
X153614411Y-76916172D01*
X153314231Y-77354626D01*
X155480000Y-79520395D01*
X155494143Y-79506253D01*
X155673748Y-79685858D01*
X155659605Y-79700000D01*
X157825374Y-81865769D01*
X158263828Y-81565589D01*
X158574001Y-80987194D01*
X158574000Y-127414679D01*
X158268904Y-126842008D01*
X158263828Y-126834411D01*
X157825374Y-126534231D01*
X155659605Y-128700000D01*
X155673748Y-128714143D01*
X155494143Y-128893748D01*
X155480000Y-128879605D01*
X153314231Y-131045374D01*
X153614411Y-131483828D01*
X154192804Y-131794000D01*
X98765321Y-131794000D01*
X99337992Y-131488904D01*
X99345589Y-131483828D01*
X99645769Y-131045374D01*
X97480000Y-128879605D01*
X97465858Y-128893748D01*
X97286253Y-128714143D01*
X97300395Y-128700000D01*
X97659605Y-128700000D01*
X99825374Y-130865769D01*
X100263828Y-130565589D01*
X100574296Y-129986644D01*
X100765852Y-129358254D01*
X100831134Y-128704569D01*
X100830247Y-128695431D01*
X152128866Y-128695431D01*
X152192366Y-129349293D01*
X152382208Y-129978203D01*
X152691096Y-130557992D01*
X152696172Y-130565589D01*
X153134626Y-130865769D01*
X155300395Y-128700000D01*
X153134626Y-126534231D01*
X152696172Y-126834411D01*
X152385704Y-127413356D01*
X152194148Y-128041746D01*
X152128866Y-128695431D01*
X100830247Y-128695431D01*
X100767634Y-128050707D01*
X100577792Y-127421797D01*
X100268904Y-126842008D01*
X100263828Y-126834411D01*
X99825374Y-126534231D01*
X97659605Y-128700000D01*
X97300395Y-128700000D01*
X95134626Y-126534231D01*
X94696172Y-126834411D01*
X94386000Y-127412804D01*
X94386000Y-126354626D01*
X95314231Y-126354626D01*
X97480000Y-128520395D01*
X99645769Y-126354626D01*
X153314231Y-126354626D01*
X155480000Y-128520395D01*
X157645769Y-126354626D01*
X157345589Y-125916172D01*
X156766644Y-125605704D01*
X156138254Y-125414148D01*
X155484569Y-125348866D01*
X154830707Y-125412366D01*
X154201797Y-125602208D01*
X153622008Y-125911096D01*
X153614411Y-125916172D01*
X153314231Y-126354626D01*
X99645769Y-126354626D01*
X99345589Y-125916172D01*
X98766644Y-125605704D01*
X98138254Y-125414148D01*
X97484569Y-125348866D01*
X96830707Y-125412366D01*
X96201797Y-125602208D01*
X95622008Y-125911096D01*
X95614411Y-125916172D01*
X95314231Y-126354626D01*
X94386000Y-126354626D01*
X94386000Y-82045374D01*
X95314231Y-82045374D01*
X95614411Y-82483828D01*
X96193356Y-82794296D01*
X96821746Y-82985852D01*
X97475431Y-83051134D01*
X97981365Y-83002000D01*
X99734189Y-83002000D01*
X99737001Y-83030550D01*
X99737000Y-113961460D01*
X99734189Y-113990000D01*
X99737000Y-114018539D01*
X99745407Y-114103895D01*
X99778629Y-114213414D01*
X99832579Y-114314347D01*
X99905183Y-114402817D01*
X99927360Y-114421017D01*
X107308987Y-121802645D01*
X107327183Y-121824817D01*
X107415652Y-121897421D01*
X107516585Y-121951371D01*
X107626104Y-121984593D01*
X107739999Y-121995811D01*
X107768539Y-121993000D01*
X121440801Y-121993000D01*
X121437157Y-122030000D01*
X121437157Y-123730000D01*
X121444513Y-123804689D01*
X121466299Y-123876508D01*
X121501678Y-123942696D01*
X121549289Y-124000711D01*
X121607304Y-124048322D01*
X121673492Y-124083701D01*
X121745311Y-124105487D01*
X121820000Y-124112843D01*
X123520000Y-124112843D01*
X123594689Y-124105487D01*
X123666508Y-124083701D01*
X123732696Y-124048322D01*
X123790711Y-124000711D01*
X123838322Y-123942696D01*
X123873701Y-123876508D01*
X123895487Y-123804689D01*
X123902843Y-123730000D01*
X123902843Y-122030000D01*
X123899199Y-121993000D01*
X149380801Y-121993000D01*
X149377157Y-122030000D01*
X149377157Y-123730000D01*
X149384513Y-123804689D01*
X149406299Y-123876508D01*
X149441678Y-123942696D01*
X149489289Y-124000711D01*
X149547304Y-124048322D01*
X149613492Y-124083701D01*
X149685311Y-124105487D01*
X149760000Y-124112843D01*
X151460000Y-124112843D01*
X151534689Y-124105487D01*
X151606508Y-124083701D01*
X151672696Y-124048322D01*
X151730711Y-124000711D01*
X151778322Y-123942696D01*
X151813701Y-123876508D01*
X151835487Y-123804689D01*
X151842843Y-123730000D01*
X151842843Y-122030000D01*
X151835487Y-121955311D01*
X151813701Y-121883492D01*
X151778322Y-121817304D01*
X151730711Y-121759289D01*
X151672696Y-121711678D01*
X151606508Y-121676299D01*
X151534689Y-121654513D01*
X151460000Y-121647157D01*
X150124500Y-121647157D01*
X150248833Y-121522824D01*
X150250931Y-121523693D01*
X150488757Y-121571000D01*
X150731243Y-121571000D01*
X150969069Y-121523693D01*
X151193097Y-121430898D01*
X151394717Y-121296180D01*
X151566180Y-121124717D01*
X151700898Y-120923097D01*
X151793693Y-120699069D01*
X151841000Y-120461243D01*
X151841000Y-120218757D01*
X151793693Y-119980931D01*
X151700898Y-119756903D01*
X151566180Y-119555283D01*
X151394717Y-119383820D01*
X151193097Y-119249102D01*
X150969069Y-119156307D01*
X150731243Y-119109000D01*
X150488757Y-119109000D01*
X150250931Y-119156307D01*
X150026903Y-119249102D01*
X149825283Y-119383820D01*
X149653820Y-119555283D01*
X149519102Y-119756903D01*
X149426307Y-119980931D01*
X149379000Y-120218757D01*
X149379000Y-120461243D01*
X149426307Y-120699069D01*
X149427176Y-120701167D01*
X149297343Y-120831000D01*
X123982658Y-120831000D01*
X123852824Y-120701166D01*
X123853693Y-120699069D01*
X123901000Y-120461243D01*
X123901000Y-120218757D01*
X123853693Y-119980931D01*
X123760898Y-119756903D01*
X123626180Y-119555283D01*
X123454717Y-119383820D01*
X123253097Y-119249102D01*
X123029069Y-119156307D01*
X122791243Y-119109000D01*
X122548757Y-119109000D01*
X122310931Y-119156307D01*
X122086903Y-119249102D01*
X121885283Y-119383820D01*
X121713820Y-119555283D01*
X121579102Y-119756903D01*
X121486307Y-119980931D01*
X121439000Y-120218757D01*
X121439000Y-120461243D01*
X121486307Y-120699069D01*
X121487176Y-120701167D01*
X121357343Y-120831000D01*
X107980658Y-120831000D01*
X102766548Y-115616890D01*
X121228524Y-115616890D01*
X121273175Y-115764099D01*
X121398359Y-116026920D01*
X121572412Y-116260269D01*
X121788645Y-116455178D01*
X122038748Y-116604157D01*
X122201168Y-116661772D01*
X122086903Y-116709102D01*
X121885283Y-116843820D01*
X121713820Y-117015283D01*
X121579102Y-117216903D01*
X121486307Y-117440931D01*
X121439000Y-117678757D01*
X121439000Y-117921243D01*
X121486307Y-118159069D01*
X121579102Y-118383097D01*
X121713820Y-118584717D01*
X121885283Y-118756180D01*
X122086903Y-118890898D01*
X122310931Y-118983693D01*
X122548757Y-119031000D01*
X122791243Y-119031000D01*
X123029069Y-118983693D01*
X123253097Y-118890898D01*
X123454717Y-118756180D01*
X123626180Y-118584717D01*
X123760898Y-118383097D01*
X123853693Y-118159069D01*
X123901000Y-117921243D01*
X123901000Y-117678757D01*
X123853693Y-117440931D01*
X123760898Y-117216903D01*
X123626180Y-117015283D01*
X123454717Y-116843820D01*
X123253097Y-116709102D01*
X123138832Y-116661772D01*
X123301252Y-116604157D01*
X123551355Y-116455178D01*
X123767588Y-116260269D01*
X123941641Y-116026920D01*
X124066825Y-115764099D01*
X124111476Y-115616890D01*
X149168524Y-115616890D01*
X149213175Y-115764099D01*
X149338359Y-116026920D01*
X149512412Y-116260269D01*
X149728645Y-116455178D01*
X149978748Y-116604157D01*
X150141168Y-116661772D01*
X150026903Y-116709102D01*
X149825283Y-116843820D01*
X149653820Y-117015283D01*
X149519102Y-117216903D01*
X149426307Y-117440931D01*
X149379000Y-117678757D01*
X149379000Y-117921243D01*
X149426307Y-118159069D01*
X149519102Y-118383097D01*
X149653820Y-118584717D01*
X149825283Y-118756180D01*
X150026903Y-118890898D01*
X150250931Y-118983693D01*
X150488757Y-119031000D01*
X150731243Y-119031000D01*
X150969069Y-118983693D01*
X151193097Y-118890898D01*
X151394717Y-118756180D01*
X151566180Y-118584717D01*
X151700898Y-118383097D01*
X151793693Y-118159069D01*
X151841000Y-117921243D01*
X151841000Y-117678757D01*
X151793693Y-117440931D01*
X151700898Y-117216903D01*
X151566180Y-117015283D01*
X151394717Y-116843820D01*
X151193097Y-116709102D01*
X151078832Y-116661772D01*
X151241252Y-116604157D01*
X151491355Y-116455178D01*
X151707588Y-116260269D01*
X151881641Y-116026920D01*
X152006825Y-115764099D01*
X152051476Y-115616890D01*
X151930155Y-115387000D01*
X150737000Y-115387000D01*
X150737000Y-115407000D01*
X150483000Y-115407000D01*
X150483000Y-115387000D01*
X149289845Y-115387000D01*
X149168524Y-115616890D01*
X124111476Y-115616890D01*
X123990155Y-115387000D01*
X122797000Y-115387000D01*
X122797000Y-115407000D01*
X122543000Y-115407000D01*
X122543000Y-115387000D01*
X121349845Y-115387000D01*
X121228524Y-115616890D01*
X102766548Y-115616890D01*
X100899000Y-113749343D01*
X100899000Y-111870000D01*
X101117157Y-111870000D01*
X101117157Y-113570000D01*
X101124513Y-113644689D01*
X101146299Y-113716508D01*
X101181678Y-113782696D01*
X101229289Y-113840711D01*
X101287304Y-113888322D01*
X101353492Y-113923701D01*
X101425311Y-113945487D01*
X101500000Y-113952843D01*
X103200000Y-113952843D01*
X103274689Y-113945487D01*
X103346508Y-113923701D01*
X103412696Y-113888322D01*
X103470711Y-113840711D01*
X103518322Y-113782696D01*
X103553701Y-113716508D01*
X103575487Y-113644689D01*
X103582843Y-113570000D01*
X103582843Y-111870000D01*
X103575487Y-111795311D01*
X103553701Y-111723492D01*
X103518322Y-111657304D01*
X103470711Y-111599289D01*
X103412696Y-111551678D01*
X103346508Y-111516299D01*
X103274689Y-111494513D01*
X103200000Y-111487157D01*
X101500000Y-111487157D01*
X101425311Y-111494513D01*
X101353492Y-111516299D01*
X101287304Y-111551678D01*
X101229289Y-111599289D01*
X101181678Y-111657304D01*
X101146299Y-111723492D01*
X101124513Y-111795311D01*
X101117157Y-111870000D01*
X100899000Y-111870000D01*
X100899000Y-110058757D01*
X101119000Y-110058757D01*
X101119000Y-110301243D01*
X101166307Y-110539069D01*
X101259102Y-110763097D01*
X101393820Y-110964717D01*
X101565283Y-111136180D01*
X101766903Y-111270898D01*
X101990931Y-111363693D01*
X102228757Y-111411000D01*
X102471243Y-111411000D01*
X102709069Y-111363693D01*
X102933097Y-111270898D01*
X103134717Y-111136180D01*
X103306180Y-110964717D01*
X103440898Y-110763097D01*
X103533693Y-110539069D01*
X103581000Y-110301243D01*
X103581000Y-110058757D01*
X103533693Y-109820931D01*
X103440898Y-109596903D01*
X103306180Y-109395283D01*
X103134717Y-109223820D01*
X102933097Y-109089102D01*
X102709069Y-108996307D01*
X102471243Y-108949000D01*
X102228757Y-108949000D01*
X101990931Y-108996307D01*
X101766903Y-109089102D01*
X101565283Y-109223820D01*
X101393820Y-109395283D01*
X101259102Y-109596903D01*
X101166307Y-109820931D01*
X101119000Y-110058757D01*
X100899000Y-110058757D01*
X100899000Y-86584591D01*
X101198242Y-86883833D01*
X101166307Y-86960931D01*
X101119000Y-87198757D01*
X101119000Y-87441243D01*
X101166307Y-87679069D01*
X101259102Y-87903097D01*
X101393820Y-88104717D01*
X101565283Y-88276180D01*
X101766903Y-88410898D01*
X101990931Y-88503693D01*
X102228757Y-88551000D01*
X102471243Y-88551000D01*
X102709069Y-88503693D01*
X102933097Y-88410898D01*
X103134717Y-88276180D01*
X103306180Y-88104717D01*
X103440898Y-87903097D01*
X103533693Y-87679069D01*
X103581000Y-87441243D01*
X103581000Y-87198757D01*
X103533693Y-86960931D01*
X103501758Y-86883833D01*
X103829592Y-86556000D01*
X121699977Y-86556000D01*
X121579102Y-86736903D01*
X121486307Y-86960931D01*
X121439000Y-87198757D01*
X121439000Y-87441243D01*
X121486307Y-87679069D01*
X121579102Y-87903097D01*
X121699977Y-88084000D01*
X103644845Y-88084000D01*
X103619999Y-88081553D01*
X103595153Y-88084000D01*
X103595146Y-88084000D01*
X103530694Y-88090348D01*
X103520806Y-88091322D01*
X103476648Y-88104717D01*
X103425425Y-88120255D01*
X103337521Y-88167241D01*
X103260473Y-88230473D01*
X103244630Y-88249778D01*
X102786167Y-88708242D01*
X102709069Y-88676307D01*
X102471243Y-88629000D01*
X102228757Y-88629000D01*
X101990931Y-88676307D01*
X101766903Y-88769102D01*
X101565283Y-88903820D01*
X101393820Y-89075283D01*
X101259102Y-89276903D01*
X101166307Y-89500931D01*
X101119000Y-89738757D01*
X101119000Y-89981243D01*
X101166307Y-90219069D01*
X101259102Y-90443097D01*
X101393820Y-90644717D01*
X101565283Y-90816180D01*
X101766903Y-90950898D01*
X101990931Y-91043693D01*
X102228757Y-91091000D01*
X102471243Y-91091000D01*
X102709069Y-91043693D01*
X102933097Y-90950898D01*
X103134717Y-90816180D01*
X103306180Y-90644717D01*
X103440898Y-90443097D01*
X103533693Y-90219069D01*
X103581000Y-89981243D01*
X103581000Y-89738757D01*
X103533693Y-89500931D01*
X103501758Y-89423833D01*
X103829592Y-89096000D01*
X121699977Y-89096000D01*
X121579102Y-89276903D01*
X121486307Y-89500931D01*
X121439000Y-89738757D01*
X121439000Y-89981243D01*
X121486307Y-90219069D01*
X121579102Y-90443097D01*
X121699977Y-90624000D01*
X103644845Y-90624000D01*
X103619999Y-90621553D01*
X103595153Y-90624000D01*
X103595146Y-90624000D01*
X103530694Y-90630348D01*
X103520806Y-90631322D01*
X103476648Y-90644717D01*
X103425425Y-90660255D01*
X103337521Y-90707241D01*
X103260473Y-90770473D01*
X103244630Y-90789778D01*
X102786167Y-91248242D01*
X102709069Y-91216307D01*
X102471243Y-91169000D01*
X102228757Y-91169000D01*
X101990931Y-91216307D01*
X101766903Y-91309102D01*
X101565283Y-91443820D01*
X101393820Y-91615283D01*
X101259102Y-91816903D01*
X101166307Y-92040931D01*
X101119000Y-92278757D01*
X101119000Y-92521243D01*
X101166307Y-92759069D01*
X101259102Y-92983097D01*
X101393820Y-93184717D01*
X101565283Y-93356180D01*
X101766903Y-93490898D01*
X101990931Y-93583693D01*
X102228757Y-93631000D01*
X102471243Y-93631000D01*
X102709069Y-93583693D01*
X102933097Y-93490898D01*
X103134717Y-93356180D01*
X103306180Y-93184717D01*
X103440898Y-92983097D01*
X103533693Y-92759069D01*
X103581000Y-92521243D01*
X103581000Y-92278757D01*
X103533693Y-92040931D01*
X103501758Y-91963833D01*
X103829592Y-91636000D01*
X121699977Y-91636000D01*
X121579102Y-91816903D01*
X121486307Y-92040931D01*
X121439000Y-92278757D01*
X121439000Y-92521243D01*
X121486307Y-92759069D01*
X121579102Y-92983097D01*
X121699977Y-93164000D01*
X103644845Y-93164000D01*
X103619999Y-93161553D01*
X103595153Y-93164000D01*
X103595146Y-93164000D01*
X103530694Y-93170348D01*
X103520806Y-93171322D01*
X103476648Y-93184717D01*
X103425425Y-93200255D01*
X103337521Y-93247241D01*
X103260473Y-93310473D01*
X103244630Y-93329778D01*
X102786167Y-93788242D01*
X102709069Y-93756307D01*
X102471243Y-93709000D01*
X102228757Y-93709000D01*
X101990931Y-93756307D01*
X101766903Y-93849102D01*
X101565283Y-93983820D01*
X101393820Y-94155283D01*
X101259102Y-94356903D01*
X101166307Y-94580931D01*
X101119000Y-94818757D01*
X101119000Y-95061243D01*
X101166307Y-95299069D01*
X101259102Y-95523097D01*
X101393820Y-95724717D01*
X101565283Y-95896180D01*
X101766903Y-96030898D01*
X101990931Y-96123693D01*
X102228757Y-96171000D01*
X102471243Y-96171000D01*
X102709069Y-96123693D01*
X102933097Y-96030898D01*
X103134717Y-95896180D01*
X103306180Y-95724717D01*
X103440898Y-95523097D01*
X103533693Y-95299069D01*
X103581000Y-95061243D01*
X103581000Y-94818757D01*
X103533693Y-94580931D01*
X103501758Y-94503833D01*
X103829592Y-94176000D01*
X121699977Y-94176000D01*
X121579102Y-94356903D01*
X121486307Y-94580931D01*
X121439000Y-94818757D01*
X121439000Y-95061243D01*
X121486307Y-95299069D01*
X121579102Y-95523097D01*
X121699977Y-95704000D01*
X103644845Y-95704000D01*
X103619999Y-95701553D01*
X103595153Y-95704000D01*
X103595146Y-95704000D01*
X103530694Y-95710348D01*
X103520806Y-95711322D01*
X103476648Y-95724717D01*
X103425425Y-95740255D01*
X103337521Y-95787241D01*
X103260473Y-95850473D01*
X103244630Y-95869778D01*
X102786167Y-96328242D01*
X102709069Y-96296307D01*
X102471243Y-96249000D01*
X102228757Y-96249000D01*
X101990931Y-96296307D01*
X101766903Y-96389102D01*
X101565283Y-96523820D01*
X101393820Y-96695283D01*
X101259102Y-96896903D01*
X101166307Y-97120931D01*
X101119000Y-97358757D01*
X101119000Y-97601243D01*
X101166307Y-97839069D01*
X101259102Y-98063097D01*
X101393820Y-98264717D01*
X101565283Y-98436180D01*
X101766903Y-98570898D01*
X101990931Y-98663693D01*
X102228757Y-98711000D01*
X102471243Y-98711000D01*
X102709069Y-98663693D01*
X102933097Y-98570898D01*
X103134717Y-98436180D01*
X103306180Y-98264717D01*
X103440898Y-98063097D01*
X103533693Y-97839069D01*
X103581000Y-97601243D01*
X103581000Y-97358757D01*
X103533693Y-97120931D01*
X103501758Y-97043833D01*
X103829592Y-96716000D01*
X121699977Y-96716000D01*
X121579102Y-96896903D01*
X121486307Y-97120931D01*
X121439000Y-97358757D01*
X121439000Y-97601243D01*
X121486307Y-97839069D01*
X121579102Y-98063097D01*
X121699977Y-98244000D01*
X103644845Y-98244000D01*
X103619999Y-98241553D01*
X103595153Y-98244000D01*
X103595146Y-98244000D01*
X103530694Y-98250348D01*
X103520806Y-98251322D01*
X103476648Y-98264717D01*
X103425425Y-98280255D01*
X103337521Y-98327241D01*
X103260473Y-98390473D01*
X103244630Y-98409778D01*
X102786167Y-98868242D01*
X102709069Y-98836307D01*
X102471243Y-98789000D01*
X102228757Y-98789000D01*
X101990931Y-98836307D01*
X101766903Y-98929102D01*
X101565283Y-99063820D01*
X101393820Y-99235283D01*
X101259102Y-99436903D01*
X101166307Y-99660931D01*
X101119000Y-99898757D01*
X101119000Y-100141243D01*
X101166307Y-100379069D01*
X101259102Y-100603097D01*
X101393820Y-100804717D01*
X101565283Y-100976180D01*
X101766903Y-101110898D01*
X101990931Y-101203693D01*
X102228757Y-101251000D01*
X102471243Y-101251000D01*
X102709069Y-101203693D01*
X102933097Y-101110898D01*
X103134717Y-100976180D01*
X103306180Y-100804717D01*
X103440898Y-100603097D01*
X103533693Y-100379069D01*
X103581000Y-100141243D01*
X103581000Y-99898757D01*
X103533693Y-99660931D01*
X103501758Y-99583833D01*
X103829592Y-99256000D01*
X121699977Y-99256000D01*
X121579102Y-99436903D01*
X121486307Y-99660931D01*
X121439000Y-99898757D01*
X121439000Y-100141243D01*
X121486307Y-100379069D01*
X121579102Y-100603097D01*
X121699977Y-100784000D01*
X103644845Y-100784000D01*
X103619999Y-100781553D01*
X103595153Y-100784000D01*
X103595146Y-100784000D01*
X103530694Y-100790348D01*
X103520806Y-100791322D01*
X103476648Y-100804717D01*
X103425425Y-100820255D01*
X103337521Y-100867241D01*
X103260473Y-100930473D01*
X103244630Y-100949778D01*
X102786167Y-101408242D01*
X102709069Y-101376307D01*
X102471243Y-101329000D01*
X102228757Y-101329000D01*
X101990931Y-101376307D01*
X101766903Y-101469102D01*
X101565283Y-101603820D01*
X101393820Y-101775283D01*
X101259102Y-101976903D01*
X101166307Y-102200931D01*
X101119000Y-102438757D01*
X101119000Y-102681243D01*
X101166307Y-102919069D01*
X101259102Y-103143097D01*
X101393820Y-103344717D01*
X101565283Y-103516180D01*
X101766903Y-103650898D01*
X101990931Y-103743693D01*
X102228757Y-103791000D01*
X102471243Y-103791000D01*
X102709069Y-103743693D01*
X102933097Y-103650898D01*
X103134717Y-103516180D01*
X103306180Y-103344717D01*
X103440898Y-103143097D01*
X103533693Y-102919069D01*
X103581000Y-102681243D01*
X103581000Y-102438757D01*
X103533693Y-102200931D01*
X103501758Y-102123833D01*
X103829592Y-101796000D01*
X121699977Y-101796000D01*
X121579102Y-101976903D01*
X121486307Y-102200931D01*
X121439000Y-102438757D01*
X121439000Y-102681243D01*
X121486307Y-102919069D01*
X121579102Y-103143097D01*
X121699977Y-103324000D01*
X103644845Y-103324000D01*
X103619999Y-103321553D01*
X103595153Y-103324000D01*
X103595146Y-103324000D01*
X103530694Y-103330348D01*
X103520806Y-103331322D01*
X103476648Y-103344717D01*
X103425425Y-103360255D01*
X103337521Y-103407241D01*
X103260473Y-103470473D01*
X103244630Y-103489778D01*
X102786167Y-103948242D01*
X102709069Y-103916307D01*
X102471243Y-103869000D01*
X102228757Y-103869000D01*
X101990931Y-103916307D01*
X101766903Y-104009102D01*
X101565283Y-104143820D01*
X101393820Y-104315283D01*
X101259102Y-104516903D01*
X101166307Y-104740931D01*
X101119000Y-104978757D01*
X101119000Y-105221243D01*
X101166307Y-105459069D01*
X101259102Y-105683097D01*
X101393820Y-105884717D01*
X101565283Y-106056180D01*
X101766903Y-106190898D01*
X101990931Y-106283693D01*
X102228757Y-106331000D01*
X102471243Y-106331000D01*
X102709069Y-106283693D01*
X102933097Y-106190898D01*
X103066744Y-106101598D01*
X102711167Y-106457176D01*
X102709069Y-106456307D01*
X102471243Y-106409000D01*
X102228757Y-106409000D01*
X101990931Y-106456307D01*
X101766903Y-106549102D01*
X101565283Y-106683820D01*
X101393820Y-106855283D01*
X101259102Y-107056903D01*
X101166307Y-107280931D01*
X101119000Y-107518757D01*
X101119000Y-107761243D01*
X101166307Y-107999069D01*
X101259102Y-108223097D01*
X101393820Y-108424717D01*
X101565283Y-108596180D01*
X101766903Y-108730898D01*
X101990931Y-108823693D01*
X102228757Y-108871000D01*
X102471243Y-108871000D01*
X102709069Y-108823693D01*
X102933097Y-108730898D01*
X103134717Y-108596180D01*
X103306180Y-108424717D01*
X103440898Y-108223097D01*
X103533693Y-107999069D01*
X103581000Y-107761243D01*
X103581000Y-107518757D01*
X103533693Y-107280931D01*
X103532824Y-107278833D01*
X103860658Y-106951000D01*
X121649864Y-106951000D01*
X121579102Y-107056903D01*
X121486307Y-107280931D01*
X121439000Y-107518757D01*
X121439000Y-107761243D01*
X121486307Y-107999069D01*
X121579102Y-108223097D01*
X121713820Y-108424717D01*
X121885283Y-108596180D01*
X122086903Y-108730898D01*
X122310931Y-108823693D01*
X122548757Y-108871000D01*
X122791243Y-108871000D01*
X123029069Y-108823693D01*
X123106167Y-108791758D01*
X123564628Y-109250220D01*
X123580473Y-109269527D01*
X123657521Y-109332759D01*
X123745425Y-109379745D01*
X123840806Y-109408678D01*
X123850694Y-109409652D01*
X123915146Y-109416000D01*
X123915153Y-109416000D01*
X123939999Y-109418447D01*
X123964845Y-109416000D01*
X129319977Y-109416000D01*
X129199102Y-109596903D01*
X129106307Y-109820931D01*
X129059000Y-110058757D01*
X129059000Y-110301243D01*
X129106307Y-110539069D01*
X129199102Y-110763097D01*
X129319977Y-110944000D01*
X124149592Y-110944000D01*
X123821758Y-110616167D01*
X123853693Y-110539069D01*
X123901000Y-110301243D01*
X123901000Y-110058757D01*
X123853693Y-109820931D01*
X123760898Y-109596903D01*
X123626180Y-109395283D01*
X123454717Y-109223820D01*
X123253097Y-109089102D01*
X123029069Y-108996307D01*
X122791243Y-108949000D01*
X122548757Y-108949000D01*
X122310931Y-108996307D01*
X122086903Y-109089102D01*
X121885283Y-109223820D01*
X121713820Y-109395283D01*
X121579102Y-109596903D01*
X121486307Y-109820931D01*
X121439000Y-110058757D01*
X121439000Y-110301243D01*
X121486307Y-110539069D01*
X121579102Y-110763097D01*
X121713820Y-110964717D01*
X121885283Y-111136180D01*
X122086903Y-111270898D01*
X122310931Y-111363693D01*
X122548757Y-111411000D01*
X122791243Y-111411000D01*
X123029069Y-111363693D01*
X123106167Y-111331758D01*
X123564628Y-111790220D01*
X123580473Y-111809527D01*
X123657521Y-111872759D01*
X123745425Y-111919745D01*
X123840806Y-111948678D01*
X123850694Y-111949652D01*
X123915146Y-111956000D01*
X123915153Y-111956000D01*
X123939999Y-111958447D01*
X123964845Y-111956000D01*
X129057157Y-111956000D01*
X129057157Y-113484000D01*
X124149592Y-113484000D01*
X123821758Y-113156167D01*
X123853693Y-113079069D01*
X123901000Y-112841243D01*
X123901000Y-112598757D01*
X123853693Y-112360931D01*
X123760898Y-112136903D01*
X123626180Y-111935283D01*
X123454717Y-111763820D01*
X123253097Y-111629102D01*
X123029069Y-111536307D01*
X122791243Y-111489000D01*
X122548757Y-111489000D01*
X122310931Y-111536307D01*
X122086903Y-111629102D01*
X121885283Y-111763820D01*
X121713820Y-111935283D01*
X121579102Y-112136903D01*
X121486307Y-112360931D01*
X121439000Y-112598757D01*
X121439000Y-112841243D01*
X121486307Y-113079069D01*
X121579102Y-113303097D01*
X121713820Y-113504717D01*
X121885283Y-113676180D01*
X122086903Y-113810898D01*
X122201168Y-113858228D01*
X122038748Y-113915843D01*
X121788645Y-114064822D01*
X121572412Y-114259731D01*
X121398359Y-114493080D01*
X121273175Y-114755901D01*
X121228524Y-114903110D01*
X121349845Y-115133000D01*
X122543000Y-115133000D01*
X122543000Y-115113000D01*
X122797000Y-115113000D01*
X122797000Y-115133000D01*
X123990155Y-115133000D01*
X124111476Y-114903110D01*
X124066825Y-114755901D01*
X123944009Y-114498052D01*
X123964845Y-114496000D01*
X149315154Y-114496000D01*
X149335991Y-114498052D01*
X149213175Y-114755901D01*
X149168524Y-114903110D01*
X149289845Y-115133000D01*
X150483000Y-115133000D01*
X150483000Y-115113000D01*
X150737000Y-115113000D01*
X150737000Y-115133000D01*
X151930155Y-115133000D01*
X152051476Y-114903110D01*
X152006825Y-114755901D01*
X151881641Y-114493080D01*
X151707588Y-114259731D01*
X151491355Y-114064822D01*
X151241252Y-113915843D01*
X151078832Y-113858228D01*
X151193097Y-113810898D01*
X151394717Y-113676180D01*
X151566180Y-113504717D01*
X151700898Y-113303097D01*
X151793693Y-113079069D01*
X151841000Y-112841243D01*
X151841000Y-112598757D01*
X151793693Y-112360931D01*
X151700898Y-112136903D01*
X151566180Y-111935283D01*
X151394717Y-111763820D01*
X151193097Y-111629102D01*
X150969069Y-111536307D01*
X150731243Y-111489000D01*
X150488757Y-111489000D01*
X150250931Y-111536307D01*
X150026903Y-111629102D01*
X149825283Y-111763820D01*
X149653820Y-111935283D01*
X149519102Y-112136903D01*
X149426307Y-112360931D01*
X149379000Y-112598757D01*
X149379000Y-112841243D01*
X149426307Y-113079069D01*
X149458242Y-113156167D01*
X149130409Y-113484000D01*
X131522843Y-113484000D01*
X131522843Y-111956000D01*
X149315154Y-111956000D01*
X149340000Y-111958447D01*
X149364846Y-111956000D01*
X149364854Y-111956000D01*
X149439193Y-111948678D01*
X149534575Y-111919745D01*
X149622479Y-111872759D01*
X149699527Y-111809527D01*
X149715376Y-111790215D01*
X150173833Y-111331758D01*
X150250931Y-111363693D01*
X150488757Y-111411000D01*
X150731243Y-111411000D01*
X150969069Y-111363693D01*
X151193097Y-111270898D01*
X151394717Y-111136180D01*
X151566180Y-110964717D01*
X151700898Y-110763097D01*
X151793693Y-110539069D01*
X151841000Y-110301243D01*
X151841000Y-110058757D01*
X151793693Y-109820931D01*
X151700898Y-109596903D01*
X151566180Y-109395283D01*
X151394717Y-109223820D01*
X151193097Y-109089102D01*
X150969069Y-108996307D01*
X150731243Y-108949000D01*
X150488757Y-108949000D01*
X150250931Y-108996307D01*
X150026903Y-109089102D01*
X149825283Y-109223820D01*
X149653820Y-109395283D01*
X149519102Y-109596903D01*
X149426307Y-109820931D01*
X149379000Y-110058757D01*
X149379000Y-110301243D01*
X149426307Y-110539069D01*
X149458242Y-110616167D01*
X149130409Y-110944000D01*
X131260023Y-110944000D01*
X131380898Y-110763097D01*
X131473693Y-110539069D01*
X131521000Y-110301243D01*
X131521000Y-110058757D01*
X131473693Y-109820931D01*
X131380898Y-109596903D01*
X131260023Y-109416000D01*
X149315154Y-109416000D01*
X149340000Y-109418447D01*
X149364846Y-109416000D01*
X149364854Y-109416000D01*
X149439193Y-109408678D01*
X149534575Y-109379745D01*
X149622479Y-109332759D01*
X149699527Y-109269527D01*
X149715376Y-109250215D01*
X150173833Y-108791758D01*
X150250931Y-108823693D01*
X150488757Y-108871000D01*
X150731243Y-108871000D01*
X150969069Y-108823693D01*
X151193097Y-108730898D01*
X151394717Y-108596180D01*
X151566180Y-108424717D01*
X151700898Y-108223097D01*
X151793693Y-107999069D01*
X151841000Y-107761243D01*
X151841000Y-107518757D01*
X151793693Y-107280931D01*
X151700898Y-107056903D01*
X151566180Y-106855283D01*
X151394717Y-106683820D01*
X151193097Y-106549102D01*
X150969069Y-106456307D01*
X150731243Y-106409000D01*
X150488757Y-106409000D01*
X150250931Y-106456307D01*
X150026903Y-106549102D01*
X149825283Y-106683820D01*
X149653820Y-106855283D01*
X149519102Y-107056903D01*
X149426307Y-107280931D01*
X149379000Y-107518757D01*
X149379000Y-107761243D01*
X149426307Y-107999069D01*
X149458242Y-108076167D01*
X149130409Y-108404000D01*
X131260023Y-108404000D01*
X131380898Y-108223097D01*
X131473693Y-107999069D01*
X131521000Y-107761243D01*
X131521000Y-107518757D01*
X131473693Y-107280931D01*
X131380898Y-107056903D01*
X131260023Y-106876000D01*
X149315154Y-106876000D01*
X149340000Y-106878447D01*
X149364846Y-106876000D01*
X149364854Y-106876000D01*
X149439193Y-106868678D01*
X149534575Y-106839745D01*
X149622479Y-106792759D01*
X149699527Y-106729527D01*
X149715376Y-106710215D01*
X150173833Y-106251758D01*
X150250931Y-106283693D01*
X150488757Y-106331000D01*
X150731243Y-106331000D01*
X150969069Y-106283693D01*
X151193097Y-106190898D01*
X151394717Y-106056180D01*
X151566180Y-105884717D01*
X151700898Y-105683097D01*
X151793693Y-105459069D01*
X151841000Y-105221243D01*
X151841000Y-104978757D01*
X151793693Y-104740931D01*
X151700898Y-104516903D01*
X151566180Y-104315283D01*
X151394717Y-104143820D01*
X151193097Y-104009102D01*
X150969069Y-103916307D01*
X150731243Y-103869000D01*
X150488757Y-103869000D01*
X150250931Y-103916307D01*
X150026903Y-104009102D01*
X149825283Y-104143820D01*
X149653820Y-104315283D01*
X149519102Y-104516903D01*
X149426307Y-104740931D01*
X149379000Y-104978757D01*
X149379000Y-105221243D01*
X149426307Y-105459069D01*
X149458242Y-105536167D01*
X149130409Y-105864000D01*
X131260023Y-105864000D01*
X131380898Y-105683097D01*
X131473693Y-105459069D01*
X131521000Y-105221243D01*
X131521000Y-104978757D01*
X131473693Y-104740931D01*
X131380898Y-104516903D01*
X131260023Y-104336000D01*
X149315154Y-104336000D01*
X149340000Y-104338447D01*
X149364846Y-104336000D01*
X149364854Y-104336000D01*
X149439193Y-104328678D01*
X149534575Y-104299745D01*
X149622479Y-104252759D01*
X149699527Y-104189527D01*
X149715376Y-104170215D01*
X150173833Y-103711758D01*
X150250931Y-103743693D01*
X150488757Y-103791000D01*
X150731243Y-103791000D01*
X150969069Y-103743693D01*
X151193097Y-103650898D01*
X151394717Y-103516180D01*
X151566180Y-103344717D01*
X151700898Y-103143097D01*
X151793693Y-102919069D01*
X151841000Y-102681243D01*
X151841000Y-102438757D01*
X151793693Y-102200931D01*
X151700898Y-101976903D01*
X151566180Y-101775283D01*
X151394717Y-101603820D01*
X151193097Y-101469102D01*
X150969069Y-101376307D01*
X150731243Y-101329000D01*
X150488757Y-101329000D01*
X150250931Y-101376307D01*
X150026903Y-101469102D01*
X149825283Y-101603820D01*
X149653820Y-101775283D01*
X149519102Y-101976903D01*
X149426307Y-102200931D01*
X149379000Y-102438757D01*
X149379000Y-102681243D01*
X149426307Y-102919069D01*
X149458242Y-102996167D01*
X149130409Y-103324000D01*
X131260023Y-103324000D01*
X131380898Y-103143097D01*
X131473693Y-102919069D01*
X131521000Y-102681243D01*
X131521000Y-102438757D01*
X131473693Y-102200931D01*
X131380898Y-101976903D01*
X131260023Y-101796000D01*
X149315154Y-101796000D01*
X149340000Y-101798447D01*
X149364846Y-101796000D01*
X149364854Y-101796000D01*
X149439193Y-101788678D01*
X149534575Y-101759745D01*
X149622479Y-101712759D01*
X149699527Y-101649527D01*
X149715376Y-101630215D01*
X150173833Y-101171758D01*
X150250931Y-101203693D01*
X150488757Y-101251000D01*
X150731243Y-101251000D01*
X150969069Y-101203693D01*
X151193097Y-101110898D01*
X151394717Y-100976180D01*
X151566180Y-100804717D01*
X151700898Y-100603097D01*
X151793693Y-100379069D01*
X151841000Y-100141243D01*
X151841000Y-99898757D01*
X151793693Y-99660931D01*
X151700898Y-99436903D01*
X151566180Y-99235283D01*
X151394717Y-99063820D01*
X151193097Y-98929102D01*
X150969069Y-98836307D01*
X150731243Y-98789000D01*
X150488757Y-98789000D01*
X150250931Y-98836307D01*
X150026903Y-98929102D01*
X149825283Y-99063820D01*
X149653820Y-99235283D01*
X149519102Y-99436903D01*
X149426307Y-99660931D01*
X149379000Y-99898757D01*
X149379000Y-100141243D01*
X149426307Y-100379069D01*
X149458242Y-100456167D01*
X149130409Y-100784000D01*
X131260023Y-100784000D01*
X131380898Y-100603097D01*
X131473693Y-100379069D01*
X131521000Y-100141243D01*
X131521000Y-99898757D01*
X131473693Y-99660931D01*
X131380898Y-99436903D01*
X131260023Y-99256000D01*
X149315154Y-99256000D01*
X149340000Y-99258447D01*
X149364846Y-99256000D01*
X149364854Y-99256000D01*
X149439193Y-99248678D01*
X149534575Y-99219745D01*
X149622479Y-99172759D01*
X149699527Y-99109527D01*
X149715376Y-99090215D01*
X150173833Y-98631758D01*
X150250931Y-98663693D01*
X150488757Y-98711000D01*
X150731243Y-98711000D01*
X150969069Y-98663693D01*
X151193097Y-98570898D01*
X151394717Y-98436180D01*
X151566180Y-98264717D01*
X151700898Y-98063097D01*
X151793693Y-97839069D01*
X151841000Y-97601243D01*
X151841000Y-97358757D01*
X151793693Y-97120931D01*
X151700898Y-96896903D01*
X151566180Y-96695283D01*
X151394717Y-96523820D01*
X151193097Y-96389102D01*
X150969069Y-96296307D01*
X150731243Y-96249000D01*
X150488757Y-96249000D01*
X150250931Y-96296307D01*
X150026903Y-96389102D01*
X149825283Y-96523820D01*
X149653820Y-96695283D01*
X149519102Y-96896903D01*
X149426307Y-97120931D01*
X149379000Y-97358757D01*
X149379000Y-97601243D01*
X149426307Y-97839069D01*
X149458242Y-97916167D01*
X149130409Y-98244000D01*
X131260023Y-98244000D01*
X131380898Y-98063097D01*
X131473693Y-97839069D01*
X131521000Y-97601243D01*
X131521000Y-97358757D01*
X131473693Y-97120931D01*
X131380898Y-96896903D01*
X131260023Y-96716000D01*
X149315154Y-96716000D01*
X149340000Y-96718447D01*
X149364846Y-96716000D01*
X149364854Y-96716000D01*
X149439193Y-96708678D01*
X149534575Y-96679745D01*
X149622479Y-96632759D01*
X149699527Y-96569527D01*
X149715376Y-96550215D01*
X150173833Y-96091758D01*
X150250931Y-96123693D01*
X150488757Y-96171000D01*
X150731243Y-96171000D01*
X150969069Y-96123693D01*
X151193097Y-96030898D01*
X151394717Y-95896180D01*
X151566180Y-95724717D01*
X151700898Y-95523097D01*
X151793693Y-95299069D01*
X151841000Y-95061243D01*
X151841000Y-94818757D01*
X151793693Y-94580931D01*
X151700898Y-94356903D01*
X151566180Y-94155283D01*
X151394717Y-93983820D01*
X151193097Y-93849102D01*
X150969069Y-93756307D01*
X150731243Y-93709000D01*
X150488757Y-93709000D01*
X150250931Y-93756307D01*
X150026903Y-93849102D01*
X149825283Y-93983820D01*
X149653820Y-94155283D01*
X149519102Y-94356903D01*
X149426307Y-94580931D01*
X149379000Y-94818757D01*
X149379000Y-95061243D01*
X149426307Y-95299069D01*
X149458242Y-95376167D01*
X149130409Y-95704000D01*
X131260023Y-95704000D01*
X131380898Y-95523097D01*
X131473693Y-95299069D01*
X131521000Y-95061243D01*
X131521000Y-94818757D01*
X131473693Y-94580931D01*
X131380898Y-94356903D01*
X131260023Y-94176000D01*
X149315154Y-94176000D01*
X149340000Y-94178447D01*
X149364846Y-94176000D01*
X149364854Y-94176000D01*
X149439193Y-94168678D01*
X149534575Y-94139745D01*
X149622479Y-94092759D01*
X149699527Y-94029527D01*
X149715376Y-94010215D01*
X150173833Y-93551758D01*
X150250931Y-93583693D01*
X150488757Y-93631000D01*
X150731243Y-93631000D01*
X150969069Y-93583693D01*
X151193097Y-93490898D01*
X151394717Y-93356180D01*
X151566180Y-93184717D01*
X151700898Y-92983097D01*
X151793693Y-92759069D01*
X151841000Y-92521243D01*
X151841000Y-92278757D01*
X151793693Y-92040931D01*
X151700898Y-91816903D01*
X151566180Y-91615283D01*
X151394717Y-91443820D01*
X151193097Y-91309102D01*
X150969069Y-91216307D01*
X150731243Y-91169000D01*
X150488757Y-91169000D01*
X150250931Y-91216307D01*
X150026903Y-91309102D01*
X149825283Y-91443820D01*
X149653820Y-91615283D01*
X149519102Y-91816903D01*
X149426307Y-92040931D01*
X149379000Y-92278757D01*
X149379000Y-92521243D01*
X149426307Y-92759069D01*
X149458242Y-92836167D01*
X149130409Y-93164000D01*
X131260023Y-93164000D01*
X131380898Y-92983097D01*
X131473693Y-92759069D01*
X131521000Y-92521243D01*
X131521000Y-92278757D01*
X131473693Y-92040931D01*
X131380898Y-91816903D01*
X131260023Y-91636000D01*
X149315154Y-91636000D01*
X149340000Y-91638447D01*
X149364846Y-91636000D01*
X149364854Y-91636000D01*
X149439193Y-91628678D01*
X149534575Y-91599745D01*
X149622479Y-91552759D01*
X149699527Y-91489527D01*
X149715376Y-91470215D01*
X150173833Y-91011758D01*
X150250931Y-91043693D01*
X150488757Y-91091000D01*
X150731243Y-91091000D01*
X150969069Y-91043693D01*
X151193097Y-90950898D01*
X151394717Y-90816180D01*
X151566180Y-90644717D01*
X151700898Y-90443097D01*
X151793693Y-90219069D01*
X151841000Y-89981243D01*
X151841000Y-89738757D01*
X151793693Y-89500931D01*
X151700898Y-89276903D01*
X151566180Y-89075283D01*
X151394717Y-88903820D01*
X151193097Y-88769102D01*
X150969069Y-88676307D01*
X150731243Y-88629000D01*
X150488757Y-88629000D01*
X150250931Y-88676307D01*
X150026903Y-88769102D01*
X149825283Y-88903820D01*
X149653820Y-89075283D01*
X149519102Y-89276903D01*
X149426307Y-89500931D01*
X149379000Y-89738757D01*
X149379000Y-89981243D01*
X149426307Y-90219069D01*
X149458242Y-90296167D01*
X149130409Y-90624000D01*
X131260023Y-90624000D01*
X131380898Y-90443097D01*
X131473693Y-90219069D01*
X131521000Y-89981243D01*
X131521000Y-89738757D01*
X131473693Y-89500931D01*
X131380898Y-89276903D01*
X131260023Y-89096000D01*
X149315154Y-89096000D01*
X149340000Y-89098447D01*
X149364846Y-89096000D01*
X149364854Y-89096000D01*
X149439193Y-89088678D01*
X149534575Y-89059745D01*
X149622479Y-89012759D01*
X149699527Y-88949527D01*
X149715376Y-88930215D01*
X150173833Y-88471758D01*
X150250931Y-88503693D01*
X150488757Y-88551000D01*
X150731243Y-88551000D01*
X150969069Y-88503693D01*
X151193097Y-88410898D01*
X151394717Y-88276180D01*
X151566180Y-88104717D01*
X151700898Y-87903097D01*
X151793693Y-87679069D01*
X151841000Y-87441243D01*
X151841000Y-87198757D01*
X151793693Y-86960931D01*
X151700898Y-86736903D01*
X151566180Y-86535283D01*
X151394717Y-86363820D01*
X151193097Y-86229102D01*
X151078832Y-86181772D01*
X151241252Y-86124157D01*
X151491355Y-85975178D01*
X151707588Y-85780269D01*
X151881641Y-85546920D01*
X152006825Y-85284099D01*
X152051476Y-85136890D01*
X151930155Y-84907000D01*
X150737000Y-84907000D01*
X150737000Y-84927000D01*
X150483000Y-84927000D01*
X150483000Y-84907000D01*
X149289845Y-84907000D01*
X149168524Y-85136890D01*
X149213175Y-85284099D01*
X149338359Y-85546920D01*
X149512412Y-85780269D01*
X149728645Y-85975178D01*
X149978748Y-86124157D01*
X150141168Y-86181772D01*
X150026903Y-86229102D01*
X149825283Y-86363820D01*
X149653820Y-86535283D01*
X149519102Y-86736903D01*
X149426307Y-86960931D01*
X149379000Y-87198757D01*
X149379000Y-87441243D01*
X149426307Y-87679069D01*
X149458242Y-87756167D01*
X149130409Y-88084000D01*
X131260023Y-88084000D01*
X131380898Y-87903097D01*
X131473693Y-87679069D01*
X131521000Y-87441243D01*
X131521000Y-87198757D01*
X131473693Y-86960931D01*
X131380898Y-86736903D01*
X131246180Y-86535283D01*
X131074717Y-86363820D01*
X130873097Y-86229102D01*
X130649069Y-86136307D01*
X130411243Y-86089000D01*
X130168757Y-86089000D01*
X129930931Y-86136307D01*
X129853833Y-86168242D01*
X129395376Y-85709785D01*
X129379527Y-85690473D01*
X129302479Y-85627241D01*
X129214575Y-85580255D01*
X129119193Y-85551322D01*
X129044854Y-85544000D01*
X129044846Y-85544000D01*
X129020000Y-85541553D01*
X128995154Y-85544000D01*
X123943032Y-85544000D01*
X124066825Y-85284099D01*
X124111476Y-85136890D01*
X123990155Y-84907000D01*
X122797000Y-84907000D01*
X122797000Y-84927000D01*
X122543000Y-84927000D01*
X122543000Y-84907000D01*
X121349845Y-84907000D01*
X121228524Y-85136890D01*
X121273175Y-85284099D01*
X121396968Y-85544000D01*
X103644845Y-85544000D01*
X103619999Y-85541553D01*
X103595153Y-85544000D01*
X103595146Y-85544000D01*
X103530694Y-85550348D01*
X103520806Y-85551322D01*
X103476648Y-85564717D01*
X103425425Y-85580255D01*
X103337521Y-85627241D01*
X103260473Y-85690473D01*
X103244628Y-85709780D01*
X102786167Y-86168242D01*
X102709069Y-86136307D01*
X102471243Y-86089000D01*
X102228757Y-86089000D01*
X101990931Y-86136307D01*
X101913833Y-86168242D01*
X101586000Y-85840409D01*
X101586000Y-85750023D01*
X101766903Y-85870898D01*
X101990931Y-85963693D01*
X102228757Y-86011000D01*
X102471243Y-86011000D01*
X102709069Y-85963693D01*
X102933097Y-85870898D01*
X103134717Y-85736180D01*
X103306180Y-85564717D01*
X103440898Y-85363097D01*
X103533693Y-85139069D01*
X103581000Y-84901243D01*
X103581000Y-84658757D01*
X103533693Y-84420931D01*
X103501758Y-84343833D01*
X103829592Y-84016000D01*
X121396968Y-84016000D01*
X121273175Y-84275901D01*
X121228524Y-84423110D01*
X121349845Y-84653000D01*
X122543000Y-84653000D01*
X122543000Y-84633000D01*
X122797000Y-84633000D01*
X122797000Y-84653000D01*
X123990155Y-84653000D01*
X124111476Y-84423110D01*
X124066825Y-84275901D01*
X123943032Y-84016000D01*
X128810409Y-84016000D01*
X129138242Y-84343833D01*
X129106307Y-84420931D01*
X129059000Y-84658757D01*
X129059000Y-84901243D01*
X129106307Y-85139069D01*
X129199102Y-85363097D01*
X129333820Y-85564717D01*
X129505283Y-85736180D01*
X129706903Y-85870898D01*
X129930931Y-85963693D01*
X130168757Y-86011000D01*
X130411243Y-86011000D01*
X130649069Y-85963693D01*
X130873097Y-85870898D01*
X131074717Y-85736180D01*
X131246180Y-85564717D01*
X131380898Y-85363097D01*
X131473693Y-85139069D01*
X131521000Y-84901243D01*
X131521000Y-84658757D01*
X131474127Y-84423110D01*
X149168524Y-84423110D01*
X149289845Y-84653000D01*
X150483000Y-84653000D01*
X150483000Y-83459186D01*
X150737000Y-83459186D01*
X150737000Y-84653000D01*
X151930155Y-84653000D01*
X152051476Y-84423110D01*
X152006825Y-84275901D01*
X151881641Y-84013080D01*
X151707588Y-83779731D01*
X151491355Y-83584822D01*
X151241252Y-83435843D01*
X150966891Y-83338519D01*
X150737000Y-83459186D01*
X150483000Y-83459186D01*
X150253109Y-83338519D01*
X149978748Y-83435843D01*
X149728645Y-83584822D01*
X149512412Y-83779731D01*
X149338359Y-84013080D01*
X149213175Y-84275901D01*
X149168524Y-84423110D01*
X131474127Y-84423110D01*
X131473693Y-84420931D01*
X131380898Y-84196903D01*
X131246180Y-83995283D01*
X131074717Y-83823820D01*
X130873097Y-83689102D01*
X130649069Y-83596307D01*
X130411243Y-83549000D01*
X130168757Y-83549000D01*
X129930931Y-83596307D01*
X129853833Y-83628242D01*
X129395376Y-83169785D01*
X129379527Y-83150473D01*
X129302479Y-83087241D01*
X129214575Y-83040255D01*
X129119193Y-83011322D01*
X129044854Y-83004000D01*
X129044846Y-83004000D01*
X129020000Y-83001553D01*
X128995154Y-83004000D01*
X104841592Y-83004000D01*
X105230220Y-82615372D01*
X105249527Y-82599527D01*
X105312759Y-82522479D01*
X105359745Y-82434575D01*
X105381944Y-82361393D01*
X105388678Y-82339194D01*
X105395741Y-82267481D01*
X105396000Y-82264854D01*
X105396000Y-82264847D01*
X105398447Y-82240001D01*
X105396000Y-82215155D01*
X105396000Y-82092832D01*
X105473097Y-82060898D01*
X105674717Y-81926180D01*
X105846180Y-81754717D01*
X105980898Y-81553097D01*
X106073693Y-81329069D01*
X106121000Y-81091243D01*
X106121000Y-80848757D01*
X106073693Y-80610931D01*
X105980898Y-80386903D01*
X105860023Y-80206000D01*
X105950409Y-80206000D01*
X106278242Y-80533833D01*
X106246307Y-80610931D01*
X106199000Y-80848757D01*
X106199000Y-81091243D01*
X106246307Y-81329069D01*
X106339102Y-81553097D01*
X106473820Y-81754717D01*
X106645283Y-81926180D01*
X106846903Y-82060898D01*
X107070931Y-82153693D01*
X107308757Y-82201000D01*
X107551243Y-82201000D01*
X107789069Y-82153693D01*
X108013097Y-82060898D01*
X108214717Y-81926180D01*
X108386180Y-81754717D01*
X108520898Y-81553097D01*
X108613693Y-81329069D01*
X108661000Y-81091243D01*
X108661000Y-80848757D01*
X108739000Y-80848757D01*
X108739000Y-81091243D01*
X108786307Y-81329069D01*
X108879102Y-81553097D01*
X109013820Y-81754717D01*
X109185283Y-81926180D01*
X109386903Y-82060898D01*
X109610931Y-82153693D01*
X109848757Y-82201000D01*
X110091243Y-82201000D01*
X110329069Y-82153693D01*
X110553097Y-82060898D01*
X110754717Y-81926180D01*
X110926180Y-81754717D01*
X111060898Y-81553097D01*
X111108228Y-81438832D01*
X111165843Y-81601252D01*
X111314822Y-81851355D01*
X111509731Y-82067588D01*
X111743080Y-82241641D01*
X112005901Y-82366825D01*
X112153110Y-82411476D01*
X112383000Y-82290155D01*
X112383000Y-81097000D01*
X112363000Y-81097000D01*
X112363000Y-80843000D01*
X112383000Y-80843000D01*
X112383000Y-80823000D01*
X112637000Y-80823000D01*
X112637000Y-80843000D01*
X112657000Y-80843000D01*
X112657000Y-81097000D01*
X112637000Y-81097000D01*
X112637000Y-82290155D01*
X112866890Y-82411476D01*
X113014099Y-82366825D01*
X113276920Y-82241641D01*
X113510269Y-82067588D01*
X113705178Y-81851355D01*
X113854157Y-81601252D01*
X113911772Y-81438832D01*
X113959102Y-81553097D01*
X114093820Y-81754717D01*
X114265283Y-81926180D01*
X114466903Y-82060898D01*
X114690931Y-82153693D01*
X114928757Y-82201000D01*
X115171243Y-82201000D01*
X115409069Y-82153693D01*
X115633097Y-82060898D01*
X115834717Y-81926180D01*
X116006180Y-81754717D01*
X116140898Y-81553097D01*
X116233693Y-81329069D01*
X116281000Y-81091243D01*
X116281000Y-80848757D01*
X116233693Y-80610931D01*
X116140898Y-80386903D01*
X116006180Y-80185283D01*
X115834717Y-80013820D01*
X115633097Y-79879102D01*
X115409069Y-79786307D01*
X115171243Y-79739000D01*
X114928757Y-79739000D01*
X114690931Y-79786307D01*
X114466903Y-79879102D01*
X114265283Y-80013820D01*
X114093820Y-80185283D01*
X113959102Y-80386903D01*
X113911772Y-80501168D01*
X113854157Y-80338748D01*
X113705178Y-80088645D01*
X113510269Y-79872412D01*
X113276920Y-79698359D01*
X113014099Y-79573175D01*
X112986846Y-79564909D01*
X113093097Y-79520898D01*
X113294717Y-79386180D01*
X113466180Y-79214717D01*
X113600898Y-79013097D01*
X113693693Y-78789069D01*
X113741000Y-78551243D01*
X113741000Y-78308757D01*
X113819000Y-78308757D01*
X113819000Y-78551243D01*
X113866307Y-78789069D01*
X113959102Y-79013097D01*
X114093820Y-79214717D01*
X114265283Y-79386180D01*
X114466903Y-79520898D01*
X114690931Y-79613693D01*
X114928757Y-79661000D01*
X115171243Y-79661000D01*
X115409069Y-79613693D01*
X115633097Y-79520898D01*
X115834717Y-79386180D01*
X116006180Y-79214717D01*
X116140898Y-79013097D01*
X116188228Y-78898832D01*
X116245843Y-79061252D01*
X116394822Y-79311355D01*
X116589731Y-79527588D01*
X116823080Y-79701641D01*
X117085901Y-79826825D01*
X117113154Y-79835091D01*
X117006903Y-79879102D01*
X116805283Y-80013820D01*
X116633820Y-80185283D01*
X116499102Y-80386903D01*
X116406307Y-80610931D01*
X116359000Y-80848757D01*
X116359000Y-81091243D01*
X116406307Y-81329069D01*
X116499102Y-81553097D01*
X116633820Y-81754717D01*
X116805283Y-81926180D01*
X117006903Y-82060898D01*
X117230931Y-82153693D01*
X117468757Y-82201000D01*
X117711243Y-82201000D01*
X117949069Y-82153693D01*
X118173097Y-82060898D01*
X118374717Y-81926180D01*
X118546180Y-81754717D01*
X118680898Y-81553097D01*
X118773693Y-81329069D01*
X118821000Y-81091243D01*
X118821000Y-80848757D01*
X118899000Y-80848757D01*
X118899000Y-81091243D01*
X118946307Y-81329069D01*
X119039102Y-81553097D01*
X119173820Y-81754717D01*
X119345283Y-81926180D01*
X119546903Y-82060898D01*
X119770931Y-82153693D01*
X120008757Y-82201000D01*
X120251243Y-82201000D01*
X120489069Y-82153693D01*
X120713097Y-82060898D01*
X120914717Y-81926180D01*
X121086180Y-81754717D01*
X121220898Y-81553097D01*
X121313693Y-81329069D01*
X121361000Y-81091243D01*
X121361000Y-80848757D01*
X121439000Y-80848757D01*
X121439000Y-81091243D01*
X121486307Y-81329069D01*
X121579102Y-81553097D01*
X121713820Y-81754717D01*
X121885283Y-81926180D01*
X122086903Y-82060898D01*
X122310931Y-82153693D01*
X122548757Y-82201000D01*
X122791243Y-82201000D01*
X123029069Y-82153693D01*
X123253097Y-82060898D01*
X123454717Y-81926180D01*
X123626180Y-81754717D01*
X123760898Y-81553097D01*
X123853693Y-81329069D01*
X123901000Y-81091243D01*
X123901000Y-80848757D01*
X123853693Y-80610931D01*
X123760898Y-80386903D01*
X123626180Y-80185283D01*
X123454717Y-80013820D01*
X123253097Y-79879102D01*
X123029069Y-79786307D01*
X122791243Y-79739000D01*
X122548757Y-79739000D01*
X122310931Y-79786307D01*
X122086903Y-79879102D01*
X121885283Y-80013820D01*
X121713820Y-80185283D01*
X121579102Y-80386903D01*
X121486307Y-80610931D01*
X121439000Y-80848757D01*
X121361000Y-80848757D01*
X121313693Y-80610931D01*
X121220898Y-80386903D01*
X121086180Y-80185283D01*
X120914717Y-80013820D01*
X120713097Y-79879102D01*
X120489069Y-79786307D01*
X120251243Y-79739000D01*
X120008757Y-79739000D01*
X119770931Y-79786307D01*
X119546903Y-79879102D01*
X119345283Y-80013820D01*
X119173820Y-80185283D01*
X119039102Y-80386903D01*
X118946307Y-80610931D01*
X118899000Y-80848757D01*
X118821000Y-80848757D01*
X118773693Y-80610931D01*
X118680898Y-80386903D01*
X118546180Y-80185283D01*
X118374717Y-80013820D01*
X118173097Y-79879102D01*
X118066846Y-79835091D01*
X118094099Y-79826825D01*
X118356920Y-79701641D01*
X118590269Y-79527588D01*
X118785178Y-79311355D01*
X118934157Y-79061252D01*
X118991772Y-78898832D01*
X119039102Y-79013097D01*
X119173820Y-79214717D01*
X119345283Y-79386180D01*
X119546903Y-79520898D01*
X119770931Y-79613693D01*
X120008757Y-79661000D01*
X120251243Y-79661000D01*
X120489069Y-79613693D01*
X120713097Y-79520898D01*
X120914717Y-79386180D01*
X121086180Y-79214717D01*
X121220898Y-79013097D01*
X121313693Y-78789069D01*
X121361000Y-78551243D01*
X121361000Y-78308757D01*
X121439000Y-78308757D01*
X121439000Y-78551243D01*
X121486307Y-78789069D01*
X121579102Y-79013097D01*
X121713820Y-79214717D01*
X121885283Y-79386180D01*
X122086903Y-79520898D01*
X122310931Y-79613693D01*
X122548757Y-79661000D01*
X122791243Y-79661000D01*
X123029069Y-79613693D01*
X123253097Y-79520898D01*
X123454717Y-79386180D01*
X123626180Y-79214717D01*
X123760898Y-79013097D01*
X123808228Y-78898832D01*
X123865843Y-79061252D01*
X124014822Y-79311355D01*
X124209731Y-79527588D01*
X124443080Y-79701641D01*
X124705901Y-79826825D01*
X124733154Y-79835091D01*
X124626903Y-79879102D01*
X124425283Y-80013820D01*
X124253820Y-80185283D01*
X124119102Y-80386903D01*
X124026307Y-80610931D01*
X123979000Y-80848757D01*
X123979000Y-81091243D01*
X124026307Y-81329069D01*
X124119102Y-81553097D01*
X124253820Y-81754717D01*
X124425283Y-81926180D01*
X124626903Y-82060898D01*
X124850931Y-82153693D01*
X125088757Y-82201000D01*
X125331243Y-82201000D01*
X125569069Y-82153693D01*
X125793097Y-82060898D01*
X125994717Y-81926180D01*
X126166180Y-81754717D01*
X126300898Y-81553097D01*
X126393693Y-81329069D01*
X126441000Y-81091243D01*
X126441000Y-80848757D01*
X126519000Y-80848757D01*
X126519000Y-81091243D01*
X126566307Y-81329069D01*
X126659102Y-81553097D01*
X126793820Y-81754717D01*
X126965283Y-81926180D01*
X127166903Y-82060898D01*
X127390931Y-82153693D01*
X127628757Y-82201000D01*
X127871243Y-82201000D01*
X128109069Y-82153693D01*
X128333097Y-82060898D01*
X128534717Y-81926180D01*
X128706180Y-81754717D01*
X128840898Y-81553097D01*
X128933693Y-81329069D01*
X128981000Y-81091243D01*
X128981000Y-80848757D01*
X129059000Y-80848757D01*
X129059000Y-81091243D01*
X129106307Y-81329069D01*
X129199102Y-81553097D01*
X129333820Y-81754717D01*
X129505283Y-81926180D01*
X129706903Y-82060898D01*
X129833858Y-82113484D01*
X129792141Y-82141358D01*
X129683358Y-82250141D01*
X129597887Y-82378058D01*
X129539013Y-82520191D01*
X129509000Y-82671078D01*
X129509000Y-82824922D01*
X129539013Y-82975809D01*
X129597887Y-83117942D01*
X129683358Y-83245859D01*
X129792141Y-83354642D01*
X129920058Y-83440113D01*
X130062191Y-83498987D01*
X130213078Y-83529000D01*
X130366922Y-83529000D01*
X130517809Y-83498987D01*
X130659942Y-83440113D01*
X130787859Y-83354642D01*
X130896642Y-83245859D01*
X130982113Y-83117942D01*
X131040987Y-82975809D01*
X131071000Y-82824922D01*
X131071000Y-82682591D01*
X131761595Y-81991997D01*
X131829731Y-82067588D01*
X132063080Y-82241641D01*
X132325901Y-82366825D01*
X132473110Y-82411476D01*
X132703000Y-82290155D01*
X132703000Y-81097000D01*
X132683000Y-81097000D01*
X132683000Y-80843000D01*
X132703000Y-80843000D01*
X132703000Y-80823000D01*
X132957000Y-80823000D01*
X132957000Y-80843000D01*
X132977000Y-80843000D01*
X132977000Y-81097000D01*
X132957000Y-81097000D01*
X132957000Y-82290155D01*
X133186890Y-82411476D01*
X133334099Y-82366825D01*
X133596920Y-82241641D01*
X133830269Y-82067588D01*
X134025178Y-81851355D01*
X134174157Y-81601252D01*
X134231772Y-81438832D01*
X134279102Y-81553097D01*
X134413820Y-81754717D01*
X134585283Y-81926180D01*
X134786903Y-82060898D01*
X135010931Y-82153693D01*
X135248757Y-82201000D01*
X135491243Y-82201000D01*
X135729069Y-82153693D01*
X135953097Y-82060898D01*
X136154717Y-81926180D01*
X136326180Y-81754717D01*
X136460898Y-81553097D01*
X136553693Y-81329069D01*
X136601000Y-81091243D01*
X136601000Y-80848757D01*
X136553693Y-80610931D01*
X136460898Y-80386903D01*
X136326180Y-80185283D01*
X136154717Y-80013820D01*
X135953097Y-79879102D01*
X135729069Y-79786307D01*
X135491243Y-79739000D01*
X135248757Y-79739000D01*
X135010931Y-79786307D01*
X134786903Y-79879102D01*
X134585283Y-80013820D01*
X134413820Y-80185283D01*
X134279102Y-80386903D01*
X134231772Y-80501168D01*
X134174157Y-80338748D01*
X134096325Y-80208085D01*
X134100000Y-80208447D01*
X134124846Y-80206000D01*
X134124854Y-80206000D01*
X134199193Y-80198678D01*
X134294575Y-80169745D01*
X134382479Y-80122759D01*
X134459527Y-80059527D01*
X134475376Y-80040215D01*
X134933833Y-79581758D01*
X135010931Y-79613693D01*
X135248757Y-79661000D01*
X135491243Y-79661000D01*
X135729069Y-79613693D01*
X135953097Y-79520898D01*
X136154717Y-79386180D01*
X136326180Y-79214717D01*
X136460898Y-79013097D01*
X136508228Y-78898832D01*
X136565843Y-79061252D01*
X136714822Y-79311355D01*
X136909731Y-79527588D01*
X137143080Y-79701641D01*
X137405901Y-79826825D01*
X137433154Y-79835091D01*
X137326903Y-79879102D01*
X137125283Y-80013820D01*
X136953820Y-80185283D01*
X136819102Y-80386903D01*
X136726307Y-80610931D01*
X136679000Y-80848757D01*
X136679000Y-81091243D01*
X136726307Y-81329069D01*
X136819102Y-81553097D01*
X136953820Y-81754717D01*
X137125283Y-81926180D01*
X137326903Y-82060898D01*
X137550931Y-82153693D01*
X137788757Y-82201000D01*
X138031243Y-82201000D01*
X138269069Y-82153693D01*
X138493097Y-82060898D01*
X138694717Y-81926180D01*
X138866180Y-81754717D01*
X139000898Y-81553097D01*
X139093693Y-81329069D01*
X139141000Y-81091243D01*
X139141000Y-80848757D01*
X139219000Y-80848757D01*
X139219000Y-81091243D01*
X139266307Y-81329069D01*
X139359102Y-81553097D01*
X139493820Y-81754717D01*
X139665283Y-81926180D01*
X139866903Y-82060898D01*
X140090931Y-82153693D01*
X140328757Y-82201000D01*
X140571243Y-82201000D01*
X140809069Y-82153693D01*
X141033097Y-82060898D01*
X141234717Y-81926180D01*
X141406180Y-81754717D01*
X141540898Y-81553097D01*
X141633693Y-81329069D01*
X141681000Y-81091243D01*
X141681000Y-80848757D01*
X141633693Y-80610931D01*
X141540898Y-80386903D01*
X141406180Y-80185283D01*
X141234717Y-80013820D01*
X141033097Y-79879102D01*
X140809069Y-79786307D01*
X140571243Y-79739000D01*
X140328757Y-79739000D01*
X140090931Y-79786307D01*
X139866903Y-79879102D01*
X139665283Y-80013820D01*
X139493820Y-80185283D01*
X139359102Y-80386903D01*
X139266307Y-80610931D01*
X139219000Y-80848757D01*
X139141000Y-80848757D01*
X139093693Y-80610931D01*
X139000898Y-80386903D01*
X138866180Y-80185283D01*
X138694717Y-80013820D01*
X138493097Y-79879102D01*
X138386846Y-79835091D01*
X138414099Y-79826825D01*
X138676920Y-79701641D01*
X138910269Y-79527588D01*
X139105178Y-79311355D01*
X139254157Y-79061252D01*
X139311772Y-78898832D01*
X139359102Y-79013097D01*
X139493820Y-79214717D01*
X139665283Y-79386180D01*
X139866903Y-79520898D01*
X140090931Y-79613693D01*
X140328757Y-79661000D01*
X140571243Y-79661000D01*
X140809069Y-79613693D01*
X141033097Y-79520898D01*
X141234717Y-79386180D01*
X141406180Y-79214717D01*
X141540898Y-79013097D01*
X141588228Y-78898832D01*
X141645843Y-79061252D01*
X141794822Y-79311355D01*
X141989731Y-79527588D01*
X142223080Y-79701641D01*
X142485901Y-79826825D01*
X142513154Y-79835091D01*
X142406903Y-79879102D01*
X142205283Y-80013820D01*
X142033820Y-80185283D01*
X141899102Y-80386903D01*
X141806307Y-80610931D01*
X141759000Y-80848757D01*
X141759000Y-81091243D01*
X141806307Y-81329069D01*
X141899102Y-81553097D01*
X142033820Y-81754717D01*
X142205283Y-81926180D01*
X142406903Y-82060898D01*
X142630931Y-82153693D01*
X142868757Y-82201000D01*
X143111243Y-82201000D01*
X143349069Y-82153693D01*
X143573097Y-82060898D01*
X143774717Y-81926180D01*
X143946180Y-81754717D01*
X144080898Y-81553097D01*
X144173693Y-81329069D01*
X144221000Y-81091243D01*
X144221000Y-80848757D01*
X144299000Y-80848757D01*
X144299000Y-81091243D01*
X144346307Y-81329069D01*
X144439102Y-81553097D01*
X144573820Y-81754717D01*
X144745283Y-81926180D01*
X144946903Y-82060898D01*
X145170931Y-82153693D01*
X145408757Y-82201000D01*
X145651243Y-82201000D01*
X145889069Y-82153693D01*
X146113097Y-82060898D01*
X146314717Y-81926180D01*
X146486180Y-81754717D01*
X146620898Y-81553097D01*
X146713693Y-81329069D01*
X146761000Y-81091243D01*
X146761000Y-80848757D01*
X146839000Y-80848757D01*
X146839000Y-81091243D01*
X146886307Y-81329069D01*
X146979102Y-81553097D01*
X147113820Y-81754717D01*
X147285283Y-81926180D01*
X147486903Y-82060898D01*
X147710931Y-82153693D01*
X147948757Y-82201000D01*
X148191243Y-82201000D01*
X148429069Y-82153693D01*
X148653097Y-82060898D01*
X148854717Y-81926180D01*
X149026180Y-81754717D01*
X149160898Y-81553097D01*
X149208228Y-81438832D01*
X149265843Y-81601252D01*
X149414822Y-81851355D01*
X149609731Y-82067588D01*
X149843080Y-82241641D01*
X150105901Y-82366825D01*
X150253110Y-82411476D01*
X150483000Y-82290155D01*
X150483000Y-81097000D01*
X150737000Y-81097000D01*
X150737000Y-82290155D01*
X150966890Y-82411476D01*
X151114099Y-82366825D01*
X151376920Y-82241641D01*
X151610269Y-82067588D01*
X151630292Y-82045374D01*
X153314231Y-82045374D01*
X153614411Y-82483828D01*
X154193356Y-82794296D01*
X154821746Y-82985852D01*
X155475431Y-83051134D01*
X156129293Y-82987634D01*
X156758203Y-82797792D01*
X157337992Y-82488904D01*
X157345589Y-82483828D01*
X157645769Y-82045374D01*
X155480000Y-79879605D01*
X153314231Y-82045374D01*
X151630292Y-82045374D01*
X151805178Y-81851355D01*
X151954157Y-81601252D01*
X152051481Y-81326891D01*
X151930814Y-81097000D01*
X150737000Y-81097000D01*
X150483000Y-81097000D01*
X150463000Y-81097000D01*
X150463000Y-80843000D01*
X150483000Y-80843000D01*
X150483000Y-80823000D01*
X150737000Y-80823000D01*
X150737000Y-80843000D01*
X151930814Y-80843000D01*
X152051481Y-80613109D01*
X151954157Y-80338748D01*
X151805178Y-80088645D01*
X151610269Y-79872412D01*
X151376920Y-79698359D01*
X151370773Y-79695431D01*
X152128866Y-79695431D01*
X152192366Y-80349293D01*
X152382208Y-80978203D01*
X152691096Y-81557992D01*
X152696172Y-81565589D01*
X153134626Y-81865769D01*
X155300395Y-79700000D01*
X153134626Y-77534231D01*
X152696172Y-77834411D01*
X152385704Y-78413356D01*
X152194148Y-79041746D01*
X152128866Y-79695431D01*
X151370773Y-79695431D01*
X151114099Y-79573175D01*
X151086846Y-79564909D01*
X151193097Y-79520898D01*
X151394717Y-79386180D01*
X151566180Y-79214717D01*
X151700898Y-79013097D01*
X151793693Y-78789069D01*
X151841000Y-78551243D01*
X151841000Y-78308757D01*
X151793693Y-78070931D01*
X151700898Y-77846903D01*
X151566180Y-77645283D01*
X151394717Y-77473820D01*
X151193097Y-77339102D01*
X150969069Y-77246307D01*
X150731243Y-77199000D01*
X150488757Y-77199000D01*
X150250931Y-77246307D01*
X150026903Y-77339102D01*
X149825283Y-77473820D01*
X149653820Y-77645283D01*
X149519102Y-77846903D01*
X149426307Y-78070931D01*
X149379000Y-78308757D01*
X149379000Y-78551243D01*
X149426307Y-78789069D01*
X149519102Y-79013097D01*
X149653820Y-79214717D01*
X149825283Y-79386180D01*
X150026903Y-79520898D01*
X150133154Y-79564909D01*
X150105901Y-79573175D01*
X149843080Y-79698359D01*
X149609731Y-79872412D01*
X149414822Y-80088645D01*
X149265843Y-80338748D01*
X149208228Y-80501168D01*
X149160898Y-80386903D01*
X149026180Y-80185283D01*
X148854717Y-80013820D01*
X148653097Y-79879102D01*
X148429069Y-79786307D01*
X148191243Y-79739000D01*
X147948757Y-79739000D01*
X147710931Y-79786307D01*
X147486903Y-79879102D01*
X147285283Y-80013820D01*
X147113820Y-80185283D01*
X146979102Y-80386903D01*
X146886307Y-80610931D01*
X146839000Y-80848757D01*
X146761000Y-80848757D01*
X146713693Y-80610931D01*
X146620898Y-80386903D01*
X146486180Y-80185283D01*
X146314717Y-80013820D01*
X146113097Y-79879102D01*
X145889069Y-79786307D01*
X145651243Y-79739000D01*
X145408757Y-79739000D01*
X145170931Y-79786307D01*
X144946903Y-79879102D01*
X144745283Y-80013820D01*
X144573820Y-80185283D01*
X144439102Y-80386903D01*
X144346307Y-80610931D01*
X144299000Y-80848757D01*
X144221000Y-80848757D01*
X144173693Y-80610931D01*
X144080898Y-80386903D01*
X143946180Y-80185283D01*
X143774717Y-80013820D01*
X143573097Y-79879102D01*
X143466846Y-79835091D01*
X143494099Y-79826825D01*
X143756920Y-79701641D01*
X143990269Y-79527588D01*
X144185178Y-79311355D01*
X144334157Y-79061252D01*
X144391772Y-78898832D01*
X144439102Y-79013097D01*
X144573820Y-79214717D01*
X144745283Y-79386180D01*
X144946903Y-79520898D01*
X145170931Y-79613693D01*
X145408757Y-79661000D01*
X145651243Y-79661000D01*
X145889069Y-79613693D01*
X146113097Y-79520898D01*
X146314717Y-79386180D01*
X146486180Y-79214717D01*
X146620898Y-79013097D01*
X146713693Y-78789069D01*
X146761000Y-78551243D01*
X146761000Y-78308757D01*
X146839000Y-78308757D01*
X146839000Y-78551243D01*
X146886307Y-78789069D01*
X146979102Y-79013097D01*
X147113820Y-79214717D01*
X147285283Y-79386180D01*
X147486903Y-79520898D01*
X147710931Y-79613693D01*
X147948757Y-79661000D01*
X148191243Y-79661000D01*
X148429069Y-79613693D01*
X148653097Y-79520898D01*
X148854717Y-79386180D01*
X149026180Y-79214717D01*
X149160898Y-79013097D01*
X149253693Y-78789069D01*
X149301000Y-78551243D01*
X149301000Y-78308757D01*
X149253693Y-78070931D01*
X149160898Y-77846903D01*
X149026180Y-77645283D01*
X148854717Y-77473820D01*
X148653097Y-77339102D01*
X148429069Y-77246307D01*
X148191243Y-77199000D01*
X147948757Y-77199000D01*
X147710931Y-77246307D01*
X147486903Y-77339102D01*
X147285283Y-77473820D01*
X147113820Y-77645283D01*
X146979102Y-77846903D01*
X146886307Y-78070931D01*
X146839000Y-78308757D01*
X146761000Y-78308757D01*
X146713693Y-78070931D01*
X146620898Y-77846903D01*
X146486180Y-77645283D01*
X146314717Y-77473820D01*
X146113097Y-77339102D01*
X145889069Y-77246307D01*
X145651243Y-77199000D01*
X145408757Y-77199000D01*
X145170931Y-77246307D01*
X144946903Y-77339102D01*
X144745283Y-77473820D01*
X144573820Y-77645283D01*
X144439102Y-77846903D01*
X144391772Y-77961168D01*
X144334157Y-77798748D01*
X144185178Y-77548645D01*
X143990269Y-77332412D01*
X143756920Y-77158359D01*
X143494099Y-77033175D01*
X143346890Y-76988524D01*
X143117000Y-77109845D01*
X143117000Y-78303000D01*
X143137000Y-78303000D01*
X143137000Y-78557000D01*
X143117000Y-78557000D01*
X143117000Y-78577000D01*
X142863000Y-78577000D01*
X142863000Y-78557000D01*
X142843000Y-78557000D01*
X142843000Y-78303000D01*
X142863000Y-78303000D01*
X142863000Y-77109845D01*
X142633110Y-76988524D01*
X142485901Y-77033175D01*
X142223080Y-77158359D01*
X141989731Y-77332412D01*
X141794822Y-77548645D01*
X141645843Y-77798748D01*
X141588228Y-77961168D01*
X141540898Y-77846903D01*
X141406180Y-77645283D01*
X141234717Y-77473820D01*
X141033097Y-77339102D01*
X140809069Y-77246307D01*
X140571243Y-77199000D01*
X140328757Y-77199000D01*
X140090931Y-77246307D01*
X139866903Y-77339102D01*
X139665283Y-77473820D01*
X139493820Y-77645283D01*
X139359102Y-77846903D01*
X139311772Y-77961168D01*
X139254157Y-77798748D01*
X139105178Y-77548645D01*
X138910269Y-77332412D01*
X138676920Y-77158359D01*
X138414099Y-77033175D01*
X138266890Y-76988524D01*
X138037000Y-77109845D01*
X138037000Y-78303000D01*
X138057000Y-78303000D01*
X138057000Y-78557000D01*
X138037000Y-78557000D01*
X138037000Y-78577000D01*
X137783000Y-78577000D01*
X137783000Y-78557000D01*
X137763000Y-78557000D01*
X137763000Y-78303000D01*
X137783000Y-78303000D01*
X137783000Y-77109845D01*
X137553110Y-76988524D01*
X137405901Y-77033175D01*
X137143080Y-77158359D01*
X136909731Y-77332412D01*
X136714822Y-77548645D01*
X136565843Y-77798748D01*
X136508228Y-77961168D01*
X136460898Y-77846903D01*
X136326180Y-77645283D01*
X136154717Y-77473820D01*
X135953097Y-77339102D01*
X135729069Y-77246307D01*
X135491243Y-77199000D01*
X135248757Y-77199000D01*
X135010931Y-77246307D01*
X134786903Y-77339102D01*
X134585283Y-77473820D01*
X134413820Y-77645283D01*
X134279102Y-77846903D01*
X134186307Y-78070931D01*
X134139000Y-78308757D01*
X134139000Y-78551243D01*
X134186307Y-78789069D01*
X134218242Y-78866167D01*
X133890409Y-79194000D01*
X133800023Y-79194000D01*
X133920898Y-79013097D01*
X134013693Y-78789069D01*
X134061000Y-78551243D01*
X134061000Y-78308757D01*
X134013693Y-78070931D01*
X133920898Y-77846903D01*
X133786180Y-77645283D01*
X133614717Y-77473820D01*
X133413097Y-77339102D01*
X133189069Y-77246307D01*
X132951243Y-77199000D01*
X132708757Y-77199000D01*
X132470931Y-77246307D01*
X132246903Y-77339102D01*
X132045283Y-77473820D01*
X131873820Y-77645283D01*
X131739102Y-77846903D01*
X131646307Y-78070931D01*
X131599000Y-78308757D01*
X131599000Y-78551243D01*
X131646307Y-78789069D01*
X131739102Y-79013097D01*
X131873820Y-79214717D01*
X132000617Y-79341514D01*
X131985627Y-79359779D01*
X131219785Y-80125622D01*
X131201514Y-80140617D01*
X131074717Y-80013820D01*
X130873097Y-79879102D01*
X130649069Y-79786307D01*
X130411243Y-79739000D01*
X130168757Y-79739000D01*
X129930931Y-79786307D01*
X129706903Y-79879102D01*
X129505283Y-80013820D01*
X129333820Y-80185283D01*
X129199102Y-80386903D01*
X129106307Y-80610931D01*
X129059000Y-80848757D01*
X128981000Y-80848757D01*
X128933693Y-80610931D01*
X128840898Y-80386903D01*
X128706180Y-80185283D01*
X128534717Y-80013820D01*
X128333097Y-79879102D01*
X128109069Y-79786307D01*
X127871243Y-79739000D01*
X127628757Y-79739000D01*
X127390931Y-79786307D01*
X127166903Y-79879102D01*
X126965283Y-80013820D01*
X126793820Y-80185283D01*
X126659102Y-80386903D01*
X126566307Y-80610931D01*
X126519000Y-80848757D01*
X126441000Y-80848757D01*
X126393693Y-80610931D01*
X126300898Y-80386903D01*
X126166180Y-80185283D01*
X125994717Y-80013820D01*
X125793097Y-79879102D01*
X125686846Y-79835091D01*
X125714099Y-79826825D01*
X125976920Y-79701641D01*
X126210269Y-79527588D01*
X126405178Y-79311355D01*
X126554157Y-79061252D01*
X126611772Y-78898832D01*
X126659102Y-79013097D01*
X126793820Y-79214717D01*
X126965283Y-79386180D01*
X127166903Y-79520898D01*
X127390931Y-79613693D01*
X127628757Y-79661000D01*
X127871243Y-79661000D01*
X128109069Y-79613693D01*
X128333097Y-79520898D01*
X128534717Y-79386180D01*
X128706180Y-79214717D01*
X128840898Y-79013097D01*
X128933693Y-78789069D01*
X128981000Y-78551243D01*
X128981000Y-78308757D01*
X129059000Y-78308757D01*
X129059000Y-78551243D01*
X129106307Y-78789069D01*
X129199102Y-79013097D01*
X129333820Y-79214717D01*
X129505283Y-79386180D01*
X129706903Y-79520898D01*
X129930931Y-79613693D01*
X130168757Y-79661000D01*
X130411243Y-79661000D01*
X130649069Y-79613693D01*
X130873097Y-79520898D01*
X131074717Y-79386180D01*
X131246180Y-79214717D01*
X131380898Y-79013097D01*
X131473693Y-78789069D01*
X131521000Y-78551243D01*
X131521000Y-78308757D01*
X131473693Y-78070931D01*
X131380898Y-77846903D01*
X131246180Y-77645283D01*
X131074717Y-77473820D01*
X130873097Y-77339102D01*
X130649069Y-77246307D01*
X130411243Y-77199000D01*
X130168757Y-77199000D01*
X129930931Y-77246307D01*
X129706903Y-77339102D01*
X129505283Y-77473820D01*
X129333820Y-77645283D01*
X129199102Y-77846903D01*
X129106307Y-78070931D01*
X129059000Y-78308757D01*
X128981000Y-78308757D01*
X128933693Y-78070931D01*
X128840898Y-77846903D01*
X128706180Y-77645283D01*
X128534717Y-77473820D01*
X128333097Y-77339102D01*
X128109069Y-77246307D01*
X127871243Y-77199000D01*
X127628757Y-77199000D01*
X127390931Y-77246307D01*
X127166903Y-77339102D01*
X126965283Y-77473820D01*
X126793820Y-77645283D01*
X126659102Y-77846903D01*
X126611772Y-77961168D01*
X126554157Y-77798748D01*
X126405178Y-77548645D01*
X126210269Y-77332412D01*
X125976920Y-77158359D01*
X125714099Y-77033175D01*
X125566890Y-76988524D01*
X125337000Y-77109845D01*
X125337000Y-78303000D01*
X125357000Y-78303000D01*
X125357000Y-78557000D01*
X125337000Y-78557000D01*
X125337000Y-78577000D01*
X125083000Y-78577000D01*
X125083000Y-78557000D01*
X125063000Y-78557000D01*
X125063000Y-78303000D01*
X125083000Y-78303000D01*
X125083000Y-77109845D01*
X124853110Y-76988524D01*
X124705901Y-77033175D01*
X124443080Y-77158359D01*
X124209731Y-77332412D01*
X124014822Y-77548645D01*
X123865843Y-77798748D01*
X123808228Y-77961168D01*
X123760898Y-77846903D01*
X123626180Y-77645283D01*
X123454717Y-77473820D01*
X123253097Y-77339102D01*
X123029069Y-77246307D01*
X122791243Y-77199000D01*
X122548757Y-77199000D01*
X122310931Y-77246307D01*
X122086903Y-77339102D01*
X121885283Y-77473820D01*
X121713820Y-77645283D01*
X121579102Y-77846903D01*
X121486307Y-78070931D01*
X121439000Y-78308757D01*
X121361000Y-78308757D01*
X121313693Y-78070931D01*
X121220898Y-77846903D01*
X121086180Y-77645283D01*
X120914717Y-77473820D01*
X120713097Y-77339102D01*
X120489069Y-77246307D01*
X120251243Y-77199000D01*
X120008757Y-77199000D01*
X119770931Y-77246307D01*
X119546903Y-77339102D01*
X119345283Y-77473820D01*
X119173820Y-77645283D01*
X119039102Y-77846903D01*
X118991772Y-77961168D01*
X118934157Y-77798748D01*
X118785178Y-77548645D01*
X118590269Y-77332412D01*
X118356920Y-77158359D01*
X118094099Y-77033175D01*
X117946890Y-76988524D01*
X117717000Y-77109845D01*
X117717000Y-78303000D01*
X117737000Y-78303000D01*
X117737000Y-78557000D01*
X117717000Y-78557000D01*
X117717000Y-78577000D01*
X117463000Y-78577000D01*
X117463000Y-78557000D01*
X117443000Y-78557000D01*
X117443000Y-78303000D01*
X117463000Y-78303000D01*
X117463000Y-77109845D01*
X117233110Y-76988524D01*
X117085901Y-77033175D01*
X116823080Y-77158359D01*
X116589731Y-77332412D01*
X116394822Y-77548645D01*
X116245843Y-77798748D01*
X116188228Y-77961168D01*
X116140898Y-77846903D01*
X116006180Y-77645283D01*
X115834717Y-77473820D01*
X115633097Y-77339102D01*
X115409069Y-77246307D01*
X115171243Y-77199000D01*
X114928757Y-77199000D01*
X114690931Y-77246307D01*
X114466903Y-77339102D01*
X114265283Y-77473820D01*
X114093820Y-77645283D01*
X113959102Y-77846903D01*
X113866307Y-78070931D01*
X113819000Y-78308757D01*
X113741000Y-78308757D01*
X113693693Y-78070931D01*
X113600898Y-77846903D01*
X113466180Y-77645283D01*
X113294717Y-77473820D01*
X113093097Y-77339102D01*
X112869069Y-77246307D01*
X112631243Y-77199000D01*
X112388757Y-77199000D01*
X112150931Y-77246307D01*
X111926903Y-77339102D01*
X111725283Y-77473820D01*
X111553820Y-77645283D01*
X111419102Y-77846903D01*
X111326307Y-78070931D01*
X111279000Y-78308757D01*
X111279000Y-78551243D01*
X111326307Y-78789069D01*
X111419102Y-79013097D01*
X111553820Y-79214717D01*
X111725283Y-79386180D01*
X111926903Y-79520898D01*
X112033154Y-79564909D01*
X112005901Y-79573175D01*
X111743080Y-79698359D01*
X111509731Y-79872412D01*
X111314822Y-80088645D01*
X111165843Y-80338748D01*
X111108228Y-80501168D01*
X111060898Y-80386903D01*
X110926180Y-80185283D01*
X110754717Y-80013820D01*
X110553097Y-79879102D01*
X110329069Y-79786307D01*
X110091243Y-79739000D01*
X109848757Y-79739000D01*
X109610931Y-79786307D01*
X109386903Y-79879102D01*
X109185283Y-80013820D01*
X109013820Y-80185283D01*
X108879102Y-80386903D01*
X108786307Y-80610931D01*
X108739000Y-80848757D01*
X108661000Y-80848757D01*
X108613693Y-80610931D01*
X108520898Y-80386903D01*
X108386180Y-80185283D01*
X108214717Y-80013820D01*
X108013097Y-79879102D01*
X107906846Y-79835091D01*
X107934099Y-79826825D01*
X108196920Y-79701641D01*
X108430269Y-79527588D01*
X108625178Y-79311355D01*
X108774157Y-79061252D01*
X108831772Y-78898832D01*
X108879102Y-79013097D01*
X109013820Y-79214717D01*
X109185283Y-79386180D01*
X109386903Y-79520898D01*
X109610931Y-79613693D01*
X109848757Y-79661000D01*
X110091243Y-79661000D01*
X110329069Y-79613693D01*
X110553097Y-79520898D01*
X110754717Y-79386180D01*
X110926180Y-79214717D01*
X111060898Y-79013097D01*
X111153693Y-78789069D01*
X111201000Y-78551243D01*
X111201000Y-78308757D01*
X111153693Y-78070931D01*
X111060898Y-77846903D01*
X110926180Y-77645283D01*
X110754717Y-77473820D01*
X110553097Y-77339102D01*
X110329069Y-77246307D01*
X110091243Y-77199000D01*
X109848757Y-77199000D01*
X109610931Y-77246307D01*
X109386903Y-77339102D01*
X109185283Y-77473820D01*
X109013820Y-77645283D01*
X108879102Y-77846903D01*
X108831772Y-77961168D01*
X108774157Y-77798748D01*
X108625178Y-77548645D01*
X108430269Y-77332412D01*
X108196920Y-77158359D01*
X107934099Y-77033175D01*
X107786890Y-76988524D01*
X107557000Y-77109845D01*
X107557000Y-78303000D01*
X107577000Y-78303000D01*
X107577000Y-78557000D01*
X107557000Y-78557000D01*
X107557000Y-78577000D01*
X107303000Y-78577000D01*
X107303000Y-78557000D01*
X107283000Y-78557000D01*
X107283000Y-78303000D01*
X107303000Y-78303000D01*
X107303000Y-77109845D01*
X107073110Y-76988524D01*
X106925901Y-77033175D01*
X106663080Y-77158359D01*
X106429731Y-77332412D01*
X106234822Y-77548645D01*
X106085843Y-77798748D01*
X106028228Y-77961168D01*
X105980898Y-77846903D01*
X105846180Y-77645283D01*
X105674717Y-77473820D01*
X105473097Y-77339102D01*
X105249069Y-77246307D01*
X105011243Y-77199000D01*
X104768757Y-77199000D01*
X104530931Y-77246307D01*
X104306903Y-77339102D01*
X104105283Y-77473820D01*
X103933820Y-77645283D01*
X103799102Y-77846903D01*
X103706307Y-78070931D01*
X103659000Y-78308757D01*
X103659000Y-78551243D01*
X103706307Y-78789069D01*
X103799102Y-79013097D01*
X103933820Y-79214717D01*
X104042852Y-79323749D01*
X104022473Y-79340473D01*
X104006629Y-79359779D01*
X103491630Y-79874779D01*
X103470711Y-79849289D01*
X103412696Y-79801678D01*
X103346508Y-79766299D01*
X103274689Y-79744513D01*
X103200000Y-79737157D01*
X101500000Y-79737157D01*
X101425311Y-79744513D01*
X101353492Y-79766299D01*
X101287304Y-79801678D01*
X101229289Y-79849289D01*
X101181678Y-79907304D01*
X101146299Y-79973492D01*
X101124513Y-80045311D01*
X101117157Y-80120000D01*
X101117157Y-81381185D01*
X99927356Y-82570987D01*
X99905184Y-82589183D01*
X99847612Y-82659335D01*
X99832579Y-82677653D01*
X99778629Y-82778586D01*
X99745407Y-82888105D01*
X99734189Y-83002000D01*
X97981365Y-83002000D01*
X98129293Y-82987634D01*
X98758203Y-82797792D01*
X99337992Y-82488904D01*
X99345589Y-82483828D01*
X99645769Y-82045374D01*
X97480000Y-79879605D01*
X95314231Y-82045374D01*
X94386000Y-82045374D01*
X94386000Y-80985321D01*
X94691096Y-81557992D01*
X94696172Y-81565589D01*
X95134626Y-81865769D01*
X97300395Y-79700000D01*
X97659605Y-79700000D01*
X99825374Y-81865769D01*
X100263828Y-81565589D01*
X100574296Y-80986644D01*
X100765852Y-80358254D01*
X100831134Y-79704569D01*
X100767634Y-79050707D01*
X100577792Y-78421797D01*
X100517569Y-78308757D01*
X101119000Y-78308757D01*
X101119000Y-78551243D01*
X101166307Y-78789069D01*
X101259102Y-79013097D01*
X101393820Y-79214717D01*
X101565283Y-79386180D01*
X101766903Y-79520898D01*
X101990931Y-79613693D01*
X102228757Y-79661000D01*
X102471243Y-79661000D01*
X102709069Y-79613693D01*
X102933097Y-79520898D01*
X103134717Y-79386180D01*
X103306180Y-79214717D01*
X103440898Y-79013097D01*
X103533693Y-78789069D01*
X103581000Y-78551243D01*
X103581000Y-78308757D01*
X103533693Y-78070931D01*
X103440898Y-77846903D01*
X103306180Y-77645283D01*
X103134717Y-77473820D01*
X102933097Y-77339102D01*
X102709069Y-77246307D01*
X102471243Y-77199000D01*
X102228757Y-77199000D01*
X101990931Y-77246307D01*
X101766903Y-77339102D01*
X101565283Y-77473820D01*
X101393820Y-77645283D01*
X101259102Y-77846903D01*
X101166307Y-78070931D01*
X101119000Y-78308757D01*
X100517569Y-78308757D01*
X100268904Y-77842008D01*
X100263828Y-77834411D01*
X99825374Y-77534231D01*
X97659605Y-79700000D01*
X97300395Y-79700000D01*
X97286253Y-79685858D01*
X97465858Y-79506253D01*
X97480000Y-79520395D01*
X99645769Y-77354626D01*
X99345589Y-76916172D01*
X98767196Y-76606000D01*
X154194679Y-76606000D01*
X153622008Y-76911096D01*
G37*
X153622008Y-76911096D02*
X153614411Y-76916172D01*
X153314231Y-77354626D01*
X155480000Y-79520395D01*
X155494143Y-79506253D01*
X155673748Y-79685858D01*
X155659605Y-79700000D01*
X157825374Y-81865769D01*
X158263828Y-81565589D01*
X158574001Y-80987194D01*
X158574000Y-127414679D01*
X158268904Y-126842008D01*
X158263828Y-126834411D01*
X157825374Y-126534231D01*
X155659605Y-128700000D01*
X155673748Y-128714143D01*
X155494143Y-128893748D01*
X155480000Y-128879605D01*
X153314231Y-131045374D01*
X153614411Y-131483828D01*
X154192804Y-131794000D01*
X98765321Y-131794000D01*
X99337992Y-131488904D01*
X99345589Y-131483828D01*
X99645769Y-131045374D01*
X97480000Y-128879605D01*
X97465858Y-128893748D01*
X97286253Y-128714143D01*
X97300395Y-128700000D01*
X97659605Y-128700000D01*
X99825374Y-130865769D01*
X100263828Y-130565589D01*
X100574296Y-129986644D01*
X100765852Y-129358254D01*
X100831134Y-128704569D01*
X100830247Y-128695431D01*
X152128866Y-128695431D01*
X152192366Y-129349293D01*
X152382208Y-129978203D01*
X152691096Y-130557992D01*
X152696172Y-130565589D01*
X153134626Y-130865769D01*
X155300395Y-128700000D01*
X153134626Y-126534231D01*
X152696172Y-126834411D01*
X152385704Y-127413356D01*
X152194148Y-128041746D01*
X152128866Y-128695431D01*
X100830247Y-128695431D01*
X100767634Y-128050707D01*
X100577792Y-127421797D01*
X100268904Y-126842008D01*
X100263828Y-126834411D01*
X99825374Y-126534231D01*
X97659605Y-128700000D01*
X97300395Y-128700000D01*
X95134626Y-126534231D01*
X94696172Y-126834411D01*
X94386000Y-127412804D01*
X94386000Y-126354626D01*
X95314231Y-126354626D01*
X97480000Y-128520395D01*
X99645769Y-126354626D01*
X153314231Y-126354626D01*
X155480000Y-128520395D01*
X157645769Y-126354626D01*
X157345589Y-125916172D01*
X156766644Y-125605704D01*
X156138254Y-125414148D01*
X155484569Y-125348866D01*
X154830707Y-125412366D01*
X154201797Y-125602208D01*
X153622008Y-125911096D01*
X153614411Y-125916172D01*
X153314231Y-126354626D01*
X99645769Y-126354626D01*
X99345589Y-125916172D01*
X98766644Y-125605704D01*
X98138254Y-125414148D01*
X97484569Y-125348866D01*
X96830707Y-125412366D01*
X96201797Y-125602208D01*
X95622008Y-125911096D01*
X95614411Y-125916172D01*
X95314231Y-126354626D01*
X94386000Y-126354626D01*
X94386000Y-82045374D01*
X95314231Y-82045374D01*
X95614411Y-82483828D01*
X96193356Y-82794296D01*
X96821746Y-82985852D01*
X97475431Y-83051134D01*
X97981365Y-83002000D01*
X99734189Y-83002000D01*
X99737001Y-83030550D01*
X99737000Y-113961460D01*
X99734189Y-113990000D01*
X99737000Y-114018539D01*
X99745407Y-114103895D01*
X99778629Y-114213414D01*
X99832579Y-114314347D01*
X99905183Y-114402817D01*
X99927360Y-114421017D01*
X107308987Y-121802645D01*
X107327183Y-121824817D01*
X107415652Y-121897421D01*
X107516585Y-121951371D01*
X107626104Y-121984593D01*
X107739999Y-121995811D01*
X107768539Y-121993000D01*
X121440801Y-121993000D01*
X121437157Y-122030000D01*
X121437157Y-123730000D01*
X121444513Y-123804689D01*
X121466299Y-123876508D01*
X121501678Y-123942696D01*
X121549289Y-124000711D01*
X121607304Y-124048322D01*
X121673492Y-124083701D01*
X121745311Y-124105487D01*
X121820000Y-124112843D01*
X123520000Y-124112843D01*
X123594689Y-124105487D01*
X123666508Y-124083701D01*
X123732696Y-124048322D01*
X123790711Y-124000711D01*
X123838322Y-123942696D01*
X123873701Y-123876508D01*
X123895487Y-123804689D01*
X123902843Y-123730000D01*
X123902843Y-122030000D01*
X123899199Y-121993000D01*
X149380801Y-121993000D01*
X149377157Y-122030000D01*
X149377157Y-123730000D01*
X149384513Y-123804689D01*
X149406299Y-123876508D01*
X149441678Y-123942696D01*
X149489289Y-124000711D01*
X149547304Y-124048322D01*
X149613492Y-124083701D01*
X149685311Y-124105487D01*
X149760000Y-124112843D01*
X151460000Y-124112843D01*
X151534689Y-124105487D01*
X151606508Y-124083701D01*
X151672696Y-124048322D01*
X151730711Y-124000711D01*
X151778322Y-123942696D01*
X151813701Y-123876508D01*
X151835487Y-123804689D01*
X151842843Y-123730000D01*
X151842843Y-122030000D01*
X151835487Y-121955311D01*
X151813701Y-121883492D01*
X151778322Y-121817304D01*
X151730711Y-121759289D01*
X151672696Y-121711678D01*
X151606508Y-121676299D01*
X151534689Y-121654513D01*
X151460000Y-121647157D01*
X150124500Y-121647157D01*
X150248833Y-121522824D01*
X150250931Y-121523693D01*
X150488757Y-121571000D01*
X150731243Y-121571000D01*
X150969069Y-121523693D01*
X151193097Y-121430898D01*
X151394717Y-121296180D01*
X151566180Y-121124717D01*
X151700898Y-120923097D01*
X151793693Y-120699069D01*
X151841000Y-120461243D01*
X151841000Y-120218757D01*
X151793693Y-119980931D01*
X151700898Y-119756903D01*
X151566180Y-119555283D01*
X151394717Y-119383820D01*
X151193097Y-119249102D01*
X150969069Y-119156307D01*
X150731243Y-119109000D01*
X150488757Y-119109000D01*
X150250931Y-119156307D01*
X150026903Y-119249102D01*
X149825283Y-119383820D01*
X149653820Y-119555283D01*
X149519102Y-119756903D01*
X149426307Y-119980931D01*
X149379000Y-120218757D01*
X149379000Y-120461243D01*
X149426307Y-120699069D01*
X149427176Y-120701167D01*
X149297343Y-120831000D01*
X123982658Y-120831000D01*
X123852824Y-120701166D01*
X123853693Y-120699069D01*
X123901000Y-120461243D01*
X123901000Y-120218757D01*
X123853693Y-119980931D01*
X123760898Y-119756903D01*
X123626180Y-119555283D01*
X123454717Y-119383820D01*
X123253097Y-119249102D01*
X123029069Y-119156307D01*
X122791243Y-119109000D01*
X122548757Y-119109000D01*
X122310931Y-119156307D01*
X122086903Y-119249102D01*
X121885283Y-119383820D01*
X121713820Y-119555283D01*
X121579102Y-119756903D01*
X121486307Y-119980931D01*
X121439000Y-120218757D01*
X121439000Y-120461243D01*
X121486307Y-120699069D01*
X121487176Y-120701167D01*
X121357343Y-120831000D01*
X107980658Y-120831000D01*
X102766548Y-115616890D01*
X121228524Y-115616890D01*
X121273175Y-115764099D01*
X121398359Y-116026920D01*
X121572412Y-116260269D01*
X121788645Y-116455178D01*
X122038748Y-116604157D01*
X122201168Y-116661772D01*
X122086903Y-116709102D01*
X121885283Y-116843820D01*
X121713820Y-117015283D01*
X121579102Y-117216903D01*
X121486307Y-117440931D01*
X121439000Y-117678757D01*
X121439000Y-117921243D01*
X121486307Y-118159069D01*
X121579102Y-118383097D01*
X121713820Y-118584717D01*
X121885283Y-118756180D01*
X122086903Y-118890898D01*
X122310931Y-118983693D01*
X122548757Y-119031000D01*
X122791243Y-119031000D01*
X123029069Y-118983693D01*
X123253097Y-118890898D01*
X123454717Y-118756180D01*
X123626180Y-118584717D01*
X123760898Y-118383097D01*
X123853693Y-118159069D01*
X123901000Y-117921243D01*
X123901000Y-117678757D01*
X123853693Y-117440931D01*
X123760898Y-117216903D01*
X123626180Y-117015283D01*
X123454717Y-116843820D01*
X123253097Y-116709102D01*
X123138832Y-116661772D01*
X123301252Y-116604157D01*
X123551355Y-116455178D01*
X123767588Y-116260269D01*
X123941641Y-116026920D01*
X124066825Y-115764099D01*
X124111476Y-115616890D01*
X149168524Y-115616890D01*
X149213175Y-115764099D01*
X149338359Y-116026920D01*
X149512412Y-116260269D01*
X149728645Y-116455178D01*
X149978748Y-116604157D01*
X150141168Y-116661772D01*
X150026903Y-116709102D01*
X149825283Y-116843820D01*
X149653820Y-117015283D01*
X149519102Y-117216903D01*
X149426307Y-117440931D01*
X149379000Y-117678757D01*
X149379000Y-117921243D01*
X149426307Y-118159069D01*
X149519102Y-118383097D01*
X149653820Y-118584717D01*
X149825283Y-118756180D01*
X150026903Y-118890898D01*
X150250931Y-118983693D01*
X150488757Y-119031000D01*
X150731243Y-119031000D01*
X150969069Y-118983693D01*
X151193097Y-118890898D01*
X151394717Y-118756180D01*
X151566180Y-118584717D01*
X151700898Y-118383097D01*
X151793693Y-118159069D01*
X151841000Y-117921243D01*
X151841000Y-117678757D01*
X151793693Y-117440931D01*
X151700898Y-117216903D01*
X151566180Y-117015283D01*
X151394717Y-116843820D01*
X151193097Y-116709102D01*
X151078832Y-116661772D01*
X151241252Y-116604157D01*
X151491355Y-116455178D01*
X151707588Y-116260269D01*
X151881641Y-116026920D01*
X152006825Y-115764099D01*
X152051476Y-115616890D01*
X151930155Y-115387000D01*
X150737000Y-115387000D01*
X150737000Y-115407000D01*
X150483000Y-115407000D01*
X150483000Y-115387000D01*
X149289845Y-115387000D01*
X149168524Y-115616890D01*
X124111476Y-115616890D01*
X123990155Y-115387000D01*
X122797000Y-115387000D01*
X122797000Y-115407000D01*
X122543000Y-115407000D01*
X122543000Y-115387000D01*
X121349845Y-115387000D01*
X121228524Y-115616890D01*
X102766548Y-115616890D01*
X100899000Y-113749343D01*
X100899000Y-111870000D01*
X101117157Y-111870000D01*
X101117157Y-113570000D01*
X101124513Y-113644689D01*
X101146299Y-113716508D01*
X101181678Y-113782696D01*
X101229289Y-113840711D01*
X101287304Y-113888322D01*
X101353492Y-113923701D01*
X101425311Y-113945487D01*
X101500000Y-113952843D01*
X103200000Y-113952843D01*
X103274689Y-113945487D01*
X103346508Y-113923701D01*
X103412696Y-113888322D01*
X103470711Y-113840711D01*
X103518322Y-113782696D01*
X103553701Y-113716508D01*
X103575487Y-113644689D01*
X103582843Y-113570000D01*
X103582843Y-111870000D01*
X103575487Y-111795311D01*
X103553701Y-111723492D01*
X103518322Y-111657304D01*
X103470711Y-111599289D01*
X103412696Y-111551678D01*
X103346508Y-111516299D01*
X103274689Y-111494513D01*
X103200000Y-111487157D01*
X101500000Y-111487157D01*
X101425311Y-111494513D01*
X101353492Y-111516299D01*
X101287304Y-111551678D01*
X101229289Y-111599289D01*
X101181678Y-111657304D01*
X101146299Y-111723492D01*
X101124513Y-111795311D01*
X101117157Y-111870000D01*
X100899000Y-111870000D01*
X100899000Y-110058757D01*
X101119000Y-110058757D01*
X101119000Y-110301243D01*
X101166307Y-110539069D01*
X101259102Y-110763097D01*
X101393820Y-110964717D01*
X101565283Y-111136180D01*
X101766903Y-111270898D01*
X101990931Y-111363693D01*
X102228757Y-111411000D01*
X102471243Y-111411000D01*
X102709069Y-111363693D01*
X102933097Y-111270898D01*
X103134717Y-111136180D01*
X103306180Y-110964717D01*
X103440898Y-110763097D01*
X103533693Y-110539069D01*
X103581000Y-110301243D01*
X103581000Y-110058757D01*
X103533693Y-109820931D01*
X103440898Y-109596903D01*
X103306180Y-109395283D01*
X103134717Y-109223820D01*
X102933097Y-109089102D01*
X102709069Y-108996307D01*
X102471243Y-108949000D01*
X102228757Y-108949000D01*
X101990931Y-108996307D01*
X101766903Y-109089102D01*
X101565283Y-109223820D01*
X101393820Y-109395283D01*
X101259102Y-109596903D01*
X101166307Y-109820931D01*
X101119000Y-110058757D01*
X100899000Y-110058757D01*
X100899000Y-86584591D01*
X101198242Y-86883833D01*
X101166307Y-86960931D01*
X101119000Y-87198757D01*
X101119000Y-87441243D01*
X101166307Y-87679069D01*
X101259102Y-87903097D01*
X101393820Y-88104717D01*
X101565283Y-88276180D01*
X101766903Y-88410898D01*
X101990931Y-88503693D01*
X102228757Y-88551000D01*
X102471243Y-88551000D01*
X102709069Y-88503693D01*
X102933097Y-88410898D01*
X103134717Y-88276180D01*
X103306180Y-88104717D01*
X103440898Y-87903097D01*
X103533693Y-87679069D01*
X103581000Y-87441243D01*
X103581000Y-87198757D01*
X103533693Y-86960931D01*
X103501758Y-86883833D01*
X103829592Y-86556000D01*
X121699977Y-86556000D01*
X121579102Y-86736903D01*
X121486307Y-86960931D01*
X121439000Y-87198757D01*
X121439000Y-87441243D01*
X121486307Y-87679069D01*
X121579102Y-87903097D01*
X121699977Y-88084000D01*
X103644845Y-88084000D01*
X103619999Y-88081553D01*
X103595153Y-88084000D01*
X103595146Y-88084000D01*
X103530694Y-88090348D01*
X103520806Y-88091322D01*
X103476648Y-88104717D01*
X103425425Y-88120255D01*
X103337521Y-88167241D01*
X103260473Y-88230473D01*
X103244630Y-88249778D01*
X102786167Y-88708242D01*
X102709069Y-88676307D01*
X102471243Y-88629000D01*
X102228757Y-88629000D01*
X101990931Y-88676307D01*
X101766903Y-88769102D01*
X101565283Y-88903820D01*
X101393820Y-89075283D01*
X101259102Y-89276903D01*
X101166307Y-89500931D01*
X101119000Y-89738757D01*
X101119000Y-89981243D01*
X101166307Y-90219069D01*
X101259102Y-90443097D01*
X101393820Y-90644717D01*
X101565283Y-90816180D01*
X101766903Y-90950898D01*
X101990931Y-91043693D01*
X102228757Y-91091000D01*
X102471243Y-91091000D01*
X102709069Y-91043693D01*
X102933097Y-90950898D01*
X103134717Y-90816180D01*
X103306180Y-90644717D01*
X103440898Y-90443097D01*
X103533693Y-90219069D01*
X103581000Y-89981243D01*
X103581000Y-89738757D01*
X103533693Y-89500931D01*
X103501758Y-89423833D01*
X103829592Y-89096000D01*
X121699977Y-89096000D01*
X121579102Y-89276903D01*
X121486307Y-89500931D01*
X121439000Y-89738757D01*
X121439000Y-89981243D01*
X121486307Y-90219069D01*
X121579102Y-90443097D01*
X121699977Y-90624000D01*
X103644845Y-90624000D01*
X103619999Y-90621553D01*
X103595153Y-90624000D01*
X103595146Y-90624000D01*
X103530694Y-90630348D01*
X103520806Y-90631322D01*
X103476648Y-90644717D01*
X103425425Y-90660255D01*
X103337521Y-90707241D01*
X103260473Y-90770473D01*
X103244630Y-90789778D01*
X102786167Y-91248242D01*
X102709069Y-91216307D01*
X102471243Y-91169000D01*
X102228757Y-91169000D01*
X101990931Y-91216307D01*
X101766903Y-91309102D01*
X101565283Y-91443820D01*
X101393820Y-91615283D01*
X101259102Y-91816903D01*
X101166307Y-92040931D01*
X101119000Y-92278757D01*
X101119000Y-92521243D01*
X101166307Y-92759069D01*
X101259102Y-92983097D01*
X101393820Y-93184717D01*
X101565283Y-93356180D01*
X101766903Y-93490898D01*
X101990931Y-93583693D01*
X102228757Y-93631000D01*
X102471243Y-93631000D01*
X102709069Y-93583693D01*
X102933097Y-93490898D01*
X103134717Y-93356180D01*
X103306180Y-93184717D01*
X103440898Y-92983097D01*
X103533693Y-92759069D01*
X103581000Y-92521243D01*
X103581000Y-92278757D01*
X103533693Y-92040931D01*
X103501758Y-91963833D01*
X103829592Y-91636000D01*
X121699977Y-91636000D01*
X121579102Y-91816903D01*
X121486307Y-92040931D01*
X121439000Y-92278757D01*
X121439000Y-92521243D01*
X121486307Y-92759069D01*
X121579102Y-92983097D01*
X121699977Y-93164000D01*
X103644845Y-93164000D01*
X103619999Y-93161553D01*
X103595153Y-93164000D01*
X103595146Y-93164000D01*
X103530694Y-93170348D01*
X103520806Y-93171322D01*
X103476648Y-93184717D01*
X103425425Y-93200255D01*
X103337521Y-93247241D01*
X103260473Y-93310473D01*
X103244630Y-93329778D01*
X102786167Y-93788242D01*
X102709069Y-93756307D01*
X102471243Y-93709000D01*
X102228757Y-93709000D01*
X101990931Y-93756307D01*
X101766903Y-93849102D01*
X101565283Y-93983820D01*
X101393820Y-94155283D01*
X101259102Y-94356903D01*
X101166307Y-94580931D01*
X101119000Y-94818757D01*
X101119000Y-95061243D01*
X101166307Y-95299069D01*
X101259102Y-95523097D01*
X101393820Y-95724717D01*
X101565283Y-95896180D01*
X101766903Y-96030898D01*
X101990931Y-96123693D01*
X102228757Y-96171000D01*
X102471243Y-96171000D01*
X102709069Y-96123693D01*
X102933097Y-96030898D01*
X103134717Y-95896180D01*
X103306180Y-95724717D01*
X103440898Y-95523097D01*
X103533693Y-95299069D01*
X103581000Y-95061243D01*
X103581000Y-94818757D01*
X103533693Y-94580931D01*
X103501758Y-94503833D01*
X103829592Y-94176000D01*
X121699977Y-94176000D01*
X121579102Y-94356903D01*
X121486307Y-94580931D01*
X121439000Y-94818757D01*
X121439000Y-95061243D01*
X121486307Y-95299069D01*
X121579102Y-95523097D01*
X121699977Y-95704000D01*
X103644845Y-95704000D01*
X103619999Y-95701553D01*
X103595153Y-95704000D01*
X103595146Y-95704000D01*
X103530694Y-95710348D01*
X103520806Y-95711322D01*
X103476648Y-95724717D01*
X103425425Y-95740255D01*
X103337521Y-95787241D01*
X103260473Y-95850473D01*
X103244630Y-95869778D01*
X102786167Y-96328242D01*
X102709069Y-96296307D01*
X102471243Y-96249000D01*
X102228757Y-96249000D01*
X101990931Y-96296307D01*
X101766903Y-96389102D01*
X101565283Y-96523820D01*
X101393820Y-96695283D01*
X101259102Y-96896903D01*
X101166307Y-97120931D01*
X101119000Y-97358757D01*
X101119000Y-97601243D01*
X101166307Y-97839069D01*
X101259102Y-98063097D01*
X101393820Y-98264717D01*
X101565283Y-98436180D01*
X101766903Y-98570898D01*
X101990931Y-98663693D01*
X102228757Y-98711000D01*
X102471243Y-98711000D01*
X102709069Y-98663693D01*
X102933097Y-98570898D01*
X103134717Y-98436180D01*
X103306180Y-98264717D01*
X103440898Y-98063097D01*
X103533693Y-97839069D01*
X103581000Y-97601243D01*
X103581000Y-97358757D01*
X103533693Y-97120931D01*
X103501758Y-97043833D01*
X103829592Y-96716000D01*
X121699977Y-96716000D01*
X121579102Y-96896903D01*
X121486307Y-97120931D01*
X121439000Y-97358757D01*
X121439000Y-97601243D01*
X121486307Y-97839069D01*
X121579102Y-98063097D01*
X121699977Y-98244000D01*
X103644845Y-98244000D01*
X103619999Y-98241553D01*
X103595153Y-98244000D01*
X103595146Y-98244000D01*
X103530694Y-98250348D01*
X103520806Y-98251322D01*
X103476648Y-98264717D01*
X103425425Y-98280255D01*
X103337521Y-98327241D01*
X103260473Y-98390473D01*
X103244630Y-98409778D01*
X102786167Y-98868242D01*
X102709069Y-98836307D01*
X102471243Y-98789000D01*
X102228757Y-98789000D01*
X101990931Y-98836307D01*
X101766903Y-98929102D01*
X101565283Y-99063820D01*
X101393820Y-99235283D01*
X101259102Y-99436903D01*
X101166307Y-99660931D01*
X101119000Y-99898757D01*
X101119000Y-100141243D01*
X101166307Y-100379069D01*
X101259102Y-100603097D01*
X101393820Y-100804717D01*
X101565283Y-100976180D01*
X101766903Y-101110898D01*
X101990931Y-101203693D01*
X102228757Y-101251000D01*
X102471243Y-101251000D01*
X102709069Y-101203693D01*
X102933097Y-101110898D01*
X103134717Y-100976180D01*
X103306180Y-100804717D01*
X103440898Y-100603097D01*
X103533693Y-100379069D01*
X103581000Y-100141243D01*
X103581000Y-99898757D01*
X103533693Y-99660931D01*
X103501758Y-99583833D01*
X103829592Y-99256000D01*
X121699977Y-99256000D01*
X121579102Y-99436903D01*
X121486307Y-99660931D01*
X121439000Y-99898757D01*
X121439000Y-100141243D01*
X121486307Y-100379069D01*
X121579102Y-100603097D01*
X121699977Y-100784000D01*
X103644845Y-100784000D01*
X103619999Y-100781553D01*
X103595153Y-100784000D01*
X103595146Y-100784000D01*
X103530694Y-100790348D01*
X103520806Y-100791322D01*
X103476648Y-100804717D01*
X103425425Y-100820255D01*
X103337521Y-100867241D01*
X103260473Y-100930473D01*
X103244630Y-100949778D01*
X102786167Y-101408242D01*
X102709069Y-101376307D01*
X102471243Y-101329000D01*
X102228757Y-101329000D01*
X101990931Y-101376307D01*
X101766903Y-101469102D01*
X101565283Y-101603820D01*
X101393820Y-101775283D01*
X101259102Y-101976903D01*
X101166307Y-102200931D01*
X101119000Y-102438757D01*
X101119000Y-102681243D01*
X101166307Y-102919069D01*
X101259102Y-103143097D01*
X101393820Y-103344717D01*
X101565283Y-103516180D01*
X101766903Y-103650898D01*
X101990931Y-103743693D01*
X102228757Y-103791000D01*
X102471243Y-103791000D01*
X102709069Y-103743693D01*
X102933097Y-103650898D01*
X103134717Y-103516180D01*
X103306180Y-103344717D01*
X103440898Y-103143097D01*
X103533693Y-102919069D01*
X103581000Y-102681243D01*
X103581000Y-102438757D01*
X103533693Y-102200931D01*
X103501758Y-102123833D01*
X103829592Y-101796000D01*
X121699977Y-101796000D01*
X121579102Y-101976903D01*
X121486307Y-102200931D01*
X121439000Y-102438757D01*
X121439000Y-102681243D01*
X121486307Y-102919069D01*
X121579102Y-103143097D01*
X121699977Y-103324000D01*
X103644845Y-103324000D01*
X103619999Y-103321553D01*
X103595153Y-103324000D01*
X103595146Y-103324000D01*
X103530694Y-103330348D01*
X103520806Y-103331322D01*
X103476648Y-103344717D01*
X103425425Y-103360255D01*
X103337521Y-103407241D01*
X103260473Y-103470473D01*
X103244630Y-103489778D01*
X102786167Y-103948242D01*
X102709069Y-103916307D01*
X102471243Y-103869000D01*
X102228757Y-103869000D01*
X101990931Y-103916307D01*
X101766903Y-104009102D01*
X101565283Y-104143820D01*
X101393820Y-104315283D01*
X101259102Y-104516903D01*
X101166307Y-104740931D01*
X101119000Y-104978757D01*
X101119000Y-105221243D01*
X101166307Y-105459069D01*
X101259102Y-105683097D01*
X101393820Y-105884717D01*
X101565283Y-106056180D01*
X101766903Y-106190898D01*
X101990931Y-106283693D01*
X102228757Y-106331000D01*
X102471243Y-106331000D01*
X102709069Y-106283693D01*
X102933097Y-106190898D01*
X103066744Y-106101598D01*
X102711167Y-106457176D01*
X102709069Y-106456307D01*
X102471243Y-106409000D01*
X102228757Y-106409000D01*
X101990931Y-106456307D01*
X101766903Y-106549102D01*
X101565283Y-106683820D01*
X101393820Y-106855283D01*
X101259102Y-107056903D01*
X101166307Y-107280931D01*
X101119000Y-107518757D01*
X101119000Y-107761243D01*
X101166307Y-107999069D01*
X101259102Y-108223097D01*
X101393820Y-108424717D01*
X101565283Y-108596180D01*
X101766903Y-108730898D01*
X101990931Y-108823693D01*
X102228757Y-108871000D01*
X102471243Y-108871000D01*
X102709069Y-108823693D01*
X102933097Y-108730898D01*
X103134717Y-108596180D01*
X103306180Y-108424717D01*
X103440898Y-108223097D01*
X103533693Y-107999069D01*
X103581000Y-107761243D01*
X103581000Y-107518757D01*
X103533693Y-107280931D01*
X103532824Y-107278833D01*
X103860658Y-106951000D01*
X121649864Y-106951000D01*
X121579102Y-107056903D01*
X121486307Y-107280931D01*
X121439000Y-107518757D01*
X121439000Y-107761243D01*
X121486307Y-107999069D01*
X121579102Y-108223097D01*
X121713820Y-108424717D01*
X121885283Y-108596180D01*
X122086903Y-108730898D01*
X122310931Y-108823693D01*
X122548757Y-108871000D01*
X122791243Y-108871000D01*
X123029069Y-108823693D01*
X123106167Y-108791758D01*
X123564628Y-109250220D01*
X123580473Y-109269527D01*
X123657521Y-109332759D01*
X123745425Y-109379745D01*
X123840806Y-109408678D01*
X123850694Y-109409652D01*
X123915146Y-109416000D01*
X123915153Y-109416000D01*
X123939999Y-109418447D01*
X123964845Y-109416000D01*
X129319977Y-109416000D01*
X129199102Y-109596903D01*
X129106307Y-109820931D01*
X129059000Y-110058757D01*
X129059000Y-110301243D01*
X129106307Y-110539069D01*
X129199102Y-110763097D01*
X129319977Y-110944000D01*
X124149592Y-110944000D01*
X123821758Y-110616167D01*
X123853693Y-110539069D01*
X123901000Y-110301243D01*
X123901000Y-110058757D01*
X123853693Y-109820931D01*
X123760898Y-109596903D01*
X123626180Y-109395283D01*
X123454717Y-109223820D01*
X123253097Y-109089102D01*
X123029069Y-108996307D01*
X122791243Y-108949000D01*
X122548757Y-108949000D01*
X122310931Y-108996307D01*
X122086903Y-109089102D01*
X121885283Y-109223820D01*
X121713820Y-109395283D01*
X121579102Y-109596903D01*
X121486307Y-109820931D01*
X121439000Y-110058757D01*
X121439000Y-110301243D01*
X121486307Y-110539069D01*
X121579102Y-110763097D01*
X121713820Y-110964717D01*
X121885283Y-111136180D01*
X122086903Y-111270898D01*
X122310931Y-111363693D01*
X122548757Y-111411000D01*
X122791243Y-111411000D01*
X123029069Y-111363693D01*
X123106167Y-111331758D01*
X123564628Y-111790220D01*
X123580473Y-111809527D01*
X123657521Y-111872759D01*
X123745425Y-111919745D01*
X123840806Y-111948678D01*
X123850694Y-111949652D01*
X123915146Y-111956000D01*
X123915153Y-111956000D01*
X123939999Y-111958447D01*
X123964845Y-111956000D01*
X129057157Y-111956000D01*
X129057157Y-113484000D01*
X124149592Y-113484000D01*
X123821758Y-113156167D01*
X123853693Y-113079069D01*
X123901000Y-112841243D01*
X123901000Y-112598757D01*
X123853693Y-112360931D01*
X123760898Y-112136903D01*
X123626180Y-111935283D01*
X123454717Y-111763820D01*
X123253097Y-111629102D01*
X123029069Y-111536307D01*
X122791243Y-111489000D01*
X122548757Y-111489000D01*
X122310931Y-111536307D01*
X122086903Y-111629102D01*
X121885283Y-111763820D01*
X121713820Y-111935283D01*
X121579102Y-112136903D01*
X121486307Y-112360931D01*
X121439000Y-112598757D01*
X121439000Y-112841243D01*
X121486307Y-113079069D01*
X121579102Y-113303097D01*
X121713820Y-113504717D01*
X121885283Y-113676180D01*
X122086903Y-113810898D01*
X122201168Y-113858228D01*
X122038748Y-113915843D01*
X121788645Y-114064822D01*
X121572412Y-114259731D01*
X121398359Y-114493080D01*
X121273175Y-114755901D01*
X121228524Y-114903110D01*
X121349845Y-115133000D01*
X122543000Y-115133000D01*
X122543000Y-115113000D01*
X122797000Y-115113000D01*
X122797000Y-115133000D01*
X123990155Y-115133000D01*
X124111476Y-114903110D01*
X124066825Y-114755901D01*
X123944009Y-114498052D01*
X123964845Y-114496000D01*
X149315154Y-114496000D01*
X149335991Y-114498052D01*
X149213175Y-114755901D01*
X149168524Y-114903110D01*
X149289845Y-115133000D01*
X150483000Y-115133000D01*
X150483000Y-115113000D01*
X150737000Y-115113000D01*
X150737000Y-115133000D01*
X151930155Y-115133000D01*
X152051476Y-114903110D01*
X152006825Y-114755901D01*
X151881641Y-114493080D01*
X151707588Y-114259731D01*
X151491355Y-114064822D01*
X151241252Y-113915843D01*
X151078832Y-113858228D01*
X151193097Y-113810898D01*
X151394717Y-113676180D01*
X151566180Y-113504717D01*
X151700898Y-113303097D01*
X151793693Y-113079069D01*
X151841000Y-112841243D01*
X151841000Y-112598757D01*
X151793693Y-112360931D01*
X151700898Y-112136903D01*
X151566180Y-111935283D01*
X151394717Y-111763820D01*
X151193097Y-111629102D01*
X150969069Y-111536307D01*
X150731243Y-111489000D01*
X150488757Y-111489000D01*
X150250931Y-111536307D01*
X150026903Y-111629102D01*
X149825283Y-111763820D01*
X149653820Y-111935283D01*
X149519102Y-112136903D01*
X149426307Y-112360931D01*
X149379000Y-112598757D01*
X149379000Y-112841243D01*
X149426307Y-113079069D01*
X149458242Y-113156167D01*
X149130409Y-113484000D01*
X131522843Y-113484000D01*
X131522843Y-111956000D01*
X149315154Y-111956000D01*
X149340000Y-111958447D01*
X149364846Y-111956000D01*
X149364854Y-111956000D01*
X149439193Y-111948678D01*
X149534575Y-111919745D01*
X149622479Y-111872759D01*
X149699527Y-111809527D01*
X149715376Y-111790215D01*
X150173833Y-111331758D01*
X150250931Y-111363693D01*
X150488757Y-111411000D01*
X150731243Y-111411000D01*
X150969069Y-111363693D01*
X151193097Y-111270898D01*
X151394717Y-111136180D01*
X151566180Y-110964717D01*
X151700898Y-110763097D01*
X151793693Y-110539069D01*
X151841000Y-110301243D01*
X151841000Y-110058757D01*
X151793693Y-109820931D01*
X151700898Y-109596903D01*
X151566180Y-109395283D01*
X151394717Y-109223820D01*
X151193097Y-109089102D01*
X150969069Y-108996307D01*
X150731243Y-108949000D01*
X150488757Y-108949000D01*
X150250931Y-108996307D01*
X150026903Y-109089102D01*
X149825283Y-109223820D01*
X149653820Y-109395283D01*
X149519102Y-109596903D01*
X149426307Y-109820931D01*
X149379000Y-110058757D01*
X149379000Y-110301243D01*
X149426307Y-110539069D01*
X149458242Y-110616167D01*
X149130409Y-110944000D01*
X131260023Y-110944000D01*
X131380898Y-110763097D01*
X131473693Y-110539069D01*
X131521000Y-110301243D01*
X131521000Y-110058757D01*
X131473693Y-109820931D01*
X131380898Y-109596903D01*
X131260023Y-109416000D01*
X149315154Y-109416000D01*
X149340000Y-109418447D01*
X149364846Y-109416000D01*
X149364854Y-109416000D01*
X149439193Y-109408678D01*
X149534575Y-109379745D01*
X149622479Y-109332759D01*
X149699527Y-109269527D01*
X149715376Y-109250215D01*
X150173833Y-108791758D01*
X150250931Y-108823693D01*
X150488757Y-108871000D01*
X150731243Y-108871000D01*
X150969069Y-108823693D01*
X151193097Y-108730898D01*
X151394717Y-108596180D01*
X151566180Y-108424717D01*
X151700898Y-108223097D01*
X151793693Y-107999069D01*
X151841000Y-107761243D01*
X151841000Y-107518757D01*
X151793693Y-107280931D01*
X151700898Y-107056903D01*
X151566180Y-106855283D01*
X151394717Y-106683820D01*
X151193097Y-106549102D01*
X150969069Y-106456307D01*
X150731243Y-106409000D01*
X150488757Y-106409000D01*
X150250931Y-106456307D01*
X150026903Y-106549102D01*
X149825283Y-106683820D01*
X149653820Y-106855283D01*
X149519102Y-107056903D01*
X149426307Y-107280931D01*
X149379000Y-107518757D01*
X149379000Y-107761243D01*
X149426307Y-107999069D01*
X149458242Y-108076167D01*
X149130409Y-108404000D01*
X131260023Y-108404000D01*
X131380898Y-108223097D01*
X131473693Y-107999069D01*
X131521000Y-107761243D01*
X131521000Y-107518757D01*
X131473693Y-107280931D01*
X131380898Y-107056903D01*
X131260023Y-106876000D01*
X149315154Y-106876000D01*
X149340000Y-106878447D01*
X149364846Y-106876000D01*
X149364854Y-106876000D01*
X149439193Y-106868678D01*
X149534575Y-106839745D01*
X149622479Y-106792759D01*
X149699527Y-106729527D01*
X149715376Y-106710215D01*
X150173833Y-106251758D01*
X150250931Y-106283693D01*
X150488757Y-106331000D01*
X150731243Y-106331000D01*
X150969069Y-106283693D01*
X151193097Y-106190898D01*
X151394717Y-106056180D01*
X151566180Y-105884717D01*
X151700898Y-105683097D01*
X151793693Y-105459069D01*
X151841000Y-105221243D01*
X151841000Y-104978757D01*
X151793693Y-104740931D01*
X151700898Y-104516903D01*
X151566180Y-104315283D01*
X151394717Y-104143820D01*
X151193097Y-104009102D01*
X150969069Y-103916307D01*
X150731243Y-103869000D01*
X150488757Y-103869000D01*
X150250931Y-103916307D01*
X150026903Y-104009102D01*
X149825283Y-104143820D01*
X149653820Y-104315283D01*
X149519102Y-104516903D01*
X149426307Y-104740931D01*
X149379000Y-104978757D01*
X149379000Y-105221243D01*
X149426307Y-105459069D01*
X149458242Y-105536167D01*
X149130409Y-105864000D01*
X131260023Y-105864000D01*
X131380898Y-105683097D01*
X131473693Y-105459069D01*
X131521000Y-105221243D01*
X131521000Y-104978757D01*
X131473693Y-104740931D01*
X131380898Y-104516903D01*
X131260023Y-104336000D01*
X149315154Y-104336000D01*
X149340000Y-104338447D01*
X149364846Y-104336000D01*
X149364854Y-104336000D01*
X149439193Y-104328678D01*
X149534575Y-104299745D01*
X149622479Y-104252759D01*
X149699527Y-104189527D01*
X149715376Y-104170215D01*
X150173833Y-103711758D01*
X150250931Y-103743693D01*
X150488757Y-103791000D01*
X150731243Y-103791000D01*
X150969069Y-103743693D01*
X151193097Y-103650898D01*
X151394717Y-103516180D01*
X151566180Y-103344717D01*
X151700898Y-103143097D01*
X151793693Y-102919069D01*
X151841000Y-102681243D01*
X151841000Y-102438757D01*
X151793693Y-102200931D01*
X151700898Y-101976903D01*
X151566180Y-101775283D01*
X151394717Y-101603820D01*
X151193097Y-101469102D01*
X150969069Y-101376307D01*
X150731243Y-101329000D01*
X150488757Y-101329000D01*
X150250931Y-101376307D01*
X150026903Y-101469102D01*
X149825283Y-101603820D01*
X149653820Y-101775283D01*
X149519102Y-101976903D01*
X149426307Y-102200931D01*
X149379000Y-102438757D01*
X149379000Y-102681243D01*
X149426307Y-102919069D01*
X149458242Y-102996167D01*
X149130409Y-103324000D01*
X131260023Y-103324000D01*
X131380898Y-103143097D01*
X131473693Y-102919069D01*
X131521000Y-102681243D01*
X131521000Y-102438757D01*
X131473693Y-102200931D01*
X131380898Y-101976903D01*
X131260023Y-101796000D01*
X149315154Y-101796000D01*
X149340000Y-101798447D01*
X149364846Y-101796000D01*
X149364854Y-101796000D01*
X149439193Y-101788678D01*
X149534575Y-101759745D01*
X149622479Y-101712759D01*
X149699527Y-101649527D01*
X149715376Y-101630215D01*
X150173833Y-101171758D01*
X150250931Y-101203693D01*
X150488757Y-101251000D01*
X150731243Y-101251000D01*
X150969069Y-101203693D01*
X151193097Y-101110898D01*
X151394717Y-100976180D01*
X151566180Y-100804717D01*
X151700898Y-100603097D01*
X151793693Y-100379069D01*
X151841000Y-100141243D01*
X151841000Y-99898757D01*
X151793693Y-99660931D01*
X151700898Y-99436903D01*
X151566180Y-99235283D01*
X151394717Y-99063820D01*
X151193097Y-98929102D01*
X150969069Y-98836307D01*
X150731243Y-98789000D01*
X150488757Y-98789000D01*
X150250931Y-98836307D01*
X150026903Y-98929102D01*
X149825283Y-99063820D01*
X149653820Y-99235283D01*
X149519102Y-99436903D01*
X149426307Y-99660931D01*
X149379000Y-99898757D01*
X149379000Y-100141243D01*
X149426307Y-100379069D01*
X149458242Y-100456167D01*
X149130409Y-100784000D01*
X131260023Y-100784000D01*
X131380898Y-100603097D01*
X131473693Y-100379069D01*
X131521000Y-100141243D01*
X131521000Y-99898757D01*
X131473693Y-99660931D01*
X131380898Y-99436903D01*
X131260023Y-99256000D01*
X149315154Y-99256000D01*
X149340000Y-99258447D01*
X149364846Y-99256000D01*
X149364854Y-99256000D01*
X149439193Y-99248678D01*
X149534575Y-99219745D01*
X149622479Y-99172759D01*
X149699527Y-99109527D01*
X149715376Y-99090215D01*
X150173833Y-98631758D01*
X150250931Y-98663693D01*
X150488757Y-98711000D01*
X150731243Y-98711000D01*
X150969069Y-98663693D01*
X151193097Y-98570898D01*
X151394717Y-98436180D01*
X151566180Y-98264717D01*
X151700898Y-98063097D01*
X151793693Y-97839069D01*
X151841000Y-97601243D01*
X151841000Y-97358757D01*
X151793693Y-97120931D01*
X151700898Y-96896903D01*
X151566180Y-96695283D01*
X151394717Y-96523820D01*
X151193097Y-96389102D01*
X150969069Y-96296307D01*
X150731243Y-96249000D01*
X150488757Y-96249000D01*
X150250931Y-96296307D01*
X150026903Y-96389102D01*
X149825283Y-96523820D01*
X149653820Y-96695283D01*
X149519102Y-96896903D01*
X149426307Y-97120931D01*
X149379000Y-97358757D01*
X149379000Y-97601243D01*
X149426307Y-97839069D01*
X149458242Y-97916167D01*
X149130409Y-98244000D01*
X131260023Y-98244000D01*
X131380898Y-98063097D01*
X131473693Y-97839069D01*
X131521000Y-97601243D01*
X131521000Y-97358757D01*
X131473693Y-97120931D01*
X131380898Y-96896903D01*
X131260023Y-96716000D01*
X149315154Y-96716000D01*
X149340000Y-96718447D01*
X149364846Y-96716000D01*
X149364854Y-96716000D01*
X149439193Y-96708678D01*
X149534575Y-96679745D01*
X149622479Y-96632759D01*
X149699527Y-96569527D01*
X149715376Y-96550215D01*
X150173833Y-96091758D01*
X150250931Y-96123693D01*
X150488757Y-96171000D01*
X150731243Y-96171000D01*
X150969069Y-96123693D01*
X151193097Y-96030898D01*
X151394717Y-95896180D01*
X151566180Y-95724717D01*
X151700898Y-95523097D01*
X151793693Y-95299069D01*
X151841000Y-95061243D01*
X151841000Y-94818757D01*
X151793693Y-94580931D01*
X151700898Y-94356903D01*
X151566180Y-94155283D01*
X151394717Y-93983820D01*
X151193097Y-93849102D01*
X150969069Y-93756307D01*
X150731243Y-93709000D01*
X150488757Y-93709000D01*
X150250931Y-93756307D01*
X150026903Y-93849102D01*
X149825283Y-93983820D01*
X149653820Y-94155283D01*
X149519102Y-94356903D01*
X149426307Y-94580931D01*
X149379000Y-94818757D01*
X149379000Y-95061243D01*
X149426307Y-95299069D01*
X149458242Y-95376167D01*
X149130409Y-95704000D01*
X131260023Y-95704000D01*
X131380898Y-95523097D01*
X131473693Y-95299069D01*
X131521000Y-95061243D01*
X131521000Y-94818757D01*
X131473693Y-94580931D01*
X131380898Y-94356903D01*
X131260023Y-94176000D01*
X149315154Y-94176000D01*
X149340000Y-94178447D01*
X149364846Y-94176000D01*
X149364854Y-94176000D01*
X149439193Y-94168678D01*
X149534575Y-94139745D01*
X149622479Y-94092759D01*
X149699527Y-94029527D01*
X149715376Y-94010215D01*
X150173833Y-93551758D01*
X150250931Y-93583693D01*
X150488757Y-93631000D01*
X150731243Y-93631000D01*
X150969069Y-93583693D01*
X151193097Y-93490898D01*
X151394717Y-93356180D01*
X151566180Y-93184717D01*
X151700898Y-92983097D01*
X151793693Y-92759069D01*
X151841000Y-92521243D01*
X151841000Y-92278757D01*
X151793693Y-92040931D01*
X151700898Y-91816903D01*
X151566180Y-91615283D01*
X151394717Y-91443820D01*
X151193097Y-91309102D01*
X150969069Y-91216307D01*
X150731243Y-91169000D01*
X150488757Y-91169000D01*
X150250931Y-91216307D01*
X150026903Y-91309102D01*
X149825283Y-91443820D01*
X149653820Y-91615283D01*
X149519102Y-91816903D01*
X149426307Y-92040931D01*
X149379000Y-92278757D01*
X149379000Y-92521243D01*
X149426307Y-92759069D01*
X149458242Y-92836167D01*
X149130409Y-93164000D01*
X131260023Y-93164000D01*
X131380898Y-92983097D01*
X131473693Y-92759069D01*
X131521000Y-92521243D01*
X131521000Y-92278757D01*
X131473693Y-92040931D01*
X131380898Y-91816903D01*
X131260023Y-91636000D01*
X149315154Y-91636000D01*
X149340000Y-91638447D01*
X149364846Y-91636000D01*
X149364854Y-91636000D01*
X149439193Y-91628678D01*
X149534575Y-91599745D01*
X149622479Y-91552759D01*
X149699527Y-91489527D01*
X149715376Y-91470215D01*
X150173833Y-91011758D01*
X150250931Y-91043693D01*
X150488757Y-91091000D01*
X150731243Y-91091000D01*
X150969069Y-91043693D01*
X151193097Y-90950898D01*
X151394717Y-90816180D01*
X151566180Y-90644717D01*
X151700898Y-90443097D01*
X151793693Y-90219069D01*
X151841000Y-89981243D01*
X151841000Y-89738757D01*
X151793693Y-89500931D01*
X151700898Y-89276903D01*
X151566180Y-89075283D01*
X151394717Y-88903820D01*
X151193097Y-88769102D01*
X150969069Y-88676307D01*
X150731243Y-88629000D01*
X150488757Y-88629000D01*
X150250931Y-88676307D01*
X150026903Y-88769102D01*
X149825283Y-88903820D01*
X149653820Y-89075283D01*
X149519102Y-89276903D01*
X149426307Y-89500931D01*
X149379000Y-89738757D01*
X149379000Y-89981243D01*
X149426307Y-90219069D01*
X149458242Y-90296167D01*
X149130409Y-90624000D01*
X131260023Y-90624000D01*
X131380898Y-90443097D01*
X131473693Y-90219069D01*
X131521000Y-89981243D01*
X131521000Y-89738757D01*
X131473693Y-89500931D01*
X131380898Y-89276903D01*
X131260023Y-89096000D01*
X149315154Y-89096000D01*
X149340000Y-89098447D01*
X149364846Y-89096000D01*
X149364854Y-89096000D01*
X149439193Y-89088678D01*
X149534575Y-89059745D01*
X149622479Y-89012759D01*
X149699527Y-88949527D01*
X149715376Y-88930215D01*
X150173833Y-88471758D01*
X150250931Y-88503693D01*
X150488757Y-88551000D01*
X150731243Y-88551000D01*
X150969069Y-88503693D01*
X151193097Y-88410898D01*
X151394717Y-88276180D01*
X151566180Y-88104717D01*
X151700898Y-87903097D01*
X151793693Y-87679069D01*
X151841000Y-87441243D01*
X151841000Y-87198757D01*
X151793693Y-86960931D01*
X151700898Y-86736903D01*
X151566180Y-86535283D01*
X151394717Y-86363820D01*
X151193097Y-86229102D01*
X151078832Y-86181772D01*
X151241252Y-86124157D01*
X151491355Y-85975178D01*
X151707588Y-85780269D01*
X151881641Y-85546920D01*
X152006825Y-85284099D01*
X152051476Y-85136890D01*
X151930155Y-84907000D01*
X150737000Y-84907000D01*
X150737000Y-84927000D01*
X150483000Y-84927000D01*
X150483000Y-84907000D01*
X149289845Y-84907000D01*
X149168524Y-85136890D01*
X149213175Y-85284099D01*
X149338359Y-85546920D01*
X149512412Y-85780269D01*
X149728645Y-85975178D01*
X149978748Y-86124157D01*
X150141168Y-86181772D01*
X150026903Y-86229102D01*
X149825283Y-86363820D01*
X149653820Y-86535283D01*
X149519102Y-86736903D01*
X149426307Y-86960931D01*
X149379000Y-87198757D01*
X149379000Y-87441243D01*
X149426307Y-87679069D01*
X149458242Y-87756167D01*
X149130409Y-88084000D01*
X131260023Y-88084000D01*
X131380898Y-87903097D01*
X131473693Y-87679069D01*
X131521000Y-87441243D01*
X131521000Y-87198757D01*
X131473693Y-86960931D01*
X131380898Y-86736903D01*
X131246180Y-86535283D01*
X131074717Y-86363820D01*
X130873097Y-86229102D01*
X130649069Y-86136307D01*
X130411243Y-86089000D01*
X130168757Y-86089000D01*
X129930931Y-86136307D01*
X129853833Y-86168242D01*
X129395376Y-85709785D01*
X129379527Y-85690473D01*
X129302479Y-85627241D01*
X129214575Y-85580255D01*
X129119193Y-85551322D01*
X129044854Y-85544000D01*
X129044846Y-85544000D01*
X129020000Y-85541553D01*
X128995154Y-85544000D01*
X123943032Y-85544000D01*
X124066825Y-85284099D01*
X124111476Y-85136890D01*
X123990155Y-84907000D01*
X122797000Y-84907000D01*
X122797000Y-84927000D01*
X122543000Y-84927000D01*
X122543000Y-84907000D01*
X121349845Y-84907000D01*
X121228524Y-85136890D01*
X121273175Y-85284099D01*
X121396968Y-85544000D01*
X103644845Y-85544000D01*
X103619999Y-85541553D01*
X103595153Y-85544000D01*
X103595146Y-85544000D01*
X103530694Y-85550348D01*
X103520806Y-85551322D01*
X103476648Y-85564717D01*
X103425425Y-85580255D01*
X103337521Y-85627241D01*
X103260473Y-85690473D01*
X103244628Y-85709780D01*
X102786167Y-86168242D01*
X102709069Y-86136307D01*
X102471243Y-86089000D01*
X102228757Y-86089000D01*
X101990931Y-86136307D01*
X101913833Y-86168242D01*
X101586000Y-85840409D01*
X101586000Y-85750023D01*
X101766903Y-85870898D01*
X101990931Y-85963693D01*
X102228757Y-86011000D01*
X102471243Y-86011000D01*
X102709069Y-85963693D01*
X102933097Y-85870898D01*
X103134717Y-85736180D01*
X103306180Y-85564717D01*
X103440898Y-85363097D01*
X103533693Y-85139069D01*
X103581000Y-84901243D01*
X103581000Y-84658757D01*
X103533693Y-84420931D01*
X103501758Y-84343833D01*
X103829592Y-84016000D01*
X121396968Y-84016000D01*
X121273175Y-84275901D01*
X121228524Y-84423110D01*
X121349845Y-84653000D01*
X122543000Y-84653000D01*
X122543000Y-84633000D01*
X122797000Y-84633000D01*
X122797000Y-84653000D01*
X123990155Y-84653000D01*
X124111476Y-84423110D01*
X124066825Y-84275901D01*
X123943032Y-84016000D01*
X128810409Y-84016000D01*
X129138242Y-84343833D01*
X129106307Y-84420931D01*
X129059000Y-84658757D01*
X129059000Y-84901243D01*
X129106307Y-85139069D01*
X129199102Y-85363097D01*
X129333820Y-85564717D01*
X129505283Y-85736180D01*
X129706903Y-85870898D01*
X129930931Y-85963693D01*
X130168757Y-86011000D01*
X130411243Y-86011000D01*
X130649069Y-85963693D01*
X130873097Y-85870898D01*
X131074717Y-85736180D01*
X131246180Y-85564717D01*
X131380898Y-85363097D01*
X131473693Y-85139069D01*
X131521000Y-84901243D01*
X131521000Y-84658757D01*
X131474127Y-84423110D01*
X149168524Y-84423110D01*
X149289845Y-84653000D01*
X150483000Y-84653000D01*
X150483000Y-83459186D01*
X150737000Y-83459186D01*
X150737000Y-84653000D01*
X151930155Y-84653000D01*
X152051476Y-84423110D01*
X152006825Y-84275901D01*
X151881641Y-84013080D01*
X151707588Y-83779731D01*
X151491355Y-83584822D01*
X151241252Y-83435843D01*
X150966891Y-83338519D01*
X150737000Y-83459186D01*
X150483000Y-83459186D01*
X150253109Y-83338519D01*
X149978748Y-83435843D01*
X149728645Y-83584822D01*
X149512412Y-83779731D01*
X149338359Y-84013080D01*
X149213175Y-84275901D01*
X149168524Y-84423110D01*
X131474127Y-84423110D01*
X131473693Y-84420931D01*
X131380898Y-84196903D01*
X131246180Y-83995283D01*
X131074717Y-83823820D01*
X130873097Y-83689102D01*
X130649069Y-83596307D01*
X130411243Y-83549000D01*
X130168757Y-83549000D01*
X129930931Y-83596307D01*
X129853833Y-83628242D01*
X129395376Y-83169785D01*
X129379527Y-83150473D01*
X129302479Y-83087241D01*
X129214575Y-83040255D01*
X129119193Y-83011322D01*
X129044854Y-83004000D01*
X129044846Y-83004000D01*
X129020000Y-83001553D01*
X128995154Y-83004000D01*
X104841592Y-83004000D01*
X105230220Y-82615372D01*
X105249527Y-82599527D01*
X105312759Y-82522479D01*
X105359745Y-82434575D01*
X105381944Y-82361393D01*
X105388678Y-82339194D01*
X105395741Y-82267481D01*
X105396000Y-82264854D01*
X105396000Y-82264847D01*
X105398447Y-82240001D01*
X105396000Y-82215155D01*
X105396000Y-82092832D01*
X105473097Y-82060898D01*
X105674717Y-81926180D01*
X105846180Y-81754717D01*
X105980898Y-81553097D01*
X106073693Y-81329069D01*
X106121000Y-81091243D01*
X106121000Y-80848757D01*
X106073693Y-80610931D01*
X105980898Y-80386903D01*
X105860023Y-80206000D01*
X105950409Y-80206000D01*
X106278242Y-80533833D01*
X106246307Y-80610931D01*
X106199000Y-80848757D01*
X106199000Y-81091243D01*
X106246307Y-81329069D01*
X106339102Y-81553097D01*
X106473820Y-81754717D01*
X106645283Y-81926180D01*
X106846903Y-82060898D01*
X107070931Y-82153693D01*
X107308757Y-82201000D01*
X107551243Y-82201000D01*
X107789069Y-82153693D01*
X108013097Y-82060898D01*
X108214717Y-81926180D01*
X108386180Y-81754717D01*
X108520898Y-81553097D01*
X108613693Y-81329069D01*
X108661000Y-81091243D01*
X108661000Y-80848757D01*
X108739000Y-80848757D01*
X108739000Y-81091243D01*
X108786307Y-81329069D01*
X108879102Y-81553097D01*
X109013820Y-81754717D01*
X109185283Y-81926180D01*
X109386903Y-82060898D01*
X109610931Y-82153693D01*
X109848757Y-82201000D01*
X110091243Y-82201000D01*
X110329069Y-82153693D01*
X110553097Y-82060898D01*
X110754717Y-81926180D01*
X110926180Y-81754717D01*
X111060898Y-81553097D01*
X111108228Y-81438832D01*
X111165843Y-81601252D01*
X111314822Y-81851355D01*
X111509731Y-82067588D01*
X111743080Y-82241641D01*
X112005901Y-82366825D01*
X112153110Y-82411476D01*
X112383000Y-82290155D01*
X112383000Y-81097000D01*
X112363000Y-81097000D01*
X112363000Y-80843000D01*
X112383000Y-80843000D01*
X112383000Y-80823000D01*
X112637000Y-80823000D01*
X112637000Y-80843000D01*
X112657000Y-80843000D01*
X112657000Y-81097000D01*
X112637000Y-81097000D01*
X112637000Y-82290155D01*
X112866890Y-82411476D01*
X113014099Y-82366825D01*
X113276920Y-82241641D01*
X113510269Y-82067588D01*
X113705178Y-81851355D01*
X113854157Y-81601252D01*
X113911772Y-81438832D01*
X113959102Y-81553097D01*
X114093820Y-81754717D01*
X114265283Y-81926180D01*
X114466903Y-82060898D01*
X114690931Y-82153693D01*
X114928757Y-82201000D01*
X115171243Y-82201000D01*
X115409069Y-82153693D01*
X115633097Y-82060898D01*
X115834717Y-81926180D01*
X116006180Y-81754717D01*
X116140898Y-81553097D01*
X116233693Y-81329069D01*
X116281000Y-81091243D01*
X116281000Y-80848757D01*
X116233693Y-80610931D01*
X116140898Y-80386903D01*
X116006180Y-80185283D01*
X115834717Y-80013820D01*
X115633097Y-79879102D01*
X115409069Y-79786307D01*
X115171243Y-79739000D01*
X114928757Y-79739000D01*
X114690931Y-79786307D01*
X114466903Y-79879102D01*
X114265283Y-80013820D01*
X114093820Y-80185283D01*
X113959102Y-80386903D01*
X113911772Y-80501168D01*
X113854157Y-80338748D01*
X113705178Y-80088645D01*
X113510269Y-79872412D01*
X113276920Y-79698359D01*
X113014099Y-79573175D01*
X112986846Y-79564909D01*
X113093097Y-79520898D01*
X113294717Y-79386180D01*
X113466180Y-79214717D01*
X113600898Y-79013097D01*
X113693693Y-78789069D01*
X113741000Y-78551243D01*
X113741000Y-78308757D01*
X113819000Y-78308757D01*
X113819000Y-78551243D01*
X113866307Y-78789069D01*
X113959102Y-79013097D01*
X114093820Y-79214717D01*
X114265283Y-79386180D01*
X114466903Y-79520898D01*
X114690931Y-79613693D01*
X114928757Y-79661000D01*
X115171243Y-79661000D01*
X115409069Y-79613693D01*
X115633097Y-79520898D01*
X115834717Y-79386180D01*
X116006180Y-79214717D01*
X116140898Y-79013097D01*
X116188228Y-78898832D01*
X116245843Y-79061252D01*
X116394822Y-79311355D01*
X116589731Y-79527588D01*
X116823080Y-79701641D01*
X117085901Y-79826825D01*
X117113154Y-79835091D01*
X117006903Y-79879102D01*
X116805283Y-80013820D01*
X116633820Y-80185283D01*
X116499102Y-80386903D01*
X116406307Y-80610931D01*
X116359000Y-80848757D01*
X116359000Y-81091243D01*
X116406307Y-81329069D01*
X116499102Y-81553097D01*
X116633820Y-81754717D01*
X116805283Y-81926180D01*
X117006903Y-82060898D01*
X117230931Y-82153693D01*
X117468757Y-82201000D01*
X117711243Y-82201000D01*
X117949069Y-82153693D01*
X118173097Y-82060898D01*
X118374717Y-81926180D01*
X118546180Y-81754717D01*
X118680898Y-81553097D01*
X118773693Y-81329069D01*
X118821000Y-81091243D01*
X118821000Y-80848757D01*
X118899000Y-80848757D01*
X118899000Y-81091243D01*
X118946307Y-81329069D01*
X119039102Y-81553097D01*
X119173820Y-81754717D01*
X119345283Y-81926180D01*
X119546903Y-82060898D01*
X119770931Y-82153693D01*
X120008757Y-82201000D01*
X120251243Y-82201000D01*
X120489069Y-82153693D01*
X120713097Y-82060898D01*
X120914717Y-81926180D01*
X121086180Y-81754717D01*
X121220898Y-81553097D01*
X121313693Y-81329069D01*
X121361000Y-81091243D01*
X121361000Y-80848757D01*
X121439000Y-80848757D01*
X121439000Y-81091243D01*
X121486307Y-81329069D01*
X121579102Y-81553097D01*
X121713820Y-81754717D01*
X121885283Y-81926180D01*
X122086903Y-82060898D01*
X122310931Y-82153693D01*
X122548757Y-82201000D01*
X122791243Y-82201000D01*
X123029069Y-82153693D01*
X123253097Y-82060898D01*
X123454717Y-81926180D01*
X123626180Y-81754717D01*
X123760898Y-81553097D01*
X123853693Y-81329069D01*
X123901000Y-81091243D01*
X123901000Y-80848757D01*
X123853693Y-80610931D01*
X123760898Y-80386903D01*
X123626180Y-80185283D01*
X123454717Y-80013820D01*
X123253097Y-79879102D01*
X123029069Y-79786307D01*
X122791243Y-79739000D01*
X122548757Y-79739000D01*
X122310931Y-79786307D01*
X122086903Y-79879102D01*
X121885283Y-80013820D01*
X121713820Y-80185283D01*
X121579102Y-80386903D01*
X121486307Y-80610931D01*
X121439000Y-80848757D01*
X121361000Y-80848757D01*
X121313693Y-80610931D01*
X121220898Y-80386903D01*
X121086180Y-80185283D01*
X120914717Y-80013820D01*
X120713097Y-79879102D01*
X120489069Y-79786307D01*
X120251243Y-79739000D01*
X120008757Y-79739000D01*
X119770931Y-79786307D01*
X119546903Y-79879102D01*
X119345283Y-80013820D01*
X119173820Y-80185283D01*
X119039102Y-80386903D01*
X118946307Y-80610931D01*
X118899000Y-80848757D01*
X118821000Y-80848757D01*
X118773693Y-80610931D01*
X118680898Y-80386903D01*
X118546180Y-80185283D01*
X118374717Y-80013820D01*
X118173097Y-79879102D01*
X118066846Y-79835091D01*
X118094099Y-79826825D01*
X118356920Y-79701641D01*
X118590269Y-79527588D01*
X118785178Y-79311355D01*
X118934157Y-79061252D01*
X118991772Y-78898832D01*
X119039102Y-79013097D01*
X119173820Y-79214717D01*
X119345283Y-79386180D01*
X119546903Y-79520898D01*
X119770931Y-79613693D01*
X120008757Y-79661000D01*
X120251243Y-79661000D01*
X120489069Y-79613693D01*
X120713097Y-79520898D01*
X120914717Y-79386180D01*
X121086180Y-79214717D01*
X121220898Y-79013097D01*
X121313693Y-78789069D01*
X121361000Y-78551243D01*
X121361000Y-78308757D01*
X121439000Y-78308757D01*
X121439000Y-78551243D01*
X121486307Y-78789069D01*
X121579102Y-79013097D01*
X121713820Y-79214717D01*
X121885283Y-79386180D01*
X122086903Y-79520898D01*
X122310931Y-79613693D01*
X122548757Y-79661000D01*
X122791243Y-79661000D01*
X123029069Y-79613693D01*
X123253097Y-79520898D01*
X123454717Y-79386180D01*
X123626180Y-79214717D01*
X123760898Y-79013097D01*
X123808228Y-78898832D01*
X123865843Y-79061252D01*
X124014822Y-79311355D01*
X124209731Y-79527588D01*
X124443080Y-79701641D01*
X124705901Y-79826825D01*
X124733154Y-79835091D01*
X124626903Y-79879102D01*
X124425283Y-80013820D01*
X124253820Y-80185283D01*
X124119102Y-80386903D01*
X124026307Y-80610931D01*
X123979000Y-80848757D01*
X123979000Y-81091243D01*
X124026307Y-81329069D01*
X124119102Y-81553097D01*
X124253820Y-81754717D01*
X124425283Y-81926180D01*
X124626903Y-82060898D01*
X124850931Y-82153693D01*
X125088757Y-82201000D01*
X125331243Y-82201000D01*
X125569069Y-82153693D01*
X125793097Y-82060898D01*
X125994717Y-81926180D01*
X126166180Y-81754717D01*
X126300898Y-81553097D01*
X126393693Y-81329069D01*
X126441000Y-81091243D01*
X126441000Y-80848757D01*
X126519000Y-80848757D01*
X126519000Y-81091243D01*
X126566307Y-81329069D01*
X126659102Y-81553097D01*
X126793820Y-81754717D01*
X126965283Y-81926180D01*
X127166903Y-82060898D01*
X127390931Y-82153693D01*
X127628757Y-82201000D01*
X127871243Y-82201000D01*
X128109069Y-82153693D01*
X128333097Y-82060898D01*
X128534717Y-81926180D01*
X128706180Y-81754717D01*
X128840898Y-81553097D01*
X128933693Y-81329069D01*
X128981000Y-81091243D01*
X128981000Y-80848757D01*
X129059000Y-80848757D01*
X129059000Y-81091243D01*
X129106307Y-81329069D01*
X129199102Y-81553097D01*
X129333820Y-81754717D01*
X129505283Y-81926180D01*
X129706903Y-82060898D01*
X129833858Y-82113484D01*
X129792141Y-82141358D01*
X129683358Y-82250141D01*
X129597887Y-82378058D01*
X129539013Y-82520191D01*
X129509000Y-82671078D01*
X129509000Y-82824922D01*
X129539013Y-82975809D01*
X129597887Y-83117942D01*
X129683358Y-83245859D01*
X129792141Y-83354642D01*
X129920058Y-83440113D01*
X130062191Y-83498987D01*
X130213078Y-83529000D01*
X130366922Y-83529000D01*
X130517809Y-83498987D01*
X130659942Y-83440113D01*
X130787859Y-83354642D01*
X130896642Y-83245859D01*
X130982113Y-83117942D01*
X131040987Y-82975809D01*
X131071000Y-82824922D01*
X131071000Y-82682591D01*
X131761595Y-81991997D01*
X131829731Y-82067588D01*
X132063080Y-82241641D01*
X132325901Y-82366825D01*
X132473110Y-82411476D01*
X132703000Y-82290155D01*
X132703000Y-81097000D01*
X132683000Y-81097000D01*
X132683000Y-80843000D01*
X132703000Y-80843000D01*
X132703000Y-80823000D01*
X132957000Y-80823000D01*
X132957000Y-80843000D01*
X132977000Y-80843000D01*
X132977000Y-81097000D01*
X132957000Y-81097000D01*
X132957000Y-82290155D01*
X133186890Y-82411476D01*
X133334099Y-82366825D01*
X133596920Y-82241641D01*
X133830269Y-82067588D01*
X134025178Y-81851355D01*
X134174157Y-81601252D01*
X134231772Y-81438832D01*
X134279102Y-81553097D01*
X134413820Y-81754717D01*
X134585283Y-81926180D01*
X134786903Y-82060898D01*
X135010931Y-82153693D01*
X135248757Y-82201000D01*
X135491243Y-82201000D01*
X135729069Y-82153693D01*
X135953097Y-82060898D01*
X136154717Y-81926180D01*
X136326180Y-81754717D01*
X136460898Y-81553097D01*
X136553693Y-81329069D01*
X136601000Y-81091243D01*
X136601000Y-80848757D01*
X136553693Y-80610931D01*
X136460898Y-80386903D01*
X136326180Y-80185283D01*
X136154717Y-80013820D01*
X135953097Y-79879102D01*
X135729069Y-79786307D01*
X135491243Y-79739000D01*
X135248757Y-79739000D01*
X135010931Y-79786307D01*
X134786903Y-79879102D01*
X134585283Y-80013820D01*
X134413820Y-80185283D01*
X134279102Y-80386903D01*
X134231772Y-80501168D01*
X134174157Y-80338748D01*
X134096325Y-80208085D01*
X134100000Y-80208447D01*
X134124846Y-80206000D01*
X134124854Y-80206000D01*
X134199193Y-80198678D01*
X134294575Y-80169745D01*
X134382479Y-80122759D01*
X134459527Y-80059527D01*
X134475376Y-80040215D01*
X134933833Y-79581758D01*
X135010931Y-79613693D01*
X135248757Y-79661000D01*
X135491243Y-79661000D01*
X135729069Y-79613693D01*
X135953097Y-79520898D01*
X136154717Y-79386180D01*
X136326180Y-79214717D01*
X136460898Y-79013097D01*
X136508228Y-78898832D01*
X136565843Y-79061252D01*
X136714822Y-79311355D01*
X136909731Y-79527588D01*
X137143080Y-79701641D01*
X137405901Y-79826825D01*
X137433154Y-79835091D01*
X137326903Y-79879102D01*
X137125283Y-80013820D01*
X136953820Y-80185283D01*
X136819102Y-80386903D01*
X136726307Y-80610931D01*
X136679000Y-80848757D01*
X136679000Y-81091243D01*
X136726307Y-81329069D01*
X136819102Y-81553097D01*
X136953820Y-81754717D01*
X137125283Y-81926180D01*
X137326903Y-82060898D01*
X137550931Y-82153693D01*
X137788757Y-82201000D01*
X138031243Y-82201000D01*
X138269069Y-82153693D01*
X138493097Y-82060898D01*
X138694717Y-81926180D01*
X138866180Y-81754717D01*
X139000898Y-81553097D01*
X139093693Y-81329069D01*
X139141000Y-81091243D01*
X139141000Y-80848757D01*
X139219000Y-80848757D01*
X139219000Y-81091243D01*
X139266307Y-81329069D01*
X139359102Y-81553097D01*
X139493820Y-81754717D01*
X139665283Y-81926180D01*
X139866903Y-82060898D01*
X140090931Y-82153693D01*
X140328757Y-82201000D01*
X140571243Y-82201000D01*
X140809069Y-82153693D01*
X141033097Y-82060898D01*
X141234717Y-81926180D01*
X141406180Y-81754717D01*
X141540898Y-81553097D01*
X141633693Y-81329069D01*
X141681000Y-81091243D01*
X141681000Y-80848757D01*
X141633693Y-80610931D01*
X141540898Y-80386903D01*
X141406180Y-80185283D01*
X141234717Y-80013820D01*
X141033097Y-79879102D01*
X140809069Y-79786307D01*
X140571243Y-79739000D01*
X140328757Y-79739000D01*
X140090931Y-79786307D01*
X139866903Y-79879102D01*
X139665283Y-80013820D01*
X139493820Y-80185283D01*
X139359102Y-80386903D01*
X139266307Y-80610931D01*
X139219000Y-80848757D01*
X139141000Y-80848757D01*
X139093693Y-80610931D01*
X139000898Y-80386903D01*
X138866180Y-80185283D01*
X138694717Y-80013820D01*
X138493097Y-79879102D01*
X138386846Y-79835091D01*
X138414099Y-79826825D01*
X138676920Y-79701641D01*
X138910269Y-79527588D01*
X139105178Y-79311355D01*
X139254157Y-79061252D01*
X139311772Y-78898832D01*
X139359102Y-79013097D01*
X139493820Y-79214717D01*
X139665283Y-79386180D01*
X139866903Y-79520898D01*
X140090931Y-79613693D01*
X140328757Y-79661000D01*
X140571243Y-79661000D01*
X140809069Y-79613693D01*
X141033097Y-79520898D01*
X141234717Y-79386180D01*
X141406180Y-79214717D01*
X141540898Y-79013097D01*
X141588228Y-78898832D01*
X141645843Y-79061252D01*
X141794822Y-79311355D01*
X141989731Y-79527588D01*
X142223080Y-79701641D01*
X142485901Y-79826825D01*
X142513154Y-79835091D01*
X142406903Y-79879102D01*
X142205283Y-80013820D01*
X142033820Y-80185283D01*
X141899102Y-80386903D01*
X141806307Y-80610931D01*
X141759000Y-80848757D01*
X141759000Y-81091243D01*
X141806307Y-81329069D01*
X141899102Y-81553097D01*
X142033820Y-81754717D01*
X142205283Y-81926180D01*
X142406903Y-82060898D01*
X142630931Y-82153693D01*
X142868757Y-82201000D01*
X143111243Y-82201000D01*
X143349069Y-82153693D01*
X143573097Y-82060898D01*
X143774717Y-81926180D01*
X143946180Y-81754717D01*
X144080898Y-81553097D01*
X144173693Y-81329069D01*
X144221000Y-81091243D01*
X144221000Y-80848757D01*
X144299000Y-80848757D01*
X144299000Y-81091243D01*
X144346307Y-81329069D01*
X144439102Y-81553097D01*
X144573820Y-81754717D01*
X144745283Y-81926180D01*
X144946903Y-82060898D01*
X145170931Y-82153693D01*
X145408757Y-82201000D01*
X145651243Y-82201000D01*
X145889069Y-82153693D01*
X146113097Y-82060898D01*
X146314717Y-81926180D01*
X146486180Y-81754717D01*
X146620898Y-81553097D01*
X146713693Y-81329069D01*
X146761000Y-81091243D01*
X146761000Y-80848757D01*
X146839000Y-80848757D01*
X146839000Y-81091243D01*
X146886307Y-81329069D01*
X146979102Y-81553097D01*
X147113820Y-81754717D01*
X147285283Y-81926180D01*
X147486903Y-82060898D01*
X147710931Y-82153693D01*
X147948757Y-82201000D01*
X148191243Y-82201000D01*
X148429069Y-82153693D01*
X148653097Y-82060898D01*
X148854717Y-81926180D01*
X149026180Y-81754717D01*
X149160898Y-81553097D01*
X149208228Y-81438832D01*
X149265843Y-81601252D01*
X149414822Y-81851355D01*
X149609731Y-82067588D01*
X149843080Y-82241641D01*
X150105901Y-82366825D01*
X150253110Y-82411476D01*
X150483000Y-82290155D01*
X150483000Y-81097000D01*
X150737000Y-81097000D01*
X150737000Y-82290155D01*
X150966890Y-82411476D01*
X151114099Y-82366825D01*
X151376920Y-82241641D01*
X151610269Y-82067588D01*
X151630292Y-82045374D01*
X153314231Y-82045374D01*
X153614411Y-82483828D01*
X154193356Y-82794296D01*
X154821746Y-82985852D01*
X155475431Y-83051134D01*
X156129293Y-82987634D01*
X156758203Y-82797792D01*
X157337992Y-82488904D01*
X157345589Y-82483828D01*
X157645769Y-82045374D01*
X155480000Y-79879605D01*
X153314231Y-82045374D01*
X151630292Y-82045374D01*
X151805178Y-81851355D01*
X151954157Y-81601252D01*
X152051481Y-81326891D01*
X151930814Y-81097000D01*
X150737000Y-81097000D01*
X150483000Y-81097000D01*
X150463000Y-81097000D01*
X150463000Y-80843000D01*
X150483000Y-80843000D01*
X150483000Y-80823000D01*
X150737000Y-80823000D01*
X150737000Y-80843000D01*
X151930814Y-80843000D01*
X152051481Y-80613109D01*
X151954157Y-80338748D01*
X151805178Y-80088645D01*
X151610269Y-79872412D01*
X151376920Y-79698359D01*
X151370773Y-79695431D01*
X152128866Y-79695431D01*
X152192366Y-80349293D01*
X152382208Y-80978203D01*
X152691096Y-81557992D01*
X152696172Y-81565589D01*
X153134626Y-81865769D01*
X155300395Y-79700000D01*
X153134626Y-77534231D01*
X152696172Y-77834411D01*
X152385704Y-78413356D01*
X152194148Y-79041746D01*
X152128866Y-79695431D01*
X151370773Y-79695431D01*
X151114099Y-79573175D01*
X151086846Y-79564909D01*
X151193097Y-79520898D01*
X151394717Y-79386180D01*
X151566180Y-79214717D01*
X151700898Y-79013097D01*
X151793693Y-78789069D01*
X151841000Y-78551243D01*
X151841000Y-78308757D01*
X151793693Y-78070931D01*
X151700898Y-77846903D01*
X151566180Y-77645283D01*
X151394717Y-77473820D01*
X151193097Y-77339102D01*
X150969069Y-77246307D01*
X150731243Y-77199000D01*
X150488757Y-77199000D01*
X150250931Y-77246307D01*
X150026903Y-77339102D01*
X149825283Y-77473820D01*
X149653820Y-77645283D01*
X149519102Y-77846903D01*
X149426307Y-78070931D01*
X149379000Y-78308757D01*
X149379000Y-78551243D01*
X149426307Y-78789069D01*
X149519102Y-79013097D01*
X149653820Y-79214717D01*
X149825283Y-79386180D01*
X150026903Y-79520898D01*
X150133154Y-79564909D01*
X150105901Y-79573175D01*
X149843080Y-79698359D01*
X149609731Y-79872412D01*
X149414822Y-80088645D01*
X149265843Y-80338748D01*
X149208228Y-80501168D01*
X149160898Y-80386903D01*
X149026180Y-80185283D01*
X148854717Y-80013820D01*
X148653097Y-79879102D01*
X148429069Y-79786307D01*
X148191243Y-79739000D01*
X147948757Y-79739000D01*
X147710931Y-79786307D01*
X147486903Y-79879102D01*
X147285283Y-80013820D01*
X147113820Y-80185283D01*
X146979102Y-80386903D01*
X146886307Y-80610931D01*
X146839000Y-80848757D01*
X146761000Y-80848757D01*
X146713693Y-80610931D01*
X146620898Y-80386903D01*
X146486180Y-80185283D01*
X146314717Y-80013820D01*
X146113097Y-79879102D01*
X145889069Y-79786307D01*
X145651243Y-79739000D01*
X145408757Y-79739000D01*
X145170931Y-79786307D01*
X144946903Y-79879102D01*
X144745283Y-80013820D01*
X144573820Y-80185283D01*
X144439102Y-80386903D01*
X144346307Y-80610931D01*
X144299000Y-80848757D01*
X144221000Y-80848757D01*
X144173693Y-80610931D01*
X144080898Y-80386903D01*
X143946180Y-80185283D01*
X143774717Y-80013820D01*
X143573097Y-79879102D01*
X143466846Y-79835091D01*
X143494099Y-79826825D01*
X143756920Y-79701641D01*
X143990269Y-79527588D01*
X144185178Y-79311355D01*
X144334157Y-79061252D01*
X144391772Y-78898832D01*
X144439102Y-79013097D01*
X144573820Y-79214717D01*
X144745283Y-79386180D01*
X144946903Y-79520898D01*
X145170931Y-79613693D01*
X145408757Y-79661000D01*
X145651243Y-79661000D01*
X145889069Y-79613693D01*
X146113097Y-79520898D01*
X146314717Y-79386180D01*
X146486180Y-79214717D01*
X146620898Y-79013097D01*
X146713693Y-78789069D01*
X146761000Y-78551243D01*
X146761000Y-78308757D01*
X146839000Y-78308757D01*
X146839000Y-78551243D01*
X146886307Y-78789069D01*
X146979102Y-79013097D01*
X147113820Y-79214717D01*
X147285283Y-79386180D01*
X147486903Y-79520898D01*
X147710931Y-79613693D01*
X147948757Y-79661000D01*
X148191243Y-79661000D01*
X148429069Y-79613693D01*
X148653097Y-79520898D01*
X148854717Y-79386180D01*
X149026180Y-79214717D01*
X149160898Y-79013097D01*
X149253693Y-78789069D01*
X149301000Y-78551243D01*
X149301000Y-78308757D01*
X149253693Y-78070931D01*
X149160898Y-77846903D01*
X149026180Y-77645283D01*
X148854717Y-77473820D01*
X148653097Y-77339102D01*
X148429069Y-77246307D01*
X148191243Y-77199000D01*
X147948757Y-77199000D01*
X147710931Y-77246307D01*
X147486903Y-77339102D01*
X147285283Y-77473820D01*
X147113820Y-77645283D01*
X146979102Y-77846903D01*
X146886307Y-78070931D01*
X146839000Y-78308757D01*
X146761000Y-78308757D01*
X146713693Y-78070931D01*
X146620898Y-77846903D01*
X146486180Y-77645283D01*
X146314717Y-77473820D01*
X146113097Y-77339102D01*
X145889069Y-77246307D01*
X145651243Y-77199000D01*
X145408757Y-77199000D01*
X145170931Y-77246307D01*
X144946903Y-77339102D01*
X144745283Y-77473820D01*
X144573820Y-77645283D01*
X144439102Y-77846903D01*
X144391772Y-77961168D01*
X144334157Y-77798748D01*
X144185178Y-77548645D01*
X143990269Y-77332412D01*
X143756920Y-77158359D01*
X143494099Y-77033175D01*
X143346890Y-76988524D01*
X143117000Y-77109845D01*
X143117000Y-78303000D01*
X143137000Y-78303000D01*
X143137000Y-78557000D01*
X143117000Y-78557000D01*
X143117000Y-78577000D01*
X142863000Y-78577000D01*
X142863000Y-78557000D01*
X142843000Y-78557000D01*
X142843000Y-78303000D01*
X142863000Y-78303000D01*
X142863000Y-77109845D01*
X142633110Y-76988524D01*
X142485901Y-77033175D01*
X142223080Y-77158359D01*
X141989731Y-77332412D01*
X141794822Y-77548645D01*
X141645843Y-77798748D01*
X141588228Y-77961168D01*
X141540898Y-77846903D01*
X141406180Y-77645283D01*
X141234717Y-77473820D01*
X141033097Y-77339102D01*
X140809069Y-77246307D01*
X140571243Y-77199000D01*
X140328757Y-77199000D01*
X140090931Y-77246307D01*
X139866903Y-77339102D01*
X139665283Y-77473820D01*
X139493820Y-77645283D01*
X139359102Y-77846903D01*
X139311772Y-77961168D01*
X139254157Y-77798748D01*
X139105178Y-77548645D01*
X138910269Y-77332412D01*
X138676920Y-77158359D01*
X138414099Y-77033175D01*
X138266890Y-76988524D01*
X138037000Y-77109845D01*
X138037000Y-78303000D01*
X138057000Y-78303000D01*
X138057000Y-78557000D01*
X138037000Y-78557000D01*
X138037000Y-78577000D01*
X137783000Y-78577000D01*
X137783000Y-78557000D01*
X137763000Y-78557000D01*
X137763000Y-78303000D01*
X137783000Y-78303000D01*
X137783000Y-77109845D01*
X137553110Y-76988524D01*
X137405901Y-77033175D01*
X137143080Y-77158359D01*
X136909731Y-77332412D01*
X136714822Y-77548645D01*
X136565843Y-77798748D01*
X136508228Y-77961168D01*
X136460898Y-77846903D01*
X136326180Y-77645283D01*
X136154717Y-77473820D01*
X135953097Y-77339102D01*
X135729069Y-77246307D01*
X135491243Y-77199000D01*
X135248757Y-77199000D01*
X135010931Y-77246307D01*
X134786903Y-77339102D01*
X134585283Y-77473820D01*
X134413820Y-77645283D01*
X134279102Y-77846903D01*
X134186307Y-78070931D01*
X134139000Y-78308757D01*
X134139000Y-78551243D01*
X134186307Y-78789069D01*
X134218242Y-78866167D01*
X133890409Y-79194000D01*
X133800023Y-79194000D01*
X133920898Y-79013097D01*
X134013693Y-78789069D01*
X134061000Y-78551243D01*
X134061000Y-78308757D01*
X134013693Y-78070931D01*
X133920898Y-77846903D01*
X133786180Y-77645283D01*
X133614717Y-77473820D01*
X133413097Y-77339102D01*
X133189069Y-77246307D01*
X132951243Y-77199000D01*
X132708757Y-77199000D01*
X132470931Y-77246307D01*
X132246903Y-77339102D01*
X132045283Y-77473820D01*
X131873820Y-77645283D01*
X131739102Y-77846903D01*
X131646307Y-78070931D01*
X131599000Y-78308757D01*
X131599000Y-78551243D01*
X131646307Y-78789069D01*
X131739102Y-79013097D01*
X131873820Y-79214717D01*
X132000617Y-79341514D01*
X131985627Y-79359779D01*
X131219785Y-80125622D01*
X131201514Y-80140617D01*
X131074717Y-80013820D01*
X130873097Y-79879102D01*
X130649069Y-79786307D01*
X130411243Y-79739000D01*
X130168757Y-79739000D01*
X129930931Y-79786307D01*
X129706903Y-79879102D01*
X129505283Y-80013820D01*
X129333820Y-80185283D01*
X129199102Y-80386903D01*
X129106307Y-80610931D01*
X129059000Y-80848757D01*
X128981000Y-80848757D01*
X128933693Y-80610931D01*
X128840898Y-80386903D01*
X128706180Y-80185283D01*
X128534717Y-80013820D01*
X128333097Y-79879102D01*
X128109069Y-79786307D01*
X127871243Y-79739000D01*
X127628757Y-79739000D01*
X127390931Y-79786307D01*
X127166903Y-79879102D01*
X126965283Y-80013820D01*
X126793820Y-80185283D01*
X126659102Y-80386903D01*
X126566307Y-80610931D01*
X126519000Y-80848757D01*
X126441000Y-80848757D01*
X126393693Y-80610931D01*
X126300898Y-80386903D01*
X126166180Y-80185283D01*
X125994717Y-80013820D01*
X125793097Y-79879102D01*
X125686846Y-79835091D01*
X125714099Y-79826825D01*
X125976920Y-79701641D01*
X126210269Y-79527588D01*
X126405178Y-79311355D01*
X126554157Y-79061252D01*
X126611772Y-78898832D01*
X126659102Y-79013097D01*
X126793820Y-79214717D01*
X126965283Y-79386180D01*
X127166903Y-79520898D01*
X127390931Y-79613693D01*
X127628757Y-79661000D01*
X127871243Y-79661000D01*
X128109069Y-79613693D01*
X128333097Y-79520898D01*
X128534717Y-79386180D01*
X128706180Y-79214717D01*
X128840898Y-79013097D01*
X128933693Y-78789069D01*
X128981000Y-78551243D01*
X128981000Y-78308757D01*
X129059000Y-78308757D01*
X129059000Y-78551243D01*
X129106307Y-78789069D01*
X129199102Y-79013097D01*
X129333820Y-79214717D01*
X129505283Y-79386180D01*
X129706903Y-79520898D01*
X129930931Y-79613693D01*
X130168757Y-79661000D01*
X130411243Y-79661000D01*
X130649069Y-79613693D01*
X130873097Y-79520898D01*
X131074717Y-79386180D01*
X131246180Y-79214717D01*
X131380898Y-79013097D01*
X131473693Y-78789069D01*
X131521000Y-78551243D01*
X131521000Y-78308757D01*
X131473693Y-78070931D01*
X131380898Y-77846903D01*
X131246180Y-77645283D01*
X131074717Y-77473820D01*
X130873097Y-77339102D01*
X130649069Y-77246307D01*
X130411243Y-77199000D01*
X130168757Y-77199000D01*
X129930931Y-77246307D01*
X129706903Y-77339102D01*
X129505283Y-77473820D01*
X129333820Y-77645283D01*
X129199102Y-77846903D01*
X129106307Y-78070931D01*
X129059000Y-78308757D01*
X128981000Y-78308757D01*
X128933693Y-78070931D01*
X128840898Y-77846903D01*
X128706180Y-77645283D01*
X128534717Y-77473820D01*
X128333097Y-77339102D01*
X128109069Y-77246307D01*
X127871243Y-77199000D01*
X127628757Y-77199000D01*
X127390931Y-77246307D01*
X127166903Y-77339102D01*
X126965283Y-77473820D01*
X126793820Y-77645283D01*
X126659102Y-77846903D01*
X126611772Y-77961168D01*
X126554157Y-77798748D01*
X126405178Y-77548645D01*
X126210269Y-77332412D01*
X125976920Y-77158359D01*
X125714099Y-77033175D01*
X125566890Y-76988524D01*
X125337000Y-77109845D01*
X125337000Y-78303000D01*
X125357000Y-78303000D01*
X125357000Y-78557000D01*
X125337000Y-78557000D01*
X125337000Y-78577000D01*
X125083000Y-78577000D01*
X125083000Y-78557000D01*
X125063000Y-78557000D01*
X125063000Y-78303000D01*
X125083000Y-78303000D01*
X125083000Y-77109845D01*
X124853110Y-76988524D01*
X124705901Y-77033175D01*
X124443080Y-77158359D01*
X124209731Y-77332412D01*
X124014822Y-77548645D01*
X123865843Y-77798748D01*
X123808228Y-77961168D01*
X123760898Y-77846903D01*
X123626180Y-77645283D01*
X123454717Y-77473820D01*
X123253097Y-77339102D01*
X123029069Y-77246307D01*
X122791243Y-77199000D01*
X122548757Y-77199000D01*
X122310931Y-77246307D01*
X122086903Y-77339102D01*
X121885283Y-77473820D01*
X121713820Y-77645283D01*
X121579102Y-77846903D01*
X121486307Y-78070931D01*
X121439000Y-78308757D01*
X121361000Y-78308757D01*
X121313693Y-78070931D01*
X121220898Y-77846903D01*
X121086180Y-77645283D01*
X120914717Y-77473820D01*
X120713097Y-77339102D01*
X120489069Y-77246307D01*
X120251243Y-77199000D01*
X120008757Y-77199000D01*
X119770931Y-77246307D01*
X119546903Y-77339102D01*
X119345283Y-77473820D01*
X119173820Y-77645283D01*
X119039102Y-77846903D01*
X118991772Y-77961168D01*
X118934157Y-77798748D01*
X118785178Y-77548645D01*
X118590269Y-77332412D01*
X118356920Y-77158359D01*
X118094099Y-77033175D01*
X117946890Y-76988524D01*
X117717000Y-77109845D01*
X117717000Y-78303000D01*
X117737000Y-78303000D01*
X117737000Y-78557000D01*
X117717000Y-78557000D01*
X117717000Y-78577000D01*
X117463000Y-78577000D01*
X117463000Y-78557000D01*
X117443000Y-78557000D01*
X117443000Y-78303000D01*
X117463000Y-78303000D01*
X117463000Y-77109845D01*
X117233110Y-76988524D01*
X117085901Y-77033175D01*
X116823080Y-77158359D01*
X116589731Y-77332412D01*
X116394822Y-77548645D01*
X116245843Y-77798748D01*
X116188228Y-77961168D01*
X116140898Y-77846903D01*
X116006180Y-77645283D01*
X115834717Y-77473820D01*
X115633097Y-77339102D01*
X115409069Y-77246307D01*
X115171243Y-77199000D01*
X114928757Y-77199000D01*
X114690931Y-77246307D01*
X114466903Y-77339102D01*
X114265283Y-77473820D01*
X114093820Y-77645283D01*
X113959102Y-77846903D01*
X113866307Y-78070931D01*
X113819000Y-78308757D01*
X113741000Y-78308757D01*
X113693693Y-78070931D01*
X113600898Y-77846903D01*
X113466180Y-77645283D01*
X113294717Y-77473820D01*
X113093097Y-77339102D01*
X112869069Y-77246307D01*
X112631243Y-77199000D01*
X112388757Y-77199000D01*
X112150931Y-77246307D01*
X111926903Y-77339102D01*
X111725283Y-77473820D01*
X111553820Y-77645283D01*
X111419102Y-77846903D01*
X111326307Y-78070931D01*
X111279000Y-78308757D01*
X111279000Y-78551243D01*
X111326307Y-78789069D01*
X111419102Y-79013097D01*
X111553820Y-79214717D01*
X111725283Y-79386180D01*
X111926903Y-79520898D01*
X112033154Y-79564909D01*
X112005901Y-79573175D01*
X111743080Y-79698359D01*
X111509731Y-79872412D01*
X111314822Y-80088645D01*
X111165843Y-80338748D01*
X111108228Y-80501168D01*
X111060898Y-80386903D01*
X110926180Y-80185283D01*
X110754717Y-80013820D01*
X110553097Y-79879102D01*
X110329069Y-79786307D01*
X110091243Y-79739000D01*
X109848757Y-79739000D01*
X109610931Y-79786307D01*
X109386903Y-79879102D01*
X109185283Y-80013820D01*
X109013820Y-80185283D01*
X108879102Y-80386903D01*
X108786307Y-80610931D01*
X108739000Y-80848757D01*
X108661000Y-80848757D01*
X108613693Y-80610931D01*
X108520898Y-80386903D01*
X108386180Y-80185283D01*
X108214717Y-80013820D01*
X108013097Y-79879102D01*
X107906846Y-79835091D01*
X107934099Y-79826825D01*
X108196920Y-79701641D01*
X108430269Y-79527588D01*
X108625178Y-79311355D01*
X108774157Y-79061252D01*
X108831772Y-78898832D01*
X108879102Y-79013097D01*
X109013820Y-79214717D01*
X109185283Y-79386180D01*
X109386903Y-79520898D01*
X109610931Y-79613693D01*
X109848757Y-79661000D01*
X110091243Y-79661000D01*
X110329069Y-79613693D01*
X110553097Y-79520898D01*
X110754717Y-79386180D01*
X110926180Y-79214717D01*
X111060898Y-79013097D01*
X111153693Y-78789069D01*
X111201000Y-78551243D01*
X111201000Y-78308757D01*
X111153693Y-78070931D01*
X111060898Y-77846903D01*
X110926180Y-77645283D01*
X110754717Y-77473820D01*
X110553097Y-77339102D01*
X110329069Y-77246307D01*
X110091243Y-77199000D01*
X109848757Y-77199000D01*
X109610931Y-77246307D01*
X109386903Y-77339102D01*
X109185283Y-77473820D01*
X109013820Y-77645283D01*
X108879102Y-77846903D01*
X108831772Y-77961168D01*
X108774157Y-77798748D01*
X108625178Y-77548645D01*
X108430269Y-77332412D01*
X108196920Y-77158359D01*
X107934099Y-77033175D01*
X107786890Y-76988524D01*
X107557000Y-77109845D01*
X107557000Y-78303000D01*
X107577000Y-78303000D01*
X107577000Y-78557000D01*
X107557000Y-78557000D01*
X107557000Y-78577000D01*
X107303000Y-78577000D01*
X107303000Y-78557000D01*
X107283000Y-78557000D01*
X107283000Y-78303000D01*
X107303000Y-78303000D01*
X107303000Y-77109845D01*
X107073110Y-76988524D01*
X106925901Y-77033175D01*
X106663080Y-77158359D01*
X106429731Y-77332412D01*
X106234822Y-77548645D01*
X106085843Y-77798748D01*
X106028228Y-77961168D01*
X105980898Y-77846903D01*
X105846180Y-77645283D01*
X105674717Y-77473820D01*
X105473097Y-77339102D01*
X105249069Y-77246307D01*
X105011243Y-77199000D01*
X104768757Y-77199000D01*
X104530931Y-77246307D01*
X104306903Y-77339102D01*
X104105283Y-77473820D01*
X103933820Y-77645283D01*
X103799102Y-77846903D01*
X103706307Y-78070931D01*
X103659000Y-78308757D01*
X103659000Y-78551243D01*
X103706307Y-78789069D01*
X103799102Y-79013097D01*
X103933820Y-79214717D01*
X104042852Y-79323749D01*
X104022473Y-79340473D01*
X104006629Y-79359779D01*
X103491630Y-79874779D01*
X103470711Y-79849289D01*
X103412696Y-79801678D01*
X103346508Y-79766299D01*
X103274689Y-79744513D01*
X103200000Y-79737157D01*
X101500000Y-79737157D01*
X101425311Y-79744513D01*
X101353492Y-79766299D01*
X101287304Y-79801678D01*
X101229289Y-79849289D01*
X101181678Y-79907304D01*
X101146299Y-79973492D01*
X101124513Y-80045311D01*
X101117157Y-80120000D01*
X101117157Y-81381185D01*
X99927356Y-82570987D01*
X99905184Y-82589183D01*
X99847612Y-82659335D01*
X99832579Y-82677653D01*
X99778629Y-82778586D01*
X99745407Y-82888105D01*
X99734189Y-83002000D01*
X97981365Y-83002000D01*
X98129293Y-82987634D01*
X98758203Y-82797792D01*
X99337992Y-82488904D01*
X99345589Y-82483828D01*
X99645769Y-82045374D01*
X97480000Y-79879605D01*
X95314231Y-82045374D01*
X94386000Y-82045374D01*
X94386000Y-80985321D01*
X94691096Y-81557992D01*
X94696172Y-81565589D01*
X95134626Y-81865769D01*
X97300395Y-79700000D01*
X97659605Y-79700000D01*
X99825374Y-81865769D01*
X100263828Y-81565589D01*
X100574296Y-80986644D01*
X100765852Y-80358254D01*
X100831134Y-79704569D01*
X100767634Y-79050707D01*
X100577792Y-78421797D01*
X100517569Y-78308757D01*
X101119000Y-78308757D01*
X101119000Y-78551243D01*
X101166307Y-78789069D01*
X101259102Y-79013097D01*
X101393820Y-79214717D01*
X101565283Y-79386180D01*
X101766903Y-79520898D01*
X101990931Y-79613693D01*
X102228757Y-79661000D01*
X102471243Y-79661000D01*
X102709069Y-79613693D01*
X102933097Y-79520898D01*
X103134717Y-79386180D01*
X103306180Y-79214717D01*
X103440898Y-79013097D01*
X103533693Y-78789069D01*
X103581000Y-78551243D01*
X103581000Y-78308757D01*
X103533693Y-78070931D01*
X103440898Y-77846903D01*
X103306180Y-77645283D01*
X103134717Y-77473820D01*
X102933097Y-77339102D01*
X102709069Y-77246307D01*
X102471243Y-77199000D01*
X102228757Y-77199000D01*
X101990931Y-77246307D01*
X101766903Y-77339102D01*
X101565283Y-77473820D01*
X101393820Y-77645283D01*
X101259102Y-77846903D01*
X101166307Y-78070931D01*
X101119000Y-78308757D01*
X100517569Y-78308757D01*
X100268904Y-77842008D01*
X100263828Y-77834411D01*
X99825374Y-77534231D01*
X97659605Y-79700000D01*
X97300395Y-79700000D01*
X97286253Y-79685858D01*
X97465858Y-79506253D01*
X97480000Y-79520395D01*
X99645769Y-77354626D01*
X99345589Y-76916172D01*
X98767196Y-76606000D01*
X154194679Y-76606000D01*
X153622008Y-76911096D01*
G36*
X129107176Y-107278833D02*
G01*
X129106307Y-107280931D01*
X129059000Y-107518757D01*
X129059000Y-107761243D01*
X129106307Y-107999069D01*
X129199102Y-108223097D01*
X129319977Y-108404000D01*
X124149592Y-108404000D01*
X123821758Y-108076167D01*
X123853693Y-107999069D01*
X123901000Y-107761243D01*
X123901000Y-107518757D01*
X123853693Y-107280931D01*
X123760898Y-107056903D01*
X123690136Y-106951000D01*
X128779343Y-106951000D01*
X129107176Y-107278833D01*
G37*
X129107176Y-107278833D02*
X129106307Y-107280931D01*
X129059000Y-107518757D01*
X129059000Y-107761243D01*
X129106307Y-107999069D01*
X129199102Y-108223097D01*
X129319977Y-108404000D01*
X124149592Y-108404000D01*
X123821758Y-108076167D01*
X123853693Y-107999069D01*
X123901000Y-107761243D01*
X123901000Y-107518757D01*
X123853693Y-107280931D01*
X123760898Y-107056903D01*
X123690136Y-106951000D01*
X128779343Y-106951000D01*
X129107176Y-107278833D01*
G36*
X121579102Y-104516903D02*
G01*
X121486307Y-104740931D01*
X121439000Y-104978757D01*
X121439000Y-105221243D01*
X121486307Y-105459069D01*
X121579102Y-105683097D01*
X121649864Y-105789000D01*
X103648536Y-105789000D01*
X103619999Y-105786189D01*
X103591462Y-105789000D01*
X103591460Y-105789000D01*
X103506104Y-105797407D01*
X103396585Y-105830629D01*
X103312173Y-105875749D01*
X103440898Y-105683097D01*
X103533693Y-105459069D01*
X103581000Y-105221243D01*
X103581000Y-104978757D01*
X103533693Y-104740931D01*
X103501758Y-104663833D01*
X103829592Y-104336000D01*
X121699977Y-104336000D01*
X121579102Y-104516903D01*
G37*
X121579102Y-104516903D02*
X121486307Y-104740931D01*
X121439000Y-104978757D01*
X121439000Y-105221243D01*
X121486307Y-105459069D01*
X121579102Y-105683097D01*
X121649864Y-105789000D01*
X103648536Y-105789000D01*
X103619999Y-105786189D01*
X103591462Y-105789000D01*
X103591460Y-105789000D01*
X103506104Y-105797407D01*
X103396585Y-105830629D01*
X103312173Y-105875749D01*
X103440898Y-105683097D01*
X103533693Y-105459069D01*
X103581000Y-105221243D01*
X103581000Y-104978757D01*
X103533693Y-104740931D01*
X103501758Y-104663833D01*
X103829592Y-104336000D01*
X121699977Y-104336000D01*
X121579102Y-104516903D01*
G36*
X129138242Y-104663833D02*
G01*
X129106307Y-104740931D01*
X129059000Y-104978757D01*
X129059000Y-105221243D01*
X129082421Y-105338989D01*
X123877579Y-105338989D01*
X123901000Y-105221243D01*
X123901000Y-104978757D01*
X123853693Y-104740931D01*
X123760898Y-104516903D01*
X123640023Y-104336000D01*
X128810409Y-104336000D01*
X129138242Y-104663833D01*
G37*
X129138242Y-104663833D02*
X129106307Y-104740931D01*
X129059000Y-104978757D01*
X129059000Y-105221243D01*
X129082421Y-105338989D01*
X123877579Y-105338989D01*
X123901000Y-105221243D01*
X123901000Y-104978757D01*
X123853693Y-104740931D01*
X123760898Y-104516903D01*
X123640023Y-104336000D01*
X128810409Y-104336000D01*
X129138242Y-104663833D01*
G36*
X129138242Y-102123833D02*
G01*
X129106307Y-102200931D01*
X129059000Y-102438757D01*
X129059000Y-102681243D01*
X129097340Y-102873989D01*
X123862660Y-102873989D01*
X123901000Y-102681243D01*
X123901000Y-102438757D01*
X123853693Y-102200931D01*
X123760898Y-101976903D01*
X123640023Y-101796000D01*
X128810409Y-101796000D01*
X129138242Y-102123833D01*
G37*
X129138242Y-102123833D02*
X129106307Y-102200931D01*
X129059000Y-102438757D01*
X129059000Y-102681243D01*
X129097340Y-102873989D01*
X123862660Y-102873989D01*
X123901000Y-102681243D01*
X123901000Y-102438757D01*
X123853693Y-102200931D01*
X123760898Y-101976903D01*
X123640023Y-101796000D01*
X128810409Y-101796000D01*
X129138242Y-102123833D01*
G36*
X129138242Y-99583833D02*
G01*
X129106307Y-99660931D01*
X129059000Y-99898757D01*
X129059000Y-100141243D01*
X129097340Y-100333989D01*
X123862660Y-100333989D01*
X123901000Y-100141243D01*
X123901000Y-99898757D01*
X123853693Y-99660931D01*
X123760898Y-99436903D01*
X123640023Y-99256000D01*
X128810409Y-99256000D01*
X129138242Y-99583833D01*
G37*
X129138242Y-99583833D02*
X129106307Y-99660931D01*
X129059000Y-99898757D01*
X129059000Y-100141243D01*
X129097340Y-100333989D01*
X123862660Y-100333989D01*
X123901000Y-100141243D01*
X123901000Y-99898757D01*
X123853693Y-99660931D01*
X123760898Y-99436903D01*
X123640023Y-99256000D01*
X128810409Y-99256000D01*
X129138242Y-99583833D01*
G36*
X129138242Y-97043833D02*
G01*
X129106307Y-97120931D01*
X129059000Y-97358757D01*
X129059000Y-97601243D01*
X129097340Y-97793989D01*
X123862660Y-97793989D01*
X123901000Y-97601243D01*
X123901000Y-97358757D01*
X123853693Y-97120931D01*
X123760898Y-96896903D01*
X123640023Y-96716000D01*
X128810409Y-96716000D01*
X129138242Y-97043833D01*
G37*
X129138242Y-97043833D02*
X129106307Y-97120931D01*
X129059000Y-97358757D01*
X129059000Y-97601243D01*
X129097340Y-97793989D01*
X123862660Y-97793989D01*
X123901000Y-97601243D01*
X123901000Y-97358757D01*
X123853693Y-97120931D01*
X123760898Y-96896903D01*
X123640023Y-96716000D01*
X128810409Y-96716000D01*
X129138242Y-97043833D01*
G36*
X129138242Y-94503833D02*
G01*
X129106307Y-94580931D01*
X129059000Y-94818757D01*
X129059000Y-95061243D01*
X129097340Y-95253989D01*
X123862660Y-95253989D01*
X123901000Y-95061243D01*
X123901000Y-94818757D01*
X123853693Y-94580931D01*
X123760898Y-94356903D01*
X123640023Y-94176000D01*
X128810409Y-94176000D01*
X129138242Y-94503833D01*
G37*
X129138242Y-94503833D02*
X129106307Y-94580931D01*
X129059000Y-94818757D01*
X129059000Y-95061243D01*
X129097340Y-95253989D01*
X123862660Y-95253989D01*
X123901000Y-95061243D01*
X123901000Y-94818757D01*
X123853693Y-94580931D01*
X123760898Y-94356903D01*
X123640023Y-94176000D01*
X128810409Y-94176000D01*
X129138242Y-94503833D01*
G36*
X129138242Y-91963833D02*
G01*
X129106307Y-92040931D01*
X129059000Y-92278757D01*
X129059000Y-92521243D01*
X129097340Y-92713989D01*
X123862660Y-92713989D01*
X123901000Y-92521243D01*
X123901000Y-92278757D01*
X123853693Y-92040931D01*
X123760898Y-91816903D01*
X123640023Y-91636000D01*
X128810409Y-91636000D01*
X129138242Y-91963833D01*
G37*
X129138242Y-91963833D02*
X129106307Y-92040931D01*
X129059000Y-92278757D01*
X129059000Y-92521243D01*
X129097340Y-92713989D01*
X123862660Y-92713989D01*
X123901000Y-92521243D01*
X123901000Y-92278757D01*
X123853693Y-92040931D01*
X123760898Y-91816903D01*
X123640023Y-91636000D01*
X128810409Y-91636000D01*
X129138242Y-91963833D01*
G36*
X129138242Y-89423833D02*
G01*
X129106307Y-89500931D01*
X129059000Y-89738757D01*
X129059000Y-89981243D01*
X129097340Y-90173989D01*
X123862660Y-90173989D01*
X123901000Y-89981243D01*
X123901000Y-89738757D01*
X123853693Y-89500931D01*
X123760898Y-89276903D01*
X123640023Y-89096000D01*
X128810409Y-89096000D01*
X129138242Y-89423833D01*
G37*
X129138242Y-89423833D02*
X129106307Y-89500931D01*
X129059000Y-89738757D01*
X129059000Y-89981243D01*
X129097340Y-90173989D01*
X123862660Y-90173989D01*
X123901000Y-89981243D01*
X123901000Y-89738757D01*
X123853693Y-89500931D01*
X123760898Y-89276903D01*
X123640023Y-89096000D01*
X128810409Y-89096000D01*
X129138242Y-89423833D01*
G36*
X129138242Y-86883833D02*
G01*
X129106307Y-86960931D01*
X129059000Y-87198757D01*
X129059000Y-87441243D01*
X129085805Y-87576000D01*
X123874195Y-87576000D01*
X123901000Y-87441243D01*
X123901000Y-87198757D01*
X123853693Y-86960931D01*
X123760898Y-86736903D01*
X123640023Y-86556000D01*
X128810409Y-86556000D01*
X129138242Y-86883833D01*
G37*
X129138242Y-86883833D02*
X129106307Y-86960931D01*
X129059000Y-87198757D01*
X129059000Y-87441243D01*
X129085805Y-87576000D01*
X123874195Y-87576000D01*
X123901000Y-87441243D01*
X123901000Y-87198757D01*
X123853693Y-86960931D01*
X123760898Y-86736903D01*
X123640023Y-86556000D01*
X128810409Y-86556000D01*
X129138242Y-86883833D01*
%TD*%
M02*
